<?xml version="1.0" encoding="utf-8" standalone="no"?>
<!DOCTYPE svg PUBLIC "-//W3C//DTD SVG 1.1//EN"
  "http://www.w3.org/Graphics/SVG/1.1/DTD/svg11.dtd">
<svg height="325.986375pt" version="1.1" viewBox="0 0 870.904062 325.986375" width="870.904062pt" xmlns="http://www.w3.org/2000/svg" xmlns:xlink="http://www.w3.org/1999/xlink">
 <metadata>
  <rdf:RDF xmlns:cc="http://creativecommons.org/ns#" xmlns:dc="http://purl.org/dc/elements/1.1/" xmlns:rdf="http://www.w3.org/1999/02/22-rdf-syntax-ns#">
   <cc:Work>
    <dc:type rdf:resource="http://purl.org/dc/dcmitype/StillImage"/>
    <dc:date>2021-12-06T07:25:56.277294</dc:date>
    <dc:format>image/svg+xml</dc:format>
    <dc:creator>
     <cc:Agent>
      <dc:title>Matplotlib v3.4.1, https://matplotlib.org/</dc:title>
     </cc:Agent>
    </dc:creator>
   </cc:Work>
  </rdf:RDF>
 </metadata>
 <defs>
  <style type="text/css">*{stroke-linecap:butt;stroke-linejoin:round;}</style>
 </defs>
 <g id="figure_1">
  <g id="patch_1">
   <path d="M 0 325.986375 
L 870.904062 325.986375 
L 870.904062 0 
L 0 0 
z
" style="fill:#ffffff;"/>
  </g>
  <g id="axes_1">
   <g id="patch_2">
    <path d="M 59.690625 288.430125 
L 773.930625 288.430125 
L 773.930625 22.318125 
L 59.690625 22.318125 
z
" style="fill:#ffffff;"/>
   </g>
   <g id="PolyCollection_1">
    <defs>
     <path d="M 92.15608 -123.708211 
L 92.15608 -49.65225 
L 105.971167 -55.241926 
L 119.786254 -67.087404 
L 133.601341 -76.326298 
L 147.416428 -87.679421 
L 161.231515 -92.226463 
L 175.046602 -94.833047 
L 188.861689 -97.323784 
L 202.676776 -112.557822 
L 216.491863 -113.397721 
L 230.30695 -113.65838 
L 244.122037 -115.830533 
L 257.937124 -118.987397 
L 271.752211 -119.016359 
L 285.567298 -120.898892 
L 299.382385 -121.072664 
L 313.197472 -121.101626 
L 327.012559 -123.505476 
L 340.827646 -123.679249 
L 354.642733 -123.679249 
L 368.45782 -124.316414 
L 382.272907 -124.577072 
L 396.087994 -127.415353 
L 409.903081 -136.017082 
L 423.718169 -136.161892 
L 437.533256 -137.11764 
L 451.348343 -137.40726 
L 465.16343 -137.609995 
L 478.978517 -138.276122 
L 492.793604 -141.201289 
L 506.608691 -141.346099 
L 520.423778 -141.404023 
L 534.238865 -141.461947 
L 548.053952 -161.677458 
L 561.869039 -164.39989 
L 575.684126 -171.263896 
L 589.499213 -176.245369 
L 603.3143 -180.271094 
L 617.129387 -185.629073 
L 630.944474 -187.019251 
L 644.759561 -190.465735 
L 658.574648 -190.871204 
L 672.389735 -192.666851 
L 686.204822 -195.360321 
L 700.019909 -196.113335 
L 713.834996 -197.011158 
L 727.650083 -199.762553 
L 741.46517 -251.430849 
L 741.46517 -291.57225 
L 741.46517 -291.57225 
L 727.650083 -291.514326 
L 713.834996 -291.42744 
L 700.019909 -291.224705 
L 686.204822 -290.616502 
L 672.389735 -290.268958 
L 658.574648 -288.733969 
L 644.759561 -288.733969 
L 630.944474 -288.3285 
L 617.129387 -288.299538 
L 603.3143 -287.314829 
L 589.499213 -285.519182 
L 575.684126 -285.432295 
L 561.869039 -284.708244 
L 548.053952 -277.612542 
L 534.238865 -274.455679 
L 520.423778 -274.166058 
L 506.608691 -271.849094 
L 492.793604 -268.981851 
L 478.978517 -268.779117 
L 465.16343 -266.433191 
L 451.348343 -265.535367 
L 437.533256 -265.448481 
L 423.718169 -261.625491 
L 409.903081 -260.467009 
L 396.087994 -258.207969 
L 382.272907 -255.977891 
L 368.45782 -251.778394 
L 354.642733 -251.228115 
L 340.827646 -249.432468 
L 327.012559 -247.20239 
L 313.197472 -241.55479 
L 299.382385 -237.87661 
L 285.567298 -235.994077 
L 271.752211 -234.603899 
L 257.937124 -227.305462 
L 244.122037 -227.044804 
L 230.30695 -213.780185 
L 216.491863 -210.999828 
L 202.676776 -206.423824 
L 188.861689 -201.210655 
L 175.046602 -197.18493 
L 161.231515 -195.76579 
L 147.416428 -191.595255 
L 133.601341 -187.019251 
L 119.786254 -165.3846 
L 105.971167 -156.319479 
L 92.15608 -123.708211 
z
" id="m6b4dbdb660" style="stroke:#d62728;stroke-opacity:0.2;"/>
    </defs>
    <g clip-path="url(#p94214795fc)">
     <use style="fill:#d62728;fill-opacity:0.2;stroke:#d62728;stroke-opacity:0.2;" x="0" xlink:href="#m6b4dbdb660" y="325.986375"/>
    </g>
   </g>
   <g id="PolyCollection_2">
    <defs>
     <path d="M 92.15608 -94.31173 
L 92.15608 -90.430816 
L 105.971167 -105.114575 
L 119.786254 -124.69292 
L 133.601341 -140.593086 
L 147.416428 -143.894759 
L 161.231515 -148.84727 
L 175.046602 -156.89872 
L 188.861689 -160.490014 
L 202.676776 -169.989566 
L 216.491863 -176.274331 
L 230.30695 -176.274331 
L 244.122037 -182.674944 
L 257.937124 -183.398995 
L 271.752211 -183.398995 
L 285.567298 -183.398995 
L 299.382385 -183.572767 
L 313.197472 -188.98867 
L 327.012559 -189.741684 
L 340.827646 -190.234039 
L 354.642733 -191.624217 
L 368.45782 -192.579965 
L 382.272907 -192.927509 
L 396.087994 -192.927509 
L 409.903081 -192.956471 
L 423.718169 -193.390902 
L 437.533256 -193.390902 
L 451.348343 -193.564674 
L 465.16343 -193.564674 
L 478.978517 -193.941181 
L 492.793604 -194.114953 
L 506.608691 -194.63627 
L 520.423778 -194.665232 
L 534.238865 -195.76579 
L 548.053952 -195.76579 
L 561.869039 -195.794752 
L 575.684126 -195.794752 
L 589.499213 -195.852676 
L 603.3143 -195.852676 
L 617.129387 -195.881638 
L 630.944474 -195.881638 
L 644.759561 -195.881638 
L 658.574648 -195.881638 
L 672.389735 -195.881638 
L 686.204822 -199.530856 
L 700.019909 -199.617743 
L 713.834996 -202.600834 
L 727.650083 -202.629796 
L 741.46517 -202.629796 
L 741.46517 -237.123597 
L 741.46517 -237.123597 
L 727.650083 -237.123597 
L 713.834996 -237.007749 
L 700.019909 -236.60228 
L 686.204822 -236.60228 
L 672.389735 -236.60228 
L 658.574648 -233.300606 
L 644.759561 -233.300606 
L 630.944474 -233.155796 
L 617.129387 -233.155796 
L 603.3143 -233.155796 
L 589.499213 -232.431745 
L 575.684126 -232.431745 
L 561.869039 -232.373821 
L 548.053952 -232.315897 
L 534.238865 -232.315897 
L 520.423778 -232.286935 
L 506.608691 -232.257972 
L 492.793604 -232.257972 
L 478.978517 -232.257972 
L 465.16343 -231.591845 
L 451.348343 -231.012604 
L 437.533256 -216.039225 
L 423.718169 -215.83649 
L 409.903081 -215.83649 
L 396.087994 -215.83649 
L 382.272907 -215.69168 
L 368.45782 -215.54687 
L 354.642733 -215.170363 
L 340.827646 -214.735933 
L 327.012559 -214.735933 
L 313.197472 -214.127729 
L 299.382385 -213.953957 
L 285.567298 -213.027172 
L 271.752211 -213.027172 
L 257.937124 -211.347373 
L 244.122037 -206.279014 
L 230.30695 -183.138336 
L 216.491863 -180.850335 
L 202.676776 -179.836663 
L 188.861689 -173.986329 
L 175.046602 -170.626731 
L 161.231515 -165.905917 
L 147.416428 -158.781253 
L 133.601341 -158.781253 
L 119.786254 -150.961499 
L 105.971167 -122.462843 
L 92.15608 -94.31173 
z
" id="me9ffeae2ab" style="stroke:#c7c7c7;stroke-opacity:0.2;"/>
    </defs>
    <g clip-path="url(#p94214795fc)">
     <use style="fill:#c7c7c7;fill-opacity:0.2;stroke:#c7c7c7;stroke-opacity:0.2;" x="0" xlink:href="#me9ffeae2ab" y="325.986375"/>
    </g>
   </g>
   <g id="PolyCollection_3">
    <defs>
     <path d="M 92.15608 -98.337455 
L 92.15608 -90.749398 
L 105.971167 -111.978581 
L 119.786254 -126.141023 
L 133.601341 -134.047662 
L 147.416428 -140.593086 
L 161.231515 -143.431366 
L 175.046602 -151.482816 
L 188.861689 -154.292135 
L 202.676776 -155.421655 
L 216.491863 -155.798162 
L 230.30695 -155.885048 
L 244.122037 -172.972657 
L 257.937124 -173.378126 
L 271.752211 -175.492355 
L 285.567298 -175.550279 
L 299.382385 -175.781976 
L 313.197472 -176.853572 
L 327.012559 -176.853572 
L 340.827646 -177.288002 
L 354.642733 -177.635547 
L 368.45782 -177.693471 
L 382.272907 -177.867243 
L 396.087994 -177.867243 
L 409.903081 -178.446484 
L 423.718169 -178.533371 
L 437.533256 -178.707143 
L 451.348343 -178.707143 
L 465.16343 -178.765067 
L 478.978517 -178.765067 
L 492.793604 -178.851953 
L 506.608691 -178.851953 
L 520.423778 -178.851953 
L 534.238865 -187.106137 
L 548.053952 -192.753737 
L 561.869039 -192.782699 
L 575.684126 -196.345031 
L 589.499213 -196.345031 
L 603.3143 -196.431917 
L 617.129387 -196.518803 
L 630.944474 -196.518803 
L 644.759561 -196.518803 
L 658.574648 -196.518803 
L 672.389735 -196.518803 
L 686.204822 -196.518803 
L 700.019909 -196.518803 
L 713.834996 -196.7505 
L 727.650083 -196.7505 
L 741.46517 -196.7505 
L 741.46517 -204.309595 
L 741.46517 -204.309595 
L 727.650083 -204.309595 
L 713.834996 -204.309595 
L 700.019909 -204.280633 
L 686.204822 -204.280633 
L 672.389735 -203.846202 
L 658.574648 -203.81724 
L 644.759561 -203.788278 
L 630.944474 -203.382809 
L 617.129387 -203.324885 
L 603.3143 -203.324885 
L 589.499213 -200.225946 
L 575.684126 -197.851058 
L 561.869039 -197.851058 
L 548.053952 -197.851058 
L 534.238865 -197.127006 
L 520.423778 -197.127006 
L 506.608691 -196.982196 
L 492.793604 -196.866348 
L 478.978517 -196.866348 
L 465.16343 -196.489841 
L 451.348343 -196.431917 
L 437.533256 -196.316069 
L 423.718169 -196.229183 
L 409.903081 -196.055411 
L 396.087994 -194.810042 
L 382.272907 -186.526896 
L 368.45782 -186.526896 
L 354.642733 -186.353124 
L 340.827646 -177.635547 
L 327.012559 -177.635547 
L 313.197472 -177.172154 
L 299.382385 -177.143192 
L 285.567298 -177.143192 
L 271.752211 -176.419141 
L 257.937124 -173.957367 
L 244.122037 -173.117467 
L 230.30695 -173.117467 
L 216.491863 -163.936498 
L 202.676776 -163.415181 
L 188.861689 -163.241408 
L 175.046602 -161.590572 
L 161.231515 -155.450617 
L 147.416428 -154.379021 
L 133.601341 -150.700841 
L 119.786254 -145.545596 
L 105.971167 -131.527964 
L 92.15608 -98.337455 
z
" id="m86ebadc619" style="stroke:#1f77b4;stroke-opacity:0.2;"/>
    </defs>
    <g clip-path="url(#p94214795fc)">
     <use style="fill:#1f77b4;fill-opacity:0.2;stroke:#1f77b4;stroke-opacity:0.2;" x="0" xlink:href="#m86ebadc619" y="325.986375"/>
    </g>
   </g>
   <g id="PolyCollection_4">
    <defs>
     <path d="M 92.15608 -83.306152 
L 92.15608 -71.98199 
L 105.971167 -89.446106 
L 119.786254 -100.422723 
L 133.601341 -125.82244 
L 147.416428 -135.264069 
L 161.231515 -138.68159 
L 175.046602 -140.882706 
L 188.861689 -140.882706 
L 202.676776 -140.882706 
L 216.491863 -143.836835 
L 230.30695 -144.937393 
L 244.122037 -151.917247 
L 257.937124 -152.699222 
L 271.752211 -154.205249 
L 285.567298 -154.205249 
L 299.382385 -155.07411 
L 313.197472 -155.624389 
L 327.012559 -155.624389 
L 340.827646 -156.985606 
L 354.642733 -156.985606 
L 368.45782 -158.491632 
L 382.272907 -158.60748 
L 396.087994 -158.723329 
L 409.903081 -159.012949 
L 423.718169 -159.012949 
L 437.533256 -159.012949 
L 451.348343 -163.646877 
L 465.16343 -163.646877 
L 478.978517 -163.849611 
L 492.793604 -164.341966 
L 506.608691 -164.370928 
L 520.423778 -164.921207 
L 534.238865 -165.123942 
L 548.053952 -165.500448 
L 561.869039 -165.992803 
L 575.684126 -166.050727 
L 589.499213 -167.817412 
L 603.3143 -167.93326 
L 617.129387 -167.962222 
L 630.944474 -167.962222 
L 644.759561 -167.962222 
L 658.574648 -167.962222 
L 672.389735 -167.962222 
L 686.204822 -167.991185 
L 700.019909 -167.991185 
L 713.834996 -168.222881 
L 727.650083 -168.222881 
L 741.46517 -171.061162 
L 741.46517 -174.304911 
L 741.46517 -174.304911 
L 727.650083 -173.117467 
L 713.834996 -173.059543 
L 700.019909 -171.408706 
L 686.204822 -171.379744 
L 672.389735 -171.205972 
L 658.574648 -170.887389 
L 644.759561 -170.858427 
L 630.944474 -170.800503 
L 617.129387 -170.423997 
L 603.3143 -170.423997 
L 589.499213 -168.62835 
L 575.684126 -168.62835 
L 561.869039 -168.599388 
L 548.053952 -168.599388 
L 534.238865 -168.483539 
L 520.423778 -168.425615 
L 506.608691 -168.396653 
L 492.793604 -167.672602 
L 478.978517 -167.672602 
L 465.16343 -167.49883 
L 451.348343 -167.469868 
L 437.533256 -166.716854 
L 423.718169 -165.847993 
L 409.903081 -165.732145 
L 396.087994 -165.09498 
L 382.272907 -164.921207 
L 368.45782 -164.863283 
L 354.642733 -164.370928 
L 340.827646 -164.168194 
L 327.012559 -163.733763 
L 313.197472 -163.357257 
L 299.382385 -163.328295 
L 285.567298 -162.83594 
L 271.752211 -162.749054 
L 257.937124 -162.662167 
L 244.122037 -162.575281 
L 230.30695 -158.694367 
L 216.491863 -157.448998 
L 202.676776 -156.116744 
L 188.861689 -154.900338 
L 175.046602 -149.716131 
L 161.231515 -147.891522 
L 147.416428 -146.008989 
L 133.601341 -139.897996 
L 119.786254 -133.352573 
L 105.971167 -94.282768 
L 92.15608 -83.306152 
z
" id="m0bf9c4ea58" style="stroke:#98df8a;stroke-opacity:0.2;"/>
    </defs>
    <g clip-path="url(#p94214795fc)">
     <use style="fill:#98df8a;fill-opacity:0.2;stroke:#98df8a;stroke-opacity:0.2;" x="0" xlink:href="#m0bf9c4ea58" y="325.986375"/>
    </g>
   </g>
   <g id="matplotlib.axis_1">
    <g id="xtick_1">
     <g id="line2d_1">
      <defs>
       <path d="M 0 0 
L 0 3.5 
" id="m109b9d4a34" style="stroke:#000000;stroke-width:0.8;"/>
      </defs>
      <g>
       <use style="stroke:#000000;stroke-width:0.8;" x="92.15608" xlink:href="#m109b9d4a34" y="288.430125"/>
      </g>
     </g>
     <g id="text_1">
      <!-- 15m -->
      <g transform="translate(80.923267 303.028562)scale(0.1 -0.1)">
       <defs>
        <path d="M 794 531 
L 1825 531 
L 1825 4091 
L 703 3866 
L 703 4441 
L 1819 4666 
L 2450 4666 
L 2450 531 
L 3481 531 
L 3481 0 
L 794 0 
L 794 531 
z
" id="DejaVuSans-31" transform="scale(0.015625)"/>
        <path d="M 691 4666 
L 3169 4666 
L 3169 4134 
L 1269 4134 
L 1269 2991 
Q 1406 3038 1543 3061 
Q 1681 3084 1819 3084 
Q 2600 3084 3056 2656 
Q 3513 2228 3513 1497 
Q 3513 744 3044 326 
Q 2575 -91 1722 -91 
Q 1428 -91 1123 -41 
Q 819 9 494 109 
L 494 744 
Q 775 591 1075 516 
Q 1375 441 1709 441 
Q 2250 441 2565 725 
Q 2881 1009 2881 1497 
Q 2881 1984 2565 2268 
Q 2250 2553 1709 2553 
Q 1456 2553 1204 2497 
Q 953 2441 691 2322 
L 691 4666 
z
" id="DejaVuSans-35" transform="scale(0.015625)"/>
        <path d="M 3328 2828 
Q 3544 3216 3844 3400 
Q 4144 3584 4550 3584 
Q 5097 3584 5394 3201 
Q 5691 2819 5691 2113 
L 5691 0 
L 5113 0 
L 5113 2094 
Q 5113 2597 4934 2840 
Q 4756 3084 4391 3084 
Q 3944 3084 3684 2787 
Q 3425 2491 3425 1978 
L 3425 0 
L 2847 0 
L 2847 2094 
Q 2847 2600 2669 2842 
Q 2491 3084 2119 3084 
Q 1678 3084 1418 2786 
Q 1159 2488 1159 1978 
L 1159 0 
L 581 0 
L 581 3500 
L 1159 3500 
L 1159 2956 
Q 1356 3278 1631 3431 
Q 1906 3584 2284 3584 
Q 2666 3584 2933 3390 
Q 3200 3197 3328 2828 
z
" id="DejaVuSans-6d" transform="scale(0.015625)"/>
       </defs>
       <use xlink:href="#DejaVuSans-31"/>
       <use x="63.623047" xlink:href="#DejaVuSans-35"/>
       <use x="127.246094" xlink:href="#DejaVuSans-6d"/>
      </g>
     </g>
    </g>
    <g id="xtick_2">
     <g id="line2d_2">
      <g>
       <use style="stroke:#000000;stroke-width:0.8;" x="147.416428" xlink:href="#m109b9d4a34" y="288.430125"/>
      </g>
     </g>
     <g id="text_2">
      <!-- 1h:15m -->
      <g transform="translate(128.14924 303.028562)scale(0.1 -0.1)">
       <defs>
        <path d="M 3513 2113 
L 3513 0 
L 2938 0 
L 2938 2094 
Q 2938 2591 2744 2837 
Q 2550 3084 2163 3084 
Q 1697 3084 1428 2787 
Q 1159 2491 1159 1978 
L 1159 0 
L 581 0 
L 581 4863 
L 1159 4863 
L 1159 2956 
Q 1366 3272 1645 3428 
Q 1925 3584 2291 3584 
Q 2894 3584 3203 3211 
Q 3513 2838 3513 2113 
z
" id="DejaVuSans-68" transform="scale(0.015625)"/>
        <path d="M 750 794 
L 1409 794 
L 1409 0 
L 750 0 
L 750 794 
z
M 750 3309 
L 1409 3309 
L 1409 2516 
L 750 2516 
L 750 3309 
z
" id="DejaVuSans-3a" transform="scale(0.015625)"/>
       </defs>
       <use xlink:href="#DejaVuSans-31"/>
       <use x="63.623047" xlink:href="#DejaVuSans-68"/>
       <use x="127.001953" xlink:href="#DejaVuSans-3a"/>
       <use x="160.693359" xlink:href="#DejaVuSans-31"/>
       <use x="224.316406" xlink:href="#DejaVuSans-35"/>
       <use x="287.939453" xlink:href="#DejaVuSans-6d"/>
      </g>
     </g>
    </g>
    <g id="xtick_3">
     <g id="line2d_3">
      <g>
       <use style="stroke:#000000;stroke-width:0.8;" x="202.676776" xlink:href="#m109b9d4a34" y="288.430125"/>
      </g>
     </g>
     <g id="text_3">
      <!-- 2h:15m -->
      <g transform="translate(183.409588 303.028562)scale(0.1 -0.1)">
       <defs>
        <path d="M 1228 531 
L 3431 531 
L 3431 0 
L 469 0 
L 469 531 
Q 828 903 1448 1529 
Q 2069 2156 2228 2338 
Q 2531 2678 2651 2914 
Q 2772 3150 2772 3378 
Q 2772 3750 2511 3984 
Q 2250 4219 1831 4219 
Q 1534 4219 1204 4116 
Q 875 4013 500 3803 
L 500 4441 
Q 881 4594 1212 4672 
Q 1544 4750 1819 4750 
Q 2544 4750 2975 4387 
Q 3406 4025 3406 3419 
Q 3406 3131 3298 2873 
Q 3191 2616 2906 2266 
Q 2828 2175 2409 1742 
Q 1991 1309 1228 531 
z
" id="DejaVuSans-32" transform="scale(0.015625)"/>
       </defs>
       <use xlink:href="#DejaVuSans-32"/>
       <use x="63.623047" xlink:href="#DejaVuSans-68"/>
       <use x="127.001953" xlink:href="#DejaVuSans-3a"/>
       <use x="160.693359" xlink:href="#DejaVuSans-31"/>
       <use x="224.316406" xlink:href="#DejaVuSans-35"/>
       <use x="287.939453" xlink:href="#DejaVuSans-6d"/>
      </g>
     </g>
    </g>
    <g id="xtick_4">
     <g id="line2d_4">
      <g>
       <use style="stroke:#000000;stroke-width:0.8;" x="257.937124" xlink:href="#m109b9d4a34" y="288.430125"/>
      </g>
     </g>
     <g id="text_4">
      <!-- 3h:15m -->
      <g transform="translate(238.669937 303.028562)scale(0.1 -0.1)">
       <defs>
        <path d="M 2597 2516 
Q 3050 2419 3304 2112 
Q 3559 1806 3559 1356 
Q 3559 666 3084 287 
Q 2609 -91 1734 -91 
Q 1441 -91 1130 -33 
Q 819 25 488 141 
L 488 750 
Q 750 597 1062 519 
Q 1375 441 1716 441 
Q 2309 441 2620 675 
Q 2931 909 2931 1356 
Q 2931 1769 2642 2001 
Q 2353 2234 1838 2234 
L 1294 2234 
L 1294 2753 
L 1863 2753 
Q 2328 2753 2575 2939 
Q 2822 3125 2822 3475 
Q 2822 3834 2567 4026 
Q 2313 4219 1838 4219 
Q 1578 4219 1281 4162 
Q 984 4106 628 3988 
L 628 4550 
Q 988 4650 1302 4700 
Q 1616 4750 1894 4750 
Q 2613 4750 3031 4423 
Q 3450 4097 3450 3541 
Q 3450 3153 3228 2886 
Q 3006 2619 2597 2516 
z
" id="DejaVuSans-33" transform="scale(0.015625)"/>
       </defs>
       <use xlink:href="#DejaVuSans-33"/>
       <use x="63.623047" xlink:href="#DejaVuSans-68"/>
       <use x="127.001953" xlink:href="#DejaVuSans-3a"/>
       <use x="160.693359" xlink:href="#DejaVuSans-31"/>
       <use x="224.316406" xlink:href="#DejaVuSans-35"/>
       <use x="287.939453" xlink:href="#DejaVuSans-6d"/>
      </g>
     </g>
    </g>
    <g id="xtick_5">
     <g id="line2d_5">
      <g>
       <use style="stroke:#000000;stroke-width:0.8;" x="313.197472" xlink:href="#m109b9d4a34" y="288.430125"/>
      </g>
     </g>
     <g id="text_5">
      <!-- 4h:15m -->
      <g transform="translate(293.930285 303.028562)scale(0.1 -0.1)">
       <defs>
        <path d="M 2419 4116 
L 825 1625 
L 2419 1625 
L 2419 4116 
z
M 2253 4666 
L 3047 4666 
L 3047 1625 
L 3713 1625 
L 3713 1100 
L 3047 1100 
L 3047 0 
L 2419 0 
L 2419 1100 
L 313 1100 
L 313 1709 
L 2253 4666 
z
" id="DejaVuSans-34" transform="scale(0.015625)"/>
       </defs>
       <use xlink:href="#DejaVuSans-34"/>
       <use x="63.623047" xlink:href="#DejaVuSans-68"/>
       <use x="127.001953" xlink:href="#DejaVuSans-3a"/>
       <use x="160.693359" xlink:href="#DejaVuSans-31"/>
       <use x="224.316406" xlink:href="#DejaVuSans-35"/>
       <use x="287.939453" xlink:href="#DejaVuSans-6d"/>
      </g>
     </g>
    </g>
    <g id="xtick_6">
     <g id="line2d_6">
      <g>
       <use style="stroke:#000000;stroke-width:0.8;" x="368.45782" xlink:href="#m109b9d4a34" y="288.430125"/>
      </g>
     </g>
     <g id="text_6">
      <!-- 5h:15m -->
      <g transform="translate(349.190633 303.028562)scale(0.1 -0.1)">
       <use xlink:href="#DejaVuSans-35"/>
       <use x="63.623047" xlink:href="#DejaVuSans-68"/>
       <use x="127.001953" xlink:href="#DejaVuSans-3a"/>
       <use x="160.693359" xlink:href="#DejaVuSans-31"/>
       <use x="224.316406" xlink:href="#DejaVuSans-35"/>
       <use x="287.939453" xlink:href="#DejaVuSans-6d"/>
      </g>
     </g>
    </g>
    <g id="xtick_7">
     <g id="line2d_7">
      <g>
       <use style="stroke:#000000;stroke-width:0.8;" x="423.718169" xlink:href="#m109b9d4a34" y="288.430125"/>
      </g>
     </g>
     <g id="text_7">
      <!-- 6h:15m -->
      <g transform="translate(404.450981 303.028562)scale(0.1 -0.1)">
       <defs>
        <path d="M 2113 2584 
Q 1688 2584 1439 2293 
Q 1191 2003 1191 1497 
Q 1191 994 1439 701 
Q 1688 409 2113 409 
Q 2538 409 2786 701 
Q 3034 994 3034 1497 
Q 3034 2003 2786 2293 
Q 2538 2584 2113 2584 
z
M 3366 4563 
L 3366 3988 
Q 3128 4100 2886 4159 
Q 2644 4219 2406 4219 
Q 1781 4219 1451 3797 
Q 1122 3375 1075 2522 
Q 1259 2794 1537 2939 
Q 1816 3084 2150 3084 
Q 2853 3084 3261 2657 
Q 3669 2231 3669 1497 
Q 3669 778 3244 343 
Q 2819 -91 2113 -91 
Q 1303 -91 875 529 
Q 447 1150 447 2328 
Q 447 3434 972 4092 
Q 1497 4750 2381 4750 
Q 2619 4750 2861 4703 
Q 3103 4656 3366 4563 
z
" id="DejaVuSans-36" transform="scale(0.015625)"/>
       </defs>
       <use xlink:href="#DejaVuSans-36"/>
       <use x="63.623047" xlink:href="#DejaVuSans-68"/>
       <use x="127.001953" xlink:href="#DejaVuSans-3a"/>
       <use x="160.693359" xlink:href="#DejaVuSans-31"/>
       <use x="224.316406" xlink:href="#DejaVuSans-35"/>
       <use x="287.939453" xlink:href="#DejaVuSans-6d"/>
      </g>
     </g>
    </g>
    <g id="xtick_8">
     <g id="line2d_8">
      <g>
       <use style="stroke:#000000;stroke-width:0.8;" x="478.978517" xlink:href="#m109b9d4a34" y="288.430125"/>
      </g>
     </g>
     <g id="text_8">
      <!-- 7h:15m -->
      <g transform="translate(459.711329 303.028562)scale(0.1 -0.1)">
       <defs>
        <path d="M 525 4666 
L 3525 4666 
L 3525 4397 
L 1831 0 
L 1172 0 
L 2766 4134 
L 525 4134 
L 525 4666 
z
" id="DejaVuSans-37" transform="scale(0.015625)"/>
       </defs>
       <use xlink:href="#DejaVuSans-37"/>
       <use x="63.623047" xlink:href="#DejaVuSans-68"/>
       <use x="127.001953" xlink:href="#DejaVuSans-3a"/>
       <use x="160.693359" xlink:href="#DejaVuSans-31"/>
       <use x="224.316406" xlink:href="#DejaVuSans-35"/>
       <use x="287.939453" xlink:href="#DejaVuSans-6d"/>
      </g>
     </g>
    </g>
    <g id="xtick_9">
     <g id="line2d_9">
      <g>
       <use style="stroke:#000000;stroke-width:0.8;" x="534.238865" xlink:href="#m109b9d4a34" y="288.430125"/>
      </g>
     </g>
     <g id="text_9">
      <!-- 8h:15m -->
      <g transform="translate(514.971677 303.028562)scale(0.1 -0.1)">
       <defs>
        <path d="M 2034 2216 
Q 1584 2216 1326 1975 
Q 1069 1734 1069 1313 
Q 1069 891 1326 650 
Q 1584 409 2034 409 
Q 2484 409 2743 651 
Q 3003 894 3003 1313 
Q 3003 1734 2745 1975 
Q 2488 2216 2034 2216 
z
M 1403 2484 
Q 997 2584 770 2862 
Q 544 3141 544 3541 
Q 544 4100 942 4425 
Q 1341 4750 2034 4750 
Q 2731 4750 3128 4425 
Q 3525 4100 3525 3541 
Q 3525 3141 3298 2862 
Q 3072 2584 2669 2484 
Q 3125 2378 3379 2068 
Q 3634 1759 3634 1313 
Q 3634 634 3220 271 
Q 2806 -91 2034 -91 
Q 1263 -91 848 271 
Q 434 634 434 1313 
Q 434 1759 690 2068 
Q 947 2378 1403 2484 
z
M 1172 3481 
Q 1172 3119 1398 2916 
Q 1625 2713 2034 2713 
Q 2441 2713 2670 2916 
Q 2900 3119 2900 3481 
Q 2900 3844 2670 4047 
Q 2441 4250 2034 4250 
Q 1625 4250 1398 4047 
Q 1172 3844 1172 3481 
z
" id="DejaVuSans-38" transform="scale(0.015625)"/>
       </defs>
       <use xlink:href="#DejaVuSans-38"/>
       <use x="63.623047" xlink:href="#DejaVuSans-68"/>
       <use x="127.001953" xlink:href="#DejaVuSans-3a"/>
       <use x="160.693359" xlink:href="#DejaVuSans-31"/>
       <use x="224.316406" xlink:href="#DejaVuSans-35"/>
       <use x="287.939453" xlink:href="#DejaVuSans-6d"/>
      </g>
     </g>
    </g>
    <g id="xtick_10">
     <g id="line2d_10">
      <g>
       <use style="stroke:#000000;stroke-width:0.8;" x="589.499213" xlink:href="#m109b9d4a34" y="288.430125"/>
      </g>
     </g>
     <g id="text_10">
      <!-- 9h:15m -->
      <g transform="translate(570.232026 303.028562)scale(0.1 -0.1)">
       <defs>
        <path d="M 703 97 
L 703 672 
Q 941 559 1184 500 
Q 1428 441 1663 441 
Q 2288 441 2617 861 
Q 2947 1281 2994 2138 
Q 2813 1869 2534 1725 
Q 2256 1581 1919 1581 
Q 1219 1581 811 2004 
Q 403 2428 403 3163 
Q 403 3881 828 4315 
Q 1253 4750 1959 4750 
Q 2769 4750 3195 4129 
Q 3622 3509 3622 2328 
Q 3622 1225 3098 567 
Q 2575 -91 1691 -91 
Q 1453 -91 1209 -44 
Q 966 3 703 97 
z
M 1959 2075 
Q 2384 2075 2632 2365 
Q 2881 2656 2881 3163 
Q 2881 3666 2632 3958 
Q 2384 4250 1959 4250 
Q 1534 4250 1286 3958 
Q 1038 3666 1038 3163 
Q 1038 2656 1286 2365 
Q 1534 2075 1959 2075 
z
" id="DejaVuSans-39" transform="scale(0.015625)"/>
       </defs>
       <use xlink:href="#DejaVuSans-39"/>
       <use x="63.623047" xlink:href="#DejaVuSans-68"/>
       <use x="127.001953" xlink:href="#DejaVuSans-3a"/>
       <use x="160.693359" xlink:href="#DejaVuSans-31"/>
       <use x="224.316406" xlink:href="#DejaVuSans-35"/>
       <use x="287.939453" xlink:href="#DejaVuSans-6d"/>
      </g>
     </g>
    </g>
    <g id="xtick_11">
     <g id="line2d_11">
      <g>
       <use style="stroke:#000000;stroke-width:0.8;" x="644.759561" xlink:href="#m109b9d4a34" y="288.430125"/>
      </g>
     </g>
     <g id="text_11">
      <!-- 10h:15m -->
      <g transform="translate(622.311124 303.028562)scale(0.1 -0.1)">
       <defs>
        <path d="M 2034 4250 
Q 1547 4250 1301 3770 
Q 1056 3291 1056 2328 
Q 1056 1369 1301 889 
Q 1547 409 2034 409 
Q 2525 409 2770 889 
Q 3016 1369 3016 2328 
Q 3016 3291 2770 3770 
Q 2525 4250 2034 4250 
z
M 2034 4750 
Q 2819 4750 3233 4129 
Q 3647 3509 3647 2328 
Q 3647 1150 3233 529 
Q 2819 -91 2034 -91 
Q 1250 -91 836 529 
Q 422 1150 422 2328 
Q 422 3509 836 4129 
Q 1250 4750 2034 4750 
z
" id="DejaVuSans-30" transform="scale(0.015625)"/>
       </defs>
       <use xlink:href="#DejaVuSans-31"/>
       <use x="63.623047" xlink:href="#DejaVuSans-30"/>
       <use x="127.246094" xlink:href="#DejaVuSans-68"/>
       <use x="190.625" xlink:href="#DejaVuSans-3a"/>
       <use x="224.316406" xlink:href="#DejaVuSans-31"/>
       <use x="287.939453" xlink:href="#DejaVuSans-35"/>
       <use x="351.5625" xlink:href="#DejaVuSans-6d"/>
      </g>
     </g>
    </g>
    <g id="xtick_12">
     <g id="line2d_12">
      <g>
       <use style="stroke:#000000;stroke-width:0.8;" x="700.019909" xlink:href="#m109b9d4a34" y="288.430125"/>
      </g>
     </g>
     <g id="text_12">
      <!-- 11h:15m -->
      <g transform="translate(677.571472 303.028562)scale(0.1 -0.1)">
       <use xlink:href="#DejaVuSans-31"/>
       <use x="63.623047" xlink:href="#DejaVuSans-31"/>
       <use x="127.246094" xlink:href="#DejaVuSans-68"/>
       <use x="190.625" xlink:href="#DejaVuSans-3a"/>
       <use x="224.316406" xlink:href="#DejaVuSans-31"/>
       <use x="287.939453" xlink:href="#DejaVuSans-35"/>
       <use x="351.5625" xlink:href="#DejaVuSans-6d"/>
      </g>
     </g>
    </g>
    <g id="text_13">
     <!-- Time (hour:minute) -->
     <g transform="translate(368.403594 316.706687)scale(0.1 -0.1)">
      <defs>
       <path d="M -19 4666 
L 3928 4666 
L 3928 4134 
L 2272 4134 
L 2272 0 
L 1638 0 
L 1638 4134 
L -19 4134 
L -19 4666 
z
" id="DejaVuSans-54" transform="scale(0.015625)"/>
       <path d="M 603 3500 
L 1178 3500 
L 1178 0 
L 603 0 
L 603 3500 
z
M 603 4863 
L 1178 4863 
L 1178 4134 
L 603 4134 
L 603 4863 
z
" id="DejaVuSans-69" transform="scale(0.015625)"/>
       <path d="M 3597 1894 
L 3597 1613 
L 953 1613 
Q 991 1019 1311 708 
Q 1631 397 2203 397 
Q 2534 397 2845 478 
Q 3156 559 3463 722 
L 3463 178 
Q 3153 47 2828 -22 
Q 2503 -91 2169 -91 
Q 1331 -91 842 396 
Q 353 884 353 1716 
Q 353 2575 817 3079 
Q 1281 3584 2069 3584 
Q 2775 3584 3186 3129 
Q 3597 2675 3597 1894 
z
M 3022 2063 
Q 3016 2534 2758 2815 
Q 2500 3097 2075 3097 
Q 1594 3097 1305 2825 
Q 1016 2553 972 2059 
L 3022 2063 
z
" id="DejaVuSans-65" transform="scale(0.015625)"/>
       <path id="DejaVuSans-20" transform="scale(0.015625)"/>
       <path d="M 1984 4856 
Q 1566 4138 1362 3434 
Q 1159 2731 1159 2009 
Q 1159 1288 1364 580 
Q 1569 -128 1984 -844 
L 1484 -844 
Q 1016 -109 783 600 
Q 550 1309 550 2009 
Q 550 2706 781 3412 
Q 1013 4119 1484 4856 
L 1984 4856 
z
" id="DejaVuSans-28" transform="scale(0.015625)"/>
       <path d="M 1959 3097 
Q 1497 3097 1228 2736 
Q 959 2375 959 1747 
Q 959 1119 1226 758 
Q 1494 397 1959 397 
Q 2419 397 2687 759 
Q 2956 1122 2956 1747 
Q 2956 2369 2687 2733 
Q 2419 3097 1959 3097 
z
M 1959 3584 
Q 2709 3584 3137 3096 
Q 3566 2609 3566 1747 
Q 3566 888 3137 398 
Q 2709 -91 1959 -91 
Q 1206 -91 779 398 
Q 353 888 353 1747 
Q 353 2609 779 3096 
Q 1206 3584 1959 3584 
z
" id="DejaVuSans-6f" transform="scale(0.015625)"/>
       <path d="M 544 1381 
L 544 3500 
L 1119 3500 
L 1119 1403 
Q 1119 906 1312 657 
Q 1506 409 1894 409 
Q 2359 409 2629 706 
Q 2900 1003 2900 1516 
L 2900 3500 
L 3475 3500 
L 3475 0 
L 2900 0 
L 2900 538 
Q 2691 219 2414 64 
Q 2138 -91 1772 -91 
Q 1169 -91 856 284 
Q 544 659 544 1381 
z
M 1991 3584 
L 1991 3584 
z
" id="DejaVuSans-75" transform="scale(0.015625)"/>
       <path d="M 2631 2963 
Q 2534 3019 2420 3045 
Q 2306 3072 2169 3072 
Q 1681 3072 1420 2755 
Q 1159 2438 1159 1844 
L 1159 0 
L 581 0 
L 581 3500 
L 1159 3500 
L 1159 2956 
Q 1341 3275 1631 3429 
Q 1922 3584 2338 3584 
Q 2397 3584 2469 3576 
Q 2541 3569 2628 3553 
L 2631 2963 
z
" id="DejaVuSans-72" transform="scale(0.015625)"/>
       <path d="M 3513 2113 
L 3513 0 
L 2938 0 
L 2938 2094 
Q 2938 2591 2744 2837 
Q 2550 3084 2163 3084 
Q 1697 3084 1428 2787 
Q 1159 2491 1159 1978 
L 1159 0 
L 581 0 
L 581 3500 
L 1159 3500 
L 1159 2956 
Q 1366 3272 1645 3428 
Q 1925 3584 2291 3584 
Q 2894 3584 3203 3211 
Q 3513 2838 3513 2113 
z
" id="DejaVuSans-6e" transform="scale(0.015625)"/>
       <path d="M 1172 4494 
L 1172 3500 
L 2356 3500 
L 2356 3053 
L 1172 3053 
L 1172 1153 
Q 1172 725 1289 603 
Q 1406 481 1766 481 
L 2356 481 
L 2356 0 
L 1766 0 
Q 1100 0 847 248 
Q 594 497 594 1153 
L 594 3053 
L 172 3053 
L 172 3500 
L 594 3500 
L 594 4494 
L 1172 4494 
z
" id="DejaVuSans-74" transform="scale(0.015625)"/>
       <path d="M 513 4856 
L 1013 4856 
Q 1481 4119 1714 3412 
Q 1947 2706 1947 2009 
Q 1947 1309 1714 600 
Q 1481 -109 1013 -844 
L 513 -844 
Q 928 -128 1133 580 
Q 1338 1288 1338 2009 
Q 1338 2731 1133 3434 
Q 928 4138 513 4856 
z
" id="DejaVuSans-29" transform="scale(0.015625)"/>
      </defs>
      <use xlink:href="#DejaVuSans-54"/>
      <use x="57.958984" xlink:href="#DejaVuSans-69"/>
      <use x="85.742188" xlink:href="#DejaVuSans-6d"/>
      <use x="183.154297" xlink:href="#DejaVuSans-65"/>
      <use x="244.677734" xlink:href="#DejaVuSans-20"/>
      <use x="276.464844" xlink:href="#DejaVuSans-28"/>
      <use x="315.478516" xlink:href="#DejaVuSans-68"/>
      <use x="378.857422" xlink:href="#DejaVuSans-6f"/>
      <use x="440.039062" xlink:href="#DejaVuSans-75"/>
      <use x="503.417969" xlink:href="#DejaVuSans-72"/>
      <use x="542.78125" xlink:href="#DejaVuSans-3a"/>
      <use x="576.472656" xlink:href="#DejaVuSans-6d"/>
      <use x="673.884766" xlink:href="#DejaVuSans-69"/>
      <use x="701.667969" xlink:href="#DejaVuSans-6e"/>
      <use x="765.046875" xlink:href="#DejaVuSans-75"/>
      <use x="828.425781" xlink:href="#DejaVuSans-74"/>
      <use x="867.634766" xlink:href="#DejaVuSans-65"/>
      <use x="929.158203" xlink:href="#DejaVuSans-29"/>
     </g>
    </g>
   </g>
   <g id="matplotlib.axis_2">
    <g id="ytick_1">
     <g id="line2d_13">
      <defs>
       <path d="M 0 0 
L -3.5 0 
" id="ma63e823b17" style="stroke:#000000;stroke-width:0.8;"/>
      </defs>
      <g>
       <use style="stroke:#000000;stroke-width:0.8;" x="59.690625" xlink:href="#ma63e823b17" y="255.249753"/>
      </g>
     </g>
     <g id="text_14">
      <!-- 14000 -->
      <g transform="translate(20.878125 259.048972)scale(0.1 -0.1)">
       <use xlink:href="#DejaVuSans-31"/>
       <use x="63.623047" xlink:href="#DejaVuSans-34"/>
       <use x="127.246094" xlink:href="#DejaVuSans-30"/>
       <use x="190.869141" xlink:href="#DejaVuSans-30"/>
       <use x="254.492188" xlink:href="#DejaVuSans-30"/>
      </g>
     </g>
    </g>
    <g id="ytick_2">
     <g id="line2d_14">
      <g>
       <use style="stroke:#000000;stroke-width:0.8;" x="59.690625" xlink:href="#ma63e823b17" y="197.325654"/>
      </g>
     </g>
     <g id="text_15">
      <!-- 16000 -->
      <g transform="translate(20.878125 201.124873)scale(0.1 -0.1)">
       <use xlink:href="#DejaVuSans-31"/>
       <use x="63.623047" xlink:href="#DejaVuSans-36"/>
       <use x="127.246094" xlink:href="#DejaVuSans-30"/>
       <use x="190.869141" xlink:href="#DejaVuSans-30"/>
       <use x="254.492188" xlink:href="#DejaVuSans-30"/>
      </g>
     </g>
    </g>
    <g id="ytick_3">
     <g id="line2d_15">
      <g>
       <use style="stroke:#000000;stroke-width:0.8;" x="59.690625" xlink:href="#ma63e823b17" y="139.401555"/>
      </g>
     </g>
     <g id="text_16">
      <!-- 18000 -->
      <g transform="translate(20.878125 143.200773)scale(0.1 -0.1)">
       <use xlink:href="#DejaVuSans-31"/>
       <use x="63.623047" xlink:href="#DejaVuSans-38"/>
       <use x="127.246094" xlink:href="#DejaVuSans-30"/>
       <use x="190.869141" xlink:href="#DejaVuSans-30"/>
       <use x="254.492188" xlink:href="#DejaVuSans-30"/>
      </g>
     </g>
    </g>
    <g id="ytick_4">
     <g id="line2d_16">
      <g>
       <use style="stroke:#000000;stroke-width:0.8;" x="59.690625" xlink:href="#ma63e823b17" y="81.477456"/>
      </g>
     </g>
     <g id="text_17">
      <!-- 20000 -->
      <g transform="translate(20.878125 85.276674)scale(0.1 -0.1)">
       <use xlink:href="#DejaVuSans-32"/>
       <use x="63.623047" xlink:href="#DejaVuSans-30"/>
       <use x="127.246094" xlink:href="#DejaVuSans-30"/>
       <use x="190.869141" xlink:href="#DejaVuSans-30"/>
       <use x="254.492188" xlink:href="#DejaVuSans-30"/>
      </g>
     </g>
    </g>
    <g id="ytick_5">
     <g id="line2d_17">
      <g>
       <use style="stroke:#000000;stroke-width:0.8;" x="59.690625" xlink:href="#ma63e823b17" y="23.553356"/>
      </g>
     </g>
     <g id="text_18">
      <!-- 22000 -->
      <g transform="translate(20.878125 27.352575)scale(0.1 -0.1)">
       <use xlink:href="#DejaVuSans-32"/>
       <use x="63.623047" xlink:href="#DejaVuSans-32"/>
       <use x="127.246094" xlink:href="#DejaVuSans-30"/>
       <use x="190.869141" xlink:href="#DejaVuSans-30"/>
       <use x="254.492188" xlink:href="#DejaVuSans-30"/>
      </g>
     </g>
    </g>
    <g id="text_19">
     <!-- Code region coverage -->
     <g transform="translate(14.798438 210.379594)rotate(-90)scale(0.1 -0.1)">
      <defs>
       <path d="M 4122 4306 
L 4122 3641 
Q 3803 3938 3442 4084 
Q 3081 4231 2675 4231 
Q 1875 4231 1450 3742 
Q 1025 3253 1025 2328 
Q 1025 1406 1450 917 
Q 1875 428 2675 428 
Q 3081 428 3442 575 
Q 3803 722 4122 1019 
L 4122 359 
Q 3791 134 3420 21 
Q 3050 -91 2638 -91 
Q 1578 -91 968 557 
Q 359 1206 359 2328 
Q 359 3453 968 4101 
Q 1578 4750 2638 4750 
Q 3056 4750 3426 4639 
Q 3797 4528 4122 4306 
z
" id="DejaVuSans-43" transform="scale(0.015625)"/>
       <path d="M 2906 2969 
L 2906 4863 
L 3481 4863 
L 3481 0 
L 2906 0 
L 2906 525 
Q 2725 213 2448 61 
Q 2172 -91 1784 -91 
Q 1150 -91 751 415 
Q 353 922 353 1747 
Q 353 2572 751 3078 
Q 1150 3584 1784 3584 
Q 2172 3584 2448 3432 
Q 2725 3281 2906 2969 
z
M 947 1747 
Q 947 1113 1208 752 
Q 1469 391 1925 391 
Q 2381 391 2643 752 
Q 2906 1113 2906 1747 
Q 2906 2381 2643 2742 
Q 2381 3103 1925 3103 
Q 1469 3103 1208 2742 
Q 947 2381 947 1747 
z
" id="DejaVuSans-64" transform="scale(0.015625)"/>
       <path d="M 2906 1791 
Q 2906 2416 2648 2759 
Q 2391 3103 1925 3103 
Q 1463 3103 1205 2759 
Q 947 2416 947 1791 
Q 947 1169 1205 825 
Q 1463 481 1925 481 
Q 2391 481 2648 825 
Q 2906 1169 2906 1791 
z
M 3481 434 
Q 3481 -459 3084 -895 
Q 2688 -1331 1869 -1331 
Q 1566 -1331 1297 -1286 
Q 1028 -1241 775 -1147 
L 775 -588 
Q 1028 -725 1275 -790 
Q 1522 -856 1778 -856 
Q 2344 -856 2625 -561 
Q 2906 -266 2906 331 
L 2906 616 
Q 2728 306 2450 153 
Q 2172 0 1784 0 
Q 1141 0 747 490 
Q 353 981 353 1791 
Q 353 2603 747 3093 
Q 1141 3584 1784 3584 
Q 2172 3584 2450 3431 
Q 2728 3278 2906 2969 
L 2906 3500 
L 3481 3500 
L 3481 434 
z
" id="DejaVuSans-67" transform="scale(0.015625)"/>
       <path d="M 3122 3366 
L 3122 2828 
Q 2878 2963 2633 3030 
Q 2388 3097 2138 3097 
Q 1578 3097 1268 2742 
Q 959 2388 959 1747 
Q 959 1106 1268 751 
Q 1578 397 2138 397 
Q 2388 397 2633 464 
Q 2878 531 3122 666 
L 3122 134 
Q 2881 22 2623 -34 
Q 2366 -91 2075 -91 
Q 1284 -91 818 406 
Q 353 903 353 1747 
Q 353 2603 823 3093 
Q 1294 3584 2113 3584 
Q 2378 3584 2631 3529 
Q 2884 3475 3122 3366 
z
" id="DejaVuSans-63" transform="scale(0.015625)"/>
       <path d="M 191 3500 
L 800 3500 
L 1894 563 
L 2988 3500 
L 3597 3500 
L 2284 0 
L 1503 0 
L 191 3500 
z
" id="DejaVuSans-76" transform="scale(0.015625)"/>
       <path d="M 2194 1759 
Q 1497 1759 1228 1600 
Q 959 1441 959 1056 
Q 959 750 1161 570 
Q 1363 391 1709 391 
Q 2188 391 2477 730 
Q 2766 1069 2766 1631 
L 2766 1759 
L 2194 1759 
z
M 3341 1997 
L 3341 0 
L 2766 0 
L 2766 531 
Q 2569 213 2275 61 
Q 1981 -91 1556 -91 
Q 1019 -91 701 211 
Q 384 513 384 1019 
Q 384 1609 779 1909 
Q 1175 2209 1959 2209 
L 2766 2209 
L 2766 2266 
Q 2766 2663 2505 2880 
Q 2244 3097 1772 3097 
Q 1472 3097 1187 3025 
Q 903 2953 641 2809 
L 641 3341 
Q 956 3463 1253 3523 
Q 1550 3584 1831 3584 
Q 2591 3584 2966 3190 
Q 3341 2797 3341 1997 
z
" id="DejaVuSans-61" transform="scale(0.015625)"/>
      </defs>
      <use xlink:href="#DejaVuSans-43"/>
      <use x="69.824219" xlink:href="#DejaVuSans-6f"/>
      <use x="131.005859" xlink:href="#DejaVuSans-64"/>
      <use x="194.482422" xlink:href="#DejaVuSans-65"/>
      <use x="256.005859" xlink:href="#DejaVuSans-20"/>
      <use x="287.792969" xlink:href="#DejaVuSans-72"/>
      <use x="326.65625" xlink:href="#DejaVuSans-65"/>
      <use x="388.179688" xlink:href="#DejaVuSans-67"/>
      <use x="451.65625" xlink:href="#DejaVuSans-69"/>
      <use x="479.439453" xlink:href="#DejaVuSans-6f"/>
      <use x="540.621094" xlink:href="#DejaVuSans-6e"/>
      <use x="604" xlink:href="#DejaVuSans-20"/>
      <use x="635.787109" xlink:href="#DejaVuSans-63"/>
      <use x="690.767578" xlink:href="#DejaVuSans-6f"/>
      <use x="751.949219" xlink:href="#DejaVuSans-76"/>
      <use x="811.128906" xlink:href="#DejaVuSans-65"/>
      <use x="872.652344" xlink:href="#DejaVuSans-72"/>
      <use x="913.765625" xlink:href="#DejaVuSans-61"/>
      <use x="975.044922" xlink:href="#DejaVuSans-67"/>
      <use x="1038.521484" xlink:href="#DejaVuSans-65"/>
     </g>
    </g>
   </g>
   <g id="line2d_18">
    <path clip-path="url(#p94214795fc)" d="M 92.15608 272.800755 
L 105.971167 264.720343 
L 119.786254 245.344732 
L 133.601341 235.381787 
L 147.416428 234.107457 
L 161.231515 225.737424 
L 175.046602 214.297415 
L 188.861689 214.297415 
L 202.676776 212.038375 
L 216.491863 202.191278 
L 230.30695 191.011927 
L 244.122037 187.912988 
L 257.937124 146.294522 
L 271.752211 140.415226 
L 285.567298 123.009035 
L 299.382385 117.158701 
L 313.197472 109.194137 
L 327.012559 101.924663 
L 340.827646 100.273826 
L 354.642733 99.839395 
L 368.45782 90.252957 
L 382.272907 87.009207 
L 396.087994 85.445256 
L 409.903081 81.448493 
L 423.718169 81.100949 
L 437.533256 80.782366 
L 451.348343 78.00201 
L 465.16343 76.524945 
L 478.978517 71.688283 
L 492.793604 68.039065 
L 506.608691 66.909545 
L 520.423778 65.837949 
L 534.238865 63.202402 
L 548.053952 62.970706 
L 561.869039 59.408374 
L 575.684126 58.568474 
L 589.499213 57.641689 
L 603.3143 56.483207 
L 617.129387 54.890294 
L 630.944474 53.789736 
L 644.759561 53.644926 
L 658.574648 53.587002 
L 672.389735 53.471154 
L 686.204822 53.41323 
L 700.019909 52.42852 
L 713.834996 52.42852 
L 727.650083 51.936165 
L 741.46517 51.936165 
" style="fill:none;stroke:#d62728;stroke-linecap:square;stroke-width:1.5;"/>
    <defs>
     <path d="M 0 -3 
L -3 3 
L 3 3 
z
" id="me8c4b3cdb0" style="stroke:#ffffff;stroke-linejoin:miter;stroke-width:0.75;"/>
    </defs>
    <g clip-path="url(#p94214795fc)">
     <use style="fill:#d62728;stroke:#ffffff;stroke-linejoin:miter;stroke-width:0.75;" x="92.15608" xlink:href="#me8c4b3cdb0" y="272.800755"/>
     <use style="fill:#d62728;stroke:#ffffff;stroke-linejoin:miter;stroke-width:0.75;" x="105.971167" xlink:href="#me8c4b3cdb0" y="264.720343"/>
     <use style="fill:#d62728;stroke:#ffffff;stroke-linejoin:miter;stroke-width:0.75;" x="119.786254" xlink:href="#me8c4b3cdb0" y="245.344732"/>
     <use style="fill:#d62728;stroke:#ffffff;stroke-linejoin:miter;stroke-width:0.75;" x="133.601341" xlink:href="#me8c4b3cdb0" y="235.381787"/>
     <use style="fill:#d62728;stroke:#ffffff;stroke-linejoin:miter;stroke-width:0.75;" x="147.416428" xlink:href="#me8c4b3cdb0" y="234.107457"/>
     <use style="fill:#d62728;stroke:#ffffff;stroke-linejoin:miter;stroke-width:0.75;" x="161.231515" xlink:href="#me8c4b3cdb0" y="225.737424"/>
     <use style="fill:#d62728;stroke:#ffffff;stroke-linejoin:miter;stroke-width:0.75;" x="175.046602" xlink:href="#me8c4b3cdb0" y="214.297415"/>
     <use style="fill:#d62728;stroke:#ffffff;stroke-linejoin:miter;stroke-width:0.75;" x="188.861689" xlink:href="#me8c4b3cdb0" y="214.297415"/>
     <use style="fill:#d62728;stroke:#ffffff;stroke-linejoin:miter;stroke-width:0.75;" x="202.676776" xlink:href="#me8c4b3cdb0" y="212.038375"/>
     <use style="fill:#d62728;stroke:#ffffff;stroke-linejoin:miter;stroke-width:0.75;" x="216.491863" xlink:href="#me8c4b3cdb0" y="202.191278"/>
     <use style="fill:#d62728;stroke:#ffffff;stroke-linejoin:miter;stroke-width:0.75;" x="230.30695" xlink:href="#me8c4b3cdb0" y="191.011927"/>
     <use style="fill:#d62728;stroke:#ffffff;stroke-linejoin:miter;stroke-width:0.75;" x="244.122037" xlink:href="#me8c4b3cdb0" y="187.912988"/>
     <use style="fill:#d62728;stroke:#ffffff;stroke-linejoin:miter;stroke-width:0.75;" x="257.937124" xlink:href="#me8c4b3cdb0" y="146.294522"/>
     <use style="fill:#d62728;stroke:#ffffff;stroke-linejoin:miter;stroke-width:0.75;" x="271.752211" xlink:href="#me8c4b3cdb0" y="140.415226"/>
     <use style="fill:#d62728;stroke:#ffffff;stroke-linejoin:miter;stroke-width:0.75;" x="285.567298" xlink:href="#me8c4b3cdb0" y="123.009035"/>
     <use style="fill:#d62728;stroke:#ffffff;stroke-linejoin:miter;stroke-width:0.75;" x="299.382385" xlink:href="#me8c4b3cdb0" y="117.158701"/>
     <use style="fill:#d62728;stroke:#ffffff;stroke-linejoin:miter;stroke-width:0.75;" x="313.197472" xlink:href="#me8c4b3cdb0" y="109.194137"/>
     <use style="fill:#d62728;stroke:#ffffff;stroke-linejoin:miter;stroke-width:0.75;" x="327.012559" xlink:href="#me8c4b3cdb0" y="101.924663"/>
     <use style="fill:#d62728;stroke:#ffffff;stroke-linejoin:miter;stroke-width:0.75;" x="340.827646" xlink:href="#me8c4b3cdb0" y="100.273826"/>
     <use style="fill:#d62728;stroke:#ffffff;stroke-linejoin:miter;stroke-width:0.75;" x="354.642733" xlink:href="#me8c4b3cdb0" y="99.839395"/>
     <use style="fill:#d62728;stroke:#ffffff;stroke-linejoin:miter;stroke-width:0.75;" x="368.45782" xlink:href="#me8c4b3cdb0" y="90.252957"/>
     <use style="fill:#d62728;stroke:#ffffff;stroke-linejoin:miter;stroke-width:0.75;" x="382.272907" xlink:href="#me8c4b3cdb0" y="87.009207"/>
     <use style="fill:#d62728;stroke:#ffffff;stroke-linejoin:miter;stroke-width:0.75;" x="396.087994" xlink:href="#me8c4b3cdb0" y="85.445256"/>
     <use style="fill:#d62728;stroke:#ffffff;stroke-linejoin:miter;stroke-width:0.75;" x="409.903081" xlink:href="#me8c4b3cdb0" y="81.448493"/>
     <use style="fill:#d62728;stroke:#ffffff;stroke-linejoin:miter;stroke-width:0.75;" x="423.718169" xlink:href="#me8c4b3cdb0" y="81.100949"/>
     <use style="fill:#d62728;stroke:#ffffff;stroke-linejoin:miter;stroke-width:0.75;" x="437.533256" xlink:href="#me8c4b3cdb0" y="80.782366"/>
     <use style="fill:#d62728;stroke:#ffffff;stroke-linejoin:miter;stroke-width:0.75;" x="451.348343" xlink:href="#me8c4b3cdb0" y="78.00201"/>
     <use style="fill:#d62728;stroke:#ffffff;stroke-linejoin:miter;stroke-width:0.75;" x="465.16343" xlink:href="#me8c4b3cdb0" y="76.524945"/>
     <use style="fill:#d62728;stroke:#ffffff;stroke-linejoin:miter;stroke-width:0.75;" x="478.978517" xlink:href="#me8c4b3cdb0" y="71.688283"/>
     <use style="fill:#d62728;stroke:#ffffff;stroke-linejoin:miter;stroke-width:0.75;" x="492.793604" xlink:href="#me8c4b3cdb0" y="68.039065"/>
     <use style="fill:#d62728;stroke:#ffffff;stroke-linejoin:miter;stroke-width:0.75;" x="506.608691" xlink:href="#me8c4b3cdb0" y="66.909545"/>
     <use style="fill:#d62728;stroke:#ffffff;stroke-linejoin:miter;stroke-width:0.75;" x="520.423778" xlink:href="#me8c4b3cdb0" y="65.837949"/>
     <use style="fill:#d62728;stroke:#ffffff;stroke-linejoin:miter;stroke-width:0.75;" x="534.238865" xlink:href="#me8c4b3cdb0" y="63.202402"/>
     <use style="fill:#d62728;stroke:#ffffff;stroke-linejoin:miter;stroke-width:0.75;" x="548.053952" xlink:href="#me8c4b3cdb0" y="62.970706"/>
     <use style="fill:#d62728;stroke:#ffffff;stroke-linejoin:miter;stroke-width:0.75;" x="561.869039" xlink:href="#me8c4b3cdb0" y="59.408374"/>
     <use style="fill:#d62728;stroke:#ffffff;stroke-linejoin:miter;stroke-width:0.75;" x="575.684126" xlink:href="#me8c4b3cdb0" y="58.568474"/>
     <use style="fill:#d62728;stroke:#ffffff;stroke-linejoin:miter;stroke-width:0.75;" x="589.499213" xlink:href="#me8c4b3cdb0" y="57.641689"/>
     <use style="fill:#d62728;stroke:#ffffff;stroke-linejoin:miter;stroke-width:0.75;" x="603.3143" xlink:href="#me8c4b3cdb0" y="56.483207"/>
     <use style="fill:#d62728;stroke:#ffffff;stroke-linejoin:miter;stroke-width:0.75;" x="617.129387" xlink:href="#me8c4b3cdb0" y="54.890294"/>
     <use style="fill:#d62728;stroke:#ffffff;stroke-linejoin:miter;stroke-width:0.75;" x="630.944474" xlink:href="#me8c4b3cdb0" y="53.789736"/>
     <use style="fill:#d62728;stroke:#ffffff;stroke-linejoin:miter;stroke-width:0.75;" x="644.759561" xlink:href="#me8c4b3cdb0" y="53.644926"/>
     <use style="fill:#d62728;stroke:#ffffff;stroke-linejoin:miter;stroke-width:0.75;" x="658.574648" xlink:href="#me8c4b3cdb0" y="53.587002"/>
     <use style="fill:#d62728;stroke:#ffffff;stroke-linejoin:miter;stroke-width:0.75;" x="672.389735" xlink:href="#me8c4b3cdb0" y="53.471154"/>
     <use style="fill:#d62728;stroke:#ffffff;stroke-linejoin:miter;stroke-width:0.75;" x="686.204822" xlink:href="#me8c4b3cdb0" y="53.41323"/>
     <use style="fill:#d62728;stroke:#ffffff;stroke-linejoin:miter;stroke-width:0.75;" x="700.019909" xlink:href="#me8c4b3cdb0" y="52.42852"/>
     <use style="fill:#d62728;stroke:#ffffff;stroke-linejoin:miter;stroke-width:0.75;" x="713.834996" xlink:href="#me8c4b3cdb0" y="52.42852"/>
     <use style="fill:#d62728;stroke:#ffffff;stroke-linejoin:miter;stroke-width:0.75;" x="727.650083" xlink:href="#me8c4b3cdb0" y="51.936165"/>
     <use style="fill:#d62728;stroke:#ffffff;stroke-linejoin:miter;stroke-width:0.75;" x="741.46517" xlink:href="#me8c4b3cdb0" y="51.936165"/>
    </g>
   </g>
   <g id="line2d_19">
    <path clip-path="url(#p94214795fc)" d="M 92.15608 234.483963 
L 105.971167 208.273309 
L 119.786254 197.383578 
L 133.601341 178.297587 
L 147.416428 168.045022 
L 161.231515 162.571194 
L 175.046602 156.691898 
L 188.861689 155.041061 
L 202.676776 147.858473 
L 216.491863 146.149712 
L 230.30695 143.745862 
L 244.122037 142.848039 
L 257.937124 141.255126 
L 271.752211 132.421701 
L 285.567298 131.147371 
L 299.382385 131.118408 
L 313.197472 131.089446 
L 327.012559 131.089446 
L 340.827646 131.089446 
L 354.642733 130.915674 
L 368.45782 130.71294 
L 382.272907 130.220585 
L 396.087994 129.641344 
L 409.903081 128.048431 
L 423.718169 124.804682 
L 437.533256 123.066959 
L 451.348343 123.037997 
L 465.16343 122.922148 
L 478.978517 122.748376 
L 492.793604 122.748376 
L 506.608691 122.748376 
L 520.423778 122.66149 
L 534.238865 122.66149 
L 548.053952 122.66149 
L 561.869039 122.632528 
L 575.684126 122.632528 
L 589.499213 122.574604 
L 603.3143 122.574604 
L 617.129387 122.284983 
L 630.944474 122.284983 
L 644.759561 122.284983 
L 658.574648 122.256021 
L 672.389735 122.256021 
L 686.204822 122.256021 
L 700.019909 121.908477 
L 713.834996 121.908477 
L 727.650083 121.908477 
L 741.46517 121.850553 
" style="fill:none;stroke:#c7c7c7;stroke-linecap:square;stroke-width:1.5;"/>
    <defs>
     <path d="M -3 -0 
L 3 3 
L 3 -3 
z
" id="mccf7bec5b3" style="stroke:#ffffff;stroke-linejoin:miter;stroke-width:0.75;"/>
    </defs>
    <g clip-path="url(#p94214795fc)">
     <use style="fill:#c7c7c7;stroke:#ffffff;stroke-linejoin:miter;stroke-width:0.75;" x="92.15608" xlink:href="#mccf7bec5b3" y="234.483963"/>
     <use style="fill:#c7c7c7;stroke:#ffffff;stroke-linejoin:miter;stroke-width:0.75;" x="105.971167" xlink:href="#mccf7bec5b3" y="208.273309"/>
     <use style="fill:#c7c7c7;stroke:#ffffff;stroke-linejoin:miter;stroke-width:0.75;" x="119.786254" xlink:href="#mccf7bec5b3" y="197.383578"/>
     <use style="fill:#c7c7c7;stroke:#ffffff;stroke-linejoin:miter;stroke-width:0.75;" x="133.601341" xlink:href="#mccf7bec5b3" y="178.297587"/>
     <use style="fill:#c7c7c7;stroke:#ffffff;stroke-linejoin:miter;stroke-width:0.75;" x="147.416428" xlink:href="#mccf7bec5b3" y="168.045022"/>
     <use style="fill:#c7c7c7;stroke:#ffffff;stroke-linejoin:miter;stroke-width:0.75;" x="161.231515" xlink:href="#mccf7bec5b3" y="162.571194"/>
     <use style="fill:#c7c7c7;stroke:#ffffff;stroke-linejoin:miter;stroke-width:0.75;" x="175.046602" xlink:href="#mccf7bec5b3" y="156.691898"/>
     <use style="fill:#c7c7c7;stroke:#ffffff;stroke-linejoin:miter;stroke-width:0.75;" x="188.861689" xlink:href="#mccf7bec5b3" y="155.041061"/>
     <use style="fill:#c7c7c7;stroke:#ffffff;stroke-linejoin:miter;stroke-width:0.75;" x="202.676776" xlink:href="#mccf7bec5b3" y="147.858473"/>
     <use style="fill:#c7c7c7;stroke:#ffffff;stroke-linejoin:miter;stroke-width:0.75;" x="216.491863" xlink:href="#mccf7bec5b3" y="146.149712"/>
     <use style="fill:#c7c7c7;stroke:#ffffff;stroke-linejoin:miter;stroke-width:0.75;" x="230.30695" xlink:href="#mccf7bec5b3" y="143.745862"/>
     <use style="fill:#c7c7c7;stroke:#ffffff;stroke-linejoin:miter;stroke-width:0.75;" x="244.122037" xlink:href="#mccf7bec5b3" y="142.848039"/>
     <use style="fill:#c7c7c7;stroke:#ffffff;stroke-linejoin:miter;stroke-width:0.75;" x="257.937124" xlink:href="#mccf7bec5b3" y="141.255126"/>
     <use style="fill:#c7c7c7;stroke:#ffffff;stroke-linejoin:miter;stroke-width:0.75;" x="271.752211" xlink:href="#mccf7bec5b3" y="132.421701"/>
     <use style="fill:#c7c7c7;stroke:#ffffff;stroke-linejoin:miter;stroke-width:0.75;" x="285.567298" xlink:href="#mccf7bec5b3" y="131.147371"/>
     <use style="fill:#c7c7c7;stroke:#ffffff;stroke-linejoin:miter;stroke-width:0.75;" x="299.382385" xlink:href="#mccf7bec5b3" y="131.118408"/>
     <use style="fill:#c7c7c7;stroke:#ffffff;stroke-linejoin:miter;stroke-width:0.75;" x="313.197472" xlink:href="#mccf7bec5b3" y="131.089446"/>
     <use style="fill:#c7c7c7;stroke:#ffffff;stroke-linejoin:miter;stroke-width:0.75;" x="327.012559" xlink:href="#mccf7bec5b3" y="131.089446"/>
     <use style="fill:#c7c7c7;stroke:#ffffff;stroke-linejoin:miter;stroke-width:0.75;" x="340.827646" xlink:href="#mccf7bec5b3" y="131.089446"/>
     <use style="fill:#c7c7c7;stroke:#ffffff;stroke-linejoin:miter;stroke-width:0.75;" x="354.642733" xlink:href="#mccf7bec5b3" y="130.915674"/>
     <use style="fill:#c7c7c7;stroke:#ffffff;stroke-linejoin:miter;stroke-width:0.75;" x="368.45782" xlink:href="#mccf7bec5b3" y="130.71294"/>
     <use style="fill:#c7c7c7;stroke:#ffffff;stroke-linejoin:miter;stroke-width:0.75;" x="382.272907" xlink:href="#mccf7bec5b3" y="130.220585"/>
     <use style="fill:#c7c7c7;stroke:#ffffff;stroke-linejoin:miter;stroke-width:0.75;" x="396.087994" xlink:href="#mccf7bec5b3" y="129.641344"/>
     <use style="fill:#c7c7c7;stroke:#ffffff;stroke-linejoin:miter;stroke-width:0.75;" x="409.903081" xlink:href="#mccf7bec5b3" y="128.048431"/>
     <use style="fill:#c7c7c7;stroke:#ffffff;stroke-linejoin:miter;stroke-width:0.75;" x="423.718169" xlink:href="#mccf7bec5b3" y="124.804682"/>
     <use style="fill:#c7c7c7;stroke:#ffffff;stroke-linejoin:miter;stroke-width:0.75;" x="437.533256" xlink:href="#mccf7bec5b3" y="123.066959"/>
     <use style="fill:#c7c7c7;stroke:#ffffff;stroke-linejoin:miter;stroke-width:0.75;" x="451.348343" xlink:href="#mccf7bec5b3" y="123.037997"/>
     <use style="fill:#c7c7c7;stroke:#ffffff;stroke-linejoin:miter;stroke-width:0.75;" x="465.16343" xlink:href="#mccf7bec5b3" y="122.922148"/>
     <use style="fill:#c7c7c7;stroke:#ffffff;stroke-linejoin:miter;stroke-width:0.75;" x="478.978517" xlink:href="#mccf7bec5b3" y="122.748376"/>
     <use style="fill:#c7c7c7;stroke:#ffffff;stroke-linejoin:miter;stroke-width:0.75;" x="492.793604" xlink:href="#mccf7bec5b3" y="122.748376"/>
     <use style="fill:#c7c7c7;stroke:#ffffff;stroke-linejoin:miter;stroke-width:0.75;" x="506.608691" xlink:href="#mccf7bec5b3" y="122.748376"/>
     <use style="fill:#c7c7c7;stroke:#ffffff;stroke-linejoin:miter;stroke-width:0.75;" x="520.423778" xlink:href="#mccf7bec5b3" y="122.66149"/>
     <use style="fill:#c7c7c7;stroke:#ffffff;stroke-linejoin:miter;stroke-width:0.75;" x="534.238865" xlink:href="#mccf7bec5b3" y="122.66149"/>
     <use style="fill:#c7c7c7;stroke:#ffffff;stroke-linejoin:miter;stroke-width:0.75;" x="548.053952" xlink:href="#mccf7bec5b3" y="122.66149"/>
     <use style="fill:#c7c7c7;stroke:#ffffff;stroke-linejoin:miter;stroke-width:0.75;" x="561.869039" xlink:href="#mccf7bec5b3" y="122.632528"/>
     <use style="fill:#c7c7c7;stroke:#ffffff;stroke-linejoin:miter;stroke-width:0.75;" x="575.684126" xlink:href="#mccf7bec5b3" y="122.632528"/>
     <use style="fill:#c7c7c7;stroke:#ffffff;stroke-linejoin:miter;stroke-width:0.75;" x="589.499213" xlink:href="#mccf7bec5b3" y="122.574604"/>
     <use style="fill:#c7c7c7;stroke:#ffffff;stroke-linejoin:miter;stroke-width:0.75;" x="603.3143" xlink:href="#mccf7bec5b3" y="122.574604"/>
     <use style="fill:#c7c7c7;stroke:#ffffff;stroke-linejoin:miter;stroke-width:0.75;" x="617.129387" xlink:href="#mccf7bec5b3" y="122.284983"/>
     <use style="fill:#c7c7c7;stroke:#ffffff;stroke-linejoin:miter;stroke-width:0.75;" x="630.944474" xlink:href="#mccf7bec5b3" y="122.284983"/>
     <use style="fill:#c7c7c7;stroke:#ffffff;stroke-linejoin:miter;stroke-width:0.75;" x="644.759561" xlink:href="#mccf7bec5b3" y="122.284983"/>
     <use style="fill:#c7c7c7;stroke:#ffffff;stroke-linejoin:miter;stroke-width:0.75;" x="658.574648" xlink:href="#mccf7bec5b3" y="122.256021"/>
     <use style="fill:#c7c7c7;stroke:#ffffff;stroke-linejoin:miter;stroke-width:0.75;" x="672.389735" xlink:href="#mccf7bec5b3" y="122.256021"/>
     <use style="fill:#c7c7c7;stroke:#ffffff;stroke-linejoin:miter;stroke-width:0.75;" x="686.204822" xlink:href="#mccf7bec5b3" y="122.256021"/>
     <use style="fill:#c7c7c7;stroke:#ffffff;stroke-linejoin:miter;stroke-width:0.75;" x="700.019909" xlink:href="#mccf7bec5b3" y="121.908477"/>
     <use style="fill:#c7c7c7;stroke:#ffffff;stroke-linejoin:miter;stroke-width:0.75;" x="713.834996" xlink:href="#mccf7bec5b3" y="121.908477"/>
     <use style="fill:#c7c7c7;stroke:#ffffff;stroke-linejoin:miter;stroke-width:0.75;" x="727.650083" xlink:href="#mccf7bec5b3" y="121.908477"/>
     <use style="fill:#c7c7c7;stroke:#ffffff;stroke-linejoin:miter;stroke-width:0.75;" x="741.46517" xlink:href="#mccf7bec5b3" y="121.850553"/>
    </g>
   </g>
   <g id="line2d_20">
    <path clip-path="url(#p94214795fc)" d="M 92.15608 231.211252 
L 105.971167 195.819627 
L 119.786254 181.512375 
L 133.601341 176.444016 
L 147.416428 173.026494 
L 161.231515 171.925936 
L 175.046602 171.346695 
L 188.861689 171.114999 
L 202.676776 168.913883 
L 216.491863 167.465781 
L 230.30695 162.542232 
L 244.122037 152.926832 
L 257.937124 152.173819 
L 271.752211 150.49402 
L 285.567298 150.436096 
L 299.382385 149.50931 
L 313.197472 148.843183 
L 327.012559 148.785259 
L 340.827646 148.669411 
L 354.642733 139.691175 
L 368.45782 139.633251 
L 382.272907 139.604289 
L 396.087994 138.677503 
L 409.903081 138.300997 
L 423.718169 138.214111 
L 437.533256 138.127224 
L 451.348343 135.66545 
L 465.16343 135.636488 
L 478.978517 135.636488 
L 492.793604 135.636488 
L 506.608691 134.854513 
L 520.423778 134.825551 
L 534.238865 134.825551 
L 548.053952 130.220585 
L 561.869039 129.815116 
L 575.684126 129.612382 
L 589.499213 128.830407 
L 603.3143 128.714558 
L 617.129387 128.627672 
L 630.944474 127.17957 
L 644.759561 127.17957 
L 658.574648 127.03476 
L 672.389735 127.03476 
L 686.204822 122.111211 
L 700.019909 122.111211 
L 713.834996 122.111211 
L 727.650083 122.111211 
L 741.46517 122.111211 
" style="fill:none;stroke:#1f77b4;stroke-linecap:square;stroke-width:1.5;"/>
    <defs>
     <path d="M 0 3 
C 0.795609 3 1.55874 2.683901 2.12132 2.12132 
C 2.683901 1.55874 3 0.795609 3 0 
C 3 -0.795609 2.683901 -1.55874 2.12132 -2.12132 
C 1.55874 -2.683901 0.795609 -3 0 -3 
C -0.795609 -3 -1.55874 -2.683901 -2.12132 -2.12132 
C -2.683901 -1.55874 -3 -0.795609 -3 0 
C -3 0.795609 -2.683901 1.55874 -2.12132 2.12132 
C -1.55874 2.683901 -0.795609 3 0 3 
z
" id="m42b668f1ef" style="stroke:#ffffff;stroke-width:0.75;"/>
    </defs>
    <g clip-path="url(#p94214795fc)">
     <use style="fill:#1f77b4;stroke:#ffffff;stroke-width:0.75;" x="92.15608" xlink:href="#m42b668f1ef" y="231.211252"/>
     <use style="fill:#1f77b4;stroke:#ffffff;stroke-width:0.75;" x="105.971167" xlink:href="#m42b668f1ef" y="195.819627"/>
     <use style="fill:#1f77b4;stroke:#ffffff;stroke-width:0.75;" x="119.786254" xlink:href="#m42b668f1ef" y="181.512375"/>
     <use style="fill:#1f77b4;stroke:#ffffff;stroke-width:0.75;" x="133.601341" xlink:href="#m42b668f1ef" y="176.444016"/>
     <use style="fill:#1f77b4;stroke:#ffffff;stroke-width:0.75;" x="147.416428" xlink:href="#m42b668f1ef" y="173.026494"/>
     <use style="fill:#1f77b4;stroke:#ffffff;stroke-width:0.75;" x="161.231515" xlink:href="#m42b668f1ef" y="171.925936"/>
     <use style="fill:#1f77b4;stroke:#ffffff;stroke-width:0.75;" x="175.046602" xlink:href="#m42b668f1ef" y="171.346695"/>
     <use style="fill:#1f77b4;stroke:#ffffff;stroke-width:0.75;" x="188.861689" xlink:href="#m42b668f1ef" y="171.114999"/>
     <use style="fill:#1f77b4;stroke:#ffffff;stroke-width:0.75;" x="202.676776" xlink:href="#m42b668f1ef" y="168.913883"/>
     <use style="fill:#1f77b4;stroke:#ffffff;stroke-width:0.75;" x="216.491863" xlink:href="#m42b668f1ef" y="167.465781"/>
     <use style="fill:#1f77b4;stroke:#ffffff;stroke-width:0.75;" x="230.30695" xlink:href="#m42b668f1ef" y="162.542232"/>
     <use style="fill:#1f77b4;stroke:#ffffff;stroke-width:0.75;" x="244.122037" xlink:href="#m42b668f1ef" y="152.926832"/>
     <use style="fill:#1f77b4;stroke:#ffffff;stroke-width:0.75;" x="257.937124" xlink:href="#m42b668f1ef" y="152.173819"/>
     <use style="fill:#1f77b4;stroke:#ffffff;stroke-width:0.75;" x="271.752211" xlink:href="#m42b668f1ef" y="150.49402"/>
     <use style="fill:#1f77b4;stroke:#ffffff;stroke-width:0.75;" x="285.567298" xlink:href="#m42b668f1ef" y="150.436096"/>
     <use style="fill:#1f77b4;stroke:#ffffff;stroke-width:0.75;" x="299.382385" xlink:href="#m42b668f1ef" y="149.50931"/>
     <use style="fill:#1f77b4;stroke:#ffffff;stroke-width:0.75;" x="313.197472" xlink:href="#m42b668f1ef" y="148.843183"/>
     <use style="fill:#1f77b4;stroke:#ffffff;stroke-width:0.75;" x="327.012559" xlink:href="#m42b668f1ef" y="148.785259"/>
     <use style="fill:#1f77b4;stroke:#ffffff;stroke-width:0.75;" x="340.827646" xlink:href="#m42b668f1ef" y="148.669411"/>
     <use style="fill:#1f77b4;stroke:#ffffff;stroke-width:0.75;" x="354.642733" xlink:href="#m42b668f1ef" y="139.691175"/>
     <use style="fill:#1f77b4;stroke:#ffffff;stroke-width:0.75;" x="368.45782" xlink:href="#m42b668f1ef" y="139.633251"/>
     <use style="fill:#1f77b4;stroke:#ffffff;stroke-width:0.75;" x="382.272907" xlink:href="#m42b668f1ef" y="139.604289"/>
     <use style="fill:#1f77b4;stroke:#ffffff;stroke-width:0.75;" x="396.087994" xlink:href="#m42b668f1ef" y="138.677503"/>
     <use style="fill:#1f77b4;stroke:#ffffff;stroke-width:0.75;" x="409.903081" xlink:href="#m42b668f1ef" y="138.300997"/>
     <use style="fill:#1f77b4;stroke:#ffffff;stroke-width:0.75;" x="423.718169" xlink:href="#m42b668f1ef" y="138.214111"/>
     <use style="fill:#1f77b4;stroke:#ffffff;stroke-width:0.75;" x="437.533256" xlink:href="#m42b668f1ef" y="138.127224"/>
     <use style="fill:#1f77b4;stroke:#ffffff;stroke-width:0.75;" x="451.348343" xlink:href="#m42b668f1ef" y="135.66545"/>
     <use style="fill:#1f77b4;stroke:#ffffff;stroke-width:0.75;" x="465.16343" xlink:href="#m42b668f1ef" y="135.636488"/>
     <use style="fill:#1f77b4;stroke:#ffffff;stroke-width:0.75;" x="478.978517" xlink:href="#m42b668f1ef" y="135.636488"/>
     <use style="fill:#1f77b4;stroke:#ffffff;stroke-width:0.75;" x="492.793604" xlink:href="#m42b668f1ef" y="135.636488"/>
     <use style="fill:#1f77b4;stroke:#ffffff;stroke-width:0.75;" x="506.608691" xlink:href="#m42b668f1ef" y="134.854513"/>
     <use style="fill:#1f77b4;stroke:#ffffff;stroke-width:0.75;" x="520.423778" xlink:href="#m42b668f1ef" y="134.825551"/>
     <use style="fill:#1f77b4;stroke:#ffffff;stroke-width:0.75;" x="534.238865" xlink:href="#m42b668f1ef" y="134.825551"/>
     <use style="fill:#1f77b4;stroke:#ffffff;stroke-width:0.75;" x="548.053952" xlink:href="#m42b668f1ef" y="130.220585"/>
     <use style="fill:#1f77b4;stroke:#ffffff;stroke-width:0.75;" x="561.869039" xlink:href="#m42b668f1ef" y="129.815116"/>
     <use style="fill:#1f77b4;stroke:#ffffff;stroke-width:0.75;" x="575.684126" xlink:href="#m42b668f1ef" y="129.612382"/>
     <use style="fill:#1f77b4;stroke:#ffffff;stroke-width:0.75;" x="589.499213" xlink:href="#m42b668f1ef" y="128.830407"/>
     <use style="fill:#1f77b4;stroke:#ffffff;stroke-width:0.75;" x="603.3143" xlink:href="#m42b668f1ef" y="128.714558"/>
     <use style="fill:#1f77b4;stroke:#ffffff;stroke-width:0.75;" x="617.129387" xlink:href="#m42b668f1ef" y="128.627672"/>
     <use style="fill:#1f77b4;stroke:#ffffff;stroke-width:0.75;" x="630.944474" xlink:href="#m42b668f1ef" y="127.17957"/>
     <use style="fill:#1f77b4;stroke:#ffffff;stroke-width:0.75;" x="644.759561" xlink:href="#m42b668f1ef" y="127.17957"/>
     <use style="fill:#1f77b4;stroke:#ffffff;stroke-width:0.75;" x="658.574648" xlink:href="#m42b668f1ef" y="127.03476"/>
     <use style="fill:#1f77b4;stroke:#ffffff;stroke-width:0.75;" x="672.389735" xlink:href="#m42b668f1ef" y="127.03476"/>
     <use style="fill:#1f77b4;stroke:#ffffff;stroke-width:0.75;" x="686.204822" xlink:href="#m42b668f1ef" y="122.111211"/>
     <use style="fill:#1f77b4;stroke:#ffffff;stroke-width:0.75;" x="700.019909" xlink:href="#m42b668f1ef" y="122.111211"/>
     <use style="fill:#1f77b4;stroke:#ffffff;stroke-width:0.75;" x="713.834996" xlink:href="#m42b668f1ef" y="122.111211"/>
     <use style="fill:#1f77b4;stroke:#ffffff;stroke-width:0.75;" x="727.650083" xlink:href="#m42b668f1ef" y="122.111211"/>
     <use style="fill:#1f77b4;stroke:#ffffff;stroke-width:0.75;" x="741.46517" xlink:href="#m42b668f1ef" y="122.111211"/>
    </g>
   </g>
   <g id="line2d_21">
    <path clip-path="url(#p94214795fc)" d="M 92.15608 244.852377 
L 105.971167 233.093785 
L 119.786254 209.084246 
L 133.601341 194.719069 
L 147.416428 188.492229 
L 161.231515 178.963714 
L 175.046602 178.587208 
L 188.861689 176.35713 
L 202.676776 175.22761 
L 216.491863 175.22761 
L 230.30695 172.070747 
L 244.122037 171.143961 
L 257.937124 170.70953 
L 271.752211 170.477834 
L 285.567298 165.235703 
L 299.382385 165.119855 
L 313.197472 164.250993 
L 327.012559 163.237321 
L 340.827646 162.22365 
L 354.642733 161.818181 
L 368.45782 161.441674 
L 382.272907 161.325826 
L 396.087994 161.325826 
L 409.903081 160.775547 
L 423.718169 160.630737 
L 437.533256 160.630737 
L 451.348343 160.10942 
L 465.16343 160.022534 
L 478.978517 158.9799 
L 492.793604 158.400659 
L 506.608691 158.400659 
L 520.423778 158.400659 
L 534.238865 158.400659 
L 548.053952 158.400659 
L 561.869039 158.371697 
L 575.684126 158.226887 
L 589.499213 157.647646 
L 603.3143 157.502836 
L 617.129387 156.836709 
L 630.944474 156.836709 
L 644.759561 156.836709 
L 658.574648 155.243796 
L 672.389735 154.867289 
L 686.204822 154.693517 
L 700.019909 154.635593 
L 713.834996 154.635593 
L 727.650083 154.374934 
L 741.46517 154.345972 
" style="fill:none;stroke:#98df8a;stroke-linecap:square;stroke-width:1.5;"/>
    <defs>
     <path d="M -0 3 
L 3 -3 
L -3 -3 
z
" id="mea84c16986" style="stroke:#ffffff;stroke-linejoin:miter;stroke-width:0.75;"/>
    </defs>
    <g clip-path="url(#p94214795fc)">
     <use style="fill:#98df8a;stroke:#ffffff;stroke-linejoin:miter;stroke-width:0.75;" x="92.15608" xlink:href="#mea84c16986" y="244.852377"/>
     <use style="fill:#98df8a;stroke:#ffffff;stroke-linejoin:miter;stroke-width:0.75;" x="105.971167" xlink:href="#mea84c16986" y="233.093785"/>
     <use style="fill:#98df8a;stroke:#ffffff;stroke-linejoin:miter;stroke-width:0.75;" x="119.786254" xlink:href="#mea84c16986" y="209.084246"/>
     <use style="fill:#98df8a;stroke:#ffffff;stroke-linejoin:miter;stroke-width:0.75;" x="133.601341" xlink:href="#mea84c16986" y="194.719069"/>
     <use style="fill:#98df8a;stroke:#ffffff;stroke-linejoin:miter;stroke-width:0.75;" x="147.416428" xlink:href="#mea84c16986" y="188.492229"/>
     <use style="fill:#98df8a;stroke:#ffffff;stroke-linejoin:miter;stroke-width:0.75;" x="161.231515" xlink:href="#mea84c16986" y="178.963714"/>
     <use style="fill:#98df8a;stroke:#ffffff;stroke-linejoin:miter;stroke-width:0.75;" x="175.046602" xlink:href="#mea84c16986" y="178.587208"/>
     <use style="fill:#98df8a;stroke:#ffffff;stroke-linejoin:miter;stroke-width:0.75;" x="188.861689" xlink:href="#mea84c16986" y="176.35713"/>
     <use style="fill:#98df8a;stroke:#ffffff;stroke-linejoin:miter;stroke-width:0.75;" x="202.676776" xlink:href="#mea84c16986" y="175.22761"/>
     <use style="fill:#98df8a;stroke:#ffffff;stroke-linejoin:miter;stroke-width:0.75;" x="216.491863" xlink:href="#mea84c16986" y="175.22761"/>
     <use style="fill:#98df8a;stroke:#ffffff;stroke-linejoin:miter;stroke-width:0.75;" x="230.30695" xlink:href="#mea84c16986" y="172.070747"/>
     <use style="fill:#98df8a;stroke:#ffffff;stroke-linejoin:miter;stroke-width:0.75;" x="244.122037" xlink:href="#mea84c16986" y="171.143961"/>
     <use style="fill:#98df8a;stroke:#ffffff;stroke-linejoin:miter;stroke-width:0.75;" x="257.937124" xlink:href="#mea84c16986" y="170.70953"/>
     <use style="fill:#98df8a;stroke:#ffffff;stroke-linejoin:miter;stroke-width:0.75;" x="271.752211" xlink:href="#mea84c16986" y="170.477834"/>
     <use style="fill:#98df8a;stroke:#ffffff;stroke-linejoin:miter;stroke-width:0.75;" x="285.567298" xlink:href="#mea84c16986" y="165.235703"/>
     <use style="fill:#98df8a;stroke:#ffffff;stroke-linejoin:miter;stroke-width:0.75;" x="299.382385" xlink:href="#mea84c16986" y="165.119855"/>
     <use style="fill:#98df8a;stroke:#ffffff;stroke-linejoin:miter;stroke-width:0.75;" x="313.197472" xlink:href="#mea84c16986" y="164.250993"/>
     <use style="fill:#98df8a;stroke:#ffffff;stroke-linejoin:miter;stroke-width:0.75;" x="327.012559" xlink:href="#mea84c16986" y="163.237321"/>
     <use style="fill:#98df8a;stroke:#ffffff;stroke-linejoin:miter;stroke-width:0.75;" x="340.827646" xlink:href="#mea84c16986" y="162.22365"/>
     <use style="fill:#98df8a;stroke:#ffffff;stroke-linejoin:miter;stroke-width:0.75;" x="354.642733" xlink:href="#mea84c16986" y="161.818181"/>
     <use style="fill:#98df8a;stroke:#ffffff;stroke-linejoin:miter;stroke-width:0.75;" x="368.45782" xlink:href="#mea84c16986" y="161.441674"/>
     <use style="fill:#98df8a;stroke:#ffffff;stroke-linejoin:miter;stroke-width:0.75;" x="382.272907" xlink:href="#mea84c16986" y="161.325826"/>
     <use style="fill:#98df8a;stroke:#ffffff;stroke-linejoin:miter;stroke-width:0.75;" x="396.087994" xlink:href="#mea84c16986" y="161.325826"/>
     <use style="fill:#98df8a;stroke:#ffffff;stroke-linejoin:miter;stroke-width:0.75;" x="409.903081" xlink:href="#mea84c16986" y="160.775547"/>
     <use style="fill:#98df8a;stroke:#ffffff;stroke-linejoin:miter;stroke-width:0.75;" x="423.718169" xlink:href="#mea84c16986" y="160.630737"/>
     <use style="fill:#98df8a;stroke:#ffffff;stroke-linejoin:miter;stroke-width:0.75;" x="437.533256" xlink:href="#mea84c16986" y="160.630737"/>
     <use style="fill:#98df8a;stroke:#ffffff;stroke-linejoin:miter;stroke-width:0.75;" x="451.348343" xlink:href="#mea84c16986" y="160.10942"/>
     <use style="fill:#98df8a;stroke:#ffffff;stroke-linejoin:miter;stroke-width:0.75;" x="465.16343" xlink:href="#mea84c16986" y="160.022534"/>
     <use style="fill:#98df8a;stroke:#ffffff;stroke-linejoin:miter;stroke-width:0.75;" x="478.978517" xlink:href="#mea84c16986" y="158.9799"/>
     <use style="fill:#98df8a;stroke:#ffffff;stroke-linejoin:miter;stroke-width:0.75;" x="492.793604" xlink:href="#mea84c16986" y="158.400659"/>
     <use style="fill:#98df8a;stroke:#ffffff;stroke-linejoin:miter;stroke-width:0.75;" x="506.608691" xlink:href="#mea84c16986" y="158.400659"/>
     <use style="fill:#98df8a;stroke:#ffffff;stroke-linejoin:miter;stroke-width:0.75;" x="520.423778" xlink:href="#mea84c16986" y="158.400659"/>
     <use style="fill:#98df8a;stroke:#ffffff;stroke-linejoin:miter;stroke-width:0.75;" x="534.238865" xlink:href="#mea84c16986" y="158.400659"/>
     <use style="fill:#98df8a;stroke:#ffffff;stroke-linejoin:miter;stroke-width:0.75;" x="548.053952" xlink:href="#mea84c16986" y="158.400659"/>
     <use style="fill:#98df8a;stroke:#ffffff;stroke-linejoin:miter;stroke-width:0.75;" x="561.869039" xlink:href="#mea84c16986" y="158.371697"/>
     <use style="fill:#98df8a;stroke:#ffffff;stroke-linejoin:miter;stroke-width:0.75;" x="575.684126" xlink:href="#mea84c16986" y="158.226887"/>
     <use style="fill:#98df8a;stroke:#ffffff;stroke-linejoin:miter;stroke-width:0.75;" x="589.499213" xlink:href="#mea84c16986" y="157.647646"/>
     <use style="fill:#98df8a;stroke:#ffffff;stroke-linejoin:miter;stroke-width:0.75;" x="603.3143" xlink:href="#mea84c16986" y="157.502836"/>
     <use style="fill:#98df8a;stroke:#ffffff;stroke-linejoin:miter;stroke-width:0.75;" x="617.129387" xlink:href="#mea84c16986" y="156.836709"/>
     <use style="fill:#98df8a;stroke:#ffffff;stroke-linejoin:miter;stroke-width:0.75;" x="630.944474" xlink:href="#mea84c16986" y="156.836709"/>
     <use style="fill:#98df8a;stroke:#ffffff;stroke-linejoin:miter;stroke-width:0.75;" x="644.759561" xlink:href="#mea84c16986" y="156.836709"/>
     <use style="fill:#98df8a;stroke:#ffffff;stroke-linejoin:miter;stroke-width:0.75;" x="658.574648" xlink:href="#mea84c16986" y="155.243796"/>
     <use style="fill:#98df8a;stroke:#ffffff;stroke-linejoin:miter;stroke-width:0.75;" x="672.389735" xlink:href="#mea84c16986" y="154.867289"/>
     <use style="fill:#98df8a;stroke:#ffffff;stroke-linejoin:miter;stroke-width:0.75;" x="686.204822" xlink:href="#mea84c16986" y="154.693517"/>
     <use style="fill:#98df8a;stroke:#ffffff;stroke-linejoin:miter;stroke-width:0.75;" x="700.019909" xlink:href="#mea84c16986" y="154.635593"/>
     <use style="fill:#98df8a;stroke:#ffffff;stroke-linejoin:miter;stroke-width:0.75;" x="713.834996" xlink:href="#mea84c16986" y="154.635593"/>
     <use style="fill:#98df8a;stroke:#ffffff;stroke-linejoin:miter;stroke-width:0.75;" x="727.650083" xlink:href="#mea84c16986" y="154.374934"/>
     <use style="fill:#98df8a;stroke:#ffffff;stroke-linejoin:miter;stroke-width:0.75;" x="741.46517" xlink:href="#mea84c16986" y="154.345972"/>
    </g>
   </g>
   <g id="line2d_22"/>
   <g id="line2d_23"/>
   <g id="line2d_24"/>
   <g id="line2d_25"/>
   <g id="line2d_26">
    <path clip-path="url(#p94214795fc)" d="M 741.46517 288.430125 
L 741.46517 22.318125 
" style="fill:none;stroke:#ff0000;stroke-linecap:square;stroke-width:1.5;"/>
   </g>
   <g id="patch_3">
    <path d="M 59.690625 255.249753 
L 59.690625 23.553356 
" style="fill:none;stroke:#000000;stroke-linecap:square;stroke-linejoin:miter;stroke-width:0.8;"/>
   </g>
   <g id="patch_4">
    <path d="M 92.15608 288.430125 
L 700.019909 288.430125 
" style="fill:none;stroke:#000000;stroke-linecap:square;stroke-linejoin:miter;stroke-width:0.8;"/>
   </g>
   <g id="text_20">
    <!-- freetype2-2017 (12h, 3 trials/fuzzer) -->
    <g transform="translate(307.414688 16.318125)scale(0.12 -0.12)">
     <defs>
      <path d="M 2375 4863 
L 2375 4384 
L 1825 4384 
Q 1516 4384 1395 4259 
Q 1275 4134 1275 3809 
L 1275 3500 
L 2222 3500 
L 2222 3053 
L 1275 3053 
L 1275 0 
L 697 0 
L 697 3053 
L 147 3053 
L 147 3500 
L 697 3500 
L 697 3744 
Q 697 4328 969 4595 
Q 1241 4863 1831 4863 
L 2375 4863 
z
" id="DejaVuSans-66" transform="scale(0.015625)"/>
      <path d="M 2059 -325 
Q 1816 -950 1584 -1140 
Q 1353 -1331 966 -1331 
L 506 -1331 
L 506 -850 
L 844 -850 
Q 1081 -850 1212 -737 
Q 1344 -625 1503 -206 
L 1606 56 
L 191 3500 
L 800 3500 
L 1894 763 
L 2988 3500 
L 3597 3500 
L 2059 -325 
z
" id="DejaVuSans-79" transform="scale(0.015625)"/>
      <path d="M 1159 525 
L 1159 -1331 
L 581 -1331 
L 581 3500 
L 1159 3500 
L 1159 2969 
Q 1341 3281 1617 3432 
Q 1894 3584 2278 3584 
Q 2916 3584 3314 3078 
Q 3713 2572 3713 1747 
Q 3713 922 3314 415 
Q 2916 -91 2278 -91 
Q 1894 -91 1617 61 
Q 1341 213 1159 525 
z
M 3116 1747 
Q 3116 2381 2855 2742 
Q 2594 3103 2138 3103 
Q 1681 3103 1420 2742 
Q 1159 2381 1159 1747 
Q 1159 1113 1420 752 
Q 1681 391 2138 391 
Q 2594 391 2855 752 
Q 3116 1113 3116 1747 
z
" id="DejaVuSans-70" transform="scale(0.015625)"/>
      <path d="M 313 2009 
L 1997 2009 
L 1997 1497 
L 313 1497 
L 313 2009 
z
" id="DejaVuSans-2d" transform="scale(0.015625)"/>
      <path d="M 750 794 
L 1409 794 
L 1409 256 
L 897 -744 
L 494 -744 
L 750 256 
L 750 794 
z
" id="DejaVuSans-2c" transform="scale(0.015625)"/>
      <path d="M 603 4863 
L 1178 4863 
L 1178 0 
L 603 0 
L 603 4863 
z
" id="DejaVuSans-6c" transform="scale(0.015625)"/>
      <path d="M 2834 3397 
L 2834 2853 
Q 2591 2978 2328 3040 
Q 2066 3103 1784 3103 
Q 1356 3103 1142 2972 
Q 928 2841 928 2578 
Q 928 2378 1081 2264 
Q 1234 2150 1697 2047 
L 1894 2003 
Q 2506 1872 2764 1633 
Q 3022 1394 3022 966 
Q 3022 478 2636 193 
Q 2250 -91 1575 -91 
Q 1294 -91 989 -36 
Q 684 19 347 128 
L 347 722 
Q 666 556 975 473 
Q 1284 391 1588 391 
Q 1994 391 2212 530 
Q 2431 669 2431 922 
Q 2431 1156 2273 1281 
Q 2116 1406 1581 1522 
L 1381 1569 
Q 847 1681 609 1914 
Q 372 2147 372 2553 
Q 372 3047 722 3315 
Q 1072 3584 1716 3584 
Q 2034 3584 2315 3537 
Q 2597 3491 2834 3397 
z
" id="DejaVuSans-73" transform="scale(0.015625)"/>
      <path d="M 1625 4666 
L 2156 4666 
L 531 -594 
L 0 -594 
L 1625 4666 
z
" id="DejaVuSans-2f" transform="scale(0.015625)"/>
      <path d="M 353 3500 
L 3084 3500 
L 3084 2975 
L 922 459 
L 3084 459 
L 3084 0 
L 275 0 
L 275 525 
L 2438 3041 
L 353 3041 
L 353 3500 
z
" id="DejaVuSans-7a" transform="scale(0.015625)"/>
     </defs>
     <use xlink:href="#DejaVuSans-66"/>
     <use x="35.205078" xlink:href="#DejaVuSans-72"/>
     <use x="74.068359" xlink:href="#DejaVuSans-65"/>
     <use x="135.591797" xlink:href="#DejaVuSans-65"/>
     <use x="197.115234" xlink:href="#DejaVuSans-74"/>
     <use x="236.324219" xlink:href="#DejaVuSans-79"/>
     <use x="295.503906" xlink:href="#DejaVuSans-70"/>
     <use x="358.980469" xlink:href="#DejaVuSans-65"/>
     <use x="420.503906" xlink:href="#DejaVuSans-32"/>
     <use x="484.126953" xlink:href="#DejaVuSans-2d"/>
     <use x="520.210938" xlink:href="#DejaVuSans-32"/>
     <use x="583.833984" xlink:href="#DejaVuSans-30"/>
     <use x="647.457031" xlink:href="#DejaVuSans-31"/>
     <use x="711.080078" xlink:href="#DejaVuSans-37"/>
     <use x="774.703125" xlink:href="#DejaVuSans-20"/>
     <use x="806.490234" xlink:href="#DejaVuSans-28"/>
     <use x="845.503906" xlink:href="#DejaVuSans-31"/>
     <use x="909.126953" xlink:href="#DejaVuSans-32"/>
     <use x="972.75" xlink:href="#DejaVuSans-68"/>
     <use x="1036.128906" xlink:href="#DejaVuSans-2c"/>
     <use x="1067.916016" xlink:href="#DejaVuSans-20"/>
     <use x="1099.703125" xlink:href="#DejaVuSans-33"/>
     <use x="1163.326172" xlink:href="#DejaVuSans-20"/>
     <use x="1195.113281" xlink:href="#DejaVuSans-74"/>
     <use x="1234.322266" xlink:href="#DejaVuSans-72"/>
     <use x="1275.435547" xlink:href="#DejaVuSans-69"/>
     <use x="1303.21875" xlink:href="#DejaVuSans-61"/>
     <use x="1364.498047" xlink:href="#DejaVuSans-6c"/>
     <use x="1392.28125" xlink:href="#DejaVuSans-73"/>
     <use x="1444.380859" xlink:href="#DejaVuSans-2f"/>
     <use x="1478.072266" xlink:href="#DejaVuSans-66"/>
     <use x="1513.277344" xlink:href="#DejaVuSans-75"/>
     <use x="1576.65625" xlink:href="#DejaVuSans-7a"/>
     <use x="1629.146484" xlink:href="#DejaVuSans-7a"/>
     <use x="1681.636719" xlink:href="#DejaVuSans-65"/>
     <use x="1743.160156" xlink:href="#DejaVuSans-72"/>
     <use x="1784.273438" xlink:href="#DejaVuSans-29"/>
    </g>
   </g>
   <g id="legend_1">
    <g id="line2d_27">
     <path d="M 777.930625 30.416562 
L 797.930625 30.416562 
" style="fill:none;stroke:#d62728;stroke-linecap:square;stroke-width:1.5;"/>
    </g>
    <g id="line2d_28">
     <defs>
      <path d="M 0 -3 
L -3 3 
L 3 3 
z
" id="m04c688592b" style="stroke:#d62728;stroke-linejoin:miter;"/>
     </defs>
     <g>
      <use style="fill:#d62728;stroke:#d62728;stroke-linejoin:miter;" x="787.930625" xlink:href="#m04c688592b" y="30.416562"/>
     </g>
    </g>
    <g id="text_21">
     <!-- aflplusplus -->
     <g transform="translate(805.930625 33.916562)scale(0.1 -0.1)">
      <use xlink:href="#DejaVuSans-61"/>
      <use x="61.279297" xlink:href="#DejaVuSans-66"/>
      <use x="96.484375" xlink:href="#DejaVuSans-6c"/>
      <use x="124.267578" xlink:href="#DejaVuSans-70"/>
      <use x="187.744141" xlink:href="#DejaVuSans-6c"/>
      <use x="215.527344" xlink:href="#DejaVuSans-75"/>
      <use x="278.90625" xlink:href="#DejaVuSans-73"/>
      <use x="331.005859" xlink:href="#DejaVuSans-70"/>
      <use x="394.482422" xlink:href="#DejaVuSans-6c"/>
      <use x="422.265625" xlink:href="#DejaVuSans-75"/>
      <use x="485.644531" xlink:href="#DejaVuSans-73"/>
     </g>
    </g>
    <g id="line2d_29">
     <path d="M 777.930625 45.094688 
L 797.930625 45.094688 
" style="fill:none;stroke:#c7c7c7;stroke-linecap:square;stroke-width:1.5;"/>
    </g>
    <g id="line2d_30">
     <defs>
      <path d="M -3 -0 
L 3 3 
L 3 -3 
z
" id="m422226caf0" style="stroke:#c7c7c7;stroke-linejoin:miter;"/>
     </defs>
     <g>
      <use style="fill:#c7c7c7;stroke:#c7c7c7;stroke-linejoin:miter;" x="787.930625" xlink:href="#m422226caf0" y="45.094688"/>
     </g>
    </g>
    <g id="text_22">
     <!-- waffle -->
     <g transform="translate(805.930625 48.594688)scale(0.1 -0.1)">
      <defs>
       <path d="M 269 3500 
L 844 3500 
L 1563 769 
L 2278 3500 
L 2956 3500 
L 3675 769 
L 4391 3500 
L 4966 3500 
L 4050 0 
L 3372 0 
L 2619 2869 
L 1863 0 
L 1184 0 
L 269 3500 
z
" id="DejaVuSans-77" transform="scale(0.015625)"/>
      </defs>
      <use xlink:href="#DejaVuSans-77"/>
      <use x="81.787109" xlink:href="#DejaVuSans-61"/>
      <use x="143.066406" xlink:href="#DejaVuSans-66"/>
      <use x="178.271484" xlink:href="#DejaVuSans-66"/>
      <use x="213.476562" xlink:href="#DejaVuSans-6c"/>
      <use x="241.259766" xlink:href="#DejaVuSans-65"/>
     </g>
    </g>
    <g id="line2d_31">
     <path d="M 777.930625 59.772812 
L 797.930625 59.772812 
" style="fill:none;stroke:#1f77b4;stroke-linecap:square;stroke-width:1.5;"/>
    </g>
    <g id="line2d_32">
     <defs>
      <path d="M 0 3 
C 0.795609 3 1.55874 2.683901 2.12132 2.12132 
C 2.683901 1.55874 3 0.795609 3 0 
C 3 -0.795609 2.683901 -1.55874 2.12132 -2.12132 
C 1.55874 -2.683901 0.795609 -3 0 -3 
C -0.795609 -3 -1.55874 -2.683901 -2.12132 -2.12132 
C -2.683901 -1.55874 -3 -0.795609 -3 0 
C -3 0.795609 -2.683901 1.55874 -2.12132 2.12132 
C -1.55874 2.683901 -0.795609 3 0 3 
z
" id="mde4c27ed34" style="stroke:#1f77b4;"/>
     </defs>
     <g>
      <use style="fill:#1f77b4;stroke:#1f77b4;" x="787.930625" xlink:href="#mde4c27ed34" y="59.772812"/>
     </g>
    </g>
    <g id="text_23">
     <!-- afl -->
     <g transform="translate(805.930625 63.272812)scale(0.1 -0.1)">
      <use xlink:href="#DejaVuSans-61"/>
      <use x="61.279297" xlink:href="#DejaVuSans-66"/>
      <use x="96.484375" xlink:href="#DejaVuSans-6c"/>
     </g>
    </g>
    <g id="line2d_33">
     <path d="M 777.930625 74.450938 
L 797.930625 74.450938 
" style="fill:none;stroke:#98df8a;stroke-linecap:square;stroke-width:1.5;"/>
    </g>
    <g id="line2d_34">
     <defs>
      <path d="M -0 3 
L 3 -3 
L -3 -3 
z
" id="m50ef91b673" style="stroke:#98df8a;stroke-linejoin:miter;"/>
     </defs>
     <g>
      <use style="fill:#98df8a;stroke:#98df8a;stroke-linejoin:miter;" x="787.930625" xlink:href="#m50ef91b673" y="74.450938"/>
     </g>
    </g>
    <g id="text_24">
     <!-- aflfast -->
     <g transform="translate(805.930625 77.950938)scale(0.1 -0.1)">
      <use xlink:href="#DejaVuSans-61"/>
      <use x="61.279297" xlink:href="#DejaVuSans-66"/>
      <use x="96.484375" xlink:href="#DejaVuSans-6c"/>
      <use x="124.267578" xlink:href="#DejaVuSans-66"/>
      <use x="159.472656" xlink:href="#DejaVuSans-61"/>
      <use x="220.751953" xlink:href="#DejaVuSans-73"/>
      <use x="272.851562" xlink:href="#DejaVuSans-74"/>
     </g>
    </g>
   </g>
  </g>
 </g>
 <defs>
  <clipPath id="p94214795fc">
   <rect height="266.112" width="714.24" x="59.690625" y="22.318125"/>
  </clipPath>
 </defs>
</svg>
