<?xml version="1.0" encoding="utf-8" standalone="no"?>
<!DOCTYPE svg PUBLIC "-//W3C//DTD SVG 1.1//EN"
  "http://www.w3.org/Graphics/SVG/1.1/DTD/svg11.dtd">
<svg height="325.986375pt" version="1.1" viewBox="0 0 864.541562 325.986375" width="864.541562pt" xmlns="http://www.w3.org/2000/svg" xmlns:xlink="http://www.w3.org/1999/xlink">
 <metadata>
  <rdf:RDF xmlns:cc="http://creativecommons.org/ns#" xmlns:dc="http://purl.org/dc/elements/1.1/" xmlns:rdf="http://www.w3.org/1999/02/22-rdf-syntax-ns#">
   <cc:Work>
    <dc:type rdf:resource="http://purl.org/dc/dcmitype/StillImage"/>
    <dc:date>2021-12-06T07:26:32.181506</dc:date>
    <dc:format>image/svg+xml</dc:format>
    <dc:creator>
     <cc:Agent>
      <dc:title>Matplotlib v3.4.1, https://matplotlib.org/</dc:title>
     </cc:Agent>
    </dc:creator>
   </cc:Work>
  </rdf:RDF>
 </metadata>
 <defs>
  <style type="text/css">*{stroke-linecap:butt;stroke-linejoin:round;}</style>
 </defs>
 <g id="figure_1">
  <g id="patch_1">
   <path d="M 0 325.986375 
L 864.541562 325.986375 
L 864.541562 0 
L 0 0 
z
" style="fill:#ffffff;"/>
  </g>
  <g id="axes_1">
   <g id="patch_2">
    <path d="M 53.328125 288.430125 
L 767.568125 288.430125 
L 767.568125 22.318125 
L 53.328125 22.318125 
z
" style="fill:#ffffff;"/>
   </g>
   <g id="PolyCollection_1">
    <defs>
     <path d="M 85.79358 -243.587549 
L 85.79358 -241.935278 
L 99.608667 -243.105636 
L 113.423754 -243.656393 
L 127.238841 -243.725238 
L 141.053928 -244.275995 
L 154.869015 -261.074083 
L 168.684102 -261.074083 
L 182.499189 -261.693684 
L 196.314276 -261.693684 
L 210.129363 -261.693684 
L 223.94445 -261.693684 
L 237.759537 -261.693684 
L 251.574624 -261.762529 
L 265.389711 -266.581652 
L 279.204798 -267.958545 
L 293.019885 -267.958545 
L 306.834972 -267.958545 
L 320.650059 -267.958545 
L 334.465146 -267.958545 
L 348.280233 -267.958545 
L 362.09532 -267.958545 
L 375.910407 -267.958545 
L 389.725494 -267.958545 
L 403.540581 -267.958545 
L 417.355669 -267.958545 
L 431.170756 -268.027389 
L 444.985843 -268.027389 
L 458.80093 -268.027389 
L 472.616017 -268.027389 
L 486.431104 -268.027389 
L 500.246191 -268.027389 
L 514.061278 -268.027389 
L 527.876365 -268.027389 
L 541.691452 -268.027389 
L 555.506539 -268.027389 
L 569.321626 -268.027389 
L 583.136713 -268.027389 
L 596.9518 -268.027389 
L 610.766887 -268.027389 
L 624.581974 -268.027389 
L 638.397061 -268.027389 
L 652.212148 -268.027389 
L 666.027235 -268.027389 
L 679.842322 -268.027389 
L 693.657409 -268.027389 
L 707.472496 -268.165079 
L 721.287583 -268.165079 
L 735.10267 -268.165079 
L 735.10267 -291.57225 
L 735.10267 -291.57225 
L 721.287583 -291.57225 
L 707.472496 -291.57225 
L 693.657409 -291.57225 
L 679.842322 -291.57225 
L 666.027235 -291.57225 
L 652.212148 -291.57225 
L 638.397061 -291.57225 
L 624.581974 -291.57225 
L 610.766887 -291.57225 
L 596.9518 -291.57225 
L 583.136713 -291.57225 
L 569.321626 -291.365716 
L 555.506539 -291.365716 
L 541.691452 -291.365716 
L 527.876365 -291.365716 
L 514.061278 -291.365716 
L 500.246191 -291.365716 
L 486.431104 -291.365716 
L 472.616017 -291.365716 
L 458.80093 -291.365716 
L 444.985843 -291.365716 
L 431.170756 -291.365716 
L 417.355669 -291.365716 
L 403.540581 -291.365716 
L 389.725494 -291.365716 
L 375.910407 -291.365716 
L 362.09532 -291.365716 
L 348.280233 -291.365716 
L 334.465146 -291.365716 
L 320.650059 -291.365716 
L 306.834972 -291.365716 
L 293.019885 -291.228027 
L 279.204798 -291.228027 
L 265.389711 -291.228027 
L 251.574624 -291.228027 
L 237.759537 -291.228027 
L 223.94445 -291.228027 
L 210.129363 -291.228027 
L 196.314276 -291.021493 
L 182.499189 -291.021493 
L 168.684102 -291.021493 
L 154.869015 -286.615437 
L 141.053928 -285.307389 
L 127.238841 -271.538465 
L 113.423754 -244.551374 
L 99.608667 -244.34484 
L 85.79358 -243.587549 
z
" id="m6456dd632e" style="stroke:#d62728;stroke-opacity:0.2;"/>
    </defs>
    <g clip-path="url(#p31e46167e1)">
     <use style="fill:#d62728;fill-opacity:0.2;stroke:#d62728;stroke-opacity:0.2;" x="0" xlink:href="#m6456dd632e" y="325.986375"/>
    </g>
   </g>
   <g id="PolyCollection_2">
    <defs>
     <path d="M 85.79358 -257.01225 
L 85.79358 -227.409063 
L 99.608667 -252.39966 
L 113.423754 -257.01225 
L 127.238841 -257.01225 
L 141.053928 -261.142927 
L 154.869015 -261.142927 
L 168.684102 -261.142927 
L 182.499189 -261.142927 
L 196.314276 -261.142927 
L 210.129363 -261.142927 
L 223.94445 -261.280617 
L 237.759537 -261.280617 
L 251.574624 -261.280617 
L 265.389711 -261.280617 
L 279.204798 -261.280617 
L 293.019885 -261.349461 
L 306.834972 -261.349461 
L 320.650059 -261.969063 
L 334.465146 -261.969063 
L 348.280233 -261.969063 
L 362.09532 -261.969063 
L 375.910407 -261.969063 
L 389.725494 -261.969063 
L 403.540581 -261.969063 
L 417.355669 -261.969063 
L 431.170756 -261.969063 
L 444.985843 -261.969063 
L 458.80093 -261.969063 
L 472.616017 -262.175597 
L 486.431104 -262.175597 
L 500.246191 -262.175597 
L 514.061278 -262.450975 
L 527.876365 -262.657509 
L 541.691452 -262.657509 
L 555.506539 -262.657509 
L 569.321626 -262.657509 
L 583.136713 -262.657509 
L 596.9518 -262.657509 
L 610.766887 -262.657509 
L 624.581974 -262.657509 
L 638.397061 -262.657509 
L 652.212148 -262.657509 
L 666.027235 -262.657509 
L 679.842322 -262.657509 
L 693.657409 -262.657509 
L 707.472496 -262.657509 
L 721.287583 -262.657509 
L 735.10267 -262.657509 
L 735.10267 -283.242051 
L 735.10267 -283.242051 
L 721.287583 -283.242051 
L 707.472496 -283.242051 
L 693.657409 -283.242051 
L 679.842322 -283.242051 
L 666.027235 -283.242051 
L 652.212148 -283.242051 
L 638.397061 -283.242051 
L 624.581974 -283.242051 
L 610.766887 -283.242051 
L 596.9518 -283.242051 
L 583.136713 -283.242051 
L 569.321626 -283.242051 
L 555.506539 -283.242051 
L 541.691452 -283.035517 
L 527.876365 -283.035517 
L 514.061278 -283.035517 
L 500.246191 -283.035517 
L 486.431104 -283.035517 
L 472.616017 -283.035517 
L 458.80093 -283.035517 
L 444.985843 -282.897828 
L 431.170756 -282.897828 
L 417.355669 -282.897828 
L 403.540581 -282.897828 
L 389.725494 -282.897828 
L 375.910407 -282.897828 
L 362.09532 -282.897828 
L 348.280233 -282.760138 
L 334.465146 -282.760138 
L 320.650059 -282.760138 
L 306.834972 -282.760138 
L 293.019885 -282.760138 
L 279.204798 -282.760138 
L 265.389711 -282.760138 
L 251.574624 -282.760138 
L 237.759537 -282.760138 
L 223.94445 -282.347071 
L 210.129363 -282.347071 
L 196.314276 -282.347071 
L 182.499189 -282.002848 
L 168.684102 -282.002848 
L 154.869015 -282.002848 
L 141.053928 -281.934003 
L 127.238841 -261.62484 
L 113.423754 -261.211772 
L 99.608667 -259.146433 
L 85.79358 -257.01225 
z
" id="ma599a1a7ae" style="stroke:#c7c7c7;stroke-opacity:0.2;"/>
    </defs>
    <g clip-path="url(#p31e46167e1)">
     <use style="fill:#c7c7c7;fill-opacity:0.2;stroke:#c7c7c7;stroke-opacity:0.2;" x="0" xlink:href="#ma599a1a7ae" y="325.986375"/>
    </g>
   </g>
   <g id="PolyCollection_3">
    <defs>
     <path d="M 85.79358 -242.348346 
L 85.79358 -49.65225 
L 99.608667 -247.993605 
L 113.423754 -256.736872 
L 127.238841 -257.425318 
L 141.053928 -257.425318 
L 154.869015 -257.425318 
L 168.684102 -257.631852 
L 182.499189 -257.838385 
L 196.314276 -257.838385 
L 210.129363 -257.838385 
L 223.94445 -257.838385 
L 237.759537 -257.838385 
L 251.574624 -257.838385 
L 265.389711 -257.838385 
L 279.204798 -257.976075 
L 293.019885 -257.976075 
L 306.834972 -257.976075 
L 320.650059 -257.976075 
L 334.465146 -257.976075 
L 348.280233 -257.976075 
L 362.09532 -257.976075 
L 375.910407 -257.976075 
L 389.725494 -257.976075 
L 403.540581 -257.976075 
L 417.355669 -257.976075 
L 431.170756 -257.976075 
L 444.985843 -257.976075 
L 458.80093 -257.976075 
L 472.616017 -257.976075 
L 486.431104 -257.976075 
L 500.246191 -258.182609 
L 514.061278 -258.182609 
L 527.876365 -258.320298 
L 541.691452 -258.320298 
L 555.506539 -258.320298 
L 569.321626 -258.320298 
L 583.136713 -262.175597 
L 596.9518 -262.450975 
L 610.766887 -262.450975 
L 624.581974 -262.450975 
L 638.397061 -262.450975 
L 652.212148 -262.450975 
L 666.027235 -262.450975 
L 679.842322 -262.450975 
L 693.657409 -262.450975 
L 707.472496 -262.450975 
L 721.287583 -262.450975 
L 735.10267 -262.450975 
L 735.10267 -267.683166 
L 735.10267 -267.683166 
L 721.287583 -267.683166 
L 707.472496 -267.683166 
L 693.657409 -267.683166 
L 679.842322 -267.683166 
L 666.027235 -267.683166 
L 652.212148 -267.683166 
L 638.397061 -267.683166 
L 624.581974 -267.683166 
L 610.766887 -267.683166 
L 596.9518 -266.375119 
L 583.136713 -262.588664 
L 569.321626 -262.588664 
L 555.506539 -262.588664 
L 541.691452 -262.588664 
L 527.876365 -262.588664 
L 514.061278 -262.450975 
L 500.246191 -262.450975 
L 486.431104 -262.450975 
L 472.616017 -262.450975 
L 458.80093 -262.450975 
L 444.985843 -262.450975 
L 431.170756 -262.450975 
L 417.355669 -262.450975 
L 403.540581 -262.450975 
L 389.725494 -262.450975 
L 375.910407 -262.450975 
L 362.09532 -262.450975 
L 348.280233 -262.450975 
L 334.465146 -262.313286 
L 320.650059 -262.313286 
L 306.834972 -262.313286 
L 293.019885 -262.313286 
L 279.204798 -262.313286 
L 265.389711 -262.313286 
L 251.574624 -262.313286 
L 237.759537 -262.313286 
L 223.94445 -262.313286 
L 210.129363 -262.313286 
L 196.314276 -261.762529 
L 182.499189 -261.762529 
L 168.684102 -261.762529 
L 154.869015 -261.349461 
L 141.053928 -260.523326 
L 127.238841 -260.523326 
L 113.423754 -260.523326 
L 99.608667 -260.110258 
L 85.79358 -242.348346 
z
" id="m858b2fc56e" style="stroke:#98df8a;stroke-opacity:0.2;"/>
    </defs>
    <g clip-path="url(#p31e46167e1)">
     <use style="fill:#98df8a;fill-opacity:0.2;stroke:#98df8a;stroke-opacity:0.2;" x="0" xlink:href="#m858b2fc56e" y="325.986375"/>
    </g>
   </g>
   <g id="PolyCollection_4">
    <defs>
     <path d="M 85.79358 -257.838385 
L 85.79358 -230.025158 
L 99.608667 -230.438226 
L 113.423754 -230.438226 
L 127.238841 -257.081095 
L 141.053928 -257.081095 
L 154.869015 -257.081095 
L 168.684102 -261.280617 
L 182.499189 -261.280617 
L 196.314276 -261.280617 
L 210.129363 -261.280617 
L 223.94445 -261.280617 
L 237.759537 -261.280617 
L 251.574624 -261.900218 
L 265.389711 -261.900218 
L 279.204798 -261.900218 
L 293.019885 -261.900218 
L 306.834972 -261.900218 
L 320.650059 -261.900218 
L 334.465146 -261.900218 
L 348.280233 -261.900218 
L 362.09532 -261.900218 
L 375.910407 -261.900218 
L 389.725494 -261.900218 
L 403.540581 -261.900218 
L 417.355669 -261.900218 
L 431.170756 -261.900218 
L 444.985843 -261.900218 
L 458.80093 -261.900218 
L 472.616017 -261.900218 
L 486.431104 -261.900218 
L 500.246191 -261.900218 
L 514.061278 -261.900218 
L 527.876365 -262.037907 
L 541.691452 -262.037907 
L 555.506539 -262.037907 
L 569.321626 -262.037907 
L 583.136713 -262.037907 
L 596.9518 -262.037907 
L 610.766887 -262.037907 
L 624.581974 -262.037907 
L 638.397061 -262.037907 
L 652.212148 -262.037907 
L 666.027235 -262.037907 
L 679.842322 -262.037907 
L 693.657409 -262.037907 
L 707.472496 -262.037907 
L 721.287583 -262.037907 
L 735.10267 -262.037907 
L 735.10267 -268.302768 
L 735.10267 -268.302768 
L 721.287583 -268.302768 
L 707.472496 -263.345955 
L 693.657409 -263.345955 
L 679.842322 -263.345955 
L 666.027235 -263.208266 
L 652.212148 -263.139421 
L 638.397061 -263.139421 
L 624.581974 -263.139421 
L 610.766887 -263.139421 
L 596.9518 -263.139421 
L 583.136713 -263.139421 
L 569.321626 -263.139421 
L 555.506539 -262.588664 
L 541.691452 -262.588664 
L 527.876365 -262.588664 
L 514.061278 -262.588664 
L 500.246191 -262.588664 
L 486.431104 -262.588664 
L 472.616017 -262.588664 
L 458.80093 -262.588664 
L 444.985843 -262.588664 
L 431.170756 -262.588664 
L 417.355669 -262.588664 
L 403.540581 -262.588664 
L 389.725494 -262.38213 
L 375.910407 -262.38213 
L 362.09532 -262.38213 
L 348.280233 -262.38213 
L 334.465146 -262.38213 
L 320.650059 -262.38213 
L 306.834972 -262.38213 
L 293.019885 -262.38213 
L 279.204798 -262.38213 
L 265.389711 -262.38213 
L 251.574624 -262.38213 
L 237.759537 -262.38213 
L 223.94445 -262.38213 
L 210.129363 -262.38213 
L 196.314276 -262.38213 
L 182.499189 -262.244441 
L 168.684102 -262.037907 
L 154.869015 -261.762529 
L 141.053928 -261.762529 
L 127.238841 -261.762529 
L 113.423754 -261.62484 
L 99.608667 -257.838385 
L 85.79358 -257.838385 
z
" id="m81e247992d" style="stroke:#1f77b4;stroke-opacity:0.2;"/>
    </defs>
    <g clip-path="url(#p31e46167e1)">
     <use style="fill:#1f77b4;fill-opacity:0.2;stroke:#1f77b4;stroke-opacity:0.2;" x="0" xlink:href="#m81e247992d" y="325.986375"/>
    </g>
   </g>
   <g id="matplotlib.axis_1">
    <g id="xtick_1">
     <g id="line2d_1">
      <defs>
       <path d="M 0 0 
L 0 3.5 
" id="m9c28c80286" style="stroke:#000000;stroke-width:0.8;"/>
      </defs>
      <g>
       <use style="stroke:#000000;stroke-width:0.8;" x="85.79358" xlink:href="#m9c28c80286" y="288.430125"/>
      </g>
     </g>
     <g id="text_1">
      <!-- 15m -->
      <g transform="translate(74.560767 303.028562)scale(0.1 -0.1)">
       <defs>
        <path d="M 794 531 
L 1825 531 
L 1825 4091 
L 703 3866 
L 703 4441 
L 1819 4666 
L 2450 4666 
L 2450 531 
L 3481 531 
L 3481 0 
L 794 0 
L 794 531 
z
" id="DejaVuSans-31" transform="scale(0.015625)"/>
        <path d="M 691 4666 
L 3169 4666 
L 3169 4134 
L 1269 4134 
L 1269 2991 
Q 1406 3038 1543 3061 
Q 1681 3084 1819 3084 
Q 2600 3084 3056 2656 
Q 3513 2228 3513 1497 
Q 3513 744 3044 326 
Q 2575 -91 1722 -91 
Q 1428 -91 1123 -41 
Q 819 9 494 109 
L 494 744 
Q 775 591 1075 516 
Q 1375 441 1709 441 
Q 2250 441 2565 725 
Q 2881 1009 2881 1497 
Q 2881 1984 2565 2268 
Q 2250 2553 1709 2553 
Q 1456 2553 1204 2497 
Q 953 2441 691 2322 
L 691 4666 
z
" id="DejaVuSans-35" transform="scale(0.015625)"/>
        <path d="M 3328 2828 
Q 3544 3216 3844 3400 
Q 4144 3584 4550 3584 
Q 5097 3584 5394 3201 
Q 5691 2819 5691 2113 
L 5691 0 
L 5113 0 
L 5113 2094 
Q 5113 2597 4934 2840 
Q 4756 3084 4391 3084 
Q 3944 3084 3684 2787 
Q 3425 2491 3425 1978 
L 3425 0 
L 2847 0 
L 2847 2094 
Q 2847 2600 2669 2842 
Q 2491 3084 2119 3084 
Q 1678 3084 1418 2786 
Q 1159 2488 1159 1978 
L 1159 0 
L 581 0 
L 581 3500 
L 1159 3500 
L 1159 2956 
Q 1356 3278 1631 3431 
Q 1906 3584 2284 3584 
Q 2666 3584 2933 3390 
Q 3200 3197 3328 2828 
z
" id="DejaVuSans-6d" transform="scale(0.015625)"/>
       </defs>
       <use xlink:href="#DejaVuSans-31"/>
       <use x="63.623047" xlink:href="#DejaVuSans-35"/>
       <use x="127.246094" xlink:href="#DejaVuSans-6d"/>
      </g>
     </g>
    </g>
    <g id="xtick_2">
     <g id="line2d_2">
      <g>
       <use style="stroke:#000000;stroke-width:0.8;" x="141.053928" xlink:href="#m9c28c80286" y="288.430125"/>
      </g>
     </g>
     <g id="text_2">
      <!-- 1h:15m -->
      <g transform="translate(121.78674 303.028562)scale(0.1 -0.1)">
       <defs>
        <path d="M 3513 2113 
L 3513 0 
L 2938 0 
L 2938 2094 
Q 2938 2591 2744 2837 
Q 2550 3084 2163 3084 
Q 1697 3084 1428 2787 
Q 1159 2491 1159 1978 
L 1159 0 
L 581 0 
L 581 4863 
L 1159 4863 
L 1159 2956 
Q 1366 3272 1645 3428 
Q 1925 3584 2291 3584 
Q 2894 3584 3203 3211 
Q 3513 2838 3513 2113 
z
" id="DejaVuSans-68" transform="scale(0.015625)"/>
        <path d="M 750 794 
L 1409 794 
L 1409 0 
L 750 0 
L 750 794 
z
M 750 3309 
L 1409 3309 
L 1409 2516 
L 750 2516 
L 750 3309 
z
" id="DejaVuSans-3a" transform="scale(0.015625)"/>
       </defs>
       <use xlink:href="#DejaVuSans-31"/>
       <use x="63.623047" xlink:href="#DejaVuSans-68"/>
       <use x="127.001953" xlink:href="#DejaVuSans-3a"/>
       <use x="160.693359" xlink:href="#DejaVuSans-31"/>
       <use x="224.316406" xlink:href="#DejaVuSans-35"/>
       <use x="287.939453" xlink:href="#DejaVuSans-6d"/>
      </g>
     </g>
    </g>
    <g id="xtick_3">
     <g id="line2d_3">
      <g>
       <use style="stroke:#000000;stroke-width:0.8;" x="196.314276" xlink:href="#m9c28c80286" y="288.430125"/>
      </g>
     </g>
     <g id="text_3">
      <!-- 2h:15m -->
      <g transform="translate(177.047088 303.028562)scale(0.1 -0.1)">
       <defs>
        <path d="M 1228 531 
L 3431 531 
L 3431 0 
L 469 0 
L 469 531 
Q 828 903 1448 1529 
Q 2069 2156 2228 2338 
Q 2531 2678 2651 2914 
Q 2772 3150 2772 3378 
Q 2772 3750 2511 3984 
Q 2250 4219 1831 4219 
Q 1534 4219 1204 4116 
Q 875 4013 500 3803 
L 500 4441 
Q 881 4594 1212 4672 
Q 1544 4750 1819 4750 
Q 2544 4750 2975 4387 
Q 3406 4025 3406 3419 
Q 3406 3131 3298 2873 
Q 3191 2616 2906 2266 
Q 2828 2175 2409 1742 
Q 1991 1309 1228 531 
z
" id="DejaVuSans-32" transform="scale(0.015625)"/>
       </defs>
       <use xlink:href="#DejaVuSans-32"/>
       <use x="63.623047" xlink:href="#DejaVuSans-68"/>
       <use x="127.001953" xlink:href="#DejaVuSans-3a"/>
       <use x="160.693359" xlink:href="#DejaVuSans-31"/>
       <use x="224.316406" xlink:href="#DejaVuSans-35"/>
       <use x="287.939453" xlink:href="#DejaVuSans-6d"/>
      </g>
     </g>
    </g>
    <g id="xtick_4">
     <g id="line2d_4">
      <g>
       <use style="stroke:#000000;stroke-width:0.8;" x="251.574624" xlink:href="#m9c28c80286" y="288.430125"/>
      </g>
     </g>
     <g id="text_4">
      <!-- 3h:15m -->
      <g transform="translate(232.307437 303.028562)scale(0.1 -0.1)">
       <defs>
        <path d="M 2597 2516 
Q 3050 2419 3304 2112 
Q 3559 1806 3559 1356 
Q 3559 666 3084 287 
Q 2609 -91 1734 -91 
Q 1441 -91 1130 -33 
Q 819 25 488 141 
L 488 750 
Q 750 597 1062 519 
Q 1375 441 1716 441 
Q 2309 441 2620 675 
Q 2931 909 2931 1356 
Q 2931 1769 2642 2001 
Q 2353 2234 1838 2234 
L 1294 2234 
L 1294 2753 
L 1863 2753 
Q 2328 2753 2575 2939 
Q 2822 3125 2822 3475 
Q 2822 3834 2567 4026 
Q 2313 4219 1838 4219 
Q 1578 4219 1281 4162 
Q 984 4106 628 3988 
L 628 4550 
Q 988 4650 1302 4700 
Q 1616 4750 1894 4750 
Q 2613 4750 3031 4423 
Q 3450 4097 3450 3541 
Q 3450 3153 3228 2886 
Q 3006 2619 2597 2516 
z
" id="DejaVuSans-33" transform="scale(0.015625)"/>
       </defs>
       <use xlink:href="#DejaVuSans-33"/>
       <use x="63.623047" xlink:href="#DejaVuSans-68"/>
       <use x="127.001953" xlink:href="#DejaVuSans-3a"/>
       <use x="160.693359" xlink:href="#DejaVuSans-31"/>
       <use x="224.316406" xlink:href="#DejaVuSans-35"/>
       <use x="287.939453" xlink:href="#DejaVuSans-6d"/>
      </g>
     </g>
    </g>
    <g id="xtick_5">
     <g id="line2d_5">
      <g>
       <use style="stroke:#000000;stroke-width:0.8;" x="306.834972" xlink:href="#m9c28c80286" y="288.430125"/>
      </g>
     </g>
     <g id="text_5">
      <!-- 4h:15m -->
      <g transform="translate(287.567785 303.028562)scale(0.1 -0.1)">
       <defs>
        <path d="M 2419 4116 
L 825 1625 
L 2419 1625 
L 2419 4116 
z
M 2253 4666 
L 3047 4666 
L 3047 1625 
L 3713 1625 
L 3713 1100 
L 3047 1100 
L 3047 0 
L 2419 0 
L 2419 1100 
L 313 1100 
L 313 1709 
L 2253 4666 
z
" id="DejaVuSans-34" transform="scale(0.015625)"/>
       </defs>
       <use xlink:href="#DejaVuSans-34"/>
       <use x="63.623047" xlink:href="#DejaVuSans-68"/>
       <use x="127.001953" xlink:href="#DejaVuSans-3a"/>
       <use x="160.693359" xlink:href="#DejaVuSans-31"/>
       <use x="224.316406" xlink:href="#DejaVuSans-35"/>
       <use x="287.939453" xlink:href="#DejaVuSans-6d"/>
      </g>
     </g>
    </g>
    <g id="xtick_6">
     <g id="line2d_6">
      <g>
       <use style="stroke:#000000;stroke-width:0.8;" x="362.09532" xlink:href="#m9c28c80286" y="288.430125"/>
      </g>
     </g>
     <g id="text_6">
      <!-- 5h:15m -->
      <g transform="translate(342.828133 303.028562)scale(0.1 -0.1)">
       <use xlink:href="#DejaVuSans-35"/>
       <use x="63.623047" xlink:href="#DejaVuSans-68"/>
       <use x="127.001953" xlink:href="#DejaVuSans-3a"/>
       <use x="160.693359" xlink:href="#DejaVuSans-31"/>
       <use x="224.316406" xlink:href="#DejaVuSans-35"/>
       <use x="287.939453" xlink:href="#DejaVuSans-6d"/>
      </g>
     </g>
    </g>
    <g id="xtick_7">
     <g id="line2d_7">
      <g>
       <use style="stroke:#000000;stroke-width:0.8;" x="417.355669" xlink:href="#m9c28c80286" y="288.430125"/>
      </g>
     </g>
     <g id="text_7">
      <!-- 6h:15m -->
      <g transform="translate(398.088481 303.028562)scale(0.1 -0.1)">
       <defs>
        <path d="M 2113 2584 
Q 1688 2584 1439 2293 
Q 1191 2003 1191 1497 
Q 1191 994 1439 701 
Q 1688 409 2113 409 
Q 2538 409 2786 701 
Q 3034 994 3034 1497 
Q 3034 2003 2786 2293 
Q 2538 2584 2113 2584 
z
M 3366 4563 
L 3366 3988 
Q 3128 4100 2886 4159 
Q 2644 4219 2406 4219 
Q 1781 4219 1451 3797 
Q 1122 3375 1075 2522 
Q 1259 2794 1537 2939 
Q 1816 3084 2150 3084 
Q 2853 3084 3261 2657 
Q 3669 2231 3669 1497 
Q 3669 778 3244 343 
Q 2819 -91 2113 -91 
Q 1303 -91 875 529 
Q 447 1150 447 2328 
Q 447 3434 972 4092 
Q 1497 4750 2381 4750 
Q 2619 4750 2861 4703 
Q 3103 4656 3366 4563 
z
" id="DejaVuSans-36" transform="scale(0.015625)"/>
       </defs>
       <use xlink:href="#DejaVuSans-36"/>
       <use x="63.623047" xlink:href="#DejaVuSans-68"/>
       <use x="127.001953" xlink:href="#DejaVuSans-3a"/>
       <use x="160.693359" xlink:href="#DejaVuSans-31"/>
       <use x="224.316406" xlink:href="#DejaVuSans-35"/>
       <use x="287.939453" xlink:href="#DejaVuSans-6d"/>
      </g>
     </g>
    </g>
    <g id="xtick_8">
     <g id="line2d_8">
      <g>
       <use style="stroke:#000000;stroke-width:0.8;" x="472.616017" xlink:href="#m9c28c80286" y="288.430125"/>
      </g>
     </g>
     <g id="text_8">
      <!-- 7h:15m -->
      <g transform="translate(453.348829 303.028562)scale(0.1 -0.1)">
       <defs>
        <path d="M 525 4666 
L 3525 4666 
L 3525 4397 
L 1831 0 
L 1172 0 
L 2766 4134 
L 525 4134 
L 525 4666 
z
" id="DejaVuSans-37" transform="scale(0.015625)"/>
       </defs>
       <use xlink:href="#DejaVuSans-37"/>
       <use x="63.623047" xlink:href="#DejaVuSans-68"/>
       <use x="127.001953" xlink:href="#DejaVuSans-3a"/>
       <use x="160.693359" xlink:href="#DejaVuSans-31"/>
       <use x="224.316406" xlink:href="#DejaVuSans-35"/>
       <use x="287.939453" xlink:href="#DejaVuSans-6d"/>
      </g>
     </g>
    </g>
    <g id="xtick_9">
     <g id="line2d_9">
      <g>
       <use style="stroke:#000000;stroke-width:0.8;" x="527.876365" xlink:href="#m9c28c80286" y="288.430125"/>
      </g>
     </g>
     <g id="text_9">
      <!-- 8h:15m -->
      <g transform="translate(508.609177 303.028562)scale(0.1 -0.1)">
       <defs>
        <path d="M 2034 2216 
Q 1584 2216 1326 1975 
Q 1069 1734 1069 1313 
Q 1069 891 1326 650 
Q 1584 409 2034 409 
Q 2484 409 2743 651 
Q 3003 894 3003 1313 
Q 3003 1734 2745 1975 
Q 2488 2216 2034 2216 
z
M 1403 2484 
Q 997 2584 770 2862 
Q 544 3141 544 3541 
Q 544 4100 942 4425 
Q 1341 4750 2034 4750 
Q 2731 4750 3128 4425 
Q 3525 4100 3525 3541 
Q 3525 3141 3298 2862 
Q 3072 2584 2669 2484 
Q 3125 2378 3379 2068 
Q 3634 1759 3634 1313 
Q 3634 634 3220 271 
Q 2806 -91 2034 -91 
Q 1263 -91 848 271 
Q 434 634 434 1313 
Q 434 1759 690 2068 
Q 947 2378 1403 2484 
z
M 1172 3481 
Q 1172 3119 1398 2916 
Q 1625 2713 2034 2713 
Q 2441 2713 2670 2916 
Q 2900 3119 2900 3481 
Q 2900 3844 2670 4047 
Q 2441 4250 2034 4250 
Q 1625 4250 1398 4047 
Q 1172 3844 1172 3481 
z
" id="DejaVuSans-38" transform="scale(0.015625)"/>
       </defs>
       <use xlink:href="#DejaVuSans-38"/>
       <use x="63.623047" xlink:href="#DejaVuSans-68"/>
       <use x="127.001953" xlink:href="#DejaVuSans-3a"/>
       <use x="160.693359" xlink:href="#DejaVuSans-31"/>
       <use x="224.316406" xlink:href="#DejaVuSans-35"/>
       <use x="287.939453" xlink:href="#DejaVuSans-6d"/>
      </g>
     </g>
    </g>
    <g id="xtick_10">
     <g id="line2d_10">
      <g>
       <use style="stroke:#000000;stroke-width:0.8;" x="583.136713" xlink:href="#m9c28c80286" y="288.430125"/>
      </g>
     </g>
     <g id="text_10">
      <!-- 9h:15m -->
      <g transform="translate(563.869526 303.028562)scale(0.1 -0.1)">
       <defs>
        <path d="M 703 97 
L 703 672 
Q 941 559 1184 500 
Q 1428 441 1663 441 
Q 2288 441 2617 861 
Q 2947 1281 2994 2138 
Q 2813 1869 2534 1725 
Q 2256 1581 1919 1581 
Q 1219 1581 811 2004 
Q 403 2428 403 3163 
Q 403 3881 828 4315 
Q 1253 4750 1959 4750 
Q 2769 4750 3195 4129 
Q 3622 3509 3622 2328 
Q 3622 1225 3098 567 
Q 2575 -91 1691 -91 
Q 1453 -91 1209 -44 
Q 966 3 703 97 
z
M 1959 2075 
Q 2384 2075 2632 2365 
Q 2881 2656 2881 3163 
Q 2881 3666 2632 3958 
Q 2384 4250 1959 4250 
Q 1534 4250 1286 3958 
Q 1038 3666 1038 3163 
Q 1038 2656 1286 2365 
Q 1534 2075 1959 2075 
z
" id="DejaVuSans-39" transform="scale(0.015625)"/>
       </defs>
       <use xlink:href="#DejaVuSans-39"/>
       <use x="63.623047" xlink:href="#DejaVuSans-68"/>
       <use x="127.001953" xlink:href="#DejaVuSans-3a"/>
       <use x="160.693359" xlink:href="#DejaVuSans-31"/>
       <use x="224.316406" xlink:href="#DejaVuSans-35"/>
       <use x="287.939453" xlink:href="#DejaVuSans-6d"/>
      </g>
     </g>
    </g>
    <g id="xtick_11">
     <g id="line2d_11">
      <g>
       <use style="stroke:#000000;stroke-width:0.8;" x="638.397061" xlink:href="#m9c28c80286" y="288.430125"/>
      </g>
     </g>
     <g id="text_11">
      <!-- 10h:15m -->
      <g transform="translate(615.948624 303.028562)scale(0.1 -0.1)">
       <defs>
        <path d="M 2034 4250 
Q 1547 4250 1301 3770 
Q 1056 3291 1056 2328 
Q 1056 1369 1301 889 
Q 1547 409 2034 409 
Q 2525 409 2770 889 
Q 3016 1369 3016 2328 
Q 3016 3291 2770 3770 
Q 2525 4250 2034 4250 
z
M 2034 4750 
Q 2819 4750 3233 4129 
Q 3647 3509 3647 2328 
Q 3647 1150 3233 529 
Q 2819 -91 2034 -91 
Q 1250 -91 836 529 
Q 422 1150 422 2328 
Q 422 3509 836 4129 
Q 1250 4750 2034 4750 
z
" id="DejaVuSans-30" transform="scale(0.015625)"/>
       </defs>
       <use xlink:href="#DejaVuSans-31"/>
       <use x="63.623047" xlink:href="#DejaVuSans-30"/>
       <use x="127.246094" xlink:href="#DejaVuSans-68"/>
       <use x="190.625" xlink:href="#DejaVuSans-3a"/>
       <use x="224.316406" xlink:href="#DejaVuSans-31"/>
       <use x="287.939453" xlink:href="#DejaVuSans-35"/>
       <use x="351.5625" xlink:href="#DejaVuSans-6d"/>
      </g>
     </g>
    </g>
    <g id="xtick_12">
     <g id="line2d_12">
      <g>
       <use style="stroke:#000000;stroke-width:0.8;" x="693.657409" xlink:href="#m9c28c80286" y="288.430125"/>
      </g>
     </g>
     <g id="text_12">
      <!-- 11h:15m -->
      <g transform="translate(671.208972 303.028562)scale(0.1 -0.1)">
       <use xlink:href="#DejaVuSans-31"/>
       <use x="63.623047" xlink:href="#DejaVuSans-31"/>
       <use x="127.246094" xlink:href="#DejaVuSans-68"/>
       <use x="190.625" xlink:href="#DejaVuSans-3a"/>
       <use x="224.316406" xlink:href="#DejaVuSans-31"/>
       <use x="287.939453" xlink:href="#DejaVuSans-35"/>
       <use x="351.5625" xlink:href="#DejaVuSans-6d"/>
      </g>
     </g>
    </g>
    <g id="text_13">
     <!-- Time (hour:minute) -->
     <g transform="translate(362.041094 316.706687)scale(0.1 -0.1)">
      <defs>
       <path d="M -19 4666 
L 3928 4666 
L 3928 4134 
L 2272 4134 
L 2272 0 
L 1638 0 
L 1638 4134 
L -19 4134 
L -19 4666 
z
" id="DejaVuSans-54" transform="scale(0.015625)"/>
       <path d="M 603 3500 
L 1178 3500 
L 1178 0 
L 603 0 
L 603 3500 
z
M 603 4863 
L 1178 4863 
L 1178 4134 
L 603 4134 
L 603 4863 
z
" id="DejaVuSans-69" transform="scale(0.015625)"/>
       <path d="M 3597 1894 
L 3597 1613 
L 953 1613 
Q 991 1019 1311 708 
Q 1631 397 2203 397 
Q 2534 397 2845 478 
Q 3156 559 3463 722 
L 3463 178 
Q 3153 47 2828 -22 
Q 2503 -91 2169 -91 
Q 1331 -91 842 396 
Q 353 884 353 1716 
Q 353 2575 817 3079 
Q 1281 3584 2069 3584 
Q 2775 3584 3186 3129 
Q 3597 2675 3597 1894 
z
M 3022 2063 
Q 3016 2534 2758 2815 
Q 2500 3097 2075 3097 
Q 1594 3097 1305 2825 
Q 1016 2553 972 2059 
L 3022 2063 
z
" id="DejaVuSans-65" transform="scale(0.015625)"/>
       <path id="DejaVuSans-20" transform="scale(0.015625)"/>
       <path d="M 1984 4856 
Q 1566 4138 1362 3434 
Q 1159 2731 1159 2009 
Q 1159 1288 1364 580 
Q 1569 -128 1984 -844 
L 1484 -844 
Q 1016 -109 783 600 
Q 550 1309 550 2009 
Q 550 2706 781 3412 
Q 1013 4119 1484 4856 
L 1984 4856 
z
" id="DejaVuSans-28" transform="scale(0.015625)"/>
       <path d="M 1959 3097 
Q 1497 3097 1228 2736 
Q 959 2375 959 1747 
Q 959 1119 1226 758 
Q 1494 397 1959 397 
Q 2419 397 2687 759 
Q 2956 1122 2956 1747 
Q 2956 2369 2687 2733 
Q 2419 3097 1959 3097 
z
M 1959 3584 
Q 2709 3584 3137 3096 
Q 3566 2609 3566 1747 
Q 3566 888 3137 398 
Q 2709 -91 1959 -91 
Q 1206 -91 779 398 
Q 353 888 353 1747 
Q 353 2609 779 3096 
Q 1206 3584 1959 3584 
z
" id="DejaVuSans-6f" transform="scale(0.015625)"/>
       <path d="M 544 1381 
L 544 3500 
L 1119 3500 
L 1119 1403 
Q 1119 906 1312 657 
Q 1506 409 1894 409 
Q 2359 409 2629 706 
Q 2900 1003 2900 1516 
L 2900 3500 
L 3475 3500 
L 3475 0 
L 2900 0 
L 2900 538 
Q 2691 219 2414 64 
Q 2138 -91 1772 -91 
Q 1169 -91 856 284 
Q 544 659 544 1381 
z
M 1991 3584 
L 1991 3584 
z
" id="DejaVuSans-75" transform="scale(0.015625)"/>
       <path d="M 2631 2963 
Q 2534 3019 2420 3045 
Q 2306 3072 2169 3072 
Q 1681 3072 1420 2755 
Q 1159 2438 1159 1844 
L 1159 0 
L 581 0 
L 581 3500 
L 1159 3500 
L 1159 2956 
Q 1341 3275 1631 3429 
Q 1922 3584 2338 3584 
Q 2397 3584 2469 3576 
Q 2541 3569 2628 3553 
L 2631 2963 
z
" id="DejaVuSans-72" transform="scale(0.015625)"/>
       <path d="M 3513 2113 
L 3513 0 
L 2938 0 
L 2938 2094 
Q 2938 2591 2744 2837 
Q 2550 3084 2163 3084 
Q 1697 3084 1428 2787 
Q 1159 2491 1159 1978 
L 1159 0 
L 581 0 
L 581 3500 
L 1159 3500 
L 1159 2956 
Q 1366 3272 1645 3428 
Q 1925 3584 2291 3584 
Q 2894 3584 3203 3211 
Q 3513 2838 3513 2113 
z
" id="DejaVuSans-6e" transform="scale(0.015625)"/>
       <path d="M 1172 4494 
L 1172 3500 
L 2356 3500 
L 2356 3053 
L 1172 3053 
L 1172 1153 
Q 1172 725 1289 603 
Q 1406 481 1766 481 
L 2356 481 
L 2356 0 
L 1766 0 
Q 1100 0 847 248 
Q 594 497 594 1153 
L 594 3053 
L 172 3053 
L 172 3500 
L 594 3500 
L 594 4494 
L 1172 4494 
z
" id="DejaVuSans-74" transform="scale(0.015625)"/>
       <path d="M 513 4856 
L 1013 4856 
Q 1481 4119 1714 3412 
Q 1947 2706 1947 2009 
Q 1947 1309 1714 600 
Q 1481 -109 1013 -844 
L 513 -844 
Q 928 -128 1133 580 
Q 1338 1288 1338 2009 
Q 1338 2731 1133 3434 
Q 928 4138 513 4856 
z
" id="DejaVuSans-29" transform="scale(0.015625)"/>
      </defs>
      <use xlink:href="#DejaVuSans-54"/>
      <use x="57.958984" xlink:href="#DejaVuSans-69"/>
      <use x="85.742188" xlink:href="#DejaVuSans-6d"/>
      <use x="183.154297" xlink:href="#DejaVuSans-65"/>
      <use x="244.677734" xlink:href="#DejaVuSans-20"/>
      <use x="276.464844" xlink:href="#DejaVuSans-28"/>
      <use x="315.478516" xlink:href="#DejaVuSans-68"/>
      <use x="378.857422" xlink:href="#DejaVuSans-6f"/>
      <use x="440.039062" xlink:href="#DejaVuSans-75"/>
      <use x="503.417969" xlink:href="#DejaVuSans-72"/>
      <use x="542.78125" xlink:href="#DejaVuSans-3a"/>
      <use x="576.472656" xlink:href="#DejaVuSans-6d"/>
      <use x="673.884766" xlink:href="#DejaVuSans-69"/>
      <use x="701.667969" xlink:href="#DejaVuSans-6e"/>
      <use x="765.046875" xlink:href="#DejaVuSans-75"/>
      <use x="828.425781" xlink:href="#DejaVuSans-74"/>
      <use x="867.634766" xlink:href="#DejaVuSans-65"/>
      <use x="929.158203" xlink:href="#DejaVuSans-29"/>
     </g>
    </g>
   </g>
   <g id="matplotlib.axis_2">
    <g id="ytick_1">
     <g id="line2d_13">
      <defs>
       <path d="M 0 0 
L -3.5 0 
" id="m4c90ee87bd" style="stroke:#000000;stroke-width:0.8;"/>
      </defs>
      <g>
       <use style="stroke:#000000;stroke-width:0.8;" x="53.328125" xlink:href="#m4c90ee87bd" y="258.0903"/>
      </g>
     </g>
     <g id="text_14">
      <!-- 500 -->
      <g transform="translate(27.240625 261.889519)scale(0.1 -0.1)">
       <use xlink:href="#DejaVuSans-35"/>
       <use x="63.623047" xlink:href="#DejaVuSans-30"/>
       <use x="127.246094" xlink:href="#DejaVuSans-30"/>
      </g>
     </g>
    </g>
    <g id="ytick_2">
     <g id="line2d_14">
      <g>
       <use style="stroke:#000000;stroke-width:0.8;" x="53.328125" xlink:href="#m4c90ee87bd" y="223.66799"/>
      </g>
     </g>
     <g id="text_15">
      <!-- 1000 -->
      <g transform="translate(20.878125 227.467208)scale(0.1 -0.1)">
       <use xlink:href="#DejaVuSans-31"/>
       <use x="63.623047" xlink:href="#DejaVuSans-30"/>
       <use x="127.246094" xlink:href="#DejaVuSans-30"/>
       <use x="190.869141" xlink:href="#DejaVuSans-30"/>
      </g>
     </g>
    </g>
    <g id="ytick_3">
     <g id="line2d_15">
      <g>
       <use style="stroke:#000000;stroke-width:0.8;" x="53.328125" xlink:href="#m4c90ee87bd" y="189.245679"/>
      </g>
     </g>
     <g id="text_16">
      <!-- 1500 -->
      <g transform="translate(20.878125 193.044898)scale(0.1 -0.1)">
       <use xlink:href="#DejaVuSans-31"/>
       <use x="63.623047" xlink:href="#DejaVuSans-35"/>
       <use x="127.246094" xlink:href="#DejaVuSans-30"/>
       <use x="190.869141" xlink:href="#DejaVuSans-30"/>
      </g>
     </g>
    </g>
    <g id="ytick_4">
     <g id="line2d_16">
      <g>
       <use style="stroke:#000000;stroke-width:0.8;" x="53.328125" xlink:href="#m4c90ee87bd" y="154.823368"/>
      </g>
     </g>
     <g id="text_17">
      <!-- 2000 -->
      <g transform="translate(20.878125 158.622587)scale(0.1 -0.1)">
       <use xlink:href="#DejaVuSans-32"/>
       <use x="63.623047" xlink:href="#DejaVuSans-30"/>
       <use x="127.246094" xlink:href="#DejaVuSans-30"/>
       <use x="190.869141" xlink:href="#DejaVuSans-30"/>
      </g>
     </g>
    </g>
    <g id="ytick_5">
     <g id="line2d_17">
      <g>
       <use style="stroke:#000000;stroke-width:0.8;" x="53.328125" xlink:href="#m4c90ee87bd" y="120.401057"/>
      </g>
     </g>
     <g id="text_18">
      <!-- 2500 -->
      <g transform="translate(20.878125 124.200276)scale(0.1 -0.1)">
       <use xlink:href="#DejaVuSans-32"/>
       <use x="63.623047" xlink:href="#DejaVuSans-35"/>
       <use x="127.246094" xlink:href="#DejaVuSans-30"/>
       <use x="190.869141" xlink:href="#DejaVuSans-30"/>
      </g>
     </g>
    </g>
    <g id="ytick_6">
     <g id="line2d_18">
      <g>
       <use style="stroke:#000000;stroke-width:0.8;" x="53.328125" xlink:href="#m4c90ee87bd" y="85.978747"/>
      </g>
     </g>
     <g id="text_19">
      <!-- 3000 -->
      <g transform="translate(20.878125 89.777965)scale(0.1 -0.1)">
       <use xlink:href="#DejaVuSans-33"/>
       <use x="63.623047" xlink:href="#DejaVuSans-30"/>
       <use x="127.246094" xlink:href="#DejaVuSans-30"/>
       <use x="190.869141" xlink:href="#DejaVuSans-30"/>
      </g>
     </g>
    </g>
    <g id="ytick_7">
     <g id="line2d_19">
      <g>
       <use style="stroke:#000000;stroke-width:0.8;" x="53.328125" xlink:href="#m4c90ee87bd" y="51.556436"/>
      </g>
     </g>
     <g id="text_20">
      <!-- 3500 -->
      <g transform="translate(20.878125 55.355655)scale(0.1 -0.1)">
       <use xlink:href="#DejaVuSans-33"/>
       <use x="63.623047" xlink:href="#DejaVuSans-35"/>
       <use x="127.246094" xlink:href="#DejaVuSans-30"/>
       <use x="190.869141" xlink:href="#DejaVuSans-30"/>
      </g>
     </g>
    </g>
    <g id="text_21">
     <!-- Code region coverage -->
     <g transform="translate(14.798438 210.379594)rotate(-90)scale(0.1 -0.1)">
      <defs>
       <path d="M 4122 4306 
L 4122 3641 
Q 3803 3938 3442 4084 
Q 3081 4231 2675 4231 
Q 1875 4231 1450 3742 
Q 1025 3253 1025 2328 
Q 1025 1406 1450 917 
Q 1875 428 2675 428 
Q 3081 428 3442 575 
Q 3803 722 4122 1019 
L 4122 359 
Q 3791 134 3420 21 
Q 3050 -91 2638 -91 
Q 1578 -91 968 557 
Q 359 1206 359 2328 
Q 359 3453 968 4101 
Q 1578 4750 2638 4750 
Q 3056 4750 3426 4639 
Q 3797 4528 4122 4306 
z
" id="DejaVuSans-43" transform="scale(0.015625)"/>
       <path d="M 2906 2969 
L 2906 4863 
L 3481 4863 
L 3481 0 
L 2906 0 
L 2906 525 
Q 2725 213 2448 61 
Q 2172 -91 1784 -91 
Q 1150 -91 751 415 
Q 353 922 353 1747 
Q 353 2572 751 3078 
Q 1150 3584 1784 3584 
Q 2172 3584 2448 3432 
Q 2725 3281 2906 2969 
z
M 947 1747 
Q 947 1113 1208 752 
Q 1469 391 1925 391 
Q 2381 391 2643 752 
Q 2906 1113 2906 1747 
Q 2906 2381 2643 2742 
Q 2381 3103 1925 3103 
Q 1469 3103 1208 2742 
Q 947 2381 947 1747 
z
" id="DejaVuSans-64" transform="scale(0.015625)"/>
       <path d="M 2906 1791 
Q 2906 2416 2648 2759 
Q 2391 3103 1925 3103 
Q 1463 3103 1205 2759 
Q 947 2416 947 1791 
Q 947 1169 1205 825 
Q 1463 481 1925 481 
Q 2391 481 2648 825 
Q 2906 1169 2906 1791 
z
M 3481 434 
Q 3481 -459 3084 -895 
Q 2688 -1331 1869 -1331 
Q 1566 -1331 1297 -1286 
Q 1028 -1241 775 -1147 
L 775 -588 
Q 1028 -725 1275 -790 
Q 1522 -856 1778 -856 
Q 2344 -856 2625 -561 
Q 2906 -266 2906 331 
L 2906 616 
Q 2728 306 2450 153 
Q 2172 0 1784 0 
Q 1141 0 747 490 
Q 353 981 353 1791 
Q 353 2603 747 3093 
Q 1141 3584 1784 3584 
Q 2172 3584 2450 3431 
Q 2728 3278 2906 2969 
L 2906 3500 
L 3481 3500 
L 3481 434 
z
" id="DejaVuSans-67" transform="scale(0.015625)"/>
       <path d="M 3122 3366 
L 3122 2828 
Q 2878 2963 2633 3030 
Q 2388 3097 2138 3097 
Q 1578 3097 1268 2742 
Q 959 2388 959 1747 
Q 959 1106 1268 751 
Q 1578 397 2138 397 
Q 2388 397 2633 464 
Q 2878 531 3122 666 
L 3122 134 
Q 2881 22 2623 -34 
Q 2366 -91 2075 -91 
Q 1284 -91 818 406 
Q 353 903 353 1747 
Q 353 2603 823 3093 
Q 1294 3584 2113 3584 
Q 2378 3584 2631 3529 
Q 2884 3475 3122 3366 
z
" id="DejaVuSans-63" transform="scale(0.015625)"/>
       <path d="M 191 3500 
L 800 3500 
L 1894 563 
L 2988 3500 
L 3597 3500 
L 2284 0 
L 1503 0 
L 191 3500 
z
" id="DejaVuSans-76" transform="scale(0.015625)"/>
       <path d="M 2194 1759 
Q 1497 1759 1228 1600 
Q 959 1441 959 1056 
Q 959 750 1161 570 
Q 1363 391 1709 391 
Q 2188 391 2477 730 
Q 2766 1069 2766 1631 
L 2766 1759 
L 2194 1759 
z
M 3341 1997 
L 3341 0 
L 2766 0 
L 2766 531 
Q 2569 213 2275 61 
Q 1981 -91 1556 -91 
Q 1019 -91 701 211 
Q 384 513 384 1019 
Q 384 1609 779 1909 
Q 1175 2209 1959 2209 
L 2766 2209 
L 2766 2266 
Q 2766 2663 2505 2880 
Q 2244 3097 1772 3097 
Q 1472 3097 1187 3025 
Q 903 2953 641 2809 
L 641 3341 
Q 956 3463 1253 3523 
Q 1550 3584 1831 3584 
Q 2591 3584 2966 3190 
Q 3341 2797 3341 1997 
z
" id="DejaVuSans-61" transform="scale(0.015625)"/>
      </defs>
      <use xlink:href="#DejaVuSans-43"/>
      <use x="69.824219" xlink:href="#DejaVuSans-6f"/>
      <use x="131.005859" xlink:href="#DejaVuSans-64"/>
      <use x="194.482422" xlink:href="#DejaVuSans-65"/>
      <use x="256.005859" xlink:href="#DejaVuSans-20"/>
      <use x="287.792969" xlink:href="#DejaVuSans-72"/>
      <use x="326.65625" xlink:href="#DejaVuSans-65"/>
      <use x="388.179688" xlink:href="#DejaVuSans-67"/>
      <use x="451.65625" xlink:href="#DejaVuSans-69"/>
      <use x="479.439453" xlink:href="#DejaVuSans-6f"/>
      <use x="540.621094" xlink:href="#DejaVuSans-6e"/>
      <use x="604" xlink:href="#DejaVuSans-20"/>
      <use x="635.787109" xlink:href="#DejaVuSans-63"/>
      <use x="690.767578" xlink:href="#DejaVuSans-6f"/>
      <use x="751.949219" xlink:href="#DejaVuSans-76"/>
      <use x="811.128906" xlink:href="#DejaVuSans-65"/>
      <use x="872.652344" xlink:href="#DejaVuSans-72"/>
      <use x="913.765625" xlink:href="#DejaVuSans-61"/>
      <use x="975.044922" xlink:href="#DejaVuSans-67"/>
      <use x="1038.521484" xlink:href="#DejaVuSans-65"/>
     </g>
    </g>
   </g>
   <g id="line2d_20">
    <path clip-path="url(#p31e46167e1)" d="M 85.79358 83.913408 
L 99.608667 82.467671 
L 113.423754 82.054603 
L 127.238841 81.71038 
L 141.053928 65.118826 
L 154.869015 64.568069 
L 168.684102 64.155001 
L 182.499189 64.155001 
L 196.314276 64.155001 
L 210.129363 64.155001 
L 223.94445 60.024324 
L 237.759537 58.372053 
L 251.574624 58.165519 
L 265.389711 58.165519 
L 279.204798 40.541296 
L 293.019885 36.892531 
L 306.834972 35.722173 
L 320.650059 35.446794 
L 334.465146 35.033727 
L 348.280233 35.033727 
L 362.09532 34.827193 
L 375.910407 34.620659 
L 389.725494 34.620659 
L 403.540581 34.620659 
L 417.355669 34.620659 
L 431.170756 34.620659 
L 444.985843 34.620659 
L 458.80093 34.620659 
L 472.616017 34.620659 
L 486.431104 34.620659 
L 500.246191 34.620659 
L 514.061278 34.620659 
L 527.876365 34.620659 
L 541.691452 34.620659 
L 555.506539 34.620659 
L 569.321626 34.620659 
L 583.136713 34.620659 
L 596.9518 34.620659 
L 610.766887 34.620659 
L 624.581974 34.620659 
L 638.397061 34.620659 
L 652.212148 34.620659 
L 666.027235 34.620659 
L 679.842322 34.620659 
L 693.657409 34.620659 
L 707.472496 34.620659 
L 721.287583 34.620659 
L 735.10267 34.620659 
" style="fill:none;stroke:#d62728;stroke-linecap:square;stroke-width:1.5;"/>
    <defs>
     <path d="M 0 -3 
L -3 3 
L 3 3 
z
" id="mbdbf351c57" style="stroke:#ffffff;stroke-linejoin:miter;stroke-width:0.75;"/>
    </defs>
    <g clip-path="url(#p31e46167e1)">
     <use style="fill:#d62728;stroke:#ffffff;stroke-linejoin:miter;stroke-width:0.75;" x="85.79358" xlink:href="#mbdbf351c57" y="83.913408"/>
     <use style="fill:#d62728;stroke:#ffffff;stroke-linejoin:miter;stroke-width:0.75;" x="99.608667" xlink:href="#mbdbf351c57" y="82.467671"/>
     <use style="fill:#d62728;stroke:#ffffff;stroke-linejoin:miter;stroke-width:0.75;" x="113.423754" xlink:href="#mbdbf351c57" y="82.054603"/>
     <use style="fill:#d62728;stroke:#ffffff;stroke-linejoin:miter;stroke-width:0.75;" x="127.238841" xlink:href="#mbdbf351c57" y="81.71038"/>
     <use style="fill:#d62728;stroke:#ffffff;stroke-linejoin:miter;stroke-width:0.75;" x="141.053928" xlink:href="#mbdbf351c57" y="65.118826"/>
     <use style="fill:#d62728;stroke:#ffffff;stroke-linejoin:miter;stroke-width:0.75;" x="154.869015" xlink:href="#mbdbf351c57" y="64.568069"/>
     <use style="fill:#d62728;stroke:#ffffff;stroke-linejoin:miter;stroke-width:0.75;" x="168.684102" xlink:href="#mbdbf351c57" y="64.155001"/>
     <use style="fill:#d62728;stroke:#ffffff;stroke-linejoin:miter;stroke-width:0.75;" x="182.499189" xlink:href="#mbdbf351c57" y="64.155001"/>
     <use style="fill:#d62728;stroke:#ffffff;stroke-linejoin:miter;stroke-width:0.75;" x="196.314276" xlink:href="#mbdbf351c57" y="64.155001"/>
     <use style="fill:#d62728;stroke:#ffffff;stroke-linejoin:miter;stroke-width:0.75;" x="210.129363" xlink:href="#mbdbf351c57" y="64.155001"/>
     <use style="fill:#d62728;stroke:#ffffff;stroke-linejoin:miter;stroke-width:0.75;" x="223.94445" xlink:href="#mbdbf351c57" y="60.024324"/>
     <use style="fill:#d62728;stroke:#ffffff;stroke-linejoin:miter;stroke-width:0.75;" x="237.759537" xlink:href="#mbdbf351c57" y="58.372053"/>
     <use style="fill:#d62728;stroke:#ffffff;stroke-linejoin:miter;stroke-width:0.75;" x="251.574624" xlink:href="#mbdbf351c57" y="58.165519"/>
     <use style="fill:#d62728;stroke:#ffffff;stroke-linejoin:miter;stroke-width:0.75;" x="265.389711" xlink:href="#mbdbf351c57" y="58.165519"/>
     <use style="fill:#d62728;stroke:#ffffff;stroke-linejoin:miter;stroke-width:0.75;" x="279.204798" xlink:href="#mbdbf351c57" y="40.541296"/>
     <use style="fill:#d62728;stroke:#ffffff;stroke-linejoin:miter;stroke-width:0.75;" x="293.019885" xlink:href="#mbdbf351c57" y="36.892531"/>
     <use style="fill:#d62728;stroke:#ffffff;stroke-linejoin:miter;stroke-width:0.75;" x="306.834972" xlink:href="#mbdbf351c57" y="35.722173"/>
     <use style="fill:#d62728;stroke:#ffffff;stroke-linejoin:miter;stroke-width:0.75;" x="320.650059" xlink:href="#mbdbf351c57" y="35.446794"/>
     <use style="fill:#d62728;stroke:#ffffff;stroke-linejoin:miter;stroke-width:0.75;" x="334.465146" xlink:href="#mbdbf351c57" y="35.033727"/>
     <use style="fill:#d62728;stroke:#ffffff;stroke-linejoin:miter;stroke-width:0.75;" x="348.280233" xlink:href="#mbdbf351c57" y="35.033727"/>
     <use style="fill:#d62728;stroke:#ffffff;stroke-linejoin:miter;stroke-width:0.75;" x="362.09532" xlink:href="#mbdbf351c57" y="34.827193"/>
     <use style="fill:#d62728;stroke:#ffffff;stroke-linejoin:miter;stroke-width:0.75;" x="375.910407" xlink:href="#mbdbf351c57" y="34.620659"/>
     <use style="fill:#d62728;stroke:#ffffff;stroke-linejoin:miter;stroke-width:0.75;" x="389.725494" xlink:href="#mbdbf351c57" y="34.620659"/>
     <use style="fill:#d62728;stroke:#ffffff;stroke-linejoin:miter;stroke-width:0.75;" x="403.540581" xlink:href="#mbdbf351c57" y="34.620659"/>
     <use style="fill:#d62728;stroke:#ffffff;stroke-linejoin:miter;stroke-width:0.75;" x="417.355669" xlink:href="#mbdbf351c57" y="34.620659"/>
     <use style="fill:#d62728;stroke:#ffffff;stroke-linejoin:miter;stroke-width:0.75;" x="431.170756" xlink:href="#mbdbf351c57" y="34.620659"/>
     <use style="fill:#d62728;stroke:#ffffff;stroke-linejoin:miter;stroke-width:0.75;" x="444.985843" xlink:href="#mbdbf351c57" y="34.620659"/>
     <use style="fill:#d62728;stroke:#ffffff;stroke-linejoin:miter;stroke-width:0.75;" x="458.80093" xlink:href="#mbdbf351c57" y="34.620659"/>
     <use style="fill:#d62728;stroke:#ffffff;stroke-linejoin:miter;stroke-width:0.75;" x="472.616017" xlink:href="#mbdbf351c57" y="34.620659"/>
     <use style="fill:#d62728;stroke:#ffffff;stroke-linejoin:miter;stroke-width:0.75;" x="486.431104" xlink:href="#mbdbf351c57" y="34.620659"/>
     <use style="fill:#d62728;stroke:#ffffff;stroke-linejoin:miter;stroke-width:0.75;" x="500.246191" xlink:href="#mbdbf351c57" y="34.620659"/>
     <use style="fill:#d62728;stroke:#ffffff;stroke-linejoin:miter;stroke-width:0.75;" x="514.061278" xlink:href="#mbdbf351c57" y="34.620659"/>
     <use style="fill:#d62728;stroke:#ffffff;stroke-linejoin:miter;stroke-width:0.75;" x="527.876365" xlink:href="#mbdbf351c57" y="34.620659"/>
     <use style="fill:#d62728;stroke:#ffffff;stroke-linejoin:miter;stroke-width:0.75;" x="541.691452" xlink:href="#mbdbf351c57" y="34.620659"/>
     <use style="fill:#d62728;stroke:#ffffff;stroke-linejoin:miter;stroke-width:0.75;" x="555.506539" xlink:href="#mbdbf351c57" y="34.620659"/>
     <use style="fill:#d62728;stroke:#ffffff;stroke-linejoin:miter;stroke-width:0.75;" x="569.321626" xlink:href="#mbdbf351c57" y="34.620659"/>
     <use style="fill:#d62728;stroke:#ffffff;stroke-linejoin:miter;stroke-width:0.75;" x="583.136713" xlink:href="#mbdbf351c57" y="34.620659"/>
     <use style="fill:#d62728;stroke:#ffffff;stroke-linejoin:miter;stroke-width:0.75;" x="596.9518" xlink:href="#mbdbf351c57" y="34.620659"/>
     <use style="fill:#d62728;stroke:#ffffff;stroke-linejoin:miter;stroke-width:0.75;" x="610.766887" xlink:href="#mbdbf351c57" y="34.620659"/>
     <use style="fill:#d62728;stroke:#ffffff;stroke-linejoin:miter;stroke-width:0.75;" x="624.581974" xlink:href="#mbdbf351c57" y="34.620659"/>
     <use style="fill:#d62728;stroke:#ffffff;stroke-linejoin:miter;stroke-width:0.75;" x="638.397061" xlink:href="#mbdbf351c57" y="34.620659"/>
     <use style="fill:#d62728;stroke:#ffffff;stroke-linejoin:miter;stroke-width:0.75;" x="652.212148" xlink:href="#mbdbf351c57" y="34.620659"/>
     <use style="fill:#d62728;stroke:#ffffff;stroke-linejoin:miter;stroke-width:0.75;" x="666.027235" xlink:href="#mbdbf351c57" y="34.620659"/>
     <use style="fill:#d62728;stroke:#ffffff;stroke-linejoin:miter;stroke-width:0.75;" x="679.842322" xlink:href="#mbdbf351c57" y="34.620659"/>
     <use style="fill:#d62728;stroke:#ffffff;stroke-linejoin:miter;stroke-width:0.75;" x="693.657409" xlink:href="#mbdbf351c57" y="34.620659"/>
     <use style="fill:#d62728;stroke:#ffffff;stroke-linejoin:miter;stroke-width:0.75;" x="707.472496" xlink:href="#mbdbf351c57" y="34.620659"/>
     <use style="fill:#d62728;stroke:#ffffff;stroke-linejoin:miter;stroke-width:0.75;" x="721.287583" xlink:href="#mbdbf351c57" y="34.620659"/>
     <use style="fill:#d62728;stroke:#ffffff;stroke-linejoin:miter;stroke-width:0.75;" x="735.10267" xlink:href="#mbdbf351c57" y="34.620659"/>
    </g>
   </g>
   <g id="line2d_21">
    <path clip-path="url(#p31e46167e1)" d="M 85.79358 74.481695 
L 99.608667 68.974125 
L 113.423754 65.669583 
L 127.238841 65.118826 
L 141.053928 64.361535 
L 154.869015 64.361535 
L 168.684102 64.361535 
L 182.499189 64.361535 
L 196.314276 64.361535 
L 210.129363 64.361535 
L 223.94445 64.361535 
L 237.759537 64.361535 
L 251.574624 64.361535 
L 265.389711 64.361535 
L 279.204798 64.361535 
L 293.019885 64.361535 
L 306.834972 59.404723 
L 320.650059 59.404723 
L 334.465146 59.404723 
L 348.280233 59.404723 
L 362.09532 59.404723 
L 375.910407 59.404723 
L 389.725494 58.853966 
L 403.540581 58.853966 
L 417.355669 58.234364 
L 431.170756 58.234364 
L 444.985843 58.234364 
L 458.80093 58.234364 
L 472.616017 57.958986 
L 486.431104 57.958986 
L 500.246191 57.958986 
L 514.061278 57.958986 
L 527.876365 57.958986 
L 541.691452 57.958986 
L 555.506539 57.958986 
L 569.321626 57.958986 
L 583.136713 57.958986 
L 596.9518 57.958986 
L 610.766887 57.958986 
L 624.581974 57.958986 
L 638.397061 57.958986 
L 652.212148 57.958986 
L 666.027235 57.958986 
L 679.842322 57.958986 
L 693.657409 57.958986 
L 707.472496 57.958986 
L 721.287583 57.958986 
L 735.10267 57.958986 
" style="fill:none;stroke:#c7c7c7;stroke-linecap:square;stroke-width:1.5;"/>
    <defs>
     <path d="M -3 -0 
L 3 3 
L 3 -3 
z
" id="m9f804fe8bf" style="stroke:#ffffff;stroke-linejoin:miter;stroke-width:0.75;"/>
    </defs>
    <g clip-path="url(#p31e46167e1)">
     <use style="fill:#c7c7c7;stroke:#ffffff;stroke-linejoin:miter;stroke-width:0.75;" x="85.79358" xlink:href="#m9f804fe8bf" y="74.481695"/>
     <use style="fill:#c7c7c7;stroke:#ffffff;stroke-linejoin:miter;stroke-width:0.75;" x="99.608667" xlink:href="#m9f804fe8bf" y="68.974125"/>
     <use style="fill:#c7c7c7;stroke:#ffffff;stroke-linejoin:miter;stroke-width:0.75;" x="113.423754" xlink:href="#m9f804fe8bf" y="65.669583"/>
     <use style="fill:#c7c7c7;stroke:#ffffff;stroke-linejoin:miter;stroke-width:0.75;" x="127.238841" xlink:href="#m9f804fe8bf" y="65.118826"/>
     <use style="fill:#c7c7c7;stroke:#ffffff;stroke-linejoin:miter;stroke-width:0.75;" x="141.053928" xlink:href="#m9f804fe8bf" y="64.361535"/>
     <use style="fill:#c7c7c7;stroke:#ffffff;stroke-linejoin:miter;stroke-width:0.75;" x="154.869015" xlink:href="#m9f804fe8bf" y="64.361535"/>
     <use style="fill:#c7c7c7;stroke:#ffffff;stroke-linejoin:miter;stroke-width:0.75;" x="168.684102" xlink:href="#m9f804fe8bf" y="64.361535"/>
     <use style="fill:#c7c7c7;stroke:#ffffff;stroke-linejoin:miter;stroke-width:0.75;" x="182.499189" xlink:href="#m9f804fe8bf" y="64.361535"/>
     <use style="fill:#c7c7c7;stroke:#ffffff;stroke-linejoin:miter;stroke-width:0.75;" x="196.314276" xlink:href="#m9f804fe8bf" y="64.361535"/>
     <use style="fill:#c7c7c7;stroke:#ffffff;stroke-linejoin:miter;stroke-width:0.75;" x="210.129363" xlink:href="#m9f804fe8bf" y="64.361535"/>
     <use style="fill:#c7c7c7;stroke:#ffffff;stroke-linejoin:miter;stroke-width:0.75;" x="223.94445" xlink:href="#m9f804fe8bf" y="64.361535"/>
     <use style="fill:#c7c7c7;stroke:#ffffff;stroke-linejoin:miter;stroke-width:0.75;" x="237.759537" xlink:href="#m9f804fe8bf" y="64.361535"/>
     <use style="fill:#c7c7c7;stroke:#ffffff;stroke-linejoin:miter;stroke-width:0.75;" x="251.574624" xlink:href="#m9f804fe8bf" y="64.361535"/>
     <use style="fill:#c7c7c7;stroke:#ffffff;stroke-linejoin:miter;stroke-width:0.75;" x="265.389711" xlink:href="#m9f804fe8bf" y="64.361535"/>
     <use style="fill:#c7c7c7;stroke:#ffffff;stroke-linejoin:miter;stroke-width:0.75;" x="279.204798" xlink:href="#m9f804fe8bf" y="64.361535"/>
     <use style="fill:#c7c7c7;stroke:#ffffff;stroke-linejoin:miter;stroke-width:0.75;" x="293.019885" xlink:href="#m9f804fe8bf" y="64.361535"/>
     <use style="fill:#c7c7c7;stroke:#ffffff;stroke-linejoin:miter;stroke-width:0.75;" x="306.834972" xlink:href="#m9f804fe8bf" y="59.404723"/>
     <use style="fill:#c7c7c7;stroke:#ffffff;stroke-linejoin:miter;stroke-width:0.75;" x="320.650059" xlink:href="#m9f804fe8bf" y="59.404723"/>
     <use style="fill:#c7c7c7;stroke:#ffffff;stroke-linejoin:miter;stroke-width:0.75;" x="334.465146" xlink:href="#m9f804fe8bf" y="59.404723"/>
     <use style="fill:#c7c7c7;stroke:#ffffff;stroke-linejoin:miter;stroke-width:0.75;" x="348.280233" xlink:href="#m9f804fe8bf" y="59.404723"/>
     <use style="fill:#c7c7c7;stroke:#ffffff;stroke-linejoin:miter;stroke-width:0.75;" x="362.09532" xlink:href="#m9f804fe8bf" y="59.404723"/>
     <use style="fill:#c7c7c7;stroke:#ffffff;stroke-linejoin:miter;stroke-width:0.75;" x="375.910407" xlink:href="#m9f804fe8bf" y="59.404723"/>
     <use style="fill:#c7c7c7;stroke:#ffffff;stroke-linejoin:miter;stroke-width:0.75;" x="389.725494" xlink:href="#m9f804fe8bf" y="58.853966"/>
     <use style="fill:#c7c7c7;stroke:#ffffff;stroke-linejoin:miter;stroke-width:0.75;" x="403.540581" xlink:href="#m9f804fe8bf" y="58.853966"/>
     <use style="fill:#c7c7c7;stroke:#ffffff;stroke-linejoin:miter;stroke-width:0.75;" x="417.355669" xlink:href="#m9f804fe8bf" y="58.234364"/>
     <use style="fill:#c7c7c7;stroke:#ffffff;stroke-linejoin:miter;stroke-width:0.75;" x="431.170756" xlink:href="#m9f804fe8bf" y="58.234364"/>
     <use style="fill:#c7c7c7;stroke:#ffffff;stroke-linejoin:miter;stroke-width:0.75;" x="444.985843" xlink:href="#m9f804fe8bf" y="58.234364"/>
     <use style="fill:#c7c7c7;stroke:#ffffff;stroke-linejoin:miter;stroke-width:0.75;" x="458.80093" xlink:href="#m9f804fe8bf" y="58.234364"/>
     <use style="fill:#c7c7c7;stroke:#ffffff;stroke-linejoin:miter;stroke-width:0.75;" x="472.616017" xlink:href="#m9f804fe8bf" y="57.958986"/>
     <use style="fill:#c7c7c7;stroke:#ffffff;stroke-linejoin:miter;stroke-width:0.75;" x="486.431104" xlink:href="#m9f804fe8bf" y="57.958986"/>
     <use style="fill:#c7c7c7;stroke:#ffffff;stroke-linejoin:miter;stroke-width:0.75;" x="500.246191" xlink:href="#m9f804fe8bf" y="57.958986"/>
     <use style="fill:#c7c7c7;stroke:#ffffff;stroke-linejoin:miter;stroke-width:0.75;" x="514.061278" xlink:href="#m9f804fe8bf" y="57.958986"/>
     <use style="fill:#c7c7c7;stroke:#ffffff;stroke-linejoin:miter;stroke-width:0.75;" x="527.876365" xlink:href="#m9f804fe8bf" y="57.958986"/>
     <use style="fill:#c7c7c7;stroke:#ffffff;stroke-linejoin:miter;stroke-width:0.75;" x="541.691452" xlink:href="#m9f804fe8bf" y="57.958986"/>
     <use style="fill:#c7c7c7;stroke:#ffffff;stroke-linejoin:miter;stroke-width:0.75;" x="555.506539" xlink:href="#m9f804fe8bf" y="57.958986"/>
     <use style="fill:#c7c7c7;stroke:#ffffff;stroke-linejoin:miter;stroke-width:0.75;" x="569.321626" xlink:href="#m9f804fe8bf" y="57.958986"/>
     <use style="fill:#c7c7c7;stroke:#ffffff;stroke-linejoin:miter;stroke-width:0.75;" x="583.136713" xlink:href="#m9f804fe8bf" y="57.958986"/>
     <use style="fill:#c7c7c7;stroke:#ffffff;stroke-linejoin:miter;stroke-width:0.75;" x="596.9518" xlink:href="#m9f804fe8bf" y="57.958986"/>
     <use style="fill:#c7c7c7;stroke:#ffffff;stroke-linejoin:miter;stroke-width:0.75;" x="610.766887" xlink:href="#m9f804fe8bf" y="57.958986"/>
     <use style="fill:#c7c7c7;stroke:#ffffff;stroke-linejoin:miter;stroke-width:0.75;" x="624.581974" xlink:href="#m9f804fe8bf" y="57.958986"/>
     <use style="fill:#c7c7c7;stroke:#ffffff;stroke-linejoin:miter;stroke-width:0.75;" x="638.397061" xlink:href="#m9f804fe8bf" y="57.958986"/>
     <use style="fill:#c7c7c7;stroke:#ffffff;stroke-linejoin:miter;stroke-width:0.75;" x="652.212148" xlink:href="#m9f804fe8bf" y="57.958986"/>
     <use style="fill:#c7c7c7;stroke:#ffffff;stroke-linejoin:miter;stroke-width:0.75;" x="666.027235" xlink:href="#m9f804fe8bf" y="57.958986"/>
     <use style="fill:#c7c7c7;stroke:#ffffff;stroke-linejoin:miter;stroke-width:0.75;" x="679.842322" xlink:href="#m9f804fe8bf" y="57.958986"/>
     <use style="fill:#c7c7c7;stroke:#ffffff;stroke-linejoin:miter;stroke-width:0.75;" x="693.657409" xlink:href="#m9f804fe8bf" y="57.958986"/>
     <use style="fill:#c7c7c7;stroke:#ffffff;stroke-linejoin:miter;stroke-width:0.75;" x="707.472496" xlink:href="#m9f804fe8bf" y="57.958986"/>
     <use style="fill:#c7c7c7;stroke:#ffffff;stroke-linejoin:miter;stroke-width:0.75;" x="721.287583" xlink:href="#m9f804fe8bf" y="57.958986"/>
     <use style="fill:#c7c7c7;stroke:#ffffff;stroke-linejoin:miter;stroke-width:0.75;" x="735.10267" xlink:href="#m9f804fe8bf" y="57.958986"/>
    </g>
   </g>
   <g id="line2d_22">
    <path clip-path="url(#p31e46167e1)" d="M 85.79358 90.79787 
L 99.608667 69.249503 
L 113.423754 66.082651 
L 127.238841 65.669583 
L 141.053928 65.669583 
L 154.869015 65.256515 
L 168.684102 65.256515 
L 182.499189 64.43038 
L 196.314276 64.292691 
L 210.129363 64.223846 
L 223.94445 64.223846 
L 237.759537 64.223846 
L 251.574624 64.223846 
L 265.389711 63.948468 
L 279.204798 63.948468 
L 293.019885 63.948468 
L 306.834972 63.948468 
L 320.650059 63.948468 
L 334.465146 63.948468 
L 348.280233 63.741934 
L 362.09532 63.741934 
L 375.910407 63.741934 
L 389.725494 63.741934 
L 403.540581 63.741934 
L 417.355669 63.741934 
L 431.170756 63.741934 
L 444.985843 63.741934 
L 458.80093 63.741934 
L 472.616017 63.741934 
L 486.431104 63.604245 
L 500.246191 63.604245 
L 514.061278 63.604245 
L 527.876365 63.5354 
L 541.691452 63.5354 
L 555.506539 63.5354 
L 569.321626 63.5354 
L 583.136713 63.5354 
L 596.9518 63.397711 
L 610.766887 63.397711 
L 624.581974 63.397711 
L 638.397061 63.122332 
L 652.212148 63.122332 
L 666.027235 63.122332 
L 679.842322 63.122332 
L 693.657409 63.122332 
L 707.472496 63.122332 
L 721.287583 62.984643 
L 735.10267 62.984643 
" style="fill:none;stroke:#98df8a;stroke-linecap:square;stroke-width:1.5;"/>
    <defs>
     <path d="M -0 3 
L 3 -3 
L -3 -3 
z
" id="m22194a3258" style="stroke:#ffffff;stroke-linejoin:miter;stroke-width:0.75;"/>
    </defs>
    <g clip-path="url(#p31e46167e1)">
     <use style="fill:#98df8a;stroke:#ffffff;stroke-linejoin:miter;stroke-width:0.75;" x="85.79358" xlink:href="#m22194a3258" y="90.79787"/>
     <use style="fill:#98df8a;stroke:#ffffff;stroke-linejoin:miter;stroke-width:0.75;" x="99.608667" xlink:href="#m22194a3258" y="69.249503"/>
     <use style="fill:#98df8a;stroke:#ffffff;stroke-linejoin:miter;stroke-width:0.75;" x="113.423754" xlink:href="#m22194a3258" y="66.082651"/>
     <use style="fill:#98df8a;stroke:#ffffff;stroke-linejoin:miter;stroke-width:0.75;" x="127.238841" xlink:href="#m22194a3258" y="65.669583"/>
     <use style="fill:#98df8a;stroke:#ffffff;stroke-linejoin:miter;stroke-width:0.75;" x="141.053928" xlink:href="#m22194a3258" y="65.669583"/>
     <use style="fill:#98df8a;stroke:#ffffff;stroke-linejoin:miter;stroke-width:0.75;" x="154.869015" xlink:href="#m22194a3258" y="65.256515"/>
     <use style="fill:#98df8a;stroke:#ffffff;stroke-linejoin:miter;stroke-width:0.75;" x="168.684102" xlink:href="#m22194a3258" y="65.256515"/>
     <use style="fill:#98df8a;stroke:#ffffff;stroke-linejoin:miter;stroke-width:0.75;" x="182.499189" xlink:href="#m22194a3258" y="64.43038"/>
     <use style="fill:#98df8a;stroke:#ffffff;stroke-linejoin:miter;stroke-width:0.75;" x="196.314276" xlink:href="#m22194a3258" y="64.292691"/>
     <use style="fill:#98df8a;stroke:#ffffff;stroke-linejoin:miter;stroke-width:0.75;" x="210.129363" xlink:href="#m22194a3258" y="64.223846"/>
     <use style="fill:#98df8a;stroke:#ffffff;stroke-linejoin:miter;stroke-width:0.75;" x="223.94445" xlink:href="#m22194a3258" y="64.223846"/>
     <use style="fill:#98df8a;stroke:#ffffff;stroke-linejoin:miter;stroke-width:0.75;" x="237.759537" xlink:href="#m22194a3258" y="64.223846"/>
     <use style="fill:#98df8a;stroke:#ffffff;stroke-linejoin:miter;stroke-width:0.75;" x="251.574624" xlink:href="#m22194a3258" y="64.223846"/>
     <use style="fill:#98df8a;stroke:#ffffff;stroke-linejoin:miter;stroke-width:0.75;" x="265.389711" xlink:href="#m22194a3258" y="63.948468"/>
     <use style="fill:#98df8a;stroke:#ffffff;stroke-linejoin:miter;stroke-width:0.75;" x="279.204798" xlink:href="#m22194a3258" y="63.948468"/>
     <use style="fill:#98df8a;stroke:#ffffff;stroke-linejoin:miter;stroke-width:0.75;" x="293.019885" xlink:href="#m22194a3258" y="63.948468"/>
     <use style="fill:#98df8a;stroke:#ffffff;stroke-linejoin:miter;stroke-width:0.75;" x="306.834972" xlink:href="#m22194a3258" y="63.948468"/>
     <use style="fill:#98df8a;stroke:#ffffff;stroke-linejoin:miter;stroke-width:0.75;" x="320.650059" xlink:href="#m22194a3258" y="63.948468"/>
     <use style="fill:#98df8a;stroke:#ffffff;stroke-linejoin:miter;stroke-width:0.75;" x="334.465146" xlink:href="#m22194a3258" y="63.948468"/>
     <use style="fill:#98df8a;stroke:#ffffff;stroke-linejoin:miter;stroke-width:0.75;" x="348.280233" xlink:href="#m22194a3258" y="63.741934"/>
     <use style="fill:#98df8a;stroke:#ffffff;stroke-linejoin:miter;stroke-width:0.75;" x="362.09532" xlink:href="#m22194a3258" y="63.741934"/>
     <use style="fill:#98df8a;stroke:#ffffff;stroke-linejoin:miter;stroke-width:0.75;" x="375.910407" xlink:href="#m22194a3258" y="63.741934"/>
     <use style="fill:#98df8a;stroke:#ffffff;stroke-linejoin:miter;stroke-width:0.75;" x="389.725494" xlink:href="#m22194a3258" y="63.741934"/>
     <use style="fill:#98df8a;stroke:#ffffff;stroke-linejoin:miter;stroke-width:0.75;" x="403.540581" xlink:href="#m22194a3258" y="63.741934"/>
     <use style="fill:#98df8a;stroke:#ffffff;stroke-linejoin:miter;stroke-width:0.75;" x="417.355669" xlink:href="#m22194a3258" y="63.741934"/>
     <use style="fill:#98df8a;stroke:#ffffff;stroke-linejoin:miter;stroke-width:0.75;" x="431.170756" xlink:href="#m22194a3258" y="63.741934"/>
     <use style="fill:#98df8a;stroke:#ffffff;stroke-linejoin:miter;stroke-width:0.75;" x="444.985843" xlink:href="#m22194a3258" y="63.741934"/>
     <use style="fill:#98df8a;stroke:#ffffff;stroke-linejoin:miter;stroke-width:0.75;" x="458.80093" xlink:href="#m22194a3258" y="63.741934"/>
     <use style="fill:#98df8a;stroke:#ffffff;stroke-linejoin:miter;stroke-width:0.75;" x="472.616017" xlink:href="#m22194a3258" y="63.741934"/>
     <use style="fill:#98df8a;stroke:#ffffff;stroke-linejoin:miter;stroke-width:0.75;" x="486.431104" xlink:href="#m22194a3258" y="63.604245"/>
     <use style="fill:#98df8a;stroke:#ffffff;stroke-linejoin:miter;stroke-width:0.75;" x="500.246191" xlink:href="#m22194a3258" y="63.604245"/>
     <use style="fill:#98df8a;stroke:#ffffff;stroke-linejoin:miter;stroke-width:0.75;" x="514.061278" xlink:href="#m22194a3258" y="63.604245"/>
     <use style="fill:#98df8a;stroke:#ffffff;stroke-linejoin:miter;stroke-width:0.75;" x="527.876365" xlink:href="#m22194a3258" y="63.5354"/>
     <use style="fill:#98df8a;stroke:#ffffff;stroke-linejoin:miter;stroke-width:0.75;" x="541.691452" xlink:href="#m22194a3258" y="63.5354"/>
     <use style="fill:#98df8a;stroke:#ffffff;stroke-linejoin:miter;stroke-width:0.75;" x="555.506539" xlink:href="#m22194a3258" y="63.5354"/>
     <use style="fill:#98df8a;stroke:#ffffff;stroke-linejoin:miter;stroke-width:0.75;" x="569.321626" xlink:href="#m22194a3258" y="63.5354"/>
     <use style="fill:#98df8a;stroke:#ffffff;stroke-linejoin:miter;stroke-width:0.75;" x="583.136713" xlink:href="#m22194a3258" y="63.5354"/>
     <use style="fill:#98df8a;stroke:#ffffff;stroke-linejoin:miter;stroke-width:0.75;" x="596.9518" xlink:href="#m22194a3258" y="63.397711"/>
     <use style="fill:#98df8a;stroke:#ffffff;stroke-linejoin:miter;stroke-width:0.75;" x="610.766887" xlink:href="#m22194a3258" y="63.397711"/>
     <use style="fill:#98df8a;stroke:#ffffff;stroke-linejoin:miter;stroke-width:0.75;" x="624.581974" xlink:href="#m22194a3258" y="63.397711"/>
     <use style="fill:#98df8a;stroke:#ffffff;stroke-linejoin:miter;stroke-width:0.75;" x="638.397061" xlink:href="#m22194a3258" y="63.122332"/>
     <use style="fill:#98df8a;stroke:#ffffff;stroke-linejoin:miter;stroke-width:0.75;" x="652.212148" xlink:href="#m22194a3258" y="63.122332"/>
     <use style="fill:#98df8a;stroke:#ffffff;stroke-linejoin:miter;stroke-width:0.75;" x="666.027235" xlink:href="#m22194a3258" y="63.122332"/>
     <use style="fill:#98df8a;stroke:#ffffff;stroke-linejoin:miter;stroke-width:0.75;" x="679.842322" xlink:href="#m22194a3258" y="63.122332"/>
     <use style="fill:#98df8a;stroke:#ffffff;stroke-linejoin:miter;stroke-width:0.75;" x="693.657409" xlink:href="#m22194a3258" y="63.122332"/>
     <use style="fill:#98df8a;stroke:#ffffff;stroke-linejoin:miter;stroke-width:0.75;" x="707.472496" xlink:href="#m22194a3258" y="63.122332"/>
     <use style="fill:#98df8a;stroke:#ffffff;stroke-linejoin:miter;stroke-width:0.75;" x="721.287583" xlink:href="#m22194a3258" y="62.984643"/>
     <use style="fill:#98df8a;stroke:#ffffff;stroke-linejoin:miter;stroke-width:0.75;" x="735.10267" xlink:href="#m22194a3258" y="62.984643"/>
    </g>
   </g>
   <g id="line2d_23">
    <path clip-path="url(#p31e46167e1)" d="M 85.79358 84.119942 
L 99.608667 84.119942 
L 113.423754 64.636914 
L 127.238841 64.636914 
L 141.053928 64.43038 
L 154.869015 64.43038 
L 168.684102 64.223846 
L 182.499189 64.223846 
L 196.314276 64.223846 
L 210.129363 64.223846 
L 223.94445 64.223846 
L 237.759537 63.810778 
L 251.574624 63.810778 
L 265.389711 63.810778 
L 279.204798 63.810778 
L 293.019885 63.810778 
L 306.834972 63.810778 
L 320.650059 63.604245 
L 334.465146 63.604245 
L 348.280233 63.604245 
L 362.09532 63.604245 
L 375.910407 63.604245 
L 389.725494 63.604245 
L 403.540581 63.604245 
L 417.355669 63.604245 
L 431.170756 63.604245 
L 444.985843 63.604245 
L 458.80093 63.604245 
L 472.616017 63.604245 
L 486.431104 63.604245 
L 500.246191 63.604245 
L 514.061278 63.604245 
L 527.876365 63.604245 
L 541.691452 63.604245 
L 555.506539 63.604245 
L 569.321626 63.604245 
L 583.136713 63.604245 
L 596.9518 63.604245 
L 610.766887 63.604245 
L 624.581974 63.604245 
L 638.397061 63.604245 
L 652.212148 63.604245 
L 666.027235 63.604245 
L 679.842322 63.604245 
L 693.657409 63.604245 
L 707.472496 63.604245 
L 721.287583 63.604245 
L 735.10267 63.604245 
" style="fill:none;stroke:#1f77b4;stroke-linecap:square;stroke-width:1.5;"/>
    <defs>
     <path d="M 0 3 
C 0.795609 3 1.55874 2.683901 2.12132 2.12132 
C 2.683901 1.55874 3 0.795609 3 0 
C 3 -0.795609 2.683901 -1.55874 2.12132 -2.12132 
C 1.55874 -2.683901 0.795609 -3 0 -3 
C -0.795609 -3 -1.55874 -2.683901 -2.12132 -2.12132 
C -2.683901 -1.55874 -3 -0.795609 -3 0 
C -3 0.795609 -2.683901 1.55874 -2.12132 2.12132 
C -1.55874 2.683901 -0.795609 3 0 3 
z
" id="m18c7af6742" style="stroke:#ffffff;stroke-width:0.75;"/>
    </defs>
    <g clip-path="url(#p31e46167e1)">
     <use style="fill:#1f77b4;stroke:#ffffff;stroke-width:0.75;" x="85.79358" xlink:href="#m18c7af6742" y="84.119942"/>
     <use style="fill:#1f77b4;stroke:#ffffff;stroke-width:0.75;" x="99.608667" xlink:href="#m18c7af6742" y="84.119942"/>
     <use style="fill:#1f77b4;stroke:#ffffff;stroke-width:0.75;" x="113.423754" xlink:href="#m18c7af6742" y="64.636914"/>
     <use style="fill:#1f77b4;stroke:#ffffff;stroke-width:0.75;" x="127.238841" xlink:href="#m18c7af6742" y="64.636914"/>
     <use style="fill:#1f77b4;stroke:#ffffff;stroke-width:0.75;" x="141.053928" xlink:href="#m18c7af6742" y="64.43038"/>
     <use style="fill:#1f77b4;stroke:#ffffff;stroke-width:0.75;" x="154.869015" xlink:href="#m18c7af6742" y="64.43038"/>
     <use style="fill:#1f77b4;stroke:#ffffff;stroke-width:0.75;" x="168.684102" xlink:href="#m18c7af6742" y="64.223846"/>
     <use style="fill:#1f77b4;stroke:#ffffff;stroke-width:0.75;" x="182.499189" xlink:href="#m18c7af6742" y="64.223846"/>
     <use style="fill:#1f77b4;stroke:#ffffff;stroke-width:0.75;" x="196.314276" xlink:href="#m18c7af6742" y="64.223846"/>
     <use style="fill:#1f77b4;stroke:#ffffff;stroke-width:0.75;" x="210.129363" xlink:href="#m18c7af6742" y="64.223846"/>
     <use style="fill:#1f77b4;stroke:#ffffff;stroke-width:0.75;" x="223.94445" xlink:href="#m18c7af6742" y="64.223846"/>
     <use style="fill:#1f77b4;stroke:#ffffff;stroke-width:0.75;" x="237.759537" xlink:href="#m18c7af6742" y="63.810778"/>
     <use style="fill:#1f77b4;stroke:#ffffff;stroke-width:0.75;" x="251.574624" xlink:href="#m18c7af6742" y="63.810778"/>
     <use style="fill:#1f77b4;stroke:#ffffff;stroke-width:0.75;" x="265.389711" xlink:href="#m18c7af6742" y="63.810778"/>
     <use style="fill:#1f77b4;stroke:#ffffff;stroke-width:0.75;" x="279.204798" xlink:href="#m18c7af6742" y="63.810778"/>
     <use style="fill:#1f77b4;stroke:#ffffff;stroke-width:0.75;" x="293.019885" xlink:href="#m18c7af6742" y="63.810778"/>
     <use style="fill:#1f77b4;stroke:#ffffff;stroke-width:0.75;" x="306.834972" xlink:href="#m18c7af6742" y="63.810778"/>
     <use style="fill:#1f77b4;stroke:#ffffff;stroke-width:0.75;" x="320.650059" xlink:href="#m18c7af6742" y="63.604245"/>
     <use style="fill:#1f77b4;stroke:#ffffff;stroke-width:0.75;" x="334.465146" xlink:href="#m18c7af6742" y="63.604245"/>
     <use style="fill:#1f77b4;stroke:#ffffff;stroke-width:0.75;" x="348.280233" xlink:href="#m18c7af6742" y="63.604245"/>
     <use style="fill:#1f77b4;stroke:#ffffff;stroke-width:0.75;" x="362.09532" xlink:href="#m18c7af6742" y="63.604245"/>
     <use style="fill:#1f77b4;stroke:#ffffff;stroke-width:0.75;" x="375.910407" xlink:href="#m18c7af6742" y="63.604245"/>
     <use style="fill:#1f77b4;stroke:#ffffff;stroke-width:0.75;" x="389.725494" xlink:href="#m18c7af6742" y="63.604245"/>
     <use style="fill:#1f77b4;stroke:#ffffff;stroke-width:0.75;" x="403.540581" xlink:href="#m18c7af6742" y="63.604245"/>
     <use style="fill:#1f77b4;stroke:#ffffff;stroke-width:0.75;" x="417.355669" xlink:href="#m18c7af6742" y="63.604245"/>
     <use style="fill:#1f77b4;stroke:#ffffff;stroke-width:0.75;" x="431.170756" xlink:href="#m18c7af6742" y="63.604245"/>
     <use style="fill:#1f77b4;stroke:#ffffff;stroke-width:0.75;" x="444.985843" xlink:href="#m18c7af6742" y="63.604245"/>
     <use style="fill:#1f77b4;stroke:#ffffff;stroke-width:0.75;" x="458.80093" xlink:href="#m18c7af6742" y="63.604245"/>
     <use style="fill:#1f77b4;stroke:#ffffff;stroke-width:0.75;" x="472.616017" xlink:href="#m18c7af6742" y="63.604245"/>
     <use style="fill:#1f77b4;stroke:#ffffff;stroke-width:0.75;" x="486.431104" xlink:href="#m18c7af6742" y="63.604245"/>
     <use style="fill:#1f77b4;stroke:#ffffff;stroke-width:0.75;" x="500.246191" xlink:href="#m18c7af6742" y="63.604245"/>
     <use style="fill:#1f77b4;stroke:#ffffff;stroke-width:0.75;" x="514.061278" xlink:href="#m18c7af6742" y="63.604245"/>
     <use style="fill:#1f77b4;stroke:#ffffff;stroke-width:0.75;" x="527.876365" xlink:href="#m18c7af6742" y="63.604245"/>
     <use style="fill:#1f77b4;stroke:#ffffff;stroke-width:0.75;" x="541.691452" xlink:href="#m18c7af6742" y="63.604245"/>
     <use style="fill:#1f77b4;stroke:#ffffff;stroke-width:0.75;" x="555.506539" xlink:href="#m18c7af6742" y="63.604245"/>
     <use style="fill:#1f77b4;stroke:#ffffff;stroke-width:0.75;" x="569.321626" xlink:href="#m18c7af6742" y="63.604245"/>
     <use style="fill:#1f77b4;stroke:#ffffff;stroke-width:0.75;" x="583.136713" xlink:href="#m18c7af6742" y="63.604245"/>
     <use style="fill:#1f77b4;stroke:#ffffff;stroke-width:0.75;" x="596.9518" xlink:href="#m18c7af6742" y="63.604245"/>
     <use style="fill:#1f77b4;stroke:#ffffff;stroke-width:0.75;" x="610.766887" xlink:href="#m18c7af6742" y="63.604245"/>
     <use style="fill:#1f77b4;stroke:#ffffff;stroke-width:0.75;" x="624.581974" xlink:href="#m18c7af6742" y="63.604245"/>
     <use style="fill:#1f77b4;stroke:#ffffff;stroke-width:0.75;" x="638.397061" xlink:href="#m18c7af6742" y="63.604245"/>
     <use style="fill:#1f77b4;stroke:#ffffff;stroke-width:0.75;" x="652.212148" xlink:href="#m18c7af6742" y="63.604245"/>
     <use style="fill:#1f77b4;stroke:#ffffff;stroke-width:0.75;" x="666.027235" xlink:href="#m18c7af6742" y="63.604245"/>
     <use style="fill:#1f77b4;stroke:#ffffff;stroke-width:0.75;" x="679.842322" xlink:href="#m18c7af6742" y="63.604245"/>
     <use style="fill:#1f77b4;stroke:#ffffff;stroke-width:0.75;" x="693.657409" xlink:href="#m18c7af6742" y="63.604245"/>
     <use style="fill:#1f77b4;stroke:#ffffff;stroke-width:0.75;" x="707.472496" xlink:href="#m18c7af6742" y="63.604245"/>
     <use style="fill:#1f77b4;stroke:#ffffff;stroke-width:0.75;" x="721.287583" xlink:href="#m18c7af6742" y="63.604245"/>
     <use style="fill:#1f77b4;stroke:#ffffff;stroke-width:0.75;" x="735.10267" xlink:href="#m18c7af6742" y="63.604245"/>
    </g>
   </g>
   <g id="line2d_24"/>
   <g id="line2d_25"/>
   <g id="line2d_26"/>
   <g id="line2d_27"/>
   <g id="line2d_28">
    <path clip-path="url(#p31e46167e1)" d="M 735.10267 288.430125 
L 735.10267 22.318125 
" style="fill:none;stroke:#ff0000;stroke-linecap:square;stroke-width:1.5;"/>
   </g>
   <g id="patch_3">
    <path d="M 53.328125 258.0903 
L 53.328125 51.556436 
" style="fill:none;stroke:#000000;stroke-linecap:square;stroke-linejoin:miter;stroke-width:0.8;"/>
   </g>
   <g id="patch_4">
    <path d="M 85.79358 288.430125 
L 693.657409 288.430125 
" style="fill:none;stroke:#000000;stroke-linecap:square;stroke-linejoin:miter;stroke-width:0.8;"/>
   </g>
   <g id="text_22">
    <!-- libjpeg-turbo-07-2017 (12h, 3 trials/fuzzer) -->
    <g transform="translate(281.803438 16.318125)scale(0.12 -0.12)">
     <defs>
      <path d="M 603 4863 
L 1178 4863 
L 1178 0 
L 603 0 
L 603 4863 
z
" id="DejaVuSans-6c" transform="scale(0.015625)"/>
      <path d="M 3116 1747 
Q 3116 2381 2855 2742 
Q 2594 3103 2138 3103 
Q 1681 3103 1420 2742 
Q 1159 2381 1159 1747 
Q 1159 1113 1420 752 
Q 1681 391 2138 391 
Q 2594 391 2855 752 
Q 3116 1113 3116 1747 
z
M 1159 2969 
Q 1341 3281 1617 3432 
Q 1894 3584 2278 3584 
Q 2916 3584 3314 3078 
Q 3713 2572 3713 1747 
Q 3713 922 3314 415 
Q 2916 -91 2278 -91 
Q 1894 -91 1617 61 
Q 1341 213 1159 525 
L 1159 0 
L 581 0 
L 581 4863 
L 1159 4863 
L 1159 2969 
z
" id="DejaVuSans-62" transform="scale(0.015625)"/>
      <path d="M 603 3500 
L 1178 3500 
L 1178 -63 
Q 1178 -731 923 -1031 
Q 669 -1331 103 -1331 
L -116 -1331 
L -116 -844 
L 38 -844 
Q 366 -844 484 -692 
Q 603 -541 603 -63 
L 603 3500 
z
M 603 4863 
L 1178 4863 
L 1178 4134 
L 603 4134 
L 603 4863 
z
" id="DejaVuSans-6a" transform="scale(0.015625)"/>
      <path d="M 1159 525 
L 1159 -1331 
L 581 -1331 
L 581 3500 
L 1159 3500 
L 1159 2969 
Q 1341 3281 1617 3432 
Q 1894 3584 2278 3584 
Q 2916 3584 3314 3078 
Q 3713 2572 3713 1747 
Q 3713 922 3314 415 
Q 2916 -91 2278 -91 
Q 1894 -91 1617 61 
Q 1341 213 1159 525 
z
M 3116 1747 
Q 3116 2381 2855 2742 
Q 2594 3103 2138 3103 
Q 1681 3103 1420 2742 
Q 1159 2381 1159 1747 
Q 1159 1113 1420 752 
Q 1681 391 2138 391 
Q 2594 391 2855 752 
Q 3116 1113 3116 1747 
z
" id="DejaVuSans-70" transform="scale(0.015625)"/>
      <path d="M 313 2009 
L 1997 2009 
L 1997 1497 
L 313 1497 
L 313 2009 
z
" id="DejaVuSans-2d" transform="scale(0.015625)"/>
      <path d="M 750 794 
L 1409 794 
L 1409 256 
L 897 -744 
L 494 -744 
L 750 256 
L 750 794 
z
" id="DejaVuSans-2c" transform="scale(0.015625)"/>
      <path d="M 2834 3397 
L 2834 2853 
Q 2591 2978 2328 3040 
Q 2066 3103 1784 3103 
Q 1356 3103 1142 2972 
Q 928 2841 928 2578 
Q 928 2378 1081 2264 
Q 1234 2150 1697 2047 
L 1894 2003 
Q 2506 1872 2764 1633 
Q 3022 1394 3022 966 
Q 3022 478 2636 193 
Q 2250 -91 1575 -91 
Q 1294 -91 989 -36 
Q 684 19 347 128 
L 347 722 
Q 666 556 975 473 
Q 1284 391 1588 391 
Q 1994 391 2212 530 
Q 2431 669 2431 922 
Q 2431 1156 2273 1281 
Q 2116 1406 1581 1522 
L 1381 1569 
Q 847 1681 609 1914 
Q 372 2147 372 2553 
Q 372 3047 722 3315 
Q 1072 3584 1716 3584 
Q 2034 3584 2315 3537 
Q 2597 3491 2834 3397 
z
" id="DejaVuSans-73" transform="scale(0.015625)"/>
      <path d="M 1625 4666 
L 2156 4666 
L 531 -594 
L 0 -594 
L 1625 4666 
z
" id="DejaVuSans-2f" transform="scale(0.015625)"/>
      <path d="M 2375 4863 
L 2375 4384 
L 1825 4384 
Q 1516 4384 1395 4259 
Q 1275 4134 1275 3809 
L 1275 3500 
L 2222 3500 
L 2222 3053 
L 1275 3053 
L 1275 0 
L 697 0 
L 697 3053 
L 147 3053 
L 147 3500 
L 697 3500 
L 697 3744 
Q 697 4328 969 4595 
Q 1241 4863 1831 4863 
L 2375 4863 
z
" id="DejaVuSans-66" transform="scale(0.015625)"/>
      <path d="M 353 3500 
L 3084 3500 
L 3084 2975 
L 922 459 
L 3084 459 
L 3084 0 
L 275 0 
L 275 525 
L 2438 3041 
L 353 3041 
L 353 3500 
z
" id="DejaVuSans-7a" transform="scale(0.015625)"/>
     </defs>
     <use xlink:href="#DejaVuSans-6c"/>
     <use x="27.783203" xlink:href="#DejaVuSans-69"/>
     <use x="55.566406" xlink:href="#DejaVuSans-62"/>
     <use x="119.042969" xlink:href="#DejaVuSans-6a"/>
     <use x="146.826172" xlink:href="#DejaVuSans-70"/>
     <use x="210.302734" xlink:href="#DejaVuSans-65"/>
     <use x="271.826172" xlink:href="#DejaVuSans-67"/>
     <use x="335.302734" xlink:href="#DejaVuSans-2d"/>
     <use x="371.386719" xlink:href="#DejaVuSans-74"/>
     <use x="410.595703" xlink:href="#DejaVuSans-75"/>
     <use x="473.974609" xlink:href="#DejaVuSans-72"/>
     <use x="515.087891" xlink:href="#DejaVuSans-62"/>
     <use x="578.564453" xlink:href="#DejaVuSans-6f"/>
     <use x="641.621094" xlink:href="#DejaVuSans-2d"/>
     <use x="677.705078" xlink:href="#DejaVuSans-30"/>
     <use x="741.328125" xlink:href="#DejaVuSans-37"/>
     <use x="804.951172" xlink:href="#DejaVuSans-2d"/>
     <use x="841.035156" xlink:href="#DejaVuSans-32"/>
     <use x="904.658203" xlink:href="#DejaVuSans-30"/>
     <use x="968.28125" xlink:href="#DejaVuSans-31"/>
     <use x="1031.904297" xlink:href="#DejaVuSans-37"/>
     <use x="1095.527344" xlink:href="#DejaVuSans-20"/>
     <use x="1127.314453" xlink:href="#DejaVuSans-28"/>
     <use x="1166.328125" xlink:href="#DejaVuSans-31"/>
     <use x="1229.951172" xlink:href="#DejaVuSans-32"/>
     <use x="1293.574219" xlink:href="#DejaVuSans-68"/>
     <use x="1356.953125" xlink:href="#DejaVuSans-2c"/>
     <use x="1388.740234" xlink:href="#DejaVuSans-20"/>
     <use x="1420.527344" xlink:href="#DejaVuSans-33"/>
     <use x="1484.150391" xlink:href="#DejaVuSans-20"/>
     <use x="1515.9375" xlink:href="#DejaVuSans-74"/>
     <use x="1555.146484" xlink:href="#DejaVuSans-72"/>
     <use x="1596.259766" xlink:href="#DejaVuSans-69"/>
     <use x="1624.042969" xlink:href="#DejaVuSans-61"/>
     <use x="1685.322266" xlink:href="#DejaVuSans-6c"/>
     <use x="1713.105469" xlink:href="#DejaVuSans-73"/>
     <use x="1765.205078" xlink:href="#DejaVuSans-2f"/>
     <use x="1798.896484" xlink:href="#DejaVuSans-66"/>
     <use x="1834.101562" xlink:href="#DejaVuSans-75"/>
     <use x="1897.480469" xlink:href="#DejaVuSans-7a"/>
     <use x="1949.970703" xlink:href="#DejaVuSans-7a"/>
     <use x="2002.460938" xlink:href="#DejaVuSans-65"/>
     <use x="2063.984375" xlink:href="#DejaVuSans-72"/>
     <use x="2105.097656" xlink:href="#DejaVuSans-29"/>
    </g>
   </g>
   <g id="legend_1">
    <g id="line2d_29">
     <path d="M 771.568125 30.416562 
L 791.568125 30.416562 
" style="fill:none;stroke:#d62728;stroke-linecap:square;stroke-width:1.5;"/>
    </g>
    <g id="line2d_30">
     <defs>
      <path d="M 0 -3 
L -3 3 
L 3 3 
z
" id="m9a59b55e87" style="stroke:#d62728;stroke-linejoin:miter;"/>
     </defs>
     <g>
      <use style="fill:#d62728;stroke:#d62728;stroke-linejoin:miter;" x="781.568125" xlink:href="#m9a59b55e87" y="30.416562"/>
     </g>
    </g>
    <g id="text_23">
     <!-- aflplusplus -->
     <g transform="translate(799.568125 33.916562)scale(0.1 -0.1)">
      <use xlink:href="#DejaVuSans-61"/>
      <use x="61.279297" xlink:href="#DejaVuSans-66"/>
      <use x="96.484375" xlink:href="#DejaVuSans-6c"/>
      <use x="124.267578" xlink:href="#DejaVuSans-70"/>
      <use x="187.744141" xlink:href="#DejaVuSans-6c"/>
      <use x="215.527344" xlink:href="#DejaVuSans-75"/>
      <use x="278.90625" xlink:href="#DejaVuSans-73"/>
      <use x="331.005859" xlink:href="#DejaVuSans-70"/>
      <use x="394.482422" xlink:href="#DejaVuSans-6c"/>
      <use x="422.265625" xlink:href="#DejaVuSans-75"/>
      <use x="485.644531" xlink:href="#DejaVuSans-73"/>
     </g>
    </g>
    <g id="line2d_31">
     <path d="M 771.568125 45.094688 
L 791.568125 45.094688 
" style="fill:none;stroke:#c7c7c7;stroke-linecap:square;stroke-width:1.5;"/>
    </g>
    <g id="line2d_32">
     <defs>
      <path d="M -3 -0 
L 3 3 
L 3 -3 
z
" id="mcc5671b173" style="stroke:#c7c7c7;stroke-linejoin:miter;"/>
     </defs>
     <g>
      <use style="fill:#c7c7c7;stroke:#c7c7c7;stroke-linejoin:miter;" x="781.568125" xlink:href="#mcc5671b173" y="45.094688"/>
     </g>
    </g>
    <g id="text_24">
     <!-- waffle -->
     <g transform="translate(799.568125 48.594688)scale(0.1 -0.1)">
      <defs>
       <path d="M 269 3500 
L 844 3500 
L 1563 769 
L 2278 3500 
L 2956 3500 
L 3675 769 
L 4391 3500 
L 4966 3500 
L 4050 0 
L 3372 0 
L 2619 2869 
L 1863 0 
L 1184 0 
L 269 3500 
z
" id="DejaVuSans-77" transform="scale(0.015625)"/>
      </defs>
      <use xlink:href="#DejaVuSans-77"/>
      <use x="81.787109" xlink:href="#DejaVuSans-61"/>
      <use x="143.066406" xlink:href="#DejaVuSans-66"/>
      <use x="178.271484" xlink:href="#DejaVuSans-66"/>
      <use x="213.476562" xlink:href="#DejaVuSans-6c"/>
      <use x="241.259766" xlink:href="#DejaVuSans-65"/>
     </g>
    </g>
    <g id="line2d_33">
     <path d="M 771.568125 59.772812 
L 791.568125 59.772812 
" style="fill:none;stroke:#98df8a;stroke-linecap:square;stroke-width:1.5;"/>
    </g>
    <g id="line2d_34">
     <defs>
      <path d="M -0 3 
L 3 -3 
L -3 -3 
z
" id="m41efd48bcf" style="stroke:#98df8a;stroke-linejoin:miter;"/>
     </defs>
     <g>
      <use style="fill:#98df8a;stroke:#98df8a;stroke-linejoin:miter;" x="781.568125" xlink:href="#m41efd48bcf" y="59.772812"/>
     </g>
    </g>
    <g id="text_25">
     <!-- aflfast -->
     <g transform="translate(799.568125 63.272812)scale(0.1 -0.1)">
      <use xlink:href="#DejaVuSans-61"/>
      <use x="61.279297" xlink:href="#DejaVuSans-66"/>
      <use x="96.484375" xlink:href="#DejaVuSans-6c"/>
      <use x="124.267578" xlink:href="#DejaVuSans-66"/>
      <use x="159.472656" xlink:href="#DejaVuSans-61"/>
      <use x="220.751953" xlink:href="#DejaVuSans-73"/>
      <use x="272.851562" xlink:href="#DejaVuSans-74"/>
     </g>
    </g>
    <g id="line2d_35">
     <path d="M 771.568125 74.450938 
L 791.568125 74.450938 
" style="fill:none;stroke:#1f77b4;stroke-linecap:square;stroke-width:1.5;"/>
    </g>
    <g id="line2d_36">
     <defs>
      <path d="M 0 3 
C 0.795609 3 1.55874 2.683901 2.12132 2.12132 
C 2.683901 1.55874 3 0.795609 3 0 
C 3 -0.795609 2.683901 -1.55874 2.12132 -2.12132 
C 1.55874 -2.683901 0.795609 -3 0 -3 
C -0.795609 -3 -1.55874 -2.683901 -2.12132 -2.12132 
C -2.683901 -1.55874 -3 -0.795609 -3 0 
C -3 0.795609 -2.683901 1.55874 -2.12132 2.12132 
C -1.55874 2.683901 -0.795609 3 0 3 
z
" id="mdfed229ef7" style="stroke:#1f77b4;"/>
     </defs>
     <g>
      <use style="fill:#1f77b4;stroke:#1f77b4;" x="781.568125" xlink:href="#mdfed229ef7" y="74.450938"/>
     </g>
    </g>
    <g id="text_26">
     <!-- afl -->
     <g transform="translate(799.568125 77.950938)scale(0.1 -0.1)">
      <use xlink:href="#DejaVuSans-61"/>
      <use x="61.279297" xlink:href="#DejaVuSans-66"/>
      <use x="96.484375" xlink:href="#DejaVuSans-6c"/>
     </g>
    </g>
   </g>
  </g>
 </g>
 <defs>
  <clipPath id="p31e46167e1">
   <rect height="266.112" width="714.24" x="53.328125" y="22.318125"/>
  </clipPath>
 </defs>
</svg>
