<?xml version="1.0" encoding="utf-8" standalone="no"?>
<!DOCTYPE svg PUBLIC "-//W3C//DTD SVG 1.1//EN"
  "http://www.w3.org/Graphics/SVG/1.1/DTD/svg11.dtd">
<svg height="325.986375pt" version="1.1" viewBox="0 0 870.904062 325.986375" width="870.904062pt" xmlns="http://www.w3.org/2000/svg" xmlns:xlink="http://www.w3.org/1999/xlink">
 <metadata>
  <rdf:RDF xmlns:cc="http://creativecommons.org/ns#" xmlns:dc="http://purl.org/dc/elements/1.1/" xmlns:rdf="http://www.w3.org/1999/02/22-rdf-syntax-ns#">
   <cc:Work>
    <dc:type rdf:resource="http://purl.org/dc/dcmitype/StillImage"/>
    <dc:date>2021-12-06T07:27:44.044958</dc:date>
    <dc:format>image/svg+xml</dc:format>
    <dc:creator>
     <cc:Agent>
      <dc:title>Matplotlib v3.4.1, https://matplotlib.org/</dc:title>
     </cc:Agent>
    </dc:creator>
   </cc:Work>
  </rdf:RDF>
 </metadata>
 <defs>
  <style type="text/css">*{stroke-linecap:butt;stroke-linejoin:round;}</style>
 </defs>
 <g id="figure_1">
  <g id="patch_1">
   <path d="M 0 325.986375 
L 870.904062 325.986375 
L 870.904062 0 
L 0 0 
z
" style="fill:#ffffff;"/>
  </g>
  <g id="axes_1">
   <g id="patch_2">
    <path d="M 59.690625 288.430125 
L 773.930625 288.430125 
L 773.930625 22.318125 
L 59.690625 22.318125 
z
" style="fill:#ffffff;"/>
   </g>
   <g id="PolyCollection_1">
    <defs>
     <path d="M 92.15608 -192.311048 
L 92.15608 -185.821251 
L 105.971167 -189.159528 
L 119.786254 -219.274051 
L 133.601341 -250.929316 
L 147.416428 -255.57489 
L 161.231515 -255.57489 
L 175.046602 -262.718335 
L 188.861689 -262.718335 
L 202.676776 -265.356274 
L 216.491863 -266.079956 
L 230.30695 -266.640226 
L 244.122037 -267.667388 
L 257.937124 -267.87749 
L 271.752211 -267.87749 
L 285.567298 -267.87749 
L 299.382385 -267.87749 
L 313.197472 -268.787929 
L 327.012559 -269.534956 
L 340.827646 -269.675023 
L 354.642733 -269.675023 
L 368.45782 -269.675023 
L 382.272907 -269.768402 
L 396.087994 -269.768402 
L 409.903081 -270.865597 
L 423.718169 -272.663131 
L 437.533256 -273.526881 
L 451.348343 -273.526881 
L 465.16343 -273.807016 
L 478.978517 -273.807016 
L 492.793604 -273.807016 
L 506.608691 -273.807016 
L 520.423778 -274.297252 
L 534.238865 -274.390631 
L 548.053952 -274.390631 
L 561.869039 -274.390631 
L 575.684126 -274.390631 
L 589.499213 -274.390631 
L 603.3143 -274.413975 
L 617.129387 -274.413975 
L 630.944474 -274.413975 
L 644.759561 -274.413975 
L 658.574648 -274.670766 
L 672.389735 -275.417793 
L 686.204822 -275.441137 
L 700.019909 -275.441137 
L 713.834996 -275.441137 
L 727.650083 -275.487827 
L 741.46517 -275.511171 
L 741.46517 -291.57225 
L 741.46517 -291.57225 
L 727.650083 -291.035324 
L 713.834996 -291.01198 
L 700.019909 -290.918601 
L 686.204822 -290.848568 
L 672.389735 -290.848568 
L 658.574648 -290.801878 
L 644.759561 -290.568433 
L 630.944474 -290.545088 
L 617.129387 -290.545088 
L 603.3143 -290.545088 
L 589.499213 -290.545088 
L 575.684126 -290.545088 
L 561.869039 -290.381676 
L 548.053952 -290.311642 
L 534.238865 -289.657994 
L 520.423778 -289.657994 
L 506.608691 -289.074379 
L 492.793604 -289.074379 
L 478.978517 -289.074379 
L 465.16343 -289.074379 
L 451.348343 -289.074379 
L 437.533256 -288.770899 
L 423.718169 -288.770899 
L 409.903081 -288.374041 
L 396.087994 -288.374041 
L 382.272907 -288.233973 
L 368.45782 -288.210629 
L 354.642733 -288.11725 
L 340.827646 -288.11725 
L 327.012559 -288.070561 
L 313.197472 -288.070561 
L 299.382385 -288.047217 
L 285.567298 -287.486947 
L 271.752211 -287.463602 
L 257.937124 -286.973366 
L 244.122037 -286.903332 
L 230.30695 -285.26921 
L 216.491863 -283.868535 
L 202.676776 -282.467859 
L 188.861689 -280.180089 
L 175.046602 -274.507354 
L 161.231515 -266.079956 
L 147.416428 -263.115193 
L 133.601341 -255.901714 
L 119.786254 -240.751075 
L 105.971167 -219.274051 
L 92.15608 -192.311048 
z
" id="med710f41af" style="stroke:#1f77b4;stroke-opacity:0.2;"/>
    </defs>
    <g clip-path="url(#p24e95858fb)">
     <use style="fill:#1f77b4;fill-opacity:0.2;stroke:#1f77b4;stroke-opacity:0.2;" x="0" xlink:href="#med710f41af" y="325.986375"/>
    </g>
   </g>
   <g id="PolyCollection_2">
    <defs>
     <path d="M 92.15608 -178.000813 
L 92.15608 -174.1723 
L 105.971167 -185.564461 
L 119.786254 -200.248209 
L 133.601341 -204.566958 
L 147.416428 -223.359354 
L 161.231515 -235.84871 
L 175.046602 -237.062629 
L 188.861689 -241.054554 
L 202.676776 -247.217526 
L 216.491863 -250.976006 
L 230.30695 -258.773099 
L 244.122037 -259.380059 
L 257.937124 -259.636849 
L 271.752211 -260.360531 
L 285.567298 -261.481072 
L 299.382385 -265.963233 
L 313.197472 -266.360091 
L 327.012559 -267.690733 
L 340.827646 -267.994213 
L 354.642733 -268.227659 
L 368.45782 -268.414415 
L 382.272907 -268.69455 
L 396.087994 -268.717895 
L 409.903081 -268.811273 
L 423.718169 -270.001848 
L 437.533256 -270.235294 
L 451.348343 -270.235294 
L 465.16343 -270.305327 
L 478.978517 -270.398706 
L 492.793604 -270.912287 
L 506.608691 -270.912287 
L 520.423778 -270.935631 
L 534.238865 -270.958976 
L 548.053952 -271.752692 
L 561.869039 -272.312962 
L 575.684126 -272.546408 
L 589.499213 -274.13384 
L 603.3143 -274.484009 
L 617.129387 -274.810833 
L 630.944474 -275.347759 
L 644.759561 -275.441137 
L 658.574648 -275.651239 
L 672.389735 -275.931374 
L 686.204822 -277.962353 
L 700.019909 -278.079076 
L 713.834996 -278.102421 
L 727.650083 -278.102421 
L 741.46517 -278.102421 
L 741.46517 -281.767522 
L 741.46517 -281.767522 
L 727.650083 -281.767522 
L 713.834996 -281.767522 
L 700.019909 -281.767522 
L 686.204822 -281.60411 
L 672.389735 -281.60411 
L 658.574648 -281.323974 
L 644.759561 -281.137218 
L 630.944474 -279.783231 
L 617.129387 -279.736542 
L 603.3143 -279.01286 
L 589.499213 -278.989515 
L 575.684126 -278.919481 
L 561.869039 -278.592657 
L 548.053952 -278.545968 
L 534.238865 -278.125765 
L 520.423778 -278.125765 
L 506.608691 -277.985698 
L 492.793604 -277.985698 
L 478.978517 -277.985698 
L 465.16343 -277.542151 
L 451.348343 -276.935191 
L 437.533256 -276.585022 
L 423.718169 -276.141475 
L 409.903081 -275.767962 
L 396.087994 -275.721272 
L 382.272907 -275.487827 
L 368.45782 -274.460665 
L 354.642733 -273.550225 
L 340.827646 -272.686476 
L 327.012559 -272.126205 
L 313.197472 -271.58928 
L 299.382385 -271.379178 
L 285.567298 -270.562118 
L 271.752211 -267.947524 
L 257.937124 -267.57401 
L 244.122037 -265.169517 
L 230.30695 -262.414855 
L 216.491863 -259.683538 
L 202.676776 -258.329552 
L 188.861689 -255.995093 
L 175.046602 -249.692053 
L 161.231515 -242.71202 
L 147.416428 -241.474757 
L 133.601341 -234.961616 
L 119.786254 -220.114456 
L 105.971167 -199.571216 
L 92.15608 -178.000813 
z
" id="mfef2a8e289" style="stroke:#d62728;stroke-opacity:0.2;"/>
    </defs>
    <g clip-path="url(#p24e95858fb)">
     <use style="fill:#d62728;fill-opacity:0.2;stroke:#d62728;stroke-opacity:0.2;" x="0" xlink:href="#mfef2a8e289" y="325.986375"/>
    </g>
   </g>
   <g id="PolyCollection_3">
    <defs>
     <path d="M 92.15608 -167.30899 
L 92.15608 -161.402809 
L 105.971167 -161.402809 
L 119.786254 -170.927402 
L 133.601341 -173.938854 
L 147.416428 -183.650204 
L 161.231515 -185.05088 
L 175.046602 -185.494427 
L 188.861689 -186.918447 
L 202.676776 -187.805542 
L 216.491863 -195.859426 
L 230.30695 -196.326317 
L 244.122037 -204.870438 
L 257.937124 -206.45787 
L 271.752211 -206.924762 
L 285.567298 -207.111519 
L 299.382385 -210.613207 
L 313.197472 -210.659896 
L 327.012559 -210.659896 
L 340.827646 -210.659896 
L 354.642733 -220.954861 
L 368.45782 -220.954861 
L 382.272907 -225.203577 
L 396.087994 -234.681481 
L 409.903081 -234.938271 
L 423.718169 -234.938271 
L 437.533256 -236.479014 
L 451.348343 -250.158945 
L 465.16343 -250.158945 
L 478.978517 -250.205634 
L 492.793604 -252.796884 
L 506.608691 -257.675903 
L 520.423778 -257.699248 
L 534.238865 -266.336747 
L 548.053952 -269.908469 
L 561.869039 -271.799381 
L 575.684126 -271.799381 
L 589.499213 -271.799381 
L 603.3143 -271.799381 
L 617.129387 -271.799381 
L 630.944474 -271.799381 
L 644.759561 -271.799381 
L 658.574648 -271.84607 
L 672.389735 -271.869415 
L 686.204822 -271.869415 
L 700.019909 -272.056172 
L 713.834996 -273.57357 
L 727.650083 -273.666948 
L 741.46517 -273.666948 
L 741.46517 -283.471677 
L 741.46517 -283.471677 
L 727.650083 -283.471677 
L 713.834996 -283.471677 
L 700.019909 -283.471677 
L 686.204822 -283.471677 
L 672.389735 -283.471677 
L 658.574648 -283.471677 
L 644.759561 -283.471677 
L 630.944474 -283.448332 
L 617.129387 -282.888062 
L 603.3143 -282.888062 
L 589.499213 -278.919481 
L 575.684126 -278.919481 
L 561.869039 -275.114313 
L 548.053952 -275.114313 
L 534.238865 -274.927556 
L 520.423778 -274.927556 
L 506.608691 -274.927556 
L 492.793604 -274.927556 
L 478.978517 -274.880867 
L 465.16343 -274.367286 
L 451.348343 -269.86178 
L 437.533256 -269.441577 
L 423.718169 -268.531138 
L 409.903081 -265.729787 
L 396.087994 -265.729787 
L 382.272907 -262.041342 
L 368.45782 -262.017997 
L 354.642733 -253.450532 
L 340.827646 -250.299013 
L 327.012559 -234.027832 
L 313.197472 -231.973508 
L 299.382385 -231.459927 
L 285.567298 -225.413678 
L 271.752211 -224.433205 
L 257.937124 -220.534659 
L 244.122037 -218.597057 
L 230.30695 -214.324997 
L 216.491863 -214.18493 
L 202.676776 -210.683241 
L 188.861689 -210.683241 
L 175.046602 -210.683241 
L 161.231515 -203.749897 
L 147.416428 -191.797467 
L 133.601341 -191.073784 
L 119.786254 -182.716421 
L 105.971167 -174.359057 
L 92.15608 -167.30899 
z
" id="m3572492831" style="stroke:#c7c7c7;stroke-opacity:0.2;"/>
    </defs>
    <g clip-path="url(#p24e95858fb)">
     <use style="fill:#c7c7c7;fill-opacity:0.2;stroke:#c7c7c7;stroke-opacity:0.2;" x="0" xlink:href="#m3572492831" y="325.986375"/>
    </g>
   </g>
   <g id="PolyCollection_4">
    <defs>
     <path d="M 92.15608 -184.467265 
L 92.15608 -49.65225 
L 105.971167 -49.815662 
L 119.786254 -209.282566 
L 133.601341 -216.496044 
L 147.416428 -222.892462 
L 161.231515 -233.537596 
L 175.046602 -237.926379 
L 188.861689 -241.84827 
L 202.676776 -247.661074 
L 216.491863 -247.661074 
L 230.30695 -254.104181 
L 244.122037 -257.232356 
L 257.937124 -258.329552 
L 271.752211 -258.749755 
L 285.567298 -258.796444 
L 299.382385 -258.959856 
L 313.197472 -259.02989 
L 327.012559 -259.02989 
L 340.827646 -259.753572 
L 354.642733 -259.776917 
L 368.45782 -259.776917 
L 382.272907 -259.870295 
L 396.087994 -259.987018 
L 409.903081 -259.987018 
L 423.718169 -260.197119 
L 437.533256 -261.341004 
L 451.348343 -261.481072 
L 465.16343 -261.551106 
L 478.978517 -262.017997 
L 492.793604 -262.017997 
L 506.608691 -262.204754 
L 520.423778 -262.204754 
L 534.238865 -262.204754 
L 548.053952 -262.344822 
L 561.869039 -262.858403 
L 575.684126 -262.881747 
L 589.499213 -263.091849 
L 603.3143 -263.091849 
L 617.129387 -263.091849 
L 630.944474 -263.091849 
L 644.759561 -263.278605 
L 658.574648 -263.278605 
L 672.389735 -263.348639 
L 686.204822 -265.729787 
L 700.019909 -265.986578 
L 713.834996 -266.056612 
L 727.650083 -266.243368 
L 741.46517 -266.826983 
L 741.46517 -273.87705 
L 741.46517 -273.87705 
L 727.650083 -273.830361 
L 713.834996 -273.783671 
L 700.019909 -273.690293 
L 686.204822 -273.643604 
L 672.389735 -273.526881 
L 658.574648 -273.363469 
L 644.759561 -272.989955 
L 630.944474 -272.756509 
L 617.129387 -272.756509 
L 603.3143 -272.546408 
L 589.499213 -272.336307 
L 575.684126 -271.729347 
L 561.869039 -271.729347 
L 548.053952 -271.192422 
L 534.238865 -270.842253 
L 520.423778 -270.842253 
L 506.608691 -270.818908 
L 492.793604 -270.72553 
L 478.978517 -269.885125 
L 465.16343 -269.698368 
L 451.348343 -269.60499 
L 437.533256 -269.581645 
L 423.718169 -269.371544 
L 409.903081 -269.371544 
L 396.087994 -268.717895 
L 382.272907 -268.717895 
L 368.45782 -268.717895 
L 354.642733 -268.601172 
L 340.827646 -268.43776 
L 327.012559 -268.43776 
L 313.197472 -268.414415 
L 299.382385 -268.13428 
L 285.567298 -267.924179 
L 271.752211 -266.780294 
L 257.937124 -266.056612 
L 244.122037 -262.648301 
L 230.30695 -258.189484 
L 216.491863 -254.267593 
L 202.676776 -252.306647 
L 188.861689 -250.228979 
L 175.046602 -246.960736 
L 161.231515 -243.412358 
L 147.416428 -242.291818 
L 133.601341 -234.518069 
L 119.786254 -224.736685 
L 105.971167 -204.263478 
L 92.15608 -184.467265 
z
" id="mb70d94840c" style="stroke:#98df8a;stroke-opacity:0.2;"/>
    </defs>
    <g clip-path="url(#p24e95858fb)">
     <use style="fill:#98df8a;fill-opacity:0.2;stroke:#98df8a;stroke-opacity:0.2;" x="0" xlink:href="#mb70d94840c" y="325.986375"/>
    </g>
   </g>
   <g id="matplotlib.axis_1">
    <g id="xtick_1">
     <g id="line2d_1">
      <defs>
       <path d="M 0 0 
L 0 3.5 
" id="m4513a94eba" style="stroke:#000000;stroke-width:0.8;"/>
      </defs>
      <g>
       <use style="stroke:#000000;stroke-width:0.8;" x="92.15608" xlink:href="#m4513a94eba" y="288.430125"/>
      </g>
     </g>
     <g id="text_1">
      <!-- 15m -->
      <g transform="translate(80.923267 303.028562)scale(0.1 -0.1)">
       <defs>
        <path d="M 794 531 
L 1825 531 
L 1825 4091 
L 703 3866 
L 703 4441 
L 1819 4666 
L 2450 4666 
L 2450 531 
L 3481 531 
L 3481 0 
L 794 0 
L 794 531 
z
" id="DejaVuSans-31" transform="scale(0.015625)"/>
        <path d="M 691 4666 
L 3169 4666 
L 3169 4134 
L 1269 4134 
L 1269 2991 
Q 1406 3038 1543 3061 
Q 1681 3084 1819 3084 
Q 2600 3084 3056 2656 
Q 3513 2228 3513 1497 
Q 3513 744 3044 326 
Q 2575 -91 1722 -91 
Q 1428 -91 1123 -41 
Q 819 9 494 109 
L 494 744 
Q 775 591 1075 516 
Q 1375 441 1709 441 
Q 2250 441 2565 725 
Q 2881 1009 2881 1497 
Q 2881 1984 2565 2268 
Q 2250 2553 1709 2553 
Q 1456 2553 1204 2497 
Q 953 2441 691 2322 
L 691 4666 
z
" id="DejaVuSans-35" transform="scale(0.015625)"/>
        <path d="M 3328 2828 
Q 3544 3216 3844 3400 
Q 4144 3584 4550 3584 
Q 5097 3584 5394 3201 
Q 5691 2819 5691 2113 
L 5691 0 
L 5113 0 
L 5113 2094 
Q 5113 2597 4934 2840 
Q 4756 3084 4391 3084 
Q 3944 3084 3684 2787 
Q 3425 2491 3425 1978 
L 3425 0 
L 2847 0 
L 2847 2094 
Q 2847 2600 2669 2842 
Q 2491 3084 2119 3084 
Q 1678 3084 1418 2786 
Q 1159 2488 1159 1978 
L 1159 0 
L 581 0 
L 581 3500 
L 1159 3500 
L 1159 2956 
Q 1356 3278 1631 3431 
Q 1906 3584 2284 3584 
Q 2666 3584 2933 3390 
Q 3200 3197 3328 2828 
z
" id="DejaVuSans-6d" transform="scale(0.015625)"/>
       </defs>
       <use xlink:href="#DejaVuSans-31"/>
       <use x="63.623047" xlink:href="#DejaVuSans-35"/>
       <use x="127.246094" xlink:href="#DejaVuSans-6d"/>
      </g>
     </g>
    </g>
    <g id="xtick_2">
     <g id="line2d_2">
      <g>
       <use style="stroke:#000000;stroke-width:0.8;" x="147.416428" xlink:href="#m4513a94eba" y="288.430125"/>
      </g>
     </g>
     <g id="text_2">
      <!-- 1h:15m -->
      <g transform="translate(128.14924 303.028562)scale(0.1 -0.1)">
       <defs>
        <path d="M 3513 2113 
L 3513 0 
L 2938 0 
L 2938 2094 
Q 2938 2591 2744 2837 
Q 2550 3084 2163 3084 
Q 1697 3084 1428 2787 
Q 1159 2491 1159 1978 
L 1159 0 
L 581 0 
L 581 4863 
L 1159 4863 
L 1159 2956 
Q 1366 3272 1645 3428 
Q 1925 3584 2291 3584 
Q 2894 3584 3203 3211 
Q 3513 2838 3513 2113 
z
" id="DejaVuSans-68" transform="scale(0.015625)"/>
        <path d="M 750 794 
L 1409 794 
L 1409 0 
L 750 0 
L 750 794 
z
M 750 3309 
L 1409 3309 
L 1409 2516 
L 750 2516 
L 750 3309 
z
" id="DejaVuSans-3a" transform="scale(0.015625)"/>
       </defs>
       <use xlink:href="#DejaVuSans-31"/>
       <use x="63.623047" xlink:href="#DejaVuSans-68"/>
       <use x="127.001953" xlink:href="#DejaVuSans-3a"/>
       <use x="160.693359" xlink:href="#DejaVuSans-31"/>
       <use x="224.316406" xlink:href="#DejaVuSans-35"/>
       <use x="287.939453" xlink:href="#DejaVuSans-6d"/>
      </g>
     </g>
    </g>
    <g id="xtick_3">
     <g id="line2d_3">
      <g>
       <use style="stroke:#000000;stroke-width:0.8;" x="202.676776" xlink:href="#m4513a94eba" y="288.430125"/>
      </g>
     </g>
     <g id="text_3">
      <!-- 2h:15m -->
      <g transform="translate(183.409588 303.028562)scale(0.1 -0.1)">
       <defs>
        <path d="M 1228 531 
L 3431 531 
L 3431 0 
L 469 0 
L 469 531 
Q 828 903 1448 1529 
Q 2069 2156 2228 2338 
Q 2531 2678 2651 2914 
Q 2772 3150 2772 3378 
Q 2772 3750 2511 3984 
Q 2250 4219 1831 4219 
Q 1534 4219 1204 4116 
Q 875 4013 500 3803 
L 500 4441 
Q 881 4594 1212 4672 
Q 1544 4750 1819 4750 
Q 2544 4750 2975 4387 
Q 3406 4025 3406 3419 
Q 3406 3131 3298 2873 
Q 3191 2616 2906 2266 
Q 2828 2175 2409 1742 
Q 1991 1309 1228 531 
z
" id="DejaVuSans-32" transform="scale(0.015625)"/>
       </defs>
       <use xlink:href="#DejaVuSans-32"/>
       <use x="63.623047" xlink:href="#DejaVuSans-68"/>
       <use x="127.001953" xlink:href="#DejaVuSans-3a"/>
       <use x="160.693359" xlink:href="#DejaVuSans-31"/>
       <use x="224.316406" xlink:href="#DejaVuSans-35"/>
       <use x="287.939453" xlink:href="#DejaVuSans-6d"/>
      </g>
     </g>
    </g>
    <g id="xtick_4">
     <g id="line2d_4">
      <g>
       <use style="stroke:#000000;stroke-width:0.8;" x="257.937124" xlink:href="#m4513a94eba" y="288.430125"/>
      </g>
     </g>
     <g id="text_4">
      <!-- 3h:15m -->
      <g transform="translate(238.669937 303.028562)scale(0.1 -0.1)">
       <defs>
        <path d="M 2597 2516 
Q 3050 2419 3304 2112 
Q 3559 1806 3559 1356 
Q 3559 666 3084 287 
Q 2609 -91 1734 -91 
Q 1441 -91 1130 -33 
Q 819 25 488 141 
L 488 750 
Q 750 597 1062 519 
Q 1375 441 1716 441 
Q 2309 441 2620 675 
Q 2931 909 2931 1356 
Q 2931 1769 2642 2001 
Q 2353 2234 1838 2234 
L 1294 2234 
L 1294 2753 
L 1863 2753 
Q 2328 2753 2575 2939 
Q 2822 3125 2822 3475 
Q 2822 3834 2567 4026 
Q 2313 4219 1838 4219 
Q 1578 4219 1281 4162 
Q 984 4106 628 3988 
L 628 4550 
Q 988 4650 1302 4700 
Q 1616 4750 1894 4750 
Q 2613 4750 3031 4423 
Q 3450 4097 3450 3541 
Q 3450 3153 3228 2886 
Q 3006 2619 2597 2516 
z
" id="DejaVuSans-33" transform="scale(0.015625)"/>
       </defs>
       <use xlink:href="#DejaVuSans-33"/>
       <use x="63.623047" xlink:href="#DejaVuSans-68"/>
       <use x="127.001953" xlink:href="#DejaVuSans-3a"/>
       <use x="160.693359" xlink:href="#DejaVuSans-31"/>
       <use x="224.316406" xlink:href="#DejaVuSans-35"/>
       <use x="287.939453" xlink:href="#DejaVuSans-6d"/>
      </g>
     </g>
    </g>
    <g id="xtick_5">
     <g id="line2d_5">
      <g>
       <use style="stroke:#000000;stroke-width:0.8;" x="313.197472" xlink:href="#m4513a94eba" y="288.430125"/>
      </g>
     </g>
     <g id="text_5">
      <!-- 4h:15m -->
      <g transform="translate(293.930285 303.028562)scale(0.1 -0.1)">
       <defs>
        <path d="M 2419 4116 
L 825 1625 
L 2419 1625 
L 2419 4116 
z
M 2253 4666 
L 3047 4666 
L 3047 1625 
L 3713 1625 
L 3713 1100 
L 3047 1100 
L 3047 0 
L 2419 0 
L 2419 1100 
L 313 1100 
L 313 1709 
L 2253 4666 
z
" id="DejaVuSans-34" transform="scale(0.015625)"/>
       </defs>
       <use xlink:href="#DejaVuSans-34"/>
       <use x="63.623047" xlink:href="#DejaVuSans-68"/>
       <use x="127.001953" xlink:href="#DejaVuSans-3a"/>
       <use x="160.693359" xlink:href="#DejaVuSans-31"/>
       <use x="224.316406" xlink:href="#DejaVuSans-35"/>
       <use x="287.939453" xlink:href="#DejaVuSans-6d"/>
      </g>
     </g>
    </g>
    <g id="xtick_6">
     <g id="line2d_6">
      <g>
       <use style="stroke:#000000;stroke-width:0.8;" x="368.45782" xlink:href="#m4513a94eba" y="288.430125"/>
      </g>
     </g>
     <g id="text_6">
      <!-- 5h:15m -->
      <g transform="translate(349.190633 303.028562)scale(0.1 -0.1)">
       <use xlink:href="#DejaVuSans-35"/>
       <use x="63.623047" xlink:href="#DejaVuSans-68"/>
       <use x="127.001953" xlink:href="#DejaVuSans-3a"/>
       <use x="160.693359" xlink:href="#DejaVuSans-31"/>
       <use x="224.316406" xlink:href="#DejaVuSans-35"/>
       <use x="287.939453" xlink:href="#DejaVuSans-6d"/>
      </g>
     </g>
    </g>
    <g id="xtick_7">
     <g id="line2d_7">
      <g>
       <use style="stroke:#000000;stroke-width:0.8;" x="423.718169" xlink:href="#m4513a94eba" y="288.430125"/>
      </g>
     </g>
     <g id="text_7">
      <!-- 6h:15m -->
      <g transform="translate(404.450981 303.028562)scale(0.1 -0.1)">
       <defs>
        <path d="M 2113 2584 
Q 1688 2584 1439 2293 
Q 1191 2003 1191 1497 
Q 1191 994 1439 701 
Q 1688 409 2113 409 
Q 2538 409 2786 701 
Q 3034 994 3034 1497 
Q 3034 2003 2786 2293 
Q 2538 2584 2113 2584 
z
M 3366 4563 
L 3366 3988 
Q 3128 4100 2886 4159 
Q 2644 4219 2406 4219 
Q 1781 4219 1451 3797 
Q 1122 3375 1075 2522 
Q 1259 2794 1537 2939 
Q 1816 3084 2150 3084 
Q 2853 3084 3261 2657 
Q 3669 2231 3669 1497 
Q 3669 778 3244 343 
Q 2819 -91 2113 -91 
Q 1303 -91 875 529 
Q 447 1150 447 2328 
Q 447 3434 972 4092 
Q 1497 4750 2381 4750 
Q 2619 4750 2861 4703 
Q 3103 4656 3366 4563 
z
" id="DejaVuSans-36" transform="scale(0.015625)"/>
       </defs>
       <use xlink:href="#DejaVuSans-36"/>
       <use x="63.623047" xlink:href="#DejaVuSans-68"/>
       <use x="127.001953" xlink:href="#DejaVuSans-3a"/>
       <use x="160.693359" xlink:href="#DejaVuSans-31"/>
       <use x="224.316406" xlink:href="#DejaVuSans-35"/>
       <use x="287.939453" xlink:href="#DejaVuSans-6d"/>
      </g>
     </g>
    </g>
    <g id="xtick_8">
     <g id="line2d_8">
      <g>
       <use style="stroke:#000000;stroke-width:0.8;" x="478.978517" xlink:href="#m4513a94eba" y="288.430125"/>
      </g>
     </g>
     <g id="text_8">
      <!-- 7h:15m -->
      <g transform="translate(459.711329 303.028562)scale(0.1 -0.1)">
       <defs>
        <path d="M 525 4666 
L 3525 4666 
L 3525 4397 
L 1831 0 
L 1172 0 
L 2766 4134 
L 525 4134 
L 525 4666 
z
" id="DejaVuSans-37" transform="scale(0.015625)"/>
       </defs>
       <use xlink:href="#DejaVuSans-37"/>
       <use x="63.623047" xlink:href="#DejaVuSans-68"/>
       <use x="127.001953" xlink:href="#DejaVuSans-3a"/>
       <use x="160.693359" xlink:href="#DejaVuSans-31"/>
       <use x="224.316406" xlink:href="#DejaVuSans-35"/>
       <use x="287.939453" xlink:href="#DejaVuSans-6d"/>
      </g>
     </g>
    </g>
    <g id="xtick_9">
     <g id="line2d_9">
      <g>
       <use style="stroke:#000000;stroke-width:0.8;" x="534.238865" xlink:href="#m4513a94eba" y="288.430125"/>
      </g>
     </g>
     <g id="text_9">
      <!-- 8h:15m -->
      <g transform="translate(514.971677 303.028562)scale(0.1 -0.1)">
       <defs>
        <path d="M 2034 2216 
Q 1584 2216 1326 1975 
Q 1069 1734 1069 1313 
Q 1069 891 1326 650 
Q 1584 409 2034 409 
Q 2484 409 2743 651 
Q 3003 894 3003 1313 
Q 3003 1734 2745 1975 
Q 2488 2216 2034 2216 
z
M 1403 2484 
Q 997 2584 770 2862 
Q 544 3141 544 3541 
Q 544 4100 942 4425 
Q 1341 4750 2034 4750 
Q 2731 4750 3128 4425 
Q 3525 4100 3525 3541 
Q 3525 3141 3298 2862 
Q 3072 2584 2669 2484 
Q 3125 2378 3379 2068 
Q 3634 1759 3634 1313 
Q 3634 634 3220 271 
Q 2806 -91 2034 -91 
Q 1263 -91 848 271 
Q 434 634 434 1313 
Q 434 1759 690 2068 
Q 947 2378 1403 2484 
z
M 1172 3481 
Q 1172 3119 1398 2916 
Q 1625 2713 2034 2713 
Q 2441 2713 2670 2916 
Q 2900 3119 2900 3481 
Q 2900 3844 2670 4047 
Q 2441 4250 2034 4250 
Q 1625 4250 1398 4047 
Q 1172 3844 1172 3481 
z
" id="DejaVuSans-38" transform="scale(0.015625)"/>
       </defs>
       <use xlink:href="#DejaVuSans-38"/>
       <use x="63.623047" xlink:href="#DejaVuSans-68"/>
       <use x="127.001953" xlink:href="#DejaVuSans-3a"/>
       <use x="160.693359" xlink:href="#DejaVuSans-31"/>
       <use x="224.316406" xlink:href="#DejaVuSans-35"/>
       <use x="287.939453" xlink:href="#DejaVuSans-6d"/>
      </g>
     </g>
    </g>
    <g id="xtick_10">
     <g id="line2d_10">
      <g>
       <use style="stroke:#000000;stroke-width:0.8;" x="589.499213" xlink:href="#m4513a94eba" y="288.430125"/>
      </g>
     </g>
     <g id="text_10">
      <!-- 9h:15m -->
      <g transform="translate(570.232026 303.028562)scale(0.1 -0.1)">
       <defs>
        <path d="M 703 97 
L 703 672 
Q 941 559 1184 500 
Q 1428 441 1663 441 
Q 2288 441 2617 861 
Q 2947 1281 2994 2138 
Q 2813 1869 2534 1725 
Q 2256 1581 1919 1581 
Q 1219 1581 811 2004 
Q 403 2428 403 3163 
Q 403 3881 828 4315 
Q 1253 4750 1959 4750 
Q 2769 4750 3195 4129 
Q 3622 3509 3622 2328 
Q 3622 1225 3098 567 
Q 2575 -91 1691 -91 
Q 1453 -91 1209 -44 
Q 966 3 703 97 
z
M 1959 2075 
Q 2384 2075 2632 2365 
Q 2881 2656 2881 3163 
Q 2881 3666 2632 3958 
Q 2384 4250 1959 4250 
Q 1534 4250 1286 3958 
Q 1038 3666 1038 3163 
Q 1038 2656 1286 2365 
Q 1534 2075 1959 2075 
z
" id="DejaVuSans-39" transform="scale(0.015625)"/>
       </defs>
       <use xlink:href="#DejaVuSans-39"/>
       <use x="63.623047" xlink:href="#DejaVuSans-68"/>
       <use x="127.001953" xlink:href="#DejaVuSans-3a"/>
       <use x="160.693359" xlink:href="#DejaVuSans-31"/>
       <use x="224.316406" xlink:href="#DejaVuSans-35"/>
       <use x="287.939453" xlink:href="#DejaVuSans-6d"/>
      </g>
     </g>
    </g>
    <g id="xtick_11">
     <g id="line2d_11">
      <g>
       <use style="stroke:#000000;stroke-width:0.8;" x="644.759561" xlink:href="#m4513a94eba" y="288.430125"/>
      </g>
     </g>
     <g id="text_11">
      <!-- 10h:15m -->
      <g transform="translate(622.311124 303.028562)scale(0.1 -0.1)">
       <defs>
        <path d="M 2034 4250 
Q 1547 4250 1301 3770 
Q 1056 3291 1056 2328 
Q 1056 1369 1301 889 
Q 1547 409 2034 409 
Q 2525 409 2770 889 
Q 3016 1369 3016 2328 
Q 3016 3291 2770 3770 
Q 2525 4250 2034 4250 
z
M 2034 4750 
Q 2819 4750 3233 4129 
Q 3647 3509 3647 2328 
Q 3647 1150 3233 529 
Q 2819 -91 2034 -91 
Q 1250 -91 836 529 
Q 422 1150 422 2328 
Q 422 3509 836 4129 
Q 1250 4750 2034 4750 
z
" id="DejaVuSans-30" transform="scale(0.015625)"/>
       </defs>
       <use xlink:href="#DejaVuSans-31"/>
       <use x="63.623047" xlink:href="#DejaVuSans-30"/>
       <use x="127.246094" xlink:href="#DejaVuSans-68"/>
       <use x="190.625" xlink:href="#DejaVuSans-3a"/>
       <use x="224.316406" xlink:href="#DejaVuSans-31"/>
       <use x="287.939453" xlink:href="#DejaVuSans-35"/>
       <use x="351.5625" xlink:href="#DejaVuSans-6d"/>
      </g>
     </g>
    </g>
    <g id="xtick_12">
     <g id="line2d_12">
      <g>
       <use style="stroke:#000000;stroke-width:0.8;" x="700.019909" xlink:href="#m4513a94eba" y="288.430125"/>
      </g>
     </g>
     <g id="text_12">
      <!-- 11h:15m -->
      <g transform="translate(677.571472 303.028562)scale(0.1 -0.1)">
       <use xlink:href="#DejaVuSans-31"/>
       <use x="63.623047" xlink:href="#DejaVuSans-31"/>
       <use x="127.246094" xlink:href="#DejaVuSans-68"/>
       <use x="190.625" xlink:href="#DejaVuSans-3a"/>
       <use x="224.316406" xlink:href="#DejaVuSans-31"/>
       <use x="287.939453" xlink:href="#DejaVuSans-35"/>
       <use x="351.5625" xlink:href="#DejaVuSans-6d"/>
      </g>
     </g>
    </g>
    <g id="text_13">
     <!-- Time (hour:minute) -->
     <g transform="translate(368.403594 316.706687)scale(0.1 -0.1)">
      <defs>
       <path d="M -19 4666 
L 3928 4666 
L 3928 4134 
L 2272 4134 
L 2272 0 
L 1638 0 
L 1638 4134 
L -19 4134 
L -19 4666 
z
" id="DejaVuSans-54" transform="scale(0.015625)"/>
       <path d="M 603 3500 
L 1178 3500 
L 1178 0 
L 603 0 
L 603 3500 
z
M 603 4863 
L 1178 4863 
L 1178 4134 
L 603 4134 
L 603 4863 
z
" id="DejaVuSans-69" transform="scale(0.015625)"/>
       <path d="M 3597 1894 
L 3597 1613 
L 953 1613 
Q 991 1019 1311 708 
Q 1631 397 2203 397 
Q 2534 397 2845 478 
Q 3156 559 3463 722 
L 3463 178 
Q 3153 47 2828 -22 
Q 2503 -91 2169 -91 
Q 1331 -91 842 396 
Q 353 884 353 1716 
Q 353 2575 817 3079 
Q 1281 3584 2069 3584 
Q 2775 3584 3186 3129 
Q 3597 2675 3597 1894 
z
M 3022 2063 
Q 3016 2534 2758 2815 
Q 2500 3097 2075 3097 
Q 1594 3097 1305 2825 
Q 1016 2553 972 2059 
L 3022 2063 
z
" id="DejaVuSans-65" transform="scale(0.015625)"/>
       <path id="DejaVuSans-20" transform="scale(0.015625)"/>
       <path d="M 1984 4856 
Q 1566 4138 1362 3434 
Q 1159 2731 1159 2009 
Q 1159 1288 1364 580 
Q 1569 -128 1984 -844 
L 1484 -844 
Q 1016 -109 783 600 
Q 550 1309 550 2009 
Q 550 2706 781 3412 
Q 1013 4119 1484 4856 
L 1984 4856 
z
" id="DejaVuSans-28" transform="scale(0.015625)"/>
       <path d="M 1959 3097 
Q 1497 3097 1228 2736 
Q 959 2375 959 1747 
Q 959 1119 1226 758 
Q 1494 397 1959 397 
Q 2419 397 2687 759 
Q 2956 1122 2956 1747 
Q 2956 2369 2687 2733 
Q 2419 3097 1959 3097 
z
M 1959 3584 
Q 2709 3584 3137 3096 
Q 3566 2609 3566 1747 
Q 3566 888 3137 398 
Q 2709 -91 1959 -91 
Q 1206 -91 779 398 
Q 353 888 353 1747 
Q 353 2609 779 3096 
Q 1206 3584 1959 3584 
z
" id="DejaVuSans-6f" transform="scale(0.015625)"/>
       <path d="M 544 1381 
L 544 3500 
L 1119 3500 
L 1119 1403 
Q 1119 906 1312 657 
Q 1506 409 1894 409 
Q 2359 409 2629 706 
Q 2900 1003 2900 1516 
L 2900 3500 
L 3475 3500 
L 3475 0 
L 2900 0 
L 2900 538 
Q 2691 219 2414 64 
Q 2138 -91 1772 -91 
Q 1169 -91 856 284 
Q 544 659 544 1381 
z
M 1991 3584 
L 1991 3584 
z
" id="DejaVuSans-75" transform="scale(0.015625)"/>
       <path d="M 2631 2963 
Q 2534 3019 2420 3045 
Q 2306 3072 2169 3072 
Q 1681 3072 1420 2755 
Q 1159 2438 1159 1844 
L 1159 0 
L 581 0 
L 581 3500 
L 1159 3500 
L 1159 2956 
Q 1341 3275 1631 3429 
Q 1922 3584 2338 3584 
Q 2397 3584 2469 3576 
Q 2541 3569 2628 3553 
L 2631 2963 
z
" id="DejaVuSans-72" transform="scale(0.015625)"/>
       <path d="M 3513 2113 
L 3513 0 
L 2938 0 
L 2938 2094 
Q 2938 2591 2744 2837 
Q 2550 3084 2163 3084 
Q 1697 3084 1428 2787 
Q 1159 2491 1159 1978 
L 1159 0 
L 581 0 
L 581 3500 
L 1159 3500 
L 1159 2956 
Q 1366 3272 1645 3428 
Q 1925 3584 2291 3584 
Q 2894 3584 3203 3211 
Q 3513 2838 3513 2113 
z
" id="DejaVuSans-6e" transform="scale(0.015625)"/>
       <path d="M 1172 4494 
L 1172 3500 
L 2356 3500 
L 2356 3053 
L 1172 3053 
L 1172 1153 
Q 1172 725 1289 603 
Q 1406 481 1766 481 
L 2356 481 
L 2356 0 
L 1766 0 
Q 1100 0 847 248 
Q 594 497 594 1153 
L 594 3053 
L 172 3053 
L 172 3500 
L 594 3500 
L 594 4494 
L 1172 4494 
z
" id="DejaVuSans-74" transform="scale(0.015625)"/>
       <path d="M 513 4856 
L 1013 4856 
Q 1481 4119 1714 3412 
Q 1947 2706 1947 2009 
Q 1947 1309 1714 600 
Q 1481 -109 1013 -844 
L 513 -844 
Q 928 -128 1133 580 
Q 1338 1288 1338 2009 
Q 1338 2731 1133 3434 
Q 928 4138 513 4856 
z
" id="DejaVuSans-29" transform="scale(0.015625)"/>
      </defs>
      <use xlink:href="#DejaVuSans-54"/>
      <use x="57.958984" xlink:href="#DejaVuSans-69"/>
      <use x="85.742188" xlink:href="#DejaVuSans-6d"/>
      <use x="183.154297" xlink:href="#DejaVuSans-65"/>
      <use x="244.677734" xlink:href="#DejaVuSans-20"/>
      <use x="276.464844" xlink:href="#DejaVuSans-28"/>
      <use x="315.478516" xlink:href="#DejaVuSans-68"/>
      <use x="378.857422" xlink:href="#DejaVuSans-6f"/>
      <use x="440.039062" xlink:href="#DejaVuSans-75"/>
      <use x="503.417969" xlink:href="#DejaVuSans-72"/>
      <use x="542.78125" xlink:href="#DejaVuSans-3a"/>
      <use x="576.472656" xlink:href="#DejaVuSans-6d"/>
      <use x="673.884766" xlink:href="#DejaVuSans-69"/>
      <use x="701.667969" xlink:href="#DejaVuSans-6e"/>
      <use x="765.046875" xlink:href="#DejaVuSans-75"/>
      <use x="828.425781" xlink:href="#DejaVuSans-74"/>
      <use x="867.634766" xlink:href="#DejaVuSans-65"/>
      <use x="929.158203" xlink:href="#DejaVuSans-29"/>
     </g>
    </g>
   </g>
   <g id="matplotlib.axis_2">
    <g id="ytick_1">
     <g id="line2d_13">
      <defs>
       <path d="M 0 0 
L -3.5 0 
" id="mb8bcbf70ce" style="stroke:#000000;stroke-width:0.8;"/>
      </defs>
      <g>
       <use style="stroke:#000000;stroke-width:0.8;" x="59.690625" xlink:href="#mb8bcbf70ce" y="264.381694"/>
      </g>
     </g>
     <g id="text_14">
      <!-- 2000 -->
      <g transform="translate(27.240625 268.180913)scale(0.1 -0.1)">
       <use xlink:href="#DejaVuSans-32"/>
       <use x="63.623047" xlink:href="#DejaVuSans-30"/>
       <use x="127.246094" xlink:href="#DejaVuSans-30"/>
       <use x="190.869141" xlink:href="#DejaVuSans-30"/>
      </g>
     </g>
    </g>
    <g id="ytick_2">
     <g id="line2d_14">
      <g>
       <use style="stroke:#000000;stroke-width:0.8;" x="59.690625" xlink:href="#mb8bcbf70ce" y="217.692512"/>
      </g>
     </g>
     <g id="text_15">
      <!-- 4000 -->
      <g transform="translate(27.240625 221.49173)scale(0.1 -0.1)">
       <use xlink:href="#DejaVuSans-34"/>
       <use x="63.623047" xlink:href="#DejaVuSans-30"/>
       <use x="127.246094" xlink:href="#DejaVuSans-30"/>
       <use x="190.869141" xlink:href="#DejaVuSans-30"/>
      </g>
     </g>
    </g>
    <g id="ytick_3">
     <g id="line2d_15">
      <g>
       <use style="stroke:#000000;stroke-width:0.8;" x="59.690625" xlink:href="#mb8bcbf70ce" y="171.003329"/>
      </g>
     </g>
     <g id="text_16">
      <!-- 6000 -->
      <g transform="translate(27.240625 174.802548)scale(0.1 -0.1)">
       <use xlink:href="#DejaVuSans-36"/>
       <use x="63.623047" xlink:href="#DejaVuSans-30"/>
       <use x="127.246094" xlink:href="#DejaVuSans-30"/>
       <use x="190.869141" xlink:href="#DejaVuSans-30"/>
      </g>
     </g>
    </g>
    <g id="ytick_4">
     <g id="line2d_16">
      <g>
       <use style="stroke:#000000;stroke-width:0.8;" x="59.690625" xlink:href="#mb8bcbf70ce" y="124.314146"/>
      </g>
     </g>
     <g id="text_17">
      <!-- 8000 -->
      <g transform="translate(27.240625 128.113365)scale(0.1 -0.1)">
       <use xlink:href="#DejaVuSans-38"/>
       <use x="63.623047" xlink:href="#DejaVuSans-30"/>
       <use x="127.246094" xlink:href="#DejaVuSans-30"/>
       <use x="190.869141" xlink:href="#DejaVuSans-30"/>
      </g>
     </g>
    </g>
    <g id="ytick_5">
     <g id="line2d_17">
      <g>
       <use style="stroke:#000000;stroke-width:0.8;" x="59.690625" xlink:href="#mb8bcbf70ce" y="77.624964"/>
      </g>
     </g>
     <g id="text_18">
      <!-- 10000 -->
      <g transform="translate(20.878125 81.424182)scale(0.1 -0.1)">
       <use xlink:href="#DejaVuSans-31"/>
       <use x="63.623047" xlink:href="#DejaVuSans-30"/>
       <use x="127.246094" xlink:href="#DejaVuSans-30"/>
       <use x="190.869141" xlink:href="#DejaVuSans-30"/>
       <use x="254.492188" xlink:href="#DejaVuSans-30"/>
      </g>
     </g>
    </g>
    <g id="ytick_6">
     <g id="line2d_18">
      <g>
       <use style="stroke:#000000;stroke-width:0.8;" x="59.690625" xlink:href="#mb8bcbf70ce" y="30.935781"/>
      </g>
     </g>
     <g id="text_19">
      <!-- 12000 -->
      <g transform="translate(20.878125 34.735)scale(0.1 -0.1)">
       <use xlink:href="#DejaVuSans-31"/>
       <use x="63.623047" xlink:href="#DejaVuSans-32"/>
       <use x="127.246094" xlink:href="#DejaVuSans-30"/>
       <use x="190.869141" xlink:href="#DejaVuSans-30"/>
       <use x="254.492188" xlink:href="#DejaVuSans-30"/>
      </g>
     </g>
    </g>
    <g id="text_20">
     <!-- Code region coverage -->
     <g transform="translate(14.798438 210.379594)rotate(-90)scale(0.1 -0.1)">
      <defs>
       <path d="M 4122 4306 
L 4122 3641 
Q 3803 3938 3442 4084 
Q 3081 4231 2675 4231 
Q 1875 4231 1450 3742 
Q 1025 3253 1025 2328 
Q 1025 1406 1450 917 
Q 1875 428 2675 428 
Q 3081 428 3442 575 
Q 3803 722 4122 1019 
L 4122 359 
Q 3791 134 3420 21 
Q 3050 -91 2638 -91 
Q 1578 -91 968 557 
Q 359 1206 359 2328 
Q 359 3453 968 4101 
Q 1578 4750 2638 4750 
Q 3056 4750 3426 4639 
Q 3797 4528 4122 4306 
z
" id="DejaVuSans-43" transform="scale(0.015625)"/>
       <path d="M 2906 2969 
L 2906 4863 
L 3481 4863 
L 3481 0 
L 2906 0 
L 2906 525 
Q 2725 213 2448 61 
Q 2172 -91 1784 -91 
Q 1150 -91 751 415 
Q 353 922 353 1747 
Q 353 2572 751 3078 
Q 1150 3584 1784 3584 
Q 2172 3584 2448 3432 
Q 2725 3281 2906 2969 
z
M 947 1747 
Q 947 1113 1208 752 
Q 1469 391 1925 391 
Q 2381 391 2643 752 
Q 2906 1113 2906 1747 
Q 2906 2381 2643 2742 
Q 2381 3103 1925 3103 
Q 1469 3103 1208 2742 
Q 947 2381 947 1747 
z
" id="DejaVuSans-64" transform="scale(0.015625)"/>
       <path d="M 2906 1791 
Q 2906 2416 2648 2759 
Q 2391 3103 1925 3103 
Q 1463 3103 1205 2759 
Q 947 2416 947 1791 
Q 947 1169 1205 825 
Q 1463 481 1925 481 
Q 2391 481 2648 825 
Q 2906 1169 2906 1791 
z
M 3481 434 
Q 3481 -459 3084 -895 
Q 2688 -1331 1869 -1331 
Q 1566 -1331 1297 -1286 
Q 1028 -1241 775 -1147 
L 775 -588 
Q 1028 -725 1275 -790 
Q 1522 -856 1778 -856 
Q 2344 -856 2625 -561 
Q 2906 -266 2906 331 
L 2906 616 
Q 2728 306 2450 153 
Q 2172 0 1784 0 
Q 1141 0 747 490 
Q 353 981 353 1791 
Q 353 2603 747 3093 
Q 1141 3584 1784 3584 
Q 2172 3584 2450 3431 
Q 2728 3278 2906 2969 
L 2906 3500 
L 3481 3500 
L 3481 434 
z
" id="DejaVuSans-67" transform="scale(0.015625)"/>
       <path d="M 3122 3366 
L 3122 2828 
Q 2878 2963 2633 3030 
Q 2388 3097 2138 3097 
Q 1578 3097 1268 2742 
Q 959 2388 959 1747 
Q 959 1106 1268 751 
Q 1578 397 2138 397 
Q 2388 397 2633 464 
Q 2878 531 3122 666 
L 3122 134 
Q 2881 22 2623 -34 
Q 2366 -91 2075 -91 
Q 1284 -91 818 406 
Q 353 903 353 1747 
Q 353 2603 823 3093 
Q 1294 3584 2113 3584 
Q 2378 3584 2631 3529 
Q 2884 3475 3122 3366 
z
" id="DejaVuSans-63" transform="scale(0.015625)"/>
       <path d="M 191 3500 
L 800 3500 
L 1894 563 
L 2988 3500 
L 3597 3500 
L 2284 0 
L 1503 0 
L 191 3500 
z
" id="DejaVuSans-76" transform="scale(0.015625)"/>
       <path d="M 2194 1759 
Q 1497 1759 1228 1600 
Q 959 1441 959 1056 
Q 959 750 1161 570 
Q 1363 391 1709 391 
Q 2188 391 2477 730 
Q 2766 1069 2766 1631 
L 2766 1759 
L 2194 1759 
z
M 3341 1997 
L 3341 0 
L 2766 0 
L 2766 531 
Q 2569 213 2275 61 
Q 1981 -91 1556 -91 
Q 1019 -91 701 211 
Q 384 513 384 1019 
Q 384 1609 779 1909 
Q 1175 2209 1959 2209 
L 2766 2209 
L 2766 2266 
Q 2766 2663 2505 2880 
Q 2244 3097 1772 3097 
Q 1472 3097 1187 3025 
Q 903 2953 641 2809 
L 641 3341 
Q 956 3463 1253 3523 
Q 1550 3584 1831 3584 
Q 2591 3584 2966 3190 
Q 3341 2797 3341 1997 
z
" id="DejaVuSans-61" transform="scale(0.015625)"/>
      </defs>
      <use xlink:href="#DejaVuSans-43"/>
      <use x="69.824219" xlink:href="#DejaVuSans-6f"/>
      <use x="131.005859" xlink:href="#DejaVuSans-64"/>
      <use x="194.482422" xlink:href="#DejaVuSans-65"/>
      <use x="256.005859" xlink:href="#DejaVuSans-20"/>
      <use x="287.792969" xlink:href="#DejaVuSans-72"/>
      <use x="326.65625" xlink:href="#DejaVuSans-65"/>
      <use x="388.179688" xlink:href="#DejaVuSans-67"/>
      <use x="451.65625" xlink:href="#DejaVuSans-69"/>
      <use x="479.439453" xlink:href="#DejaVuSans-6f"/>
      <use x="540.621094" xlink:href="#DejaVuSans-6e"/>
      <use x="604" xlink:href="#DejaVuSans-20"/>
      <use x="635.787109" xlink:href="#DejaVuSans-63"/>
      <use x="690.767578" xlink:href="#DejaVuSans-6f"/>
      <use x="751.949219" xlink:href="#DejaVuSans-76"/>
      <use x="811.128906" xlink:href="#DejaVuSans-65"/>
      <use x="872.652344" xlink:href="#DejaVuSans-72"/>
      <use x="913.765625" xlink:href="#DejaVuSans-61"/>
      <use x="975.044922" xlink:href="#DejaVuSans-67"/>
      <use x="1038.521484" xlink:href="#DejaVuSans-65"/>
     </g>
    </g>
   </g>
   <g id="line2d_19">
    <path clip-path="url(#p24e95858fb)" d="M 92.15608 136.826847 
L 105.971167 110.540837 
L 119.786254 90.090975 
L 133.601341 70.411485 
L 147.416428 64.108445 
L 161.231515 63.057939 
L 175.046602 61.073648 
L 188.861689 60.11652 
L 202.676776 59.906419 
L 216.491863 59.369493 
L 230.30695 58.038851 
L 244.122037 58.038851 
L 257.937124 57.431892 
L 271.752211 57.245135 
L 285.567298 57.245135 
L 299.382385 57.245135 
L 313.197472 57.128412 
L 327.012559 56.124595 
L 340.827646 55.867804 
L 354.642733 55.751081 
L 368.45782 55.751081 
L 382.272907 54.934021 
L 396.087994 54.793953 
L 409.903081 53.650068 
L 423.718169 51.82919 
L 437.533256 51.759156 
L 451.348343 50.568582 
L 465.16343 50.14838 
L 478.978517 50.14838 
L 492.793604 50.14838 
L 506.608691 50.14838 
L 520.423778 50.008312 
L 534.238865 50.008312 
L 548.053952 50.008312 
L 561.869039 49.938278 
L 575.684126 47.86061 
L 589.499213 47.86061 
L 603.3143 47.86061 
L 617.129387 47.837265 
L 630.944474 47.673853 
L 644.759561 47.136927 
L 658.574648 46.763414 
L 672.389735 46.763414 
L 686.204822 46.763414 
L 700.019909 46.763414 
L 713.834996 46.226488 
L 727.650083 45.993042 
L 741.46517 45.993042 
" style="fill:none;stroke:#1f77b4;stroke-linecap:square;stroke-width:1.5;"/>
    <defs>
     <path d="M 0 3 
C 0.795609 3 1.55874 2.683901 2.12132 2.12132 
C 2.683901 1.55874 3 0.795609 3 0 
C 3 -0.795609 2.683901 -1.55874 2.12132 -2.12132 
C 1.55874 -2.683901 0.795609 -3 0 -3 
C -0.795609 -3 -1.55874 -2.683901 -2.12132 -2.12132 
C -2.683901 -1.55874 -3 -0.795609 -3 0 
C -3 0.795609 -2.683901 1.55874 -2.12132 2.12132 
C -1.55874 2.683901 -0.795609 3 0 3 
z
" id="m5689af1a44" style="stroke:#ffffff;stroke-width:0.75;"/>
    </defs>
    <g clip-path="url(#p24e95858fb)">
     <use style="fill:#1f77b4;stroke:#ffffff;stroke-width:0.75;" x="92.15608" xlink:href="#m5689af1a44" y="136.826847"/>
     <use style="fill:#1f77b4;stroke:#ffffff;stroke-width:0.75;" x="105.971167" xlink:href="#m5689af1a44" y="110.540837"/>
     <use style="fill:#1f77b4;stroke:#ffffff;stroke-width:0.75;" x="119.786254" xlink:href="#m5689af1a44" y="90.090975"/>
     <use style="fill:#1f77b4;stroke:#ffffff;stroke-width:0.75;" x="133.601341" xlink:href="#m5689af1a44" y="70.411485"/>
     <use style="fill:#1f77b4;stroke:#ffffff;stroke-width:0.75;" x="147.416428" xlink:href="#m5689af1a44" y="64.108445"/>
     <use style="fill:#1f77b4;stroke:#ffffff;stroke-width:0.75;" x="161.231515" xlink:href="#m5689af1a44" y="63.057939"/>
     <use style="fill:#1f77b4;stroke:#ffffff;stroke-width:0.75;" x="175.046602" xlink:href="#m5689af1a44" y="61.073648"/>
     <use style="fill:#1f77b4;stroke:#ffffff;stroke-width:0.75;" x="188.861689" xlink:href="#m5689af1a44" y="60.11652"/>
     <use style="fill:#1f77b4;stroke:#ffffff;stroke-width:0.75;" x="202.676776" xlink:href="#m5689af1a44" y="59.906419"/>
     <use style="fill:#1f77b4;stroke:#ffffff;stroke-width:0.75;" x="216.491863" xlink:href="#m5689af1a44" y="59.369493"/>
     <use style="fill:#1f77b4;stroke:#ffffff;stroke-width:0.75;" x="230.30695" xlink:href="#m5689af1a44" y="58.038851"/>
     <use style="fill:#1f77b4;stroke:#ffffff;stroke-width:0.75;" x="244.122037" xlink:href="#m5689af1a44" y="58.038851"/>
     <use style="fill:#1f77b4;stroke:#ffffff;stroke-width:0.75;" x="257.937124" xlink:href="#m5689af1a44" y="57.431892"/>
     <use style="fill:#1f77b4;stroke:#ffffff;stroke-width:0.75;" x="271.752211" xlink:href="#m5689af1a44" y="57.245135"/>
     <use style="fill:#1f77b4;stroke:#ffffff;stroke-width:0.75;" x="285.567298" xlink:href="#m5689af1a44" y="57.245135"/>
     <use style="fill:#1f77b4;stroke:#ffffff;stroke-width:0.75;" x="299.382385" xlink:href="#m5689af1a44" y="57.245135"/>
     <use style="fill:#1f77b4;stroke:#ffffff;stroke-width:0.75;" x="313.197472" xlink:href="#m5689af1a44" y="57.128412"/>
     <use style="fill:#1f77b4;stroke:#ffffff;stroke-width:0.75;" x="327.012559" xlink:href="#m5689af1a44" y="56.124595"/>
     <use style="fill:#1f77b4;stroke:#ffffff;stroke-width:0.75;" x="340.827646" xlink:href="#m5689af1a44" y="55.867804"/>
     <use style="fill:#1f77b4;stroke:#ffffff;stroke-width:0.75;" x="354.642733" xlink:href="#m5689af1a44" y="55.751081"/>
     <use style="fill:#1f77b4;stroke:#ffffff;stroke-width:0.75;" x="368.45782" xlink:href="#m5689af1a44" y="55.751081"/>
     <use style="fill:#1f77b4;stroke:#ffffff;stroke-width:0.75;" x="382.272907" xlink:href="#m5689af1a44" y="54.934021"/>
     <use style="fill:#1f77b4;stroke:#ffffff;stroke-width:0.75;" x="396.087994" xlink:href="#m5689af1a44" y="54.793953"/>
     <use style="fill:#1f77b4;stroke:#ffffff;stroke-width:0.75;" x="409.903081" xlink:href="#m5689af1a44" y="53.650068"/>
     <use style="fill:#1f77b4;stroke:#ffffff;stroke-width:0.75;" x="423.718169" xlink:href="#m5689af1a44" y="51.82919"/>
     <use style="fill:#1f77b4;stroke:#ffffff;stroke-width:0.75;" x="437.533256" xlink:href="#m5689af1a44" y="51.759156"/>
     <use style="fill:#1f77b4;stroke:#ffffff;stroke-width:0.75;" x="451.348343" xlink:href="#m5689af1a44" y="50.568582"/>
     <use style="fill:#1f77b4;stroke:#ffffff;stroke-width:0.75;" x="465.16343" xlink:href="#m5689af1a44" y="50.14838"/>
     <use style="fill:#1f77b4;stroke:#ffffff;stroke-width:0.75;" x="478.978517" xlink:href="#m5689af1a44" y="50.14838"/>
     <use style="fill:#1f77b4;stroke:#ffffff;stroke-width:0.75;" x="492.793604" xlink:href="#m5689af1a44" y="50.14838"/>
     <use style="fill:#1f77b4;stroke:#ffffff;stroke-width:0.75;" x="506.608691" xlink:href="#m5689af1a44" y="50.14838"/>
     <use style="fill:#1f77b4;stroke:#ffffff;stroke-width:0.75;" x="520.423778" xlink:href="#m5689af1a44" y="50.008312"/>
     <use style="fill:#1f77b4;stroke:#ffffff;stroke-width:0.75;" x="534.238865" xlink:href="#m5689af1a44" y="50.008312"/>
     <use style="fill:#1f77b4;stroke:#ffffff;stroke-width:0.75;" x="548.053952" xlink:href="#m5689af1a44" y="50.008312"/>
     <use style="fill:#1f77b4;stroke:#ffffff;stroke-width:0.75;" x="561.869039" xlink:href="#m5689af1a44" y="49.938278"/>
     <use style="fill:#1f77b4;stroke:#ffffff;stroke-width:0.75;" x="575.684126" xlink:href="#m5689af1a44" y="47.86061"/>
     <use style="fill:#1f77b4;stroke:#ffffff;stroke-width:0.75;" x="589.499213" xlink:href="#m5689af1a44" y="47.86061"/>
     <use style="fill:#1f77b4;stroke:#ffffff;stroke-width:0.75;" x="603.3143" xlink:href="#m5689af1a44" y="47.86061"/>
     <use style="fill:#1f77b4;stroke:#ffffff;stroke-width:0.75;" x="617.129387" xlink:href="#m5689af1a44" y="47.837265"/>
     <use style="fill:#1f77b4;stroke:#ffffff;stroke-width:0.75;" x="630.944474" xlink:href="#m5689af1a44" y="47.673853"/>
     <use style="fill:#1f77b4;stroke:#ffffff;stroke-width:0.75;" x="644.759561" xlink:href="#m5689af1a44" y="47.136927"/>
     <use style="fill:#1f77b4;stroke:#ffffff;stroke-width:0.75;" x="658.574648" xlink:href="#m5689af1a44" y="46.763414"/>
     <use style="fill:#1f77b4;stroke:#ffffff;stroke-width:0.75;" x="672.389735" xlink:href="#m5689af1a44" y="46.763414"/>
     <use style="fill:#1f77b4;stroke:#ffffff;stroke-width:0.75;" x="686.204822" xlink:href="#m5689af1a44" y="46.763414"/>
     <use style="fill:#1f77b4;stroke:#ffffff;stroke-width:0.75;" x="700.019909" xlink:href="#m5689af1a44" y="46.763414"/>
     <use style="fill:#1f77b4;stroke:#ffffff;stroke-width:0.75;" x="713.834996" xlink:href="#m5689af1a44" y="46.226488"/>
     <use style="fill:#1f77b4;stroke:#ffffff;stroke-width:0.75;" x="727.650083" xlink:href="#m5689af1a44" y="45.993042"/>
     <use style="fill:#1f77b4;stroke:#ffffff;stroke-width:0.75;" x="741.46517" xlink:href="#m5689af1a44" y="45.993042"/>
    </g>
   </g>
   <g id="line2d_20">
    <path clip-path="url(#p24e95858fb)" d="M 92.15608 150.950325 
L 105.971167 138.227523 
L 119.786254 106.899081 
L 133.601341 101.646548 
L 147.416428 89.81084 
L 161.231515 86.145739 
L 175.046602 80.846517 
L 188.861689 80.566382 
L 202.676776 69.407667 
L 216.491863 69.010809 
L 230.30695 65.649188 
L 244.122037 61.703952 
L 257.937124 61.517196 
L 271.752211 61.330439 
L 285.567298 61.307094 
L 299.382385 58.972635 
L 313.197472 58.645811 
L 327.012559 58.272297 
L 340.827646 57.758716 
L 354.642733 56.077906 
L 368.45782 55.821115 
L 382.272907 54.653886 
L 396.087994 54.42044 
L 409.903081 52.833008 
L 423.718169 52.786318 
L 437.533256 52.739629 
L 451.348343 52.739629 
L 465.16343 51.665778 
L 478.978517 51.665778 
L 492.793604 51.642433 
L 506.608691 51.455677 
L 520.423778 51.432332 
L 534.238865 51.058819 
L 548.053952 50.428515 
L 561.869039 50.10169 
L 575.684126 50.10169 
L 589.499213 50.031657 
L 603.3143 49.074528 
L 617.129387 48.000677 
L 630.944474 47.977333 
L 644.759561 47.953988 
L 658.574648 47.81392 
L 672.389735 47.697197 
L 686.204822 47.697197 
L 700.019909 47.697197 
L 713.834996 47.440407 
L 727.650083 47.370373 
L 741.46517 47.323684 
" style="fill:none;stroke:#d62728;stroke-linecap:square;stroke-width:1.5;"/>
    <defs>
     <path d="M 0 -3 
L -3 3 
L 3 3 
z
" id="mc68ada7d60" style="stroke:#ffffff;stroke-linejoin:miter;stroke-width:0.75;"/>
    </defs>
    <g clip-path="url(#p24e95858fb)">
     <use style="fill:#d62728;stroke:#ffffff;stroke-linejoin:miter;stroke-width:0.75;" x="92.15608" xlink:href="#mc68ada7d60" y="150.950325"/>
     <use style="fill:#d62728;stroke:#ffffff;stroke-linejoin:miter;stroke-width:0.75;" x="105.971167" xlink:href="#mc68ada7d60" y="138.227523"/>
     <use style="fill:#d62728;stroke:#ffffff;stroke-linejoin:miter;stroke-width:0.75;" x="119.786254" xlink:href="#mc68ada7d60" y="106.899081"/>
     <use style="fill:#d62728;stroke:#ffffff;stroke-linejoin:miter;stroke-width:0.75;" x="133.601341" xlink:href="#mc68ada7d60" y="101.646548"/>
     <use style="fill:#d62728;stroke:#ffffff;stroke-linejoin:miter;stroke-width:0.75;" x="147.416428" xlink:href="#mc68ada7d60" y="89.81084"/>
     <use style="fill:#d62728;stroke:#ffffff;stroke-linejoin:miter;stroke-width:0.75;" x="161.231515" xlink:href="#mc68ada7d60" y="86.145739"/>
     <use style="fill:#d62728;stroke:#ffffff;stroke-linejoin:miter;stroke-width:0.75;" x="175.046602" xlink:href="#mc68ada7d60" y="80.846517"/>
     <use style="fill:#d62728;stroke:#ffffff;stroke-linejoin:miter;stroke-width:0.75;" x="188.861689" xlink:href="#mc68ada7d60" y="80.566382"/>
     <use style="fill:#d62728;stroke:#ffffff;stroke-linejoin:miter;stroke-width:0.75;" x="202.676776" xlink:href="#mc68ada7d60" y="69.407667"/>
     <use style="fill:#d62728;stroke:#ffffff;stroke-linejoin:miter;stroke-width:0.75;" x="216.491863" xlink:href="#mc68ada7d60" y="69.010809"/>
     <use style="fill:#d62728;stroke:#ffffff;stroke-linejoin:miter;stroke-width:0.75;" x="230.30695" xlink:href="#mc68ada7d60" y="65.649188"/>
     <use style="fill:#d62728;stroke:#ffffff;stroke-linejoin:miter;stroke-width:0.75;" x="244.122037" xlink:href="#mc68ada7d60" y="61.703952"/>
     <use style="fill:#d62728;stroke:#ffffff;stroke-linejoin:miter;stroke-width:0.75;" x="257.937124" xlink:href="#mc68ada7d60" y="61.517196"/>
     <use style="fill:#d62728;stroke:#ffffff;stroke-linejoin:miter;stroke-width:0.75;" x="271.752211" xlink:href="#mc68ada7d60" y="61.330439"/>
     <use style="fill:#d62728;stroke:#ffffff;stroke-linejoin:miter;stroke-width:0.75;" x="285.567298" xlink:href="#mc68ada7d60" y="61.307094"/>
     <use style="fill:#d62728;stroke:#ffffff;stroke-linejoin:miter;stroke-width:0.75;" x="299.382385" xlink:href="#mc68ada7d60" y="58.972635"/>
     <use style="fill:#d62728;stroke:#ffffff;stroke-linejoin:miter;stroke-width:0.75;" x="313.197472" xlink:href="#mc68ada7d60" y="58.645811"/>
     <use style="fill:#d62728;stroke:#ffffff;stroke-linejoin:miter;stroke-width:0.75;" x="327.012559" xlink:href="#mc68ada7d60" y="58.272297"/>
     <use style="fill:#d62728;stroke:#ffffff;stroke-linejoin:miter;stroke-width:0.75;" x="340.827646" xlink:href="#mc68ada7d60" y="57.758716"/>
     <use style="fill:#d62728;stroke:#ffffff;stroke-linejoin:miter;stroke-width:0.75;" x="354.642733" xlink:href="#mc68ada7d60" y="56.077906"/>
     <use style="fill:#d62728;stroke:#ffffff;stroke-linejoin:miter;stroke-width:0.75;" x="368.45782" xlink:href="#mc68ada7d60" y="55.821115"/>
     <use style="fill:#d62728;stroke:#ffffff;stroke-linejoin:miter;stroke-width:0.75;" x="382.272907" xlink:href="#mc68ada7d60" y="54.653886"/>
     <use style="fill:#d62728;stroke:#ffffff;stroke-linejoin:miter;stroke-width:0.75;" x="396.087994" xlink:href="#mc68ada7d60" y="54.42044"/>
     <use style="fill:#d62728;stroke:#ffffff;stroke-linejoin:miter;stroke-width:0.75;" x="409.903081" xlink:href="#mc68ada7d60" y="52.833008"/>
     <use style="fill:#d62728;stroke:#ffffff;stroke-linejoin:miter;stroke-width:0.75;" x="423.718169" xlink:href="#mc68ada7d60" y="52.786318"/>
     <use style="fill:#d62728;stroke:#ffffff;stroke-linejoin:miter;stroke-width:0.75;" x="437.533256" xlink:href="#mc68ada7d60" y="52.739629"/>
     <use style="fill:#d62728;stroke:#ffffff;stroke-linejoin:miter;stroke-width:0.75;" x="451.348343" xlink:href="#mc68ada7d60" y="52.739629"/>
     <use style="fill:#d62728;stroke:#ffffff;stroke-linejoin:miter;stroke-width:0.75;" x="465.16343" xlink:href="#mc68ada7d60" y="51.665778"/>
     <use style="fill:#d62728;stroke:#ffffff;stroke-linejoin:miter;stroke-width:0.75;" x="478.978517" xlink:href="#mc68ada7d60" y="51.665778"/>
     <use style="fill:#d62728;stroke:#ffffff;stroke-linejoin:miter;stroke-width:0.75;" x="492.793604" xlink:href="#mc68ada7d60" y="51.642433"/>
     <use style="fill:#d62728;stroke:#ffffff;stroke-linejoin:miter;stroke-width:0.75;" x="506.608691" xlink:href="#mc68ada7d60" y="51.455677"/>
     <use style="fill:#d62728;stroke:#ffffff;stroke-linejoin:miter;stroke-width:0.75;" x="520.423778" xlink:href="#mc68ada7d60" y="51.432332"/>
     <use style="fill:#d62728;stroke:#ffffff;stroke-linejoin:miter;stroke-width:0.75;" x="534.238865" xlink:href="#mc68ada7d60" y="51.058819"/>
     <use style="fill:#d62728;stroke:#ffffff;stroke-linejoin:miter;stroke-width:0.75;" x="548.053952" xlink:href="#mc68ada7d60" y="50.428515"/>
     <use style="fill:#d62728;stroke:#ffffff;stroke-linejoin:miter;stroke-width:0.75;" x="561.869039" xlink:href="#mc68ada7d60" y="50.10169"/>
     <use style="fill:#d62728;stroke:#ffffff;stroke-linejoin:miter;stroke-width:0.75;" x="575.684126" xlink:href="#mc68ada7d60" y="50.10169"/>
     <use style="fill:#d62728;stroke:#ffffff;stroke-linejoin:miter;stroke-width:0.75;" x="589.499213" xlink:href="#mc68ada7d60" y="50.031657"/>
     <use style="fill:#d62728;stroke:#ffffff;stroke-linejoin:miter;stroke-width:0.75;" x="603.3143" xlink:href="#mc68ada7d60" y="49.074528"/>
     <use style="fill:#d62728;stroke:#ffffff;stroke-linejoin:miter;stroke-width:0.75;" x="617.129387" xlink:href="#mc68ada7d60" y="48.000677"/>
     <use style="fill:#d62728;stroke:#ffffff;stroke-linejoin:miter;stroke-width:0.75;" x="630.944474" xlink:href="#mc68ada7d60" y="47.977333"/>
     <use style="fill:#d62728;stroke:#ffffff;stroke-linejoin:miter;stroke-width:0.75;" x="644.759561" xlink:href="#mc68ada7d60" y="47.953988"/>
     <use style="fill:#d62728;stroke:#ffffff;stroke-linejoin:miter;stroke-width:0.75;" x="658.574648" xlink:href="#mc68ada7d60" y="47.81392"/>
     <use style="fill:#d62728;stroke:#ffffff;stroke-linejoin:miter;stroke-width:0.75;" x="672.389735" xlink:href="#mc68ada7d60" y="47.697197"/>
     <use style="fill:#d62728;stroke:#ffffff;stroke-linejoin:miter;stroke-width:0.75;" x="686.204822" xlink:href="#mc68ada7d60" y="47.697197"/>
     <use style="fill:#d62728;stroke:#ffffff;stroke-linejoin:miter;stroke-width:0.75;" x="700.019909" xlink:href="#mc68ada7d60" y="47.697197"/>
     <use style="fill:#d62728;stroke:#ffffff;stroke-linejoin:miter;stroke-width:0.75;" x="713.834996" xlink:href="#mc68ada7d60" y="47.440407"/>
     <use style="fill:#d62728;stroke:#ffffff;stroke-linejoin:miter;stroke-width:0.75;" x="727.650083" xlink:href="#mc68ada7d60" y="47.370373"/>
     <use style="fill:#d62728;stroke:#ffffff;stroke-linejoin:miter;stroke-width:0.75;" x="741.46517" xlink:href="#mc68ada7d60" y="47.323684"/>
    </g>
   </g>
   <g id="line2d_21">
    <path clip-path="url(#p24e95858fb)" d="M 92.15608 164.303431 
L 105.971167 158.513973 
L 119.786254 152.047521 
L 133.601341 145.767826 
L 147.416428 141.939313 
L 161.231515 140.818772 
L 175.046602 139.23134 
L 188.861689 135.986442 
L 202.676776 127.185531 
L 216.491863 114.906276 
L 230.30695 114.836242 
L 244.122037 114.836242 
L 257.937124 114.836242 
L 271.752211 103.770906 
L 285.567298 102.440264 
L 299.382385 101.389758 
L 313.197472 94.596481 
L 327.012559 93.312529 
L 340.827646 90.557867 
L 354.642733 80.09949 
L 368.45782 79.002294 
L 382.272907 71.298579 
L 396.087994 62.287567 
L 409.903081 60.700135 
L 423.718169 57.922128 
L 437.533256 57.221791 
L 451.348343 57.221791 
L 465.16343 56.124595 
L 478.978517 54.373751 
L 492.793604 54.373751 
L 506.608691 54.350406 
L 520.423778 54.350406 
L 534.238865 54.350406 
L 548.053952 54.350406 
L 561.869039 51.502366 
L 575.684126 50.848717 
L 589.499213 50.848717 
L 603.3143 50.755339 
L 617.129387 50.755339 
L 630.944474 50.755339 
L 644.759561 50.755339 
L 658.574648 50.755339 
L 672.389735 50.755339 
L 686.204822 50.755339 
L 700.019909 50.755339 
L 713.834996 50.755339 
L 727.650083 50.755339 
L 741.46517 50.755339 
" style="fill:none;stroke:#c7c7c7;stroke-linecap:square;stroke-width:1.5;"/>
    <defs>
     <path d="M -3 -0 
L 3 3 
L 3 -3 
z
" id="m35a1dad9c4" style="stroke:#ffffff;stroke-linejoin:miter;stroke-width:0.75;"/>
    </defs>
    <g clip-path="url(#p24e95858fb)">
     <use style="fill:#c7c7c7;stroke:#ffffff;stroke-linejoin:miter;stroke-width:0.75;" x="92.15608" xlink:href="#m35a1dad9c4" y="164.303431"/>
     <use style="fill:#c7c7c7;stroke:#ffffff;stroke-linejoin:miter;stroke-width:0.75;" x="105.971167" xlink:href="#m35a1dad9c4" y="158.513973"/>
     <use style="fill:#c7c7c7;stroke:#ffffff;stroke-linejoin:miter;stroke-width:0.75;" x="119.786254" xlink:href="#m35a1dad9c4" y="152.047521"/>
     <use style="fill:#c7c7c7;stroke:#ffffff;stroke-linejoin:miter;stroke-width:0.75;" x="133.601341" xlink:href="#m35a1dad9c4" y="145.767826"/>
     <use style="fill:#c7c7c7;stroke:#ffffff;stroke-linejoin:miter;stroke-width:0.75;" x="147.416428" xlink:href="#m35a1dad9c4" y="141.939313"/>
     <use style="fill:#c7c7c7;stroke:#ffffff;stroke-linejoin:miter;stroke-width:0.75;" x="161.231515" xlink:href="#m35a1dad9c4" y="140.818772"/>
     <use style="fill:#c7c7c7;stroke:#ffffff;stroke-linejoin:miter;stroke-width:0.75;" x="175.046602" xlink:href="#m35a1dad9c4" y="139.23134"/>
     <use style="fill:#c7c7c7;stroke:#ffffff;stroke-linejoin:miter;stroke-width:0.75;" x="188.861689" xlink:href="#m35a1dad9c4" y="135.986442"/>
     <use style="fill:#c7c7c7;stroke:#ffffff;stroke-linejoin:miter;stroke-width:0.75;" x="202.676776" xlink:href="#m35a1dad9c4" y="127.185531"/>
     <use style="fill:#c7c7c7;stroke:#ffffff;stroke-linejoin:miter;stroke-width:0.75;" x="216.491863" xlink:href="#m35a1dad9c4" y="114.906276"/>
     <use style="fill:#c7c7c7;stroke:#ffffff;stroke-linejoin:miter;stroke-width:0.75;" x="230.30695" xlink:href="#m35a1dad9c4" y="114.836242"/>
     <use style="fill:#c7c7c7;stroke:#ffffff;stroke-linejoin:miter;stroke-width:0.75;" x="244.122037" xlink:href="#m35a1dad9c4" y="114.836242"/>
     <use style="fill:#c7c7c7;stroke:#ffffff;stroke-linejoin:miter;stroke-width:0.75;" x="257.937124" xlink:href="#m35a1dad9c4" y="114.836242"/>
     <use style="fill:#c7c7c7;stroke:#ffffff;stroke-linejoin:miter;stroke-width:0.75;" x="271.752211" xlink:href="#m35a1dad9c4" y="103.770906"/>
     <use style="fill:#c7c7c7;stroke:#ffffff;stroke-linejoin:miter;stroke-width:0.75;" x="285.567298" xlink:href="#m35a1dad9c4" y="102.440264"/>
     <use style="fill:#c7c7c7;stroke:#ffffff;stroke-linejoin:miter;stroke-width:0.75;" x="299.382385" xlink:href="#m35a1dad9c4" y="101.389758"/>
     <use style="fill:#c7c7c7;stroke:#ffffff;stroke-linejoin:miter;stroke-width:0.75;" x="313.197472" xlink:href="#m35a1dad9c4" y="94.596481"/>
     <use style="fill:#c7c7c7;stroke:#ffffff;stroke-linejoin:miter;stroke-width:0.75;" x="327.012559" xlink:href="#m35a1dad9c4" y="93.312529"/>
     <use style="fill:#c7c7c7;stroke:#ffffff;stroke-linejoin:miter;stroke-width:0.75;" x="340.827646" xlink:href="#m35a1dad9c4" y="90.557867"/>
     <use style="fill:#c7c7c7;stroke:#ffffff;stroke-linejoin:miter;stroke-width:0.75;" x="354.642733" xlink:href="#m35a1dad9c4" y="80.09949"/>
     <use style="fill:#c7c7c7;stroke:#ffffff;stroke-linejoin:miter;stroke-width:0.75;" x="368.45782" xlink:href="#m35a1dad9c4" y="79.002294"/>
     <use style="fill:#c7c7c7;stroke:#ffffff;stroke-linejoin:miter;stroke-width:0.75;" x="382.272907" xlink:href="#m35a1dad9c4" y="71.298579"/>
     <use style="fill:#c7c7c7;stroke:#ffffff;stroke-linejoin:miter;stroke-width:0.75;" x="396.087994" xlink:href="#m35a1dad9c4" y="62.287567"/>
     <use style="fill:#c7c7c7;stroke:#ffffff;stroke-linejoin:miter;stroke-width:0.75;" x="409.903081" xlink:href="#m35a1dad9c4" y="60.700135"/>
     <use style="fill:#c7c7c7;stroke:#ffffff;stroke-linejoin:miter;stroke-width:0.75;" x="423.718169" xlink:href="#m35a1dad9c4" y="57.922128"/>
     <use style="fill:#c7c7c7;stroke:#ffffff;stroke-linejoin:miter;stroke-width:0.75;" x="437.533256" xlink:href="#m35a1dad9c4" y="57.221791"/>
     <use style="fill:#c7c7c7;stroke:#ffffff;stroke-linejoin:miter;stroke-width:0.75;" x="451.348343" xlink:href="#m35a1dad9c4" y="57.221791"/>
     <use style="fill:#c7c7c7;stroke:#ffffff;stroke-linejoin:miter;stroke-width:0.75;" x="465.16343" xlink:href="#m35a1dad9c4" y="56.124595"/>
     <use style="fill:#c7c7c7;stroke:#ffffff;stroke-linejoin:miter;stroke-width:0.75;" x="478.978517" xlink:href="#m35a1dad9c4" y="54.373751"/>
     <use style="fill:#c7c7c7;stroke:#ffffff;stroke-linejoin:miter;stroke-width:0.75;" x="492.793604" xlink:href="#m35a1dad9c4" y="54.373751"/>
     <use style="fill:#c7c7c7;stroke:#ffffff;stroke-linejoin:miter;stroke-width:0.75;" x="506.608691" xlink:href="#m35a1dad9c4" y="54.350406"/>
     <use style="fill:#c7c7c7;stroke:#ffffff;stroke-linejoin:miter;stroke-width:0.75;" x="520.423778" xlink:href="#m35a1dad9c4" y="54.350406"/>
     <use style="fill:#c7c7c7;stroke:#ffffff;stroke-linejoin:miter;stroke-width:0.75;" x="534.238865" xlink:href="#m35a1dad9c4" y="54.350406"/>
     <use style="fill:#c7c7c7;stroke:#ffffff;stroke-linejoin:miter;stroke-width:0.75;" x="548.053952" xlink:href="#m35a1dad9c4" y="54.350406"/>
     <use style="fill:#c7c7c7;stroke:#ffffff;stroke-linejoin:miter;stroke-width:0.75;" x="561.869039" xlink:href="#m35a1dad9c4" y="51.502366"/>
     <use style="fill:#c7c7c7;stroke:#ffffff;stroke-linejoin:miter;stroke-width:0.75;" x="575.684126" xlink:href="#m35a1dad9c4" y="50.848717"/>
     <use style="fill:#c7c7c7;stroke:#ffffff;stroke-linejoin:miter;stroke-width:0.75;" x="589.499213" xlink:href="#m35a1dad9c4" y="50.848717"/>
     <use style="fill:#c7c7c7;stroke:#ffffff;stroke-linejoin:miter;stroke-width:0.75;" x="603.3143" xlink:href="#m35a1dad9c4" y="50.755339"/>
     <use style="fill:#c7c7c7;stroke:#ffffff;stroke-linejoin:miter;stroke-width:0.75;" x="617.129387" xlink:href="#m35a1dad9c4" y="50.755339"/>
     <use style="fill:#c7c7c7;stroke:#ffffff;stroke-linejoin:miter;stroke-width:0.75;" x="630.944474" xlink:href="#m35a1dad9c4" y="50.755339"/>
     <use style="fill:#c7c7c7;stroke:#ffffff;stroke-linejoin:miter;stroke-width:0.75;" x="644.759561" xlink:href="#m35a1dad9c4" y="50.755339"/>
     <use style="fill:#c7c7c7;stroke:#ffffff;stroke-linejoin:miter;stroke-width:0.75;" x="658.574648" xlink:href="#m35a1dad9c4" y="50.755339"/>
     <use style="fill:#c7c7c7;stroke:#ffffff;stroke-linejoin:miter;stroke-width:0.75;" x="672.389735" xlink:href="#m35a1dad9c4" y="50.755339"/>
     <use style="fill:#c7c7c7;stroke:#ffffff;stroke-linejoin:miter;stroke-width:0.75;" x="686.204822" xlink:href="#m35a1dad9c4" y="50.755339"/>
     <use style="fill:#c7c7c7;stroke:#ffffff;stroke-linejoin:miter;stroke-width:0.75;" x="700.019909" xlink:href="#m35a1dad9c4" y="50.755339"/>
     <use style="fill:#c7c7c7;stroke:#ffffff;stroke-linejoin:miter;stroke-width:0.75;" x="713.834996" xlink:href="#m35a1dad9c4" y="50.755339"/>
     <use style="fill:#c7c7c7;stroke:#ffffff;stroke-linejoin:miter;stroke-width:0.75;" x="727.650083" xlink:href="#m35a1dad9c4" y="50.755339"/>
     <use style="fill:#c7c7c7;stroke:#ffffff;stroke-linejoin:miter;stroke-width:0.75;" x="741.46517" xlink:href="#m35a1dad9c4" y="50.755339"/>
    </g>
   </g>
   <g id="line2d_22">
    <path clip-path="url(#p24e95858fb)" d="M 92.15608 145.837859 
L 105.971167 126.485193 
L 119.786254 108.579892 
L 133.601341 103.444082 
L 147.416428 94.666515 
L 161.231515 90.161009 
L 175.046602 82.94753 
L 188.861689 80.729794 
L 202.676776 74.870302 
L 216.491863 73.23618 
L 230.30695 69.711147 
L 244.122037 67.796891 
L 257.937124 64.528648 
L 271.752211 63.244695 
L 285.567298 62.987905 
L 299.382385 62.357601 
L 313.197472 62.287567 
L 327.012559 62.007432 
L 340.827646 62.007432 
L 354.642733 61.984087 
L 368.45782 61.960743 
L 382.272907 61.867364 
L 396.087994 61.867364 
L 409.903081 61.867364 
L 423.718169 61.867364 
L 437.533256 61.28375 
L 451.348343 61.23706 
L 465.16343 60.840202 
L 478.978517 60.793513 
L 492.793604 59.929763 
L 506.608691 59.929763 
L 520.423778 58.902601 
L 534.238865 58.6925 
L 548.053952 57.945473 
L 561.869039 57.618649 
L 575.684126 56.988345 
L 589.499213 56.591487 
L 603.3143 56.007872 
L 617.129387 56.007872 
L 630.944474 55.564325 
L 644.759561 55.214156 
L 658.574648 55.214156 
L 672.389735 54.840642 
L 686.204822 54.840642 
L 700.019909 54.840642 
L 713.834996 54.840642 
L 727.650083 54.817298 
L 741.46517 54.817298 
" style="fill:none;stroke:#98df8a;stroke-linecap:square;stroke-width:1.5;"/>
    <defs>
     <path d="M -0 3 
L 3 -3 
L -3 -3 
z
" id="me2a421bcd1" style="stroke:#ffffff;stroke-linejoin:miter;stroke-width:0.75;"/>
    </defs>
    <g clip-path="url(#p24e95858fb)">
     <use style="fill:#98df8a;stroke:#ffffff;stroke-linejoin:miter;stroke-width:0.75;" x="92.15608" xlink:href="#me2a421bcd1" y="145.837859"/>
     <use style="fill:#98df8a;stroke:#ffffff;stroke-linejoin:miter;stroke-width:0.75;" x="105.971167" xlink:href="#me2a421bcd1" y="126.485193"/>
     <use style="fill:#98df8a;stroke:#ffffff;stroke-linejoin:miter;stroke-width:0.75;" x="119.786254" xlink:href="#me2a421bcd1" y="108.579892"/>
     <use style="fill:#98df8a;stroke:#ffffff;stroke-linejoin:miter;stroke-width:0.75;" x="133.601341" xlink:href="#me2a421bcd1" y="103.444082"/>
     <use style="fill:#98df8a;stroke:#ffffff;stroke-linejoin:miter;stroke-width:0.75;" x="147.416428" xlink:href="#me2a421bcd1" y="94.666515"/>
     <use style="fill:#98df8a;stroke:#ffffff;stroke-linejoin:miter;stroke-width:0.75;" x="161.231515" xlink:href="#me2a421bcd1" y="90.161009"/>
     <use style="fill:#98df8a;stroke:#ffffff;stroke-linejoin:miter;stroke-width:0.75;" x="175.046602" xlink:href="#me2a421bcd1" y="82.94753"/>
     <use style="fill:#98df8a;stroke:#ffffff;stroke-linejoin:miter;stroke-width:0.75;" x="188.861689" xlink:href="#me2a421bcd1" y="80.729794"/>
     <use style="fill:#98df8a;stroke:#ffffff;stroke-linejoin:miter;stroke-width:0.75;" x="202.676776" xlink:href="#me2a421bcd1" y="74.870302"/>
     <use style="fill:#98df8a;stroke:#ffffff;stroke-linejoin:miter;stroke-width:0.75;" x="216.491863" xlink:href="#me2a421bcd1" y="73.23618"/>
     <use style="fill:#98df8a;stroke:#ffffff;stroke-linejoin:miter;stroke-width:0.75;" x="230.30695" xlink:href="#me2a421bcd1" y="69.711147"/>
     <use style="fill:#98df8a;stroke:#ffffff;stroke-linejoin:miter;stroke-width:0.75;" x="244.122037" xlink:href="#me2a421bcd1" y="67.796891"/>
     <use style="fill:#98df8a;stroke:#ffffff;stroke-linejoin:miter;stroke-width:0.75;" x="257.937124" xlink:href="#me2a421bcd1" y="64.528648"/>
     <use style="fill:#98df8a;stroke:#ffffff;stroke-linejoin:miter;stroke-width:0.75;" x="271.752211" xlink:href="#me2a421bcd1" y="63.244695"/>
     <use style="fill:#98df8a;stroke:#ffffff;stroke-linejoin:miter;stroke-width:0.75;" x="285.567298" xlink:href="#me2a421bcd1" y="62.987905"/>
     <use style="fill:#98df8a;stroke:#ffffff;stroke-linejoin:miter;stroke-width:0.75;" x="299.382385" xlink:href="#me2a421bcd1" y="62.357601"/>
     <use style="fill:#98df8a;stroke:#ffffff;stroke-linejoin:miter;stroke-width:0.75;" x="313.197472" xlink:href="#me2a421bcd1" y="62.287567"/>
     <use style="fill:#98df8a;stroke:#ffffff;stroke-linejoin:miter;stroke-width:0.75;" x="327.012559" xlink:href="#me2a421bcd1" y="62.007432"/>
     <use style="fill:#98df8a;stroke:#ffffff;stroke-linejoin:miter;stroke-width:0.75;" x="340.827646" xlink:href="#me2a421bcd1" y="62.007432"/>
     <use style="fill:#98df8a;stroke:#ffffff;stroke-linejoin:miter;stroke-width:0.75;" x="354.642733" xlink:href="#me2a421bcd1" y="61.984087"/>
     <use style="fill:#98df8a;stroke:#ffffff;stroke-linejoin:miter;stroke-width:0.75;" x="368.45782" xlink:href="#me2a421bcd1" y="61.960743"/>
     <use style="fill:#98df8a;stroke:#ffffff;stroke-linejoin:miter;stroke-width:0.75;" x="382.272907" xlink:href="#me2a421bcd1" y="61.867364"/>
     <use style="fill:#98df8a;stroke:#ffffff;stroke-linejoin:miter;stroke-width:0.75;" x="396.087994" xlink:href="#me2a421bcd1" y="61.867364"/>
     <use style="fill:#98df8a;stroke:#ffffff;stroke-linejoin:miter;stroke-width:0.75;" x="409.903081" xlink:href="#me2a421bcd1" y="61.867364"/>
     <use style="fill:#98df8a;stroke:#ffffff;stroke-linejoin:miter;stroke-width:0.75;" x="423.718169" xlink:href="#me2a421bcd1" y="61.867364"/>
     <use style="fill:#98df8a;stroke:#ffffff;stroke-linejoin:miter;stroke-width:0.75;" x="437.533256" xlink:href="#me2a421bcd1" y="61.28375"/>
     <use style="fill:#98df8a;stroke:#ffffff;stroke-linejoin:miter;stroke-width:0.75;" x="451.348343" xlink:href="#me2a421bcd1" y="61.23706"/>
     <use style="fill:#98df8a;stroke:#ffffff;stroke-linejoin:miter;stroke-width:0.75;" x="465.16343" xlink:href="#me2a421bcd1" y="60.840202"/>
     <use style="fill:#98df8a;stroke:#ffffff;stroke-linejoin:miter;stroke-width:0.75;" x="478.978517" xlink:href="#me2a421bcd1" y="60.793513"/>
     <use style="fill:#98df8a;stroke:#ffffff;stroke-linejoin:miter;stroke-width:0.75;" x="492.793604" xlink:href="#me2a421bcd1" y="59.929763"/>
     <use style="fill:#98df8a;stroke:#ffffff;stroke-linejoin:miter;stroke-width:0.75;" x="506.608691" xlink:href="#me2a421bcd1" y="59.929763"/>
     <use style="fill:#98df8a;stroke:#ffffff;stroke-linejoin:miter;stroke-width:0.75;" x="520.423778" xlink:href="#me2a421bcd1" y="58.902601"/>
     <use style="fill:#98df8a;stroke:#ffffff;stroke-linejoin:miter;stroke-width:0.75;" x="534.238865" xlink:href="#me2a421bcd1" y="58.6925"/>
     <use style="fill:#98df8a;stroke:#ffffff;stroke-linejoin:miter;stroke-width:0.75;" x="548.053952" xlink:href="#me2a421bcd1" y="57.945473"/>
     <use style="fill:#98df8a;stroke:#ffffff;stroke-linejoin:miter;stroke-width:0.75;" x="561.869039" xlink:href="#me2a421bcd1" y="57.618649"/>
     <use style="fill:#98df8a;stroke:#ffffff;stroke-linejoin:miter;stroke-width:0.75;" x="575.684126" xlink:href="#me2a421bcd1" y="56.988345"/>
     <use style="fill:#98df8a;stroke:#ffffff;stroke-linejoin:miter;stroke-width:0.75;" x="589.499213" xlink:href="#me2a421bcd1" y="56.591487"/>
     <use style="fill:#98df8a;stroke:#ffffff;stroke-linejoin:miter;stroke-width:0.75;" x="603.3143" xlink:href="#me2a421bcd1" y="56.007872"/>
     <use style="fill:#98df8a;stroke:#ffffff;stroke-linejoin:miter;stroke-width:0.75;" x="617.129387" xlink:href="#me2a421bcd1" y="56.007872"/>
     <use style="fill:#98df8a;stroke:#ffffff;stroke-linejoin:miter;stroke-width:0.75;" x="630.944474" xlink:href="#me2a421bcd1" y="55.564325"/>
     <use style="fill:#98df8a;stroke:#ffffff;stroke-linejoin:miter;stroke-width:0.75;" x="644.759561" xlink:href="#me2a421bcd1" y="55.214156"/>
     <use style="fill:#98df8a;stroke:#ffffff;stroke-linejoin:miter;stroke-width:0.75;" x="658.574648" xlink:href="#me2a421bcd1" y="55.214156"/>
     <use style="fill:#98df8a;stroke:#ffffff;stroke-linejoin:miter;stroke-width:0.75;" x="672.389735" xlink:href="#me2a421bcd1" y="54.840642"/>
     <use style="fill:#98df8a;stroke:#ffffff;stroke-linejoin:miter;stroke-width:0.75;" x="686.204822" xlink:href="#me2a421bcd1" y="54.840642"/>
     <use style="fill:#98df8a;stroke:#ffffff;stroke-linejoin:miter;stroke-width:0.75;" x="700.019909" xlink:href="#me2a421bcd1" y="54.840642"/>
     <use style="fill:#98df8a;stroke:#ffffff;stroke-linejoin:miter;stroke-width:0.75;" x="713.834996" xlink:href="#me2a421bcd1" y="54.840642"/>
     <use style="fill:#98df8a;stroke:#ffffff;stroke-linejoin:miter;stroke-width:0.75;" x="727.650083" xlink:href="#me2a421bcd1" y="54.817298"/>
     <use style="fill:#98df8a;stroke:#ffffff;stroke-linejoin:miter;stroke-width:0.75;" x="741.46517" xlink:href="#me2a421bcd1" y="54.817298"/>
    </g>
   </g>
   <g id="line2d_23"/>
   <g id="line2d_24"/>
   <g id="line2d_25"/>
   <g id="line2d_26"/>
   <g id="line2d_27">
    <path clip-path="url(#p24e95858fb)" d="M 741.46517 288.430125 
L 741.46517 22.318125 
" style="fill:none;stroke:#ff0000;stroke-linecap:square;stroke-width:1.5;"/>
   </g>
   <g id="patch_3">
    <path d="M 59.690625 264.381694 
L 59.690625 30.935781 
" style="fill:none;stroke:#000000;stroke-linecap:square;stroke-linejoin:miter;stroke-width:0.8;"/>
   </g>
   <g id="patch_4">
    <path d="M 92.15608 288.430125 
L 700.019909 288.430125 
" style="fill:none;stroke:#000000;stroke-linecap:square;stroke-linejoin:miter;stroke-width:0.8;"/>
   </g>
   <g id="text_21">
    <!-- libxml2-v2.9.2 (12h, 3 trials/fuzzer) -->
    <g transform="translate(311.05125 16.318125)scale(0.12 -0.12)">
     <defs>
      <path d="M 603 4863 
L 1178 4863 
L 1178 0 
L 603 0 
L 603 4863 
z
" id="DejaVuSans-6c" transform="scale(0.015625)"/>
      <path d="M 3116 1747 
Q 3116 2381 2855 2742 
Q 2594 3103 2138 3103 
Q 1681 3103 1420 2742 
Q 1159 2381 1159 1747 
Q 1159 1113 1420 752 
Q 1681 391 2138 391 
Q 2594 391 2855 752 
Q 3116 1113 3116 1747 
z
M 1159 2969 
Q 1341 3281 1617 3432 
Q 1894 3584 2278 3584 
Q 2916 3584 3314 3078 
Q 3713 2572 3713 1747 
Q 3713 922 3314 415 
Q 2916 -91 2278 -91 
Q 1894 -91 1617 61 
Q 1341 213 1159 525 
L 1159 0 
L 581 0 
L 581 4863 
L 1159 4863 
L 1159 2969 
z
" id="DejaVuSans-62" transform="scale(0.015625)"/>
      <path d="M 3513 3500 
L 2247 1797 
L 3578 0 
L 2900 0 
L 1881 1375 
L 863 0 
L 184 0 
L 1544 1831 
L 300 3500 
L 978 3500 
L 1906 2253 
L 2834 3500 
L 3513 3500 
z
" id="DejaVuSans-78" transform="scale(0.015625)"/>
      <path d="M 313 2009 
L 1997 2009 
L 1997 1497 
L 313 1497 
L 313 2009 
z
" id="DejaVuSans-2d" transform="scale(0.015625)"/>
      <path d="M 684 794 
L 1344 794 
L 1344 0 
L 684 0 
L 684 794 
z
" id="DejaVuSans-2e" transform="scale(0.015625)"/>
      <path d="M 750 794 
L 1409 794 
L 1409 256 
L 897 -744 
L 494 -744 
L 750 256 
L 750 794 
z
" id="DejaVuSans-2c" transform="scale(0.015625)"/>
      <path d="M 2834 3397 
L 2834 2853 
Q 2591 2978 2328 3040 
Q 2066 3103 1784 3103 
Q 1356 3103 1142 2972 
Q 928 2841 928 2578 
Q 928 2378 1081 2264 
Q 1234 2150 1697 2047 
L 1894 2003 
Q 2506 1872 2764 1633 
Q 3022 1394 3022 966 
Q 3022 478 2636 193 
Q 2250 -91 1575 -91 
Q 1294 -91 989 -36 
Q 684 19 347 128 
L 347 722 
Q 666 556 975 473 
Q 1284 391 1588 391 
Q 1994 391 2212 530 
Q 2431 669 2431 922 
Q 2431 1156 2273 1281 
Q 2116 1406 1581 1522 
L 1381 1569 
Q 847 1681 609 1914 
Q 372 2147 372 2553 
Q 372 3047 722 3315 
Q 1072 3584 1716 3584 
Q 2034 3584 2315 3537 
Q 2597 3491 2834 3397 
z
" id="DejaVuSans-73" transform="scale(0.015625)"/>
      <path d="M 1625 4666 
L 2156 4666 
L 531 -594 
L 0 -594 
L 1625 4666 
z
" id="DejaVuSans-2f" transform="scale(0.015625)"/>
      <path d="M 2375 4863 
L 2375 4384 
L 1825 4384 
Q 1516 4384 1395 4259 
Q 1275 4134 1275 3809 
L 1275 3500 
L 2222 3500 
L 2222 3053 
L 1275 3053 
L 1275 0 
L 697 0 
L 697 3053 
L 147 3053 
L 147 3500 
L 697 3500 
L 697 3744 
Q 697 4328 969 4595 
Q 1241 4863 1831 4863 
L 2375 4863 
z
" id="DejaVuSans-66" transform="scale(0.015625)"/>
      <path d="M 353 3500 
L 3084 3500 
L 3084 2975 
L 922 459 
L 3084 459 
L 3084 0 
L 275 0 
L 275 525 
L 2438 3041 
L 353 3041 
L 353 3500 
z
" id="DejaVuSans-7a" transform="scale(0.015625)"/>
     </defs>
     <use xlink:href="#DejaVuSans-6c"/>
     <use x="27.783203" xlink:href="#DejaVuSans-69"/>
     <use x="55.566406" xlink:href="#DejaVuSans-62"/>
     <use x="119.042969" xlink:href="#DejaVuSans-78"/>
     <use x="178.222656" xlink:href="#DejaVuSans-6d"/>
     <use x="275.634766" xlink:href="#DejaVuSans-6c"/>
     <use x="303.417969" xlink:href="#DejaVuSans-32"/>
     <use x="367.041016" xlink:href="#DejaVuSans-2d"/>
     <use x="400.5" xlink:href="#DejaVuSans-76"/>
     <use x="459.679688" xlink:href="#DejaVuSans-32"/>
     <use x="523.302734" xlink:href="#DejaVuSans-2e"/>
     <use x="555.089844" xlink:href="#DejaVuSans-39"/>
     <use x="618.712891" xlink:href="#DejaVuSans-2e"/>
     <use x="650.5" xlink:href="#DejaVuSans-32"/>
     <use x="714.123047" xlink:href="#DejaVuSans-20"/>
     <use x="745.910156" xlink:href="#DejaVuSans-28"/>
     <use x="784.923828" xlink:href="#DejaVuSans-31"/>
     <use x="848.546875" xlink:href="#DejaVuSans-32"/>
     <use x="912.169922" xlink:href="#DejaVuSans-68"/>
     <use x="975.548828" xlink:href="#DejaVuSans-2c"/>
     <use x="1007.335938" xlink:href="#DejaVuSans-20"/>
     <use x="1039.123047" xlink:href="#DejaVuSans-33"/>
     <use x="1102.746094" xlink:href="#DejaVuSans-20"/>
     <use x="1134.533203" xlink:href="#DejaVuSans-74"/>
     <use x="1173.742188" xlink:href="#DejaVuSans-72"/>
     <use x="1214.855469" xlink:href="#DejaVuSans-69"/>
     <use x="1242.638672" xlink:href="#DejaVuSans-61"/>
     <use x="1303.917969" xlink:href="#DejaVuSans-6c"/>
     <use x="1331.701172" xlink:href="#DejaVuSans-73"/>
     <use x="1383.800781" xlink:href="#DejaVuSans-2f"/>
     <use x="1417.492188" xlink:href="#DejaVuSans-66"/>
     <use x="1452.697266" xlink:href="#DejaVuSans-75"/>
     <use x="1516.076172" xlink:href="#DejaVuSans-7a"/>
     <use x="1568.566406" xlink:href="#DejaVuSans-7a"/>
     <use x="1621.056641" xlink:href="#DejaVuSans-65"/>
     <use x="1682.580078" xlink:href="#DejaVuSans-72"/>
     <use x="1723.693359" xlink:href="#DejaVuSans-29"/>
    </g>
   </g>
   <g id="legend_1">
    <g id="line2d_28">
     <path d="M 777.930625 30.416562 
L 797.930625 30.416562 
" style="fill:none;stroke:#1f77b4;stroke-linecap:square;stroke-width:1.5;"/>
    </g>
    <g id="line2d_29">
     <defs>
      <path d="M 0 3 
C 0.795609 3 1.55874 2.683901 2.12132 2.12132 
C 2.683901 1.55874 3 0.795609 3 0 
C 3 -0.795609 2.683901 -1.55874 2.12132 -2.12132 
C 1.55874 -2.683901 0.795609 -3 0 -3 
C -0.795609 -3 -1.55874 -2.683901 -2.12132 -2.12132 
C -2.683901 -1.55874 -3 -0.795609 -3 0 
C -3 0.795609 -2.683901 1.55874 -2.12132 2.12132 
C -1.55874 2.683901 -0.795609 3 0 3 
z
" id="m25abd6eeeb" style="stroke:#1f77b4;"/>
     </defs>
     <g>
      <use style="fill:#1f77b4;stroke:#1f77b4;" x="787.930625" xlink:href="#m25abd6eeeb" y="30.416562"/>
     </g>
    </g>
    <g id="text_22">
     <!-- afl -->
     <g transform="translate(805.930625 33.916562)scale(0.1 -0.1)">
      <use xlink:href="#DejaVuSans-61"/>
      <use x="61.279297" xlink:href="#DejaVuSans-66"/>
      <use x="96.484375" xlink:href="#DejaVuSans-6c"/>
     </g>
    </g>
    <g id="line2d_30">
     <path d="M 777.930625 45.094688 
L 797.930625 45.094688 
" style="fill:none;stroke:#d62728;stroke-linecap:square;stroke-width:1.5;"/>
    </g>
    <g id="line2d_31">
     <defs>
      <path d="M 0 -3 
L -3 3 
L 3 3 
z
" id="meea628bd92" style="stroke:#d62728;stroke-linejoin:miter;"/>
     </defs>
     <g>
      <use style="fill:#d62728;stroke:#d62728;stroke-linejoin:miter;" x="787.930625" xlink:href="#meea628bd92" y="45.094688"/>
     </g>
    </g>
    <g id="text_23">
     <!-- aflplusplus -->
     <g transform="translate(805.930625 48.594688)scale(0.1 -0.1)">
      <defs>
       <path d="M 1159 525 
L 1159 -1331 
L 581 -1331 
L 581 3500 
L 1159 3500 
L 1159 2969 
Q 1341 3281 1617 3432 
Q 1894 3584 2278 3584 
Q 2916 3584 3314 3078 
Q 3713 2572 3713 1747 
Q 3713 922 3314 415 
Q 2916 -91 2278 -91 
Q 1894 -91 1617 61 
Q 1341 213 1159 525 
z
M 3116 1747 
Q 3116 2381 2855 2742 
Q 2594 3103 2138 3103 
Q 1681 3103 1420 2742 
Q 1159 2381 1159 1747 
Q 1159 1113 1420 752 
Q 1681 391 2138 391 
Q 2594 391 2855 752 
Q 3116 1113 3116 1747 
z
" id="DejaVuSans-70" transform="scale(0.015625)"/>
      </defs>
      <use xlink:href="#DejaVuSans-61"/>
      <use x="61.279297" xlink:href="#DejaVuSans-66"/>
      <use x="96.484375" xlink:href="#DejaVuSans-6c"/>
      <use x="124.267578" xlink:href="#DejaVuSans-70"/>
      <use x="187.744141" xlink:href="#DejaVuSans-6c"/>
      <use x="215.527344" xlink:href="#DejaVuSans-75"/>
      <use x="278.90625" xlink:href="#DejaVuSans-73"/>
      <use x="331.005859" xlink:href="#DejaVuSans-70"/>
      <use x="394.482422" xlink:href="#DejaVuSans-6c"/>
      <use x="422.265625" xlink:href="#DejaVuSans-75"/>
      <use x="485.644531" xlink:href="#DejaVuSans-73"/>
     </g>
    </g>
    <g id="line2d_32">
     <path d="M 777.930625 59.772812 
L 797.930625 59.772812 
" style="fill:none;stroke:#c7c7c7;stroke-linecap:square;stroke-width:1.5;"/>
    </g>
    <g id="line2d_33">
     <defs>
      <path d="M -3 -0 
L 3 3 
L 3 -3 
z
" id="m961804728a" style="stroke:#c7c7c7;stroke-linejoin:miter;"/>
     </defs>
     <g>
      <use style="fill:#c7c7c7;stroke:#c7c7c7;stroke-linejoin:miter;" x="787.930625" xlink:href="#m961804728a" y="59.772812"/>
     </g>
    </g>
    <g id="text_24">
     <!-- waffle -->
     <g transform="translate(805.930625 63.272812)scale(0.1 -0.1)">
      <defs>
       <path d="M 269 3500 
L 844 3500 
L 1563 769 
L 2278 3500 
L 2956 3500 
L 3675 769 
L 4391 3500 
L 4966 3500 
L 4050 0 
L 3372 0 
L 2619 2869 
L 1863 0 
L 1184 0 
L 269 3500 
z
" id="DejaVuSans-77" transform="scale(0.015625)"/>
      </defs>
      <use xlink:href="#DejaVuSans-77"/>
      <use x="81.787109" xlink:href="#DejaVuSans-61"/>
      <use x="143.066406" xlink:href="#DejaVuSans-66"/>
      <use x="178.271484" xlink:href="#DejaVuSans-66"/>
      <use x="213.476562" xlink:href="#DejaVuSans-6c"/>
      <use x="241.259766" xlink:href="#DejaVuSans-65"/>
     </g>
    </g>
    <g id="line2d_34">
     <path d="M 777.930625 74.450938 
L 797.930625 74.450938 
" style="fill:none;stroke:#98df8a;stroke-linecap:square;stroke-width:1.5;"/>
    </g>
    <g id="line2d_35">
     <defs>
      <path d="M -0 3 
L 3 -3 
L -3 -3 
z
" id="m2fd3e21f43" style="stroke:#98df8a;stroke-linejoin:miter;"/>
     </defs>
     <g>
      <use style="fill:#98df8a;stroke:#98df8a;stroke-linejoin:miter;" x="787.930625" xlink:href="#m2fd3e21f43" y="74.450938"/>
     </g>
    </g>
    <g id="text_25">
     <!-- aflfast -->
     <g transform="translate(805.930625 77.950938)scale(0.1 -0.1)">
      <use xlink:href="#DejaVuSans-61"/>
      <use x="61.279297" xlink:href="#DejaVuSans-66"/>
      <use x="96.484375" xlink:href="#DejaVuSans-6c"/>
      <use x="124.267578" xlink:href="#DejaVuSans-66"/>
      <use x="159.472656" xlink:href="#DejaVuSans-61"/>
      <use x="220.751953" xlink:href="#DejaVuSans-73"/>
      <use x="272.851562" xlink:href="#DejaVuSans-74"/>
     </g>
    </g>
   </g>
  </g>
 </g>
 <defs>
  <clipPath id="p24e95858fb">
   <rect height="266.112" width="714.24" x="59.690625" y="22.318125"/>
  </clipPath>
 </defs>
</svg>
