<?xml version="1.0" encoding="utf-8" standalone="no"?>
<!DOCTYPE svg PUBLIC "-//W3C//DTD SVG 1.1//EN"
  "http://www.w3.org/Graphics/SVG/1.1/DTD/svg11.dtd">
<svg height="325.986375pt" version="1.1" viewBox="0 0 864.541562 325.986375" width="864.541562pt" xmlns="http://www.w3.org/2000/svg" xmlns:xlink="http://www.w3.org/1999/xlink">
 <metadata>
  <rdf:RDF xmlns:cc="http://creativecommons.org/ns#" xmlns:dc="http://purl.org/dc/elements/1.1/" xmlns:rdf="http://www.w3.org/1999/02/22-rdf-syntax-ns#">
   <cc:Work>
    <dc:type rdf:resource="http://purl.org/dc/dcmitype/StillImage"/>
    <dc:date>2021-12-06T07:26:49.104386</dc:date>
    <dc:format>image/svg+xml</dc:format>
    <dc:creator>
     <cc:Agent>
      <dc:title>Matplotlib v3.4.1, https://matplotlib.org/</dc:title>
     </cc:Agent>
    </dc:creator>
   </cc:Work>
  </rdf:RDF>
 </metadata>
 <defs>
  <style type="text/css">*{stroke-linecap:butt;stroke-linejoin:round;}</style>
 </defs>
 <g id="figure_1">
  <g id="patch_1">
   <path d="M 0 325.986375 
L 864.541562 325.986375 
L 864.541562 0 
L 0 0 
z
" style="fill:#ffffff;"/>
  </g>
  <g id="axes_1">
   <g id="patch_2">
    <path d="M 53.328125 288.430125 
L 767.568125 288.430125 
L 767.568125 22.318125 
L 53.328125 22.318125 
z
" style="fill:#ffffff;"/>
   </g>
   <g id="PolyCollection_1">
    <defs>
     <path d="M 85.79358 -243.587549 
L 85.79358 -241.935278 
L 202.053821 -243.105636 
L 270.061703 -243.656393 
L 318.314063 -243.725238 
L 355.741501 -244.275995 
L 386.321945 -261.074083 
L 412.177342 -261.074083 
L 434.574305 -261.693684 
L 454.329827 -261.693684 
L 472.001743 -261.693684 
L 487.987936 -261.693684 
L 502.582187 -261.693684 
L 516.007596 -261.762529 
L 528.437583 -266.581652 
L 540.009625 -267.958545 
L 550.834547 -267.958545 
L 561.002998 -267.958545 
L 570.590069 -267.958545 
L 579.65866 -267.958545 
L 588.261985 -267.958545 
L 596.445465 -267.958545 
L 604.248178 -267.958545 
L 611.703986 -267.958545 
L 618.842429 -267.958545 
L 625.689423 -267.958545 
L 632.267838 -268.027389 
L 638.59795 -268.027389 
L 644.697825 -268.027389 
L 650.583625 -268.027389 
L 656.269867 -268.027389 
L 661.769641 -268.027389 
L 667.094789 -268.027389 
L 672.25606 -268.027389 
L 677.26324 -268.027389 
L 682.125263 -268.027389 
L 686.85031 -268.027389 
L 691.445888 -268.027389 
L 695.918901 -268.027389 
L 700.27572 -268.027389 
L 704.522227 -268.027389 
L 708.663871 -268.027389 
L 712.705707 -268.027389 
L 716.652432 -268.027389 
L 720.50842 -268.027389 
L 724.277749 -268.027389 
L 727.964228 -268.165079 
L 731.571423 -268.165079 
L 735.10267 -268.165079 
L 735.10267 -291.57225 
L 735.10267 -291.57225 
L 731.571423 -291.57225 
L 727.964228 -291.57225 
L 724.277749 -291.57225 
L 720.50842 -291.57225 
L 716.652432 -291.57225 
L 712.705707 -291.57225 
L 708.663871 -291.57225 
L 704.522227 -291.57225 
L 700.27572 -291.57225 
L 695.918901 -291.57225 
L 691.445888 -291.57225 
L 686.85031 -291.365716 
L 682.125263 -291.365716 
L 677.26324 -291.365716 
L 672.25606 -291.365716 
L 667.094789 -291.365716 
L 661.769641 -291.365716 
L 656.269867 -291.365716 
L 650.583625 -291.365716 
L 644.697825 -291.365716 
L 638.59795 -291.365716 
L 632.267838 -291.365716 
L 625.689423 -291.365716 
L 618.842429 -291.365716 
L 611.703986 -291.365716 
L 604.248178 -291.365716 
L 596.445465 -291.365716 
L 588.261985 -291.365716 
L 579.65866 -291.365716 
L 570.590069 -291.365716 
L 561.002998 -291.365716 
L 550.834547 -291.228027 
L 540.009625 -291.228027 
L 528.437583 -291.228027 
L 516.007596 -291.228027 
L 502.582187 -291.228027 
L 487.987936 -291.228027 
L 472.001743 -291.228027 
L 454.329827 -291.021493 
L 434.574305 -291.021493 
L 412.177342 -291.021493 
L 386.321945 -286.615437 
L 355.741501 -285.307389 
L 318.314063 -271.538465 
L 270.061703 -244.551374 
L 202.053821 -244.34484 
L 85.79358 -243.587549 
z
" id="madefced81a" style="stroke:#d62728;stroke-opacity:0.2;"/>
    </defs>
    <g clip-path="url(#pdd94758c3d)">
     <use style="fill:#d62728;fill-opacity:0.2;stroke:#d62728;stroke-opacity:0.2;" x="0" xlink:href="#madefced81a" y="325.986375"/>
    </g>
   </g>
   <g id="PolyCollection_2">
    <defs>
     <path d="M 85.79358 -257.01225 
L 85.79358 -227.409063 
L 202.053821 -252.39966 
L 270.061703 -257.01225 
L 318.314063 -257.01225 
L 355.741501 -261.142927 
L 386.321945 -261.142927 
L 412.177342 -261.142927 
L 434.574305 -261.142927 
L 454.329827 -261.142927 
L 472.001743 -261.142927 
L 487.987936 -261.280617 
L 502.582187 -261.280617 
L 516.007596 -261.280617 
L 528.437583 -261.280617 
L 540.009625 -261.280617 
L 550.834547 -261.349461 
L 561.002998 -261.349461 
L 570.590069 -261.969063 
L 579.65866 -261.969063 
L 588.261985 -261.969063 
L 596.445465 -261.969063 
L 604.248178 -261.969063 
L 611.703986 -261.969063 
L 618.842429 -261.969063 
L 625.689423 -261.969063 
L 632.267838 -261.969063 
L 638.59795 -261.969063 
L 644.697825 -261.969063 
L 650.583625 -262.175597 
L 656.269867 -262.175597 
L 661.769641 -262.175597 
L 667.094789 -262.450975 
L 672.25606 -262.657509 
L 677.26324 -262.657509 
L 682.125263 -262.657509 
L 686.85031 -262.657509 
L 691.445888 -262.657509 
L 695.918901 -262.657509 
L 700.27572 -262.657509 
L 704.522227 -262.657509 
L 708.663871 -262.657509 
L 712.705707 -262.657509 
L 716.652432 -262.657509 
L 720.50842 -262.657509 
L 724.277749 -262.657509 
L 727.964228 -262.657509 
L 731.571423 -262.657509 
L 735.10267 -262.657509 
L 735.10267 -283.242051 
L 735.10267 -283.242051 
L 731.571423 -283.242051 
L 727.964228 -283.242051 
L 724.277749 -283.242051 
L 720.50842 -283.242051 
L 716.652432 -283.242051 
L 712.705707 -283.242051 
L 708.663871 -283.242051 
L 704.522227 -283.242051 
L 700.27572 -283.242051 
L 695.918901 -283.242051 
L 691.445888 -283.242051 
L 686.85031 -283.242051 
L 682.125263 -283.242051 
L 677.26324 -283.035517 
L 672.25606 -283.035517 
L 667.094789 -283.035517 
L 661.769641 -283.035517 
L 656.269867 -283.035517 
L 650.583625 -283.035517 
L 644.697825 -283.035517 
L 638.59795 -282.897828 
L 632.267838 -282.897828 
L 625.689423 -282.897828 
L 618.842429 -282.897828 
L 611.703986 -282.897828 
L 604.248178 -282.897828 
L 596.445465 -282.897828 
L 588.261985 -282.760138 
L 579.65866 -282.760138 
L 570.590069 -282.760138 
L 561.002998 -282.760138 
L 550.834547 -282.760138 
L 540.009625 -282.760138 
L 528.437583 -282.760138 
L 516.007596 -282.760138 
L 502.582187 -282.760138 
L 487.987936 -282.347071 
L 472.001743 -282.347071 
L 454.329827 -282.347071 
L 434.574305 -282.002848 
L 412.177342 -282.002848 
L 386.321945 -282.002848 
L 355.741501 -281.934003 
L 318.314063 -261.62484 
L 270.061703 -261.211772 
L 202.053821 -259.146433 
L 85.79358 -257.01225 
z
" id="m9d6a0ad37d" style="stroke:#c7c7c7;stroke-opacity:0.2;"/>
    </defs>
    <g clip-path="url(#pdd94758c3d)">
     <use style="fill:#c7c7c7;fill-opacity:0.2;stroke:#c7c7c7;stroke-opacity:0.2;" x="0" xlink:href="#m9d6a0ad37d" y="325.986375"/>
    </g>
   </g>
   <g id="PolyCollection_3">
    <defs>
     <path d="M 85.79358 -242.348346 
L 85.79358 -49.65225 
L 202.053821 -247.993605 
L 270.061703 -256.736872 
L 318.314063 -257.425318 
L 355.741501 -257.425318 
L 386.321945 -257.425318 
L 412.177342 -257.631852 
L 434.574305 -257.838385 
L 454.329827 -257.838385 
L 472.001743 -257.838385 
L 487.987936 -257.838385 
L 502.582187 -257.838385 
L 516.007596 -257.838385 
L 528.437583 -257.838385 
L 540.009625 -257.976075 
L 550.834547 -257.976075 
L 561.002998 -257.976075 
L 570.590069 -257.976075 
L 579.65866 -257.976075 
L 588.261985 -257.976075 
L 596.445465 -257.976075 
L 604.248178 -257.976075 
L 611.703986 -257.976075 
L 618.842429 -257.976075 
L 625.689423 -257.976075 
L 632.267838 -257.976075 
L 638.59795 -257.976075 
L 644.697825 -257.976075 
L 650.583625 -257.976075 
L 656.269867 -257.976075 
L 661.769641 -258.182609 
L 667.094789 -258.182609 
L 672.25606 -258.320298 
L 677.26324 -258.320298 
L 682.125263 -258.320298 
L 686.85031 -258.320298 
L 691.445888 -262.175597 
L 695.918901 -262.450975 
L 700.27572 -262.450975 
L 704.522227 -262.450975 
L 708.663871 -262.450975 
L 712.705707 -262.450975 
L 716.652432 -262.450975 
L 720.50842 -262.450975 
L 724.277749 -262.450975 
L 727.964228 -262.450975 
L 731.571423 -262.450975 
L 735.10267 -262.450975 
L 735.10267 -267.683166 
L 735.10267 -267.683166 
L 731.571423 -267.683166 
L 727.964228 -267.683166 
L 724.277749 -267.683166 
L 720.50842 -267.683166 
L 716.652432 -267.683166 
L 712.705707 -267.683166 
L 708.663871 -267.683166 
L 704.522227 -267.683166 
L 700.27572 -267.683166 
L 695.918901 -266.375119 
L 691.445888 -262.588664 
L 686.85031 -262.588664 
L 682.125263 -262.588664 
L 677.26324 -262.588664 
L 672.25606 -262.588664 
L 667.094789 -262.450975 
L 661.769641 -262.450975 
L 656.269867 -262.450975 
L 650.583625 -262.450975 
L 644.697825 -262.450975 
L 638.59795 -262.450975 
L 632.267838 -262.450975 
L 625.689423 -262.450975 
L 618.842429 -262.450975 
L 611.703986 -262.450975 
L 604.248178 -262.450975 
L 596.445465 -262.450975 
L 588.261985 -262.450975 
L 579.65866 -262.313286 
L 570.590069 -262.313286 
L 561.002998 -262.313286 
L 550.834547 -262.313286 
L 540.009625 -262.313286 
L 528.437583 -262.313286 
L 516.007596 -262.313286 
L 502.582187 -262.313286 
L 487.987936 -262.313286 
L 472.001743 -262.313286 
L 454.329827 -261.762529 
L 434.574305 -261.762529 
L 412.177342 -261.762529 
L 386.321945 -261.349461 
L 355.741501 -260.523326 
L 318.314063 -260.523326 
L 270.061703 -260.523326 
L 202.053821 -260.110258 
L 85.79358 -242.348346 
z
" id="m7dcd367c5e" style="stroke:#98df8a;stroke-opacity:0.2;"/>
    </defs>
    <g clip-path="url(#pdd94758c3d)">
     <use style="fill:#98df8a;fill-opacity:0.2;stroke:#98df8a;stroke-opacity:0.2;" x="0" xlink:href="#m7dcd367c5e" y="325.986375"/>
    </g>
   </g>
   <g id="PolyCollection_4">
    <defs>
     <path d="M 85.79358 -257.838385 
L 85.79358 -230.025158 
L 202.053821 -230.438226 
L 270.061703 -230.438226 
L 318.314063 -257.081095 
L 355.741501 -257.081095 
L 386.321945 -257.081095 
L 412.177342 -261.280617 
L 434.574305 -261.280617 
L 454.329827 -261.280617 
L 472.001743 -261.280617 
L 487.987936 -261.280617 
L 502.582187 -261.280617 
L 516.007596 -261.900218 
L 528.437583 -261.900218 
L 540.009625 -261.900218 
L 550.834547 -261.900218 
L 561.002998 -261.900218 
L 570.590069 -261.900218 
L 579.65866 -261.900218 
L 588.261985 -261.900218 
L 596.445465 -261.900218 
L 604.248178 -261.900218 
L 611.703986 -261.900218 
L 618.842429 -261.900218 
L 625.689423 -261.900218 
L 632.267838 -261.900218 
L 638.59795 -261.900218 
L 644.697825 -261.900218 
L 650.583625 -261.900218 
L 656.269867 -261.900218 
L 661.769641 -261.900218 
L 667.094789 -261.900218 
L 672.25606 -262.037907 
L 677.26324 -262.037907 
L 682.125263 -262.037907 
L 686.85031 -262.037907 
L 691.445888 -262.037907 
L 695.918901 -262.037907 
L 700.27572 -262.037907 
L 704.522227 -262.037907 
L 708.663871 -262.037907 
L 712.705707 -262.037907 
L 716.652432 -262.037907 
L 720.50842 -262.037907 
L 724.277749 -262.037907 
L 727.964228 -262.037907 
L 731.571423 -262.037907 
L 735.10267 -262.037907 
L 735.10267 -268.302768 
L 735.10267 -268.302768 
L 731.571423 -268.302768 
L 727.964228 -263.345955 
L 724.277749 -263.345955 
L 720.50842 -263.345955 
L 716.652432 -263.208266 
L 712.705707 -263.139421 
L 708.663871 -263.139421 
L 704.522227 -263.139421 
L 700.27572 -263.139421 
L 695.918901 -263.139421 
L 691.445888 -263.139421 
L 686.85031 -263.139421 
L 682.125263 -262.588664 
L 677.26324 -262.588664 
L 672.25606 -262.588664 
L 667.094789 -262.588664 
L 661.769641 -262.588664 
L 656.269867 -262.588664 
L 650.583625 -262.588664 
L 644.697825 -262.588664 
L 638.59795 -262.588664 
L 632.267838 -262.588664 
L 625.689423 -262.588664 
L 618.842429 -262.588664 
L 611.703986 -262.38213 
L 604.248178 -262.38213 
L 596.445465 -262.38213 
L 588.261985 -262.38213 
L 579.65866 -262.38213 
L 570.590069 -262.38213 
L 561.002998 -262.38213 
L 550.834547 -262.38213 
L 540.009625 -262.38213 
L 528.437583 -262.38213 
L 516.007596 -262.38213 
L 502.582187 -262.38213 
L 487.987936 -262.38213 
L 472.001743 -262.38213 
L 454.329827 -262.38213 
L 434.574305 -262.244441 
L 412.177342 -262.037907 
L 386.321945 -261.762529 
L 355.741501 -261.762529 
L 318.314063 -261.762529 
L 270.061703 -261.62484 
L 202.053821 -257.838385 
L 85.79358 -257.838385 
z
" id="m2a9eb826b2" style="stroke:#1f77b4;stroke-opacity:0.2;"/>
    </defs>
    <g clip-path="url(#pdd94758c3d)">
     <use style="fill:#1f77b4;fill-opacity:0.2;stroke:#1f77b4;stroke-opacity:0.2;" x="0" xlink:href="#m2a9eb826b2" y="325.986375"/>
    </g>
   </g>
   <g id="matplotlib.axis_1">
    <g id="xtick_1">
     <g id="line2d_1">
      <defs>
       <path d="M 0 0 
L 0 3.5 
" id="m569ecd6044" style="stroke:#000000;stroke-width:0.8;"/>
      </defs>
      <g>
       <use style="stroke:#000000;stroke-width:0.8;" x="85.79358" xlink:href="#m569ecd6044" y="288.430125"/>
      </g>
     </g>
     <g id="text_1">
      <!-- 14m -->
      <g transform="translate(74.560767 303.028562)scale(0.1 -0.1)">
       <defs>
        <path d="M 794 531 
L 1825 531 
L 1825 4091 
L 703 3866 
L 703 4441 
L 1819 4666 
L 2450 4666 
L 2450 531 
L 3481 531 
L 3481 0 
L 794 0 
L 794 531 
z
" id="DejaVuSans-31" transform="scale(0.015625)"/>
        <path d="M 2419 4116 
L 825 1625 
L 2419 1625 
L 2419 4116 
z
M 2253 4666 
L 3047 4666 
L 3047 1625 
L 3713 1625 
L 3713 1100 
L 3047 1100 
L 3047 0 
L 2419 0 
L 2419 1100 
L 313 1100 
L 313 1709 
L 2253 4666 
z
" id="DejaVuSans-34" transform="scale(0.015625)"/>
        <path d="M 3328 2828 
Q 3544 3216 3844 3400 
Q 4144 3584 4550 3584 
Q 5097 3584 5394 3201 
Q 5691 2819 5691 2113 
L 5691 0 
L 5113 0 
L 5113 2094 
Q 5113 2597 4934 2840 
Q 4756 3084 4391 3084 
Q 3944 3084 3684 2787 
Q 3425 2491 3425 1978 
L 3425 0 
L 2847 0 
L 2847 2094 
Q 2847 2600 2669 2842 
Q 2491 3084 2119 3084 
Q 1678 3084 1418 2786 
Q 1159 2488 1159 1978 
L 1159 0 
L 581 0 
L 581 3500 
L 1159 3500 
L 1159 2956 
Q 1356 3278 1631 3431 
Q 1906 3584 2284 3584 
Q 2666 3584 2933 3390 
Q 3200 3197 3328 2828 
z
" id="DejaVuSans-6d" transform="scale(0.015625)"/>
       </defs>
       <use xlink:href="#DejaVuSans-31"/>
       <use x="63.623047" xlink:href="#DejaVuSans-34"/>
       <use x="127.246094" xlink:href="#DejaVuSans-6d"/>
      </g>
     </g>
    </g>
    <g id="xtick_2">
     <g id="line2d_2">
      <g>
       <use style="stroke:#000000;stroke-width:0.8;" x="144.822032" xlink:href="#m569ecd6044" y="288.430125"/>
      </g>
     </g>
     <g id="text_2">
      <!-- 21m -->
      <g transform="translate(133.589219 303.028562)scale(0.1 -0.1)">
       <defs>
        <path d="M 1228 531 
L 3431 531 
L 3431 0 
L 469 0 
L 469 531 
Q 828 903 1448 1529 
Q 2069 2156 2228 2338 
Q 2531 2678 2651 2914 
Q 2772 3150 2772 3378 
Q 2772 3750 2511 3984 
Q 2250 4219 1831 4219 
Q 1534 4219 1204 4116 
Q 875 4013 500 3803 
L 500 4441 
Q 881 4594 1212 4672 
Q 1544 4750 1819 4750 
Q 2544 4750 2975 4387 
Q 3406 4025 3406 3419 
Q 3406 3131 3298 2873 
Q 3191 2616 2906 2266 
Q 2828 2175 2409 1742 
Q 1991 1309 1228 531 
z
" id="DejaVuSans-32" transform="scale(0.015625)"/>
       </defs>
       <use xlink:href="#DejaVuSans-32"/>
       <use x="63.623047" xlink:href="#DejaVuSans-31"/>
       <use x="127.246094" xlink:href="#DejaVuSans-6d"/>
      </g>
     </g>
    </g>
    <g id="xtick_3">
     <g id="line2d_3">
      <g>
       <use style="stroke:#000000;stroke-width:0.8;" x="203.850484" xlink:href="#m569ecd6044" y="288.430125"/>
      </g>
     </g>
     <g id="text_3">
      <!-- 30m -->
      <g transform="translate(192.617671 303.028562)scale(0.1 -0.1)">
       <defs>
        <path d="M 2597 2516 
Q 3050 2419 3304 2112 
Q 3559 1806 3559 1356 
Q 3559 666 3084 287 
Q 2609 -91 1734 -91 
Q 1441 -91 1130 -33 
Q 819 25 488 141 
L 488 750 
Q 750 597 1062 519 
Q 1375 441 1716 441 
Q 2309 441 2620 675 
Q 2931 909 2931 1356 
Q 2931 1769 2642 2001 
Q 2353 2234 1838 2234 
L 1294 2234 
L 1294 2753 
L 1863 2753 
Q 2328 2753 2575 2939 
Q 2822 3125 2822 3475 
Q 2822 3834 2567 4026 
Q 2313 4219 1838 4219 
Q 1578 4219 1281 4162 
Q 984 4106 628 3988 
L 628 4550 
Q 988 4650 1302 4700 
Q 1616 4750 1894 4750 
Q 2613 4750 3031 4423 
Q 3450 4097 3450 3541 
Q 3450 3153 3228 2886 
Q 3006 2619 2597 2516 
z
" id="DejaVuSans-33" transform="scale(0.015625)"/>
        <path d="M 2034 4250 
Q 1547 4250 1301 3770 
Q 1056 3291 1056 2328 
Q 1056 1369 1301 889 
Q 1547 409 2034 409 
Q 2525 409 2770 889 
Q 3016 1369 3016 2328 
Q 3016 3291 2770 3770 
Q 2525 4250 2034 4250 
z
M 2034 4750 
Q 2819 4750 3233 4129 
Q 3647 3509 3647 2328 
Q 3647 1150 3233 529 
Q 2819 -91 2034 -91 
Q 1250 -91 836 529 
Q 422 1150 422 2328 
Q 422 3509 836 4129 
Q 1250 4750 2034 4750 
z
" id="DejaVuSans-30" transform="scale(0.015625)"/>
       </defs>
       <use xlink:href="#DejaVuSans-33"/>
       <use x="63.623047" xlink:href="#DejaVuSans-30"/>
       <use x="127.246094" xlink:href="#DejaVuSans-6d"/>
      </g>
     </g>
    </g>
    <g id="xtick_4">
     <g id="line2d_4">
      <g>
       <use style="stroke:#000000;stroke-width:0.8;" x="262.878936" xlink:href="#m569ecd6044" y="288.430125"/>
      </g>
     </g>
     <g id="text_4">
      <!-- 43m -->
      <g transform="translate(251.646123 303.028562)scale(0.1 -0.1)">
       <use xlink:href="#DejaVuSans-34"/>
       <use x="63.623047" xlink:href="#DejaVuSans-33"/>
       <use x="127.246094" xlink:href="#DejaVuSans-6d"/>
      </g>
     </g>
    </g>
    <g id="xtick_5">
     <g id="line2d_5">
      <g>
       <use style="stroke:#000000;stroke-width:0.8;" x="321.907388" xlink:href="#m569ecd6044" y="288.430125"/>
      </g>
     </g>
     <g id="text_5">
      <!-- 1h:1m -->
      <g transform="translate(305.821451 303.028562)scale(0.1 -0.1)">
       <defs>
        <path d="M 3513 2113 
L 3513 0 
L 2938 0 
L 2938 2094 
Q 2938 2591 2744 2837 
Q 2550 3084 2163 3084 
Q 1697 3084 1428 2787 
Q 1159 2491 1159 1978 
L 1159 0 
L 581 0 
L 581 4863 
L 1159 4863 
L 1159 2956 
Q 1366 3272 1645 3428 
Q 1925 3584 2291 3584 
Q 2894 3584 3203 3211 
Q 3513 2838 3513 2113 
z
" id="DejaVuSans-68" transform="scale(0.015625)"/>
        <path d="M 750 794 
L 1409 794 
L 1409 0 
L 750 0 
L 750 794 
z
M 750 3309 
L 1409 3309 
L 1409 2516 
L 750 2516 
L 750 3309 
z
" id="DejaVuSans-3a" transform="scale(0.015625)"/>
       </defs>
       <use xlink:href="#DejaVuSans-31"/>
       <use x="63.623047" xlink:href="#DejaVuSans-68"/>
       <use x="127.001953" xlink:href="#DejaVuSans-3a"/>
       <use x="160.693359" xlink:href="#DejaVuSans-31"/>
       <use x="224.316406" xlink:href="#DejaVuSans-6d"/>
      </g>
     </g>
    </g>
    <g id="xtick_6">
     <g id="line2d_6">
      <g>
       <use style="stroke:#000000;stroke-width:0.8;" x="380.93584" xlink:href="#m569ecd6044" y="288.430125"/>
      </g>
     </g>
     <g id="text_6">
      <!-- 1h:27m -->
      <g transform="translate(361.668653 303.028562)scale(0.1 -0.1)">
       <defs>
        <path d="M 525 4666 
L 3525 4666 
L 3525 4397 
L 1831 0 
L 1172 0 
L 2766 4134 
L 525 4134 
L 525 4666 
z
" id="DejaVuSans-37" transform="scale(0.015625)"/>
       </defs>
       <use xlink:href="#DejaVuSans-31"/>
       <use x="63.623047" xlink:href="#DejaVuSans-68"/>
       <use x="127.001953" xlink:href="#DejaVuSans-3a"/>
       <use x="160.693359" xlink:href="#DejaVuSans-32"/>
       <use x="224.316406" xlink:href="#DejaVuSans-37"/>
       <use x="287.939453" xlink:href="#DejaVuSans-6d"/>
      </g>
     </g>
    </g>
    <g id="xtick_7">
     <g id="line2d_7">
      <g>
       <use style="stroke:#000000;stroke-width:0.8;" x="439.964292" xlink:href="#m569ecd6044" y="288.430125"/>
      </g>
     </g>
     <g id="text_7">
      <!-- 2h:3m -->
      <g transform="translate(423.878355 303.028562)scale(0.1 -0.1)">
       <use xlink:href="#DejaVuSans-32"/>
       <use x="63.623047" xlink:href="#DejaVuSans-68"/>
       <use x="127.001953" xlink:href="#DejaVuSans-3a"/>
       <use x="160.693359" xlink:href="#DejaVuSans-33"/>
       <use x="224.316406" xlink:href="#DejaVuSans-6d"/>
      </g>
     </g>
    </g>
    <g id="xtick_8">
     <g id="line2d_8">
      <g>
       <use style="stroke:#000000;stroke-width:0.8;" x="498.992744" xlink:href="#m569ecd6044" y="288.430125"/>
      </g>
     </g>
     <g id="text_8">
      <!-- 2h:56m -->
      <g transform="translate(479.725557 303.028562)scale(0.1 -0.1)">
       <defs>
        <path d="M 691 4666 
L 3169 4666 
L 3169 4134 
L 1269 4134 
L 1269 2991 
Q 1406 3038 1543 3061 
Q 1681 3084 1819 3084 
Q 2600 3084 3056 2656 
Q 3513 2228 3513 1497 
Q 3513 744 3044 326 
Q 2575 -91 1722 -91 
Q 1428 -91 1123 -41 
Q 819 9 494 109 
L 494 744 
Q 775 591 1075 516 
Q 1375 441 1709 441 
Q 2250 441 2565 725 
Q 2881 1009 2881 1497 
Q 2881 1984 2565 2268 
Q 2250 2553 1709 2553 
Q 1456 2553 1204 2497 
Q 953 2441 691 2322 
L 691 4666 
z
" id="DejaVuSans-35" transform="scale(0.015625)"/>
        <path d="M 2113 2584 
Q 1688 2584 1439 2293 
Q 1191 2003 1191 1497 
Q 1191 994 1439 701 
Q 1688 409 2113 409 
Q 2538 409 2786 701 
Q 3034 994 3034 1497 
Q 3034 2003 2786 2293 
Q 2538 2584 2113 2584 
z
M 3366 4563 
L 3366 3988 
Q 3128 4100 2886 4159 
Q 2644 4219 2406 4219 
Q 1781 4219 1451 3797 
Q 1122 3375 1075 2522 
Q 1259 2794 1537 2939 
Q 1816 3084 2150 3084 
Q 2853 3084 3261 2657 
Q 3669 2231 3669 1497 
Q 3669 778 3244 343 
Q 2819 -91 2113 -91 
Q 1303 -91 875 529 
Q 447 1150 447 2328 
Q 447 3434 972 4092 
Q 1497 4750 2381 4750 
Q 2619 4750 2861 4703 
Q 3103 4656 3366 4563 
z
" id="DejaVuSans-36" transform="scale(0.015625)"/>
       </defs>
       <use xlink:href="#DejaVuSans-32"/>
       <use x="63.623047" xlink:href="#DejaVuSans-68"/>
       <use x="127.001953" xlink:href="#DejaVuSans-3a"/>
       <use x="160.693359" xlink:href="#DejaVuSans-35"/>
       <use x="224.316406" xlink:href="#DejaVuSans-36"/>
       <use x="287.939453" xlink:href="#DejaVuSans-6d"/>
      </g>
     </g>
    </g>
    <g id="xtick_9">
     <g id="line2d_9">
      <g>
       <use style="stroke:#000000;stroke-width:0.8;" x="558.021197" xlink:href="#m569ecd6044" y="288.430125"/>
      </g>
     </g>
     <g id="text_9">
      <!-- 4h:10m -->
      <g transform="translate(538.754009 303.028562)scale(0.1 -0.1)">
       <use xlink:href="#DejaVuSans-34"/>
       <use x="63.623047" xlink:href="#DejaVuSans-68"/>
       <use x="127.001953" xlink:href="#DejaVuSans-3a"/>
       <use x="160.693359" xlink:href="#DejaVuSans-31"/>
       <use x="224.316406" xlink:href="#DejaVuSans-30"/>
       <use x="287.939453" xlink:href="#DejaVuSans-6d"/>
      </g>
     </g>
    </g>
    <g id="xtick_10">
     <g id="line2d_10">
      <g>
       <use style="stroke:#000000;stroke-width:0.8;" x="617.049649" xlink:href="#m569ecd6044" y="288.430125"/>
      </g>
     </g>
     <g id="text_10">
      <!-- 5h:56m -->
      <g transform="translate(597.782461 303.028562)scale(0.1 -0.1)">
       <use xlink:href="#DejaVuSans-35"/>
       <use x="63.623047" xlink:href="#DejaVuSans-68"/>
       <use x="127.001953" xlink:href="#DejaVuSans-3a"/>
       <use x="160.693359" xlink:href="#DejaVuSans-35"/>
       <use x="224.316406" xlink:href="#DejaVuSans-36"/>
       <use x="287.939453" xlink:href="#DejaVuSans-6d"/>
      </g>
     </g>
    </g>
    <g id="xtick_11">
     <g id="line2d_11">
      <g>
       <use style="stroke:#000000;stroke-width:0.8;" x="676.078101" xlink:href="#m569ecd6044" y="288.430125"/>
      </g>
     </g>
     <g id="text_11">
      <!-- 8h:26m -->
      <g transform="translate(656.810913 303.028562)scale(0.1 -0.1)">
       <defs>
        <path d="M 2034 2216 
Q 1584 2216 1326 1975 
Q 1069 1734 1069 1313 
Q 1069 891 1326 650 
Q 1584 409 2034 409 
Q 2484 409 2743 651 
Q 3003 894 3003 1313 
Q 3003 1734 2745 1975 
Q 2488 2216 2034 2216 
z
M 1403 2484 
Q 997 2584 770 2862 
Q 544 3141 544 3541 
Q 544 4100 942 4425 
Q 1341 4750 2034 4750 
Q 2731 4750 3128 4425 
Q 3525 4100 3525 3541 
Q 3525 3141 3298 2862 
Q 3072 2584 2669 2484 
Q 3125 2378 3379 2068 
Q 3634 1759 3634 1313 
Q 3634 634 3220 271 
Q 2806 -91 2034 -91 
Q 1263 -91 848 271 
Q 434 634 434 1313 
Q 434 1759 690 2068 
Q 947 2378 1403 2484 
z
M 1172 3481 
Q 1172 3119 1398 2916 
Q 1625 2713 2034 2713 
Q 2441 2713 2670 2916 
Q 2900 3119 2900 3481 
Q 2900 3844 2670 4047 
Q 2441 4250 2034 4250 
Q 1625 4250 1398 4047 
Q 1172 3844 1172 3481 
z
" id="DejaVuSans-38" transform="scale(0.015625)"/>
       </defs>
       <use xlink:href="#DejaVuSans-38"/>
       <use x="63.623047" xlink:href="#DejaVuSans-68"/>
       <use x="127.001953" xlink:href="#DejaVuSans-3a"/>
       <use x="160.693359" xlink:href="#DejaVuSans-32"/>
       <use x="224.316406" xlink:href="#DejaVuSans-36"/>
       <use x="287.939453" xlink:href="#DejaVuSans-6d"/>
      </g>
     </g>
    </g>
    <g id="xtick_12">
     <g id="line2d_12">
      <g>
       <use style="stroke:#000000;stroke-width:0.8;" x="735.106553" xlink:href="#m569ecd6044" y="288.430125"/>
      </g>
     </g>
     <g id="text_12">
      <!-- 12h -->
      <g transform="translate(725.575303 303.028562)scale(0.1 -0.1)">
       <use xlink:href="#DejaVuSans-31"/>
       <use x="63.623047" xlink:href="#DejaVuSans-32"/>
       <use x="127.246094" xlink:href="#DejaVuSans-68"/>
      </g>
     </g>
    </g>
    <g id="xtick_13">
     <g id="line2d_13">
      <defs>
       <path d="M 0 0 
L 0 2 
" id="m347be88843" style="stroke:#000000;stroke-width:0.6;"/>
      </defs>
      <g>
       <use style="stroke:#000000;stroke-width:0.6;" x="66.038058" xlink:href="#m347be88843" y="288.430125"/>
      </g>
     </g>
    </g>
    <g id="xtick_14">
     <g id="line2d_14">
      <g>
       <use style="stroke:#000000;stroke-width:0.6;" x="219.725738" xlink:href="#m347be88843" y="288.430125"/>
      </g>
     </g>
    </g>
    <g id="xtick_15">
     <g id="line2d_15">
      <g>
       <use style="stroke:#000000;stroke-width:0.6;" x="287.73362" xlink:href="#m347be88843" y="288.430125"/>
      </g>
     </g>
    </g>
    <g id="xtick_16">
     <g id="line2d_16">
      <g>
       <use style="stroke:#000000;stroke-width:0.6;" x="335.98598" xlink:href="#m347be88843" y="288.430125"/>
      </g>
     </g>
    </g>
    <g id="xtick_17">
     <g id="line2d_17">
      <g>
       <use style="stroke:#000000;stroke-width:0.6;" x="373.413418" xlink:href="#m347be88843" y="288.430125"/>
      </g>
     </g>
    </g>
    <g id="xtick_18">
     <g id="line2d_18">
      <g>
       <use style="stroke:#000000;stroke-width:0.6;" x="403.993861" xlink:href="#m347be88843" y="288.430125"/>
      </g>
     </g>
    </g>
    <g id="xtick_19">
     <g id="line2d_19">
      <g>
       <use style="stroke:#000000;stroke-width:0.6;" x="429.849258" xlink:href="#m347be88843" y="288.430125"/>
      </g>
     </g>
    </g>
    <g id="xtick_20">
     <g id="line2d_20">
      <g>
       <use style="stroke:#000000;stroke-width:0.6;" x="452.246221" xlink:href="#m347be88843" y="288.430125"/>
      </g>
     </g>
    </g>
    <g id="xtick_21">
     <g id="line2d_21">
      <g>
       <use style="stroke:#000000;stroke-width:0.6;" x="472.001743" xlink:href="#m347be88843" y="288.430125"/>
      </g>
     </g>
    </g>
    <g id="xtick_22">
     <g id="line2d_22">
      <g>
       <use style="stroke:#000000;stroke-width:0.6;" x="605.933901" xlink:href="#m347be88843" y="288.430125"/>
      </g>
     </g>
    </g>
    <g id="xtick_23">
     <g id="line2d_23">
      <g>
       <use style="stroke:#000000;stroke-width:0.6;" x="673.941783" xlink:href="#m347be88843" y="288.430125"/>
      </g>
     </g>
    </g>
    <g id="xtick_24">
     <g id="line2d_24">
      <g>
       <use style="stroke:#000000;stroke-width:0.6;" x="722.194143" xlink:href="#m347be88843" y="288.430125"/>
      </g>
     </g>
    </g>
    <g id="xtick_25">
     <g id="line2d_25">
      <g>
       <use style="stroke:#000000;stroke-width:0.6;" x="759.621581" xlink:href="#m347be88843" y="288.430125"/>
      </g>
     </g>
    </g>
    <g id="text_13">
     <!-- Time (hour:minute) -->
     <g transform="translate(362.041094 316.706687)scale(0.1 -0.1)">
      <defs>
       <path d="M -19 4666 
L 3928 4666 
L 3928 4134 
L 2272 4134 
L 2272 0 
L 1638 0 
L 1638 4134 
L -19 4134 
L -19 4666 
z
" id="DejaVuSans-54" transform="scale(0.015625)"/>
       <path d="M 603 3500 
L 1178 3500 
L 1178 0 
L 603 0 
L 603 3500 
z
M 603 4863 
L 1178 4863 
L 1178 4134 
L 603 4134 
L 603 4863 
z
" id="DejaVuSans-69" transform="scale(0.015625)"/>
       <path d="M 3597 1894 
L 3597 1613 
L 953 1613 
Q 991 1019 1311 708 
Q 1631 397 2203 397 
Q 2534 397 2845 478 
Q 3156 559 3463 722 
L 3463 178 
Q 3153 47 2828 -22 
Q 2503 -91 2169 -91 
Q 1331 -91 842 396 
Q 353 884 353 1716 
Q 353 2575 817 3079 
Q 1281 3584 2069 3584 
Q 2775 3584 3186 3129 
Q 3597 2675 3597 1894 
z
M 3022 2063 
Q 3016 2534 2758 2815 
Q 2500 3097 2075 3097 
Q 1594 3097 1305 2825 
Q 1016 2553 972 2059 
L 3022 2063 
z
" id="DejaVuSans-65" transform="scale(0.015625)"/>
       <path id="DejaVuSans-20" transform="scale(0.015625)"/>
       <path d="M 1984 4856 
Q 1566 4138 1362 3434 
Q 1159 2731 1159 2009 
Q 1159 1288 1364 580 
Q 1569 -128 1984 -844 
L 1484 -844 
Q 1016 -109 783 600 
Q 550 1309 550 2009 
Q 550 2706 781 3412 
Q 1013 4119 1484 4856 
L 1984 4856 
z
" id="DejaVuSans-28" transform="scale(0.015625)"/>
       <path d="M 1959 3097 
Q 1497 3097 1228 2736 
Q 959 2375 959 1747 
Q 959 1119 1226 758 
Q 1494 397 1959 397 
Q 2419 397 2687 759 
Q 2956 1122 2956 1747 
Q 2956 2369 2687 2733 
Q 2419 3097 1959 3097 
z
M 1959 3584 
Q 2709 3584 3137 3096 
Q 3566 2609 3566 1747 
Q 3566 888 3137 398 
Q 2709 -91 1959 -91 
Q 1206 -91 779 398 
Q 353 888 353 1747 
Q 353 2609 779 3096 
Q 1206 3584 1959 3584 
z
" id="DejaVuSans-6f" transform="scale(0.015625)"/>
       <path d="M 544 1381 
L 544 3500 
L 1119 3500 
L 1119 1403 
Q 1119 906 1312 657 
Q 1506 409 1894 409 
Q 2359 409 2629 706 
Q 2900 1003 2900 1516 
L 2900 3500 
L 3475 3500 
L 3475 0 
L 2900 0 
L 2900 538 
Q 2691 219 2414 64 
Q 2138 -91 1772 -91 
Q 1169 -91 856 284 
Q 544 659 544 1381 
z
M 1991 3584 
L 1991 3584 
z
" id="DejaVuSans-75" transform="scale(0.015625)"/>
       <path d="M 2631 2963 
Q 2534 3019 2420 3045 
Q 2306 3072 2169 3072 
Q 1681 3072 1420 2755 
Q 1159 2438 1159 1844 
L 1159 0 
L 581 0 
L 581 3500 
L 1159 3500 
L 1159 2956 
Q 1341 3275 1631 3429 
Q 1922 3584 2338 3584 
Q 2397 3584 2469 3576 
Q 2541 3569 2628 3553 
L 2631 2963 
z
" id="DejaVuSans-72" transform="scale(0.015625)"/>
       <path d="M 3513 2113 
L 3513 0 
L 2938 0 
L 2938 2094 
Q 2938 2591 2744 2837 
Q 2550 3084 2163 3084 
Q 1697 3084 1428 2787 
Q 1159 2491 1159 1978 
L 1159 0 
L 581 0 
L 581 3500 
L 1159 3500 
L 1159 2956 
Q 1366 3272 1645 3428 
Q 1925 3584 2291 3584 
Q 2894 3584 3203 3211 
Q 3513 2838 3513 2113 
z
" id="DejaVuSans-6e" transform="scale(0.015625)"/>
       <path d="M 1172 4494 
L 1172 3500 
L 2356 3500 
L 2356 3053 
L 1172 3053 
L 1172 1153 
Q 1172 725 1289 603 
Q 1406 481 1766 481 
L 2356 481 
L 2356 0 
L 1766 0 
Q 1100 0 847 248 
Q 594 497 594 1153 
L 594 3053 
L 172 3053 
L 172 3500 
L 594 3500 
L 594 4494 
L 1172 4494 
z
" id="DejaVuSans-74" transform="scale(0.015625)"/>
       <path d="M 513 4856 
L 1013 4856 
Q 1481 4119 1714 3412 
Q 1947 2706 1947 2009 
Q 1947 1309 1714 600 
Q 1481 -109 1013 -844 
L 513 -844 
Q 928 -128 1133 580 
Q 1338 1288 1338 2009 
Q 1338 2731 1133 3434 
Q 928 4138 513 4856 
z
" id="DejaVuSans-29" transform="scale(0.015625)"/>
      </defs>
      <use xlink:href="#DejaVuSans-54"/>
      <use x="57.958984" xlink:href="#DejaVuSans-69"/>
      <use x="85.742188" xlink:href="#DejaVuSans-6d"/>
      <use x="183.154297" xlink:href="#DejaVuSans-65"/>
      <use x="244.677734" xlink:href="#DejaVuSans-20"/>
      <use x="276.464844" xlink:href="#DejaVuSans-28"/>
      <use x="315.478516" xlink:href="#DejaVuSans-68"/>
      <use x="378.857422" xlink:href="#DejaVuSans-6f"/>
      <use x="440.039062" xlink:href="#DejaVuSans-75"/>
      <use x="503.417969" xlink:href="#DejaVuSans-72"/>
      <use x="542.78125" xlink:href="#DejaVuSans-3a"/>
      <use x="576.472656" xlink:href="#DejaVuSans-6d"/>
      <use x="673.884766" xlink:href="#DejaVuSans-69"/>
      <use x="701.667969" xlink:href="#DejaVuSans-6e"/>
      <use x="765.046875" xlink:href="#DejaVuSans-75"/>
      <use x="828.425781" xlink:href="#DejaVuSans-74"/>
      <use x="867.634766" xlink:href="#DejaVuSans-65"/>
      <use x="929.158203" xlink:href="#DejaVuSans-29"/>
     </g>
    </g>
   </g>
   <g id="matplotlib.axis_2">
    <g id="ytick_1">
     <g id="line2d_26">
      <defs>
       <path d="M 0 0 
L -3.5 0 
" id="m1a6c151b1a" style="stroke:#000000;stroke-width:0.8;"/>
      </defs>
      <g>
       <use style="stroke:#000000;stroke-width:0.8;" x="53.328125" xlink:href="#m1a6c151b1a" y="258.0903"/>
      </g>
     </g>
     <g id="text_14">
      <!-- 500 -->
      <g transform="translate(27.240625 261.889519)scale(0.1 -0.1)">
       <use xlink:href="#DejaVuSans-35"/>
       <use x="63.623047" xlink:href="#DejaVuSans-30"/>
       <use x="127.246094" xlink:href="#DejaVuSans-30"/>
      </g>
     </g>
    </g>
    <g id="ytick_2">
     <g id="line2d_27">
      <g>
       <use style="stroke:#000000;stroke-width:0.8;" x="53.328125" xlink:href="#m1a6c151b1a" y="223.66799"/>
      </g>
     </g>
     <g id="text_15">
      <!-- 1000 -->
      <g transform="translate(20.878125 227.467208)scale(0.1 -0.1)">
       <use xlink:href="#DejaVuSans-31"/>
       <use x="63.623047" xlink:href="#DejaVuSans-30"/>
       <use x="127.246094" xlink:href="#DejaVuSans-30"/>
       <use x="190.869141" xlink:href="#DejaVuSans-30"/>
      </g>
     </g>
    </g>
    <g id="ytick_3">
     <g id="line2d_28">
      <g>
       <use style="stroke:#000000;stroke-width:0.8;" x="53.328125" xlink:href="#m1a6c151b1a" y="189.245679"/>
      </g>
     </g>
     <g id="text_16">
      <!-- 1500 -->
      <g transform="translate(20.878125 193.044898)scale(0.1 -0.1)">
       <use xlink:href="#DejaVuSans-31"/>
       <use x="63.623047" xlink:href="#DejaVuSans-35"/>
       <use x="127.246094" xlink:href="#DejaVuSans-30"/>
       <use x="190.869141" xlink:href="#DejaVuSans-30"/>
      </g>
     </g>
    </g>
    <g id="ytick_4">
     <g id="line2d_29">
      <g>
       <use style="stroke:#000000;stroke-width:0.8;" x="53.328125" xlink:href="#m1a6c151b1a" y="154.823368"/>
      </g>
     </g>
     <g id="text_17">
      <!-- 2000 -->
      <g transform="translate(20.878125 158.622587)scale(0.1 -0.1)">
       <use xlink:href="#DejaVuSans-32"/>
       <use x="63.623047" xlink:href="#DejaVuSans-30"/>
       <use x="127.246094" xlink:href="#DejaVuSans-30"/>
       <use x="190.869141" xlink:href="#DejaVuSans-30"/>
      </g>
     </g>
    </g>
    <g id="ytick_5">
     <g id="line2d_30">
      <g>
       <use style="stroke:#000000;stroke-width:0.8;" x="53.328125" xlink:href="#m1a6c151b1a" y="120.401057"/>
      </g>
     </g>
     <g id="text_18">
      <!-- 2500 -->
      <g transform="translate(20.878125 124.200276)scale(0.1 -0.1)">
       <use xlink:href="#DejaVuSans-32"/>
       <use x="63.623047" xlink:href="#DejaVuSans-35"/>
       <use x="127.246094" xlink:href="#DejaVuSans-30"/>
       <use x="190.869141" xlink:href="#DejaVuSans-30"/>
      </g>
     </g>
    </g>
    <g id="ytick_6">
     <g id="line2d_31">
      <g>
       <use style="stroke:#000000;stroke-width:0.8;" x="53.328125" xlink:href="#m1a6c151b1a" y="85.978747"/>
      </g>
     </g>
     <g id="text_19">
      <!-- 3000 -->
      <g transform="translate(20.878125 89.777965)scale(0.1 -0.1)">
       <use xlink:href="#DejaVuSans-33"/>
       <use x="63.623047" xlink:href="#DejaVuSans-30"/>
       <use x="127.246094" xlink:href="#DejaVuSans-30"/>
       <use x="190.869141" xlink:href="#DejaVuSans-30"/>
      </g>
     </g>
    </g>
    <g id="ytick_7">
     <g id="line2d_32">
      <g>
       <use style="stroke:#000000;stroke-width:0.8;" x="53.328125" xlink:href="#m1a6c151b1a" y="51.556436"/>
      </g>
     </g>
     <g id="text_20">
      <!-- 3500 -->
      <g transform="translate(20.878125 55.355655)scale(0.1 -0.1)">
       <use xlink:href="#DejaVuSans-33"/>
       <use x="63.623047" xlink:href="#DejaVuSans-35"/>
       <use x="127.246094" xlink:href="#DejaVuSans-30"/>
       <use x="190.869141" xlink:href="#DejaVuSans-30"/>
      </g>
     </g>
    </g>
    <g id="text_21">
     <!-- Code region coverage -->
     <g transform="translate(14.798438 210.379594)rotate(-90)scale(0.1 -0.1)">
      <defs>
       <path d="M 4122 4306 
L 4122 3641 
Q 3803 3938 3442 4084 
Q 3081 4231 2675 4231 
Q 1875 4231 1450 3742 
Q 1025 3253 1025 2328 
Q 1025 1406 1450 917 
Q 1875 428 2675 428 
Q 3081 428 3442 575 
Q 3803 722 4122 1019 
L 4122 359 
Q 3791 134 3420 21 
Q 3050 -91 2638 -91 
Q 1578 -91 968 557 
Q 359 1206 359 2328 
Q 359 3453 968 4101 
Q 1578 4750 2638 4750 
Q 3056 4750 3426 4639 
Q 3797 4528 4122 4306 
z
" id="DejaVuSans-43" transform="scale(0.015625)"/>
       <path d="M 2906 2969 
L 2906 4863 
L 3481 4863 
L 3481 0 
L 2906 0 
L 2906 525 
Q 2725 213 2448 61 
Q 2172 -91 1784 -91 
Q 1150 -91 751 415 
Q 353 922 353 1747 
Q 353 2572 751 3078 
Q 1150 3584 1784 3584 
Q 2172 3584 2448 3432 
Q 2725 3281 2906 2969 
z
M 947 1747 
Q 947 1113 1208 752 
Q 1469 391 1925 391 
Q 2381 391 2643 752 
Q 2906 1113 2906 1747 
Q 2906 2381 2643 2742 
Q 2381 3103 1925 3103 
Q 1469 3103 1208 2742 
Q 947 2381 947 1747 
z
" id="DejaVuSans-64" transform="scale(0.015625)"/>
       <path d="M 2906 1791 
Q 2906 2416 2648 2759 
Q 2391 3103 1925 3103 
Q 1463 3103 1205 2759 
Q 947 2416 947 1791 
Q 947 1169 1205 825 
Q 1463 481 1925 481 
Q 2391 481 2648 825 
Q 2906 1169 2906 1791 
z
M 3481 434 
Q 3481 -459 3084 -895 
Q 2688 -1331 1869 -1331 
Q 1566 -1331 1297 -1286 
Q 1028 -1241 775 -1147 
L 775 -588 
Q 1028 -725 1275 -790 
Q 1522 -856 1778 -856 
Q 2344 -856 2625 -561 
Q 2906 -266 2906 331 
L 2906 616 
Q 2728 306 2450 153 
Q 2172 0 1784 0 
Q 1141 0 747 490 
Q 353 981 353 1791 
Q 353 2603 747 3093 
Q 1141 3584 1784 3584 
Q 2172 3584 2450 3431 
Q 2728 3278 2906 2969 
L 2906 3500 
L 3481 3500 
L 3481 434 
z
" id="DejaVuSans-67" transform="scale(0.015625)"/>
       <path d="M 3122 3366 
L 3122 2828 
Q 2878 2963 2633 3030 
Q 2388 3097 2138 3097 
Q 1578 3097 1268 2742 
Q 959 2388 959 1747 
Q 959 1106 1268 751 
Q 1578 397 2138 397 
Q 2388 397 2633 464 
Q 2878 531 3122 666 
L 3122 134 
Q 2881 22 2623 -34 
Q 2366 -91 2075 -91 
Q 1284 -91 818 406 
Q 353 903 353 1747 
Q 353 2603 823 3093 
Q 1294 3584 2113 3584 
Q 2378 3584 2631 3529 
Q 2884 3475 3122 3366 
z
" id="DejaVuSans-63" transform="scale(0.015625)"/>
       <path d="M 191 3500 
L 800 3500 
L 1894 563 
L 2988 3500 
L 3597 3500 
L 2284 0 
L 1503 0 
L 191 3500 
z
" id="DejaVuSans-76" transform="scale(0.015625)"/>
       <path d="M 2194 1759 
Q 1497 1759 1228 1600 
Q 959 1441 959 1056 
Q 959 750 1161 570 
Q 1363 391 1709 391 
Q 2188 391 2477 730 
Q 2766 1069 2766 1631 
L 2766 1759 
L 2194 1759 
z
M 3341 1997 
L 3341 0 
L 2766 0 
L 2766 531 
Q 2569 213 2275 61 
Q 1981 -91 1556 -91 
Q 1019 -91 701 211 
Q 384 513 384 1019 
Q 384 1609 779 1909 
Q 1175 2209 1959 2209 
L 2766 2209 
L 2766 2266 
Q 2766 2663 2505 2880 
Q 2244 3097 1772 3097 
Q 1472 3097 1187 3025 
Q 903 2953 641 2809 
L 641 3341 
Q 956 3463 1253 3523 
Q 1550 3584 1831 3584 
Q 2591 3584 2966 3190 
Q 3341 2797 3341 1997 
z
" id="DejaVuSans-61" transform="scale(0.015625)"/>
      </defs>
      <use xlink:href="#DejaVuSans-43"/>
      <use x="69.824219" xlink:href="#DejaVuSans-6f"/>
      <use x="131.005859" xlink:href="#DejaVuSans-64"/>
      <use x="194.482422" xlink:href="#DejaVuSans-65"/>
      <use x="256.005859" xlink:href="#DejaVuSans-20"/>
      <use x="287.792969" xlink:href="#DejaVuSans-72"/>
      <use x="326.65625" xlink:href="#DejaVuSans-65"/>
      <use x="388.179688" xlink:href="#DejaVuSans-67"/>
      <use x="451.65625" xlink:href="#DejaVuSans-69"/>
      <use x="479.439453" xlink:href="#DejaVuSans-6f"/>
      <use x="540.621094" xlink:href="#DejaVuSans-6e"/>
      <use x="604" xlink:href="#DejaVuSans-20"/>
      <use x="635.787109" xlink:href="#DejaVuSans-63"/>
      <use x="690.767578" xlink:href="#DejaVuSans-6f"/>
      <use x="751.949219" xlink:href="#DejaVuSans-76"/>
      <use x="811.128906" xlink:href="#DejaVuSans-65"/>
      <use x="872.652344" xlink:href="#DejaVuSans-72"/>
      <use x="913.765625" xlink:href="#DejaVuSans-61"/>
      <use x="975.044922" xlink:href="#DejaVuSans-67"/>
      <use x="1038.521484" xlink:href="#DejaVuSans-65"/>
     </g>
    </g>
   </g>
   <g id="line2d_33">
    <path clip-path="url(#pdd94758c3d)" d="M 85.79358 83.913408 
L 202.053821 82.467671 
L 270.061703 82.054603 
L 318.314063 81.71038 
L 355.741501 65.118826 
L 386.321945 64.568069 
L 412.177342 64.155001 
L 434.574305 64.155001 
L 454.329827 64.155001 
L 472.001743 64.155001 
L 487.987936 60.024324 
L 502.582187 58.372053 
L 516.007596 58.165519 
L 528.437583 58.165519 
L 540.009625 40.541296 
L 550.834547 36.892531 
L 561.002998 35.722173 
L 570.590069 35.446794 
L 579.65866 35.033727 
L 588.261985 35.033727 
L 596.445465 34.827193 
L 604.248178 34.620659 
L 611.703986 34.620659 
L 618.842429 34.620659 
L 625.689423 34.620659 
L 632.267838 34.620659 
L 638.59795 34.620659 
L 644.697825 34.620659 
L 650.583625 34.620659 
L 656.269867 34.620659 
L 661.769641 34.620659 
L 667.094789 34.620659 
L 672.25606 34.620659 
L 677.26324 34.620659 
L 682.125263 34.620659 
L 686.85031 34.620659 
L 691.445888 34.620659 
L 695.918901 34.620659 
L 700.27572 34.620659 
L 704.522227 34.620659 
L 708.663871 34.620659 
L 712.705707 34.620659 
L 716.652432 34.620659 
L 720.50842 34.620659 
L 724.277749 34.620659 
L 727.964228 34.620659 
L 731.571423 34.620659 
L 735.10267 34.620659 
" style="fill:none;stroke:#d62728;stroke-linecap:square;stroke-width:1.5;"/>
    <defs>
     <path d="M 0 -3 
L -3 3 
L 3 3 
z
" id="mb405227e7e" style="stroke:#ffffff;stroke-linejoin:miter;stroke-width:0.75;"/>
    </defs>
    <g clip-path="url(#pdd94758c3d)">
     <use style="fill:#d62728;stroke:#ffffff;stroke-linejoin:miter;stroke-width:0.75;" x="85.79358" xlink:href="#mb405227e7e" y="83.913408"/>
     <use style="fill:#d62728;stroke:#ffffff;stroke-linejoin:miter;stroke-width:0.75;" x="202.053821" xlink:href="#mb405227e7e" y="82.467671"/>
     <use style="fill:#d62728;stroke:#ffffff;stroke-linejoin:miter;stroke-width:0.75;" x="270.061703" xlink:href="#mb405227e7e" y="82.054603"/>
     <use style="fill:#d62728;stroke:#ffffff;stroke-linejoin:miter;stroke-width:0.75;" x="318.314063" xlink:href="#mb405227e7e" y="81.71038"/>
     <use style="fill:#d62728;stroke:#ffffff;stroke-linejoin:miter;stroke-width:0.75;" x="355.741501" xlink:href="#mb405227e7e" y="65.118826"/>
     <use style="fill:#d62728;stroke:#ffffff;stroke-linejoin:miter;stroke-width:0.75;" x="386.321945" xlink:href="#mb405227e7e" y="64.568069"/>
     <use style="fill:#d62728;stroke:#ffffff;stroke-linejoin:miter;stroke-width:0.75;" x="412.177342" xlink:href="#mb405227e7e" y="64.155001"/>
     <use style="fill:#d62728;stroke:#ffffff;stroke-linejoin:miter;stroke-width:0.75;" x="434.574305" xlink:href="#mb405227e7e" y="64.155001"/>
     <use style="fill:#d62728;stroke:#ffffff;stroke-linejoin:miter;stroke-width:0.75;" x="454.329827" xlink:href="#mb405227e7e" y="64.155001"/>
     <use style="fill:#d62728;stroke:#ffffff;stroke-linejoin:miter;stroke-width:0.75;" x="472.001743" xlink:href="#mb405227e7e" y="64.155001"/>
     <use style="fill:#d62728;stroke:#ffffff;stroke-linejoin:miter;stroke-width:0.75;" x="487.987936" xlink:href="#mb405227e7e" y="60.024324"/>
     <use style="fill:#d62728;stroke:#ffffff;stroke-linejoin:miter;stroke-width:0.75;" x="502.582187" xlink:href="#mb405227e7e" y="58.372053"/>
     <use style="fill:#d62728;stroke:#ffffff;stroke-linejoin:miter;stroke-width:0.75;" x="516.007596" xlink:href="#mb405227e7e" y="58.165519"/>
     <use style="fill:#d62728;stroke:#ffffff;stroke-linejoin:miter;stroke-width:0.75;" x="528.437583" xlink:href="#mb405227e7e" y="58.165519"/>
     <use style="fill:#d62728;stroke:#ffffff;stroke-linejoin:miter;stroke-width:0.75;" x="540.009625" xlink:href="#mb405227e7e" y="40.541296"/>
     <use style="fill:#d62728;stroke:#ffffff;stroke-linejoin:miter;stroke-width:0.75;" x="550.834547" xlink:href="#mb405227e7e" y="36.892531"/>
     <use style="fill:#d62728;stroke:#ffffff;stroke-linejoin:miter;stroke-width:0.75;" x="561.002998" xlink:href="#mb405227e7e" y="35.722173"/>
     <use style="fill:#d62728;stroke:#ffffff;stroke-linejoin:miter;stroke-width:0.75;" x="570.590069" xlink:href="#mb405227e7e" y="35.446794"/>
     <use style="fill:#d62728;stroke:#ffffff;stroke-linejoin:miter;stroke-width:0.75;" x="579.65866" xlink:href="#mb405227e7e" y="35.033727"/>
     <use style="fill:#d62728;stroke:#ffffff;stroke-linejoin:miter;stroke-width:0.75;" x="588.261985" xlink:href="#mb405227e7e" y="35.033727"/>
     <use style="fill:#d62728;stroke:#ffffff;stroke-linejoin:miter;stroke-width:0.75;" x="596.445465" xlink:href="#mb405227e7e" y="34.827193"/>
     <use style="fill:#d62728;stroke:#ffffff;stroke-linejoin:miter;stroke-width:0.75;" x="604.248178" xlink:href="#mb405227e7e" y="34.620659"/>
     <use style="fill:#d62728;stroke:#ffffff;stroke-linejoin:miter;stroke-width:0.75;" x="611.703986" xlink:href="#mb405227e7e" y="34.620659"/>
     <use style="fill:#d62728;stroke:#ffffff;stroke-linejoin:miter;stroke-width:0.75;" x="618.842429" xlink:href="#mb405227e7e" y="34.620659"/>
     <use style="fill:#d62728;stroke:#ffffff;stroke-linejoin:miter;stroke-width:0.75;" x="625.689423" xlink:href="#mb405227e7e" y="34.620659"/>
     <use style="fill:#d62728;stroke:#ffffff;stroke-linejoin:miter;stroke-width:0.75;" x="632.267838" xlink:href="#mb405227e7e" y="34.620659"/>
     <use style="fill:#d62728;stroke:#ffffff;stroke-linejoin:miter;stroke-width:0.75;" x="638.59795" xlink:href="#mb405227e7e" y="34.620659"/>
     <use style="fill:#d62728;stroke:#ffffff;stroke-linejoin:miter;stroke-width:0.75;" x="644.697825" xlink:href="#mb405227e7e" y="34.620659"/>
     <use style="fill:#d62728;stroke:#ffffff;stroke-linejoin:miter;stroke-width:0.75;" x="650.583625" xlink:href="#mb405227e7e" y="34.620659"/>
     <use style="fill:#d62728;stroke:#ffffff;stroke-linejoin:miter;stroke-width:0.75;" x="656.269867" xlink:href="#mb405227e7e" y="34.620659"/>
     <use style="fill:#d62728;stroke:#ffffff;stroke-linejoin:miter;stroke-width:0.75;" x="661.769641" xlink:href="#mb405227e7e" y="34.620659"/>
     <use style="fill:#d62728;stroke:#ffffff;stroke-linejoin:miter;stroke-width:0.75;" x="667.094789" xlink:href="#mb405227e7e" y="34.620659"/>
     <use style="fill:#d62728;stroke:#ffffff;stroke-linejoin:miter;stroke-width:0.75;" x="672.25606" xlink:href="#mb405227e7e" y="34.620659"/>
     <use style="fill:#d62728;stroke:#ffffff;stroke-linejoin:miter;stroke-width:0.75;" x="677.26324" xlink:href="#mb405227e7e" y="34.620659"/>
     <use style="fill:#d62728;stroke:#ffffff;stroke-linejoin:miter;stroke-width:0.75;" x="682.125263" xlink:href="#mb405227e7e" y="34.620659"/>
     <use style="fill:#d62728;stroke:#ffffff;stroke-linejoin:miter;stroke-width:0.75;" x="686.85031" xlink:href="#mb405227e7e" y="34.620659"/>
     <use style="fill:#d62728;stroke:#ffffff;stroke-linejoin:miter;stroke-width:0.75;" x="691.445888" xlink:href="#mb405227e7e" y="34.620659"/>
     <use style="fill:#d62728;stroke:#ffffff;stroke-linejoin:miter;stroke-width:0.75;" x="695.918901" xlink:href="#mb405227e7e" y="34.620659"/>
     <use style="fill:#d62728;stroke:#ffffff;stroke-linejoin:miter;stroke-width:0.75;" x="700.27572" xlink:href="#mb405227e7e" y="34.620659"/>
     <use style="fill:#d62728;stroke:#ffffff;stroke-linejoin:miter;stroke-width:0.75;" x="704.522227" xlink:href="#mb405227e7e" y="34.620659"/>
     <use style="fill:#d62728;stroke:#ffffff;stroke-linejoin:miter;stroke-width:0.75;" x="708.663871" xlink:href="#mb405227e7e" y="34.620659"/>
     <use style="fill:#d62728;stroke:#ffffff;stroke-linejoin:miter;stroke-width:0.75;" x="712.705707" xlink:href="#mb405227e7e" y="34.620659"/>
     <use style="fill:#d62728;stroke:#ffffff;stroke-linejoin:miter;stroke-width:0.75;" x="716.652432" xlink:href="#mb405227e7e" y="34.620659"/>
     <use style="fill:#d62728;stroke:#ffffff;stroke-linejoin:miter;stroke-width:0.75;" x="720.50842" xlink:href="#mb405227e7e" y="34.620659"/>
     <use style="fill:#d62728;stroke:#ffffff;stroke-linejoin:miter;stroke-width:0.75;" x="724.277749" xlink:href="#mb405227e7e" y="34.620659"/>
     <use style="fill:#d62728;stroke:#ffffff;stroke-linejoin:miter;stroke-width:0.75;" x="727.964228" xlink:href="#mb405227e7e" y="34.620659"/>
     <use style="fill:#d62728;stroke:#ffffff;stroke-linejoin:miter;stroke-width:0.75;" x="731.571423" xlink:href="#mb405227e7e" y="34.620659"/>
     <use style="fill:#d62728;stroke:#ffffff;stroke-linejoin:miter;stroke-width:0.75;" x="735.10267" xlink:href="#mb405227e7e" y="34.620659"/>
    </g>
   </g>
   <g id="line2d_34">
    <path clip-path="url(#pdd94758c3d)" d="M 85.79358 74.481695 
L 202.053821 68.974125 
L 270.061703 65.669583 
L 318.314063 65.118826 
L 355.741501 64.361535 
L 386.321945 64.361535 
L 412.177342 64.361535 
L 434.574305 64.361535 
L 454.329827 64.361535 
L 472.001743 64.361535 
L 487.987936 64.361535 
L 502.582187 64.361535 
L 516.007596 64.361535 
L 528.437583 64.361535 
L 540.009625 64.361535 
L 550.834547 64.361535 
L 561.002998 59.404723 
L 570.590069 59.404723 
L 579.65866 59.404723 
L 588.261985 59.404723 
L 596.445465 59.404723 
L 604.248178 59.404723 
L 611.703986 58.853966 
L 618.842429 58.853966 
L 625.689423 58.234364 
L 632.267838 58.234364 
L 638.59795 58.234364 
L 644.697825 58.234364 
L 650.583625 57.958986 
L 656.269867 57.958986 
L 661.769641 57.958986 
L 667.094789 57.958986 
L 672.25606 57.958986 
L 677.26324 57.958986 
L 682.125263 57.958986 
L 686.85031 57.958986 
L 691.445888 57.958986 
L 695.918901 57.958986 
L 700.27572 57.958986 
L 704.522227 57.958986 
L 708.663871 57.958986 
L 712.705707 57.958986 
L 716.652432 57.958986 
L 720.50842 57.958986 
L 724.277749 57.958986 
L 727.964228 57.958986 
L 731.571423 57.958986 
L 735.10267 57.958986 
" style="fill:none;stroke:#c7c7c7;stroke-linecap:square;stroke-width:1.5;"/>
    <defs>
     <path d="M -3 -0 
L 3 3 
L 3 -3 
z
" id="m7775005c37" style="stroke:#ffffff;stroke-linejoin:miter;stroke-width:0.75;"/>
    </defs>
    <g clip-path="url(#pdd94758c3d)">
     <use style="fill:#c7c7c7;stroke:#ffffff;stroke-linejoin:miter;stroke-width:0.75;" x="85.79358" xlink:href="#m7775005c37" y="74.481695"/>
     <use style="fill:#c7c7c7;stroke:#ffffff;stroke-linejoin:miter;stroke-width:0.75;" x="202.053821" xlink:href="#m7775005c37" y="68.974125"/>
     <use style="fill:#c7c7c7;stroke:#ffffff;stroke-linejoin:miter;stroke-width:0.75;" x="270.061703" xlink:href="#m7775005c37" y="65.669583"/>
     <use style="fill:#c7c7c7;stroke:#ffffff;stroke-linejoin:miter;stroke-width:0.75;" x="318.314063" xlink:href="#m7775005c37" y="65.118826"/>
     <use style="fill:#c7c7c7;stroke:#ffffff;stroke-linejoin:miter;stroke-width:0.75;" x="355.741501" xlink:href="#m7775005c37" y="64.361535"/>
     <use style="fill:#c7c7c7;stroke:#ffffff;stroke-linejoin:miter;stroke-width:0.75;" x="386.321945" xlink:href="#m7775005c37" y="64.361535"/>
     <use style="fill:#c7c7c7;stroke:#ffffff;stroke-linejoin:miter;stroke-width:0.75;" x="412.177342" xlink:href="#m7775005c37" y="64.361535"/>
     <use style="fill:#c7c7c7;stroke:#ffffff;stroke-linejoin:miter;stroke-width:0.75;" x="434.574305" xlink:href="#m7775005c37" y="64.361535"/>
     <use style="fill:#c7c7c7;stroke:#ffffff;stroke-linejoin:miter;stroke-width:0.75;" x="454.329827" xlink:href="#m7775005c37" y="64.361535"/>
     <use style="fill:#c7c7c7;stroke:#ffffff;stroke-linejoin:miter;stroke-width:0.75;" x="472.001743" xlink:href="#m7775005c37" y="64.361535"/>
     <use style="fill:#c7c7c7;stroke:#ffffff;stroke-linejoin:miter;stroke-width:0.75;" x="487.987936" xlink:href="#m7775005c37" y="64.361535"/>
     <use style="fill:#c7c7c7;stroke:#ffffff;stroke-linejoin:miter;stroke-width:0.75;" x="502.582187" xlink:href="#m7775005c37" y="64.361535"/>
     <use style="fill:#c7c7c7;stroke:#ffffff;stroke-linejoin:miter;stroke-width:0.75;" x="516.007596" xlink:href="#m7775005c37" y="64.361535"/>
     <use style="fill:#c7c7c7;stroke:#ffffff;stroke-linejoin:miter;stroke-width:0.75;" x="528.437583" xlink:href="#m7775005c37" y="64.361535"/>
     <use style="fill:#c7c7c7;stroke:#ffffff;stroke-linejoin:miter;stroke-width:0.75;" x="540.009625" xlink:href="#m7775005c37" y="64.361535"/>
     <use style="fill:#c7c7c7;stroke:#ffffff;stroke-linejoin:miter;stroke-width:0.75;" x="550.834547" xlink:href="#m7775005c37" y="64.361535"/>
     <use style="fill:#c7c7c7;stroke:#ffffff;stroke-linejoin:miter;stroke-width:0.75;" x="561.002998" xlink:href="#m7775005c37" y="59.404723"/>
     <use style="fill:#c7c7c7;stroke:#ffffff;stroke-linejoin:miter;stroke-width:0.75;" x="570.590069" xlink:href="#m7775005c37" y="59.404723"/>
     <use style="fill:#c7c7c7;stroke:#ffffff;stroke-linejoin:miter;stroke-width:0.75;" x="579.65866" xlink:href="#m7775005c37" y="59.404723"/>
     <use style="fill:#c7c7c7;stroke:#ffffff;stroke-linejoin:miter;stroke-width:0.75;" x="588.261985" xlink:href="#m7775005c37" y="59.404723"/>
     <use style="fill:#c7c7c7;stroke:#ffffff;stroke-linejoin:miter;stroke-width:0.75;" x="596.445465" xlink:href="#m7775005c37" y="59.404723"/>
     <use style="fill:#c7c7c7;stroke:#ffffff;stroke-linejoin:miter;stroke-width:0.75;" x="604.248178" xlink:href="#m7775005c37" y="59.404723"/>
     <use style="fill:#c7c7c7;stroke:#ffffff;stroke-linejoin:miter;stroke-width:0.75;" x="611.703986" xlink:href="#m7775005c37" y="58.853966"/>
     <use style="fill:#c7c7c7;stroke:#ffffff;stroke-linejoin:miter;stroke-width:0.75;" x="618.842429" xlink:href="#m7775005c37" y="58.853966"/>
     <use style="fill:#c7c7c7;stroke:#ffffff;stroke-linejoin:miter;stroke-width:0.75;" x="625.689423" xlink:href="#m7775005c37" y="58.234364"/>
     <use style="fill:#c7c7c7;stroke:#ffffff;stroke-linejoin:miter;stroke-width:0.75;" x="632.267838" xlink:href="#m7775005c37" y="58.234364"/>
     <use style="fill:#c7c7c7;stroke:#ffffff;stroke-linejoin:miter;stroke-width:0.75;" x="638.59795" xlink:href="#m7775005c37" y="58.234364"/>
     <use style="fill:#c7c7c7;stroke:#ffffff;stroke-linejoin:miter;stroke-width:0.75;" x="644.697825" xlink:href="#m7775005c37" y="58.234364"/>
     <use style="fill:#c7c7c7;stroke:#ffffff;stroke-linejoin:miter;stroke-width:0.75;" x="650.583625" xlink:href="#m7775005c37" y="57.958986"/>
     <use style="fill:#c7c7c7;stroke:#ffffff;stroke-linejoin:miter;stroke-width:0.75;" x="656.269867" xlink:href="#m7775005c37" y="57.958986"/>
     <use style="fill:#c7c7c7;stroke:#ffffff;stroke-linejoin:miter;stroke-width:0.75;" x="661.769641" xlink:href="#m7775005c37" y="57.958986"/>
     <use style="fill:#c7c7c7;stroke:#ffffff;stroke-linejoin:miter;stroke-width:0.75;" x="667.094789" xlink:href="#m7775005c37" y="57.958986"/>
     <use style="fill:#c7c7c7;stroke:#ffffff;stroke-linejoin:miter;stroke-width:0.75;" x="672.25606" xlink:href="#m7775005c37" y="57.958986"/>
     <use style="fill:#c7c7c7;stroke:#ffffff;stroke-linejoin:miter;stroke-width:0.75;" x="677.26324" xlink:href="#m7775005c37" y="57.958986"/>
     <use style="fill:#c7c7c7;stroke:#ffffff;stroke-linejoin:miter;stroke-width:0.75;" x="682.125263" xlink:href="#m7775005c37" y="57.958986"/>
     <use style="fill:#c7c7c7;stroke:#ffffff;stroke-linejoin:miter;stroke-width:0.75;" x="686.85031" xlink:href="#m7775005c37" y="57.958986"/>
     <use style="fill:#c7c7c7;stroke:#ffffff;stroke-linejoin:miter;stroke-width:0.75;" x="691.445888" xlink:href="#m7775005c37" y="57.958986"/>
     <use style="fill:#c7c7c7;stroke:#ffffff;stroke-linejoin:miter;stroke-width:0.75;" x="695.918901" xlink:href="#m7775005c37" y="57.958986"/>
     <use style="fill:#c7c7c7;stroke:#ffffff;stroke-linejoin:miter;stroke-width:0.75;" x="700.27572" xlink:href="#m7775005c37" y="57.958986"/>
     <use style="fill:#c7c7c7;stroke:#ffffff;stroke-linejoin:miter;stroke-width:0.75;" x="704.522227" xlink:href="#m7775005c37" y="57.958986"/>
     <use style="fill:#c7c7c7;stroke:#ffffff;stroke-linejoin:miter;stroke-width:0.75;" x="708.663871" xlink:href="#m7775005c37" y="57.958986"/>
     <use style="fill:#c7c7c7;stroke:#ffffff;stroke-linejoin:miter;stroke-width:0.75;" x="712.705707" xlink:href="#m7775005c37" y="57.958986"/>
     <use style="fill:#c7c7c7;stroke:#ffffff;stroke-linejoin:miter;stroke-width:0.75;" x="716.652432" xlink:href="#m7775005c37" y="57.958986"/>
     <use style="fill:#c7c7c7;stroke:#ffffff;stroke-linejoin:miter;stroke-width:0.75;" x="720.50842" xlink:href="#m7775005c37" y="57.958986"/>
     <use style="fill:#c7c7c7;stroke:#ffffff;stroke-linejoin:miter;stroke-width:0.75;" x="724.277749" xlink:href="#m7775005c37" y="57.958986"/>
     <use style="fill:#c7c7c7;stroke:#ffffff;stroke-linejoin:miter;stroke-width:0.75;" x="727.964228" xlink:href="#m7775005c37" y="57.958986"/>
     <use style="fill:#c7c7c7;stroke:#ffffff;stroke-linejoin:miter;stroke-width:0.75;" x="731.571423" xlink:href="#m7775005c37" y="57.958986"/>
     <use style="fill:#c7c7c7;stroke:#ffffff;stroke-linejoin:miter;stroke-width:0.75;" x="735.10267" xlink:href="#m7775005c37" y="57.958986"/>
    </g>
   </g>
   <g id="line2d_35">
    <path clip-path="url(#pdd94758c3d)" d="M 85.79358 90.79787 
L 202.053821 69.249503 
L 270.061703 66.082651 
L 318.314063 65.669583 
L 355.741501 65.669583 
L 386.321945 65.256515 
L 412.177342 65.256515 
L 434.574305 64.43038 
L 454.329827 64.292691 
L 472.001743 64.223846 
L 487.987936 64.223846 
L 502.582187 64.223846 
L 516.007596 64.223846 
L 528.437583 63.948468 
L 540.009625 63.948468 
L 550.834547 63.948468 
L 561.002998 63.948468 
L 570.590069 63.948468 
L 579.65866 63.948468 
L 588.261985 63.741934 
L 596.445465 63.741934 
L 604.248178 63.741934 
L 611.703986 63.741934 
L 618.842429 63.741934 
L 625.689423 63.741934 
L 632.267838 63.741934 
L 638.59795 63.741934 
L 644.697825 63.741934 
L 650.583625 63.741934 
L 656.269867 63.604245 
L 661.769641 63.604245 
L 667.094789 63.604245 
L 672.25606 63.5354 
L 677.26324 63.5354 
L 682.125263 63.5354 
L 686.85031 63.5354 
L 691.445888 63.5354 
L 695.918901 63.397711 
L 700.27572 63.397711 
L 704.522227 63.397711 
L 708.663871 63.122332 
L 712.705707 63.122332 
L 716.652432 63.122332 
L 720.50842 63.122332 
L 724.277749 63.122332 
L 727.964228 63.122332 
L 731.571423 62.984643 
L 735.10267 62.984643 
" style="fill:none;stroke:#98df8a;stroke-linecap:square;stroke-width:1.5;"/>
    <defs>
     <path d="M -0 3 
L 3 -3 
L -3 -3 
z
" id="mabc029e079" style="stroke:#ffffff;stroke-linejoin:miter;stroke-width:0.75;"/>
    </defs>
    <g clip-path="url(#pdd94758c3d)">
     <use style="fill:#98df8a;stroke:#ffffff;stroke-linejoin:miter;stroke-width:0.75;" x="85.79358" xlink:href="#mabc029e079" y="90.79787"/>
     <use style="fill:#98df8a;stroke:#ffffff;stroke-linejoin:miter;stroke-width:0.75;" x="202.053821" xlink:href="#mabc029e079" y="69.249503"/>
     <use style="fill:#98df8a;stroke:#ffffff;stroke-linejoin:miter;stroke-width:0.75;" x="270.061703" xlink:href="#mabc029e079" y="66.082651"/>
     <use style="fill:#98df8a;stroke:#ffffff;stroke-linejoin:miter;stroke-width:0.75;" x="318.314063" xlink:href="#mabc029e079" y="65.669583"/>
     <use style="fill:#98df8a;stroke:#ffffff;stroke-linejoin:miter;stroke-width:0.75;" x="355.741501" xlink:href="#mabc029e079" y="65.669583"/>
     <use style="fill:#98df8a;stroke:#ffffff;stroke-linejoin:miter;stroke-width:0.75;" x="386.321945" xlink:href="#mabc029e079" y="65.256515"/>
     <use style="fill:#98df8a;stroke:#ffffff;stroke-linejoin:miter;stroke-width:0.75;" x="412.177342" xlink:href="#mabc029e079" y="65.256515"/>
     <use style="fill:#98df8a;stroke:#ffffff;stroke-linejoin:miter;stroke-width:0.75;" x="434.574305" xlink:href="#mabc029e079" y="64.43038"/>
     <use style="fill:#98df8a;stroke:#ffffff;stroke-linejoin:miter;stroke-width:0.75;" x="454.329827" xlink:href="#mabc029e079" y="64.292691"/>
     <use style="fill:#98df8a;stroke:#ffffff;stroke-linejoin:miter;stroke-width:0.75;" x="472.001743" xlink:href="#mabc029e079" y="64.223846"/>
     <use style="fill:#98df8a;stroke:#ffffff;stroke-linejoin:miter;stroke-width:0.75;" x="487.987936" xlink:href="#mabc029e079" y="64.223846"/>
     <use style="fill:#98df8a;stroke:#ffffff;stroke-linejoin:miter;stroke-width:0.75;" x="502.582187" xlink:href="#mabc029e079" y="64.223846"/>
     <use style="fill:#98df8a;stroke:#ffffff;stroke-linejoin:miter;stroke-width:0.75;" x="516.007596" xlink:href="#mabc029e079" y="64.223846"/>
     <use style="fill:#98df8a;stroke:#ffffff;stroke-linejoin:miter;stroke-width:0.75;" x="528.437583" xlink:href="#mabc029e079" y="63.948468"/>
     <use style="fill:#98df8a;stroke:#ffffff;stroke-linejoin:miter;stroke-width:0.75;" x="540.009625" xlink:href="#mabc029e079" y="63.948468"/>
     <use style="fill:#98df8a;stroke:#ffffff;stroke-linejoin:miter;stroke-width:0.75;" x="550.834547" xlink:href="#mabc029e079" y="63.948468"/>
     <use style="fill:#98df8a;stroke:#ffffff;stroke-linejoin:miter;stroke-width:0.75;" x="561.002998" xlink:href="#mabc029e079" y="63.948468"/>
     <use style="fill:#98df8a;stroke:#ffffff;stroke-linejoin:miter;stroke-width:0.75;" x="570.590069" xlink:href="#mabc029e079" y="63.948468"/>
     <use style="fill:#98df8a;stroke:#ffffff;stroke-linejoin:miter;stroke-width:0.75;" x="579.65866" xlink:href="#mabc029e079" y="63.948468"/>
     <use style="fill:#98df8a;stroke:#ffffff;stroke-linejoin:miter;stroke-width:0.75;" x="588.261985" xlink:href="#mabc029e079" y="63.741934"/>
     <use style="fill:#98df8a;stroke:#ffffff;stroke-linejoin:miter;stroke-width:0.75;" x="596.445465" xlink:href="#mabc029e079" y="63.741934"/>
     <use style="fill:#98df8a;stroke:#ffffff;stroke-linejoin:miter;stroke-width:0.75;" x="604.248178" xlink:href="#mabc029e079" y="63.741934"/>
     <use style="fill:#98df8a;stroke:#ffffff;stroke-linejoin:miter;stroke-width:0.75;" x="611.703986" xlink:href="#mabc029e079" y="63.741934"/>
     <use style="fill:#98df8a;stroke:#ffffff;stroke-linejoin:miter;stroke-width:0.75;" x="618.842429" xlink:href="#mabc029e079" y="63.741934"/>
     <use style="fill:#98df8a;stroke:#ffffff;stroke-linejoin:miter;stroke-width:0.75;" x="625.689423" xlink:href="#mabc029e079" y="63.741934"/>
     <use style="fill:#98df8a;stroke:#ffffff;stroke-linejoin:miter;stroke-width:0.75;" x="632.267838" xlink:href="#mabc029e079" y="63.741934"/>
     <use style="fill:#98df8a;stroke:#ffffff;stroke-linejoin:miter;stroke-width:0.75;" x="638.59795" xlink:href="#mabc029e079" y="63.741934"/>
     <use style="fill:#98df8a;stroke:#ffffff;stroke-linejoin:miter;stroke-width:0.75;" x="644.697825" xlink:href="#mabc029e079" y="63.741934"/>
     <use style="fill:#98df8a;stroke:#ffffff;stroke-linejoin:miter;stroke-width:0.75;" x="650.583625" xlink:href="#mabc029e079" y="63.741934"/>
     <use style="fill:#98df8a;stroke:#ffffff;stroke-linejoin:miter;stroke-width:0.75;" x="656.269867" xlink:href="#mabc029e079" y="63.604245"/>
     <use style="fill:#98df8a;stroke:#ffffff;stroke-linejoin:miter;stroke-width:0.75;" x="661.769641" xlink:href="#mabc029e079" y="63.604245"/>
     <use style="fill:#98df8a;stroke:#ffffff;stroke-linejoin:miter;stroke-width:0.75;" x="667.094789" xlink:href="#mabc029e079" y="63.604245"/>
     <use style="fill:#98df8a;stroke:#ffffff;stroke-linejoin:miter;stroke-width:0.75;" x="672.25606" xlink:href="#mabc029e079" y="63.5354"/>
     <use style="fill:#98df8a;stroke:#ffffff;stroke-linejoin:miter;stroke-width:0.75;" x="677.26324" xlink:href="#mabc029e079" y="63.5354"/>
     <use style="fill:#98df8a;stroke:#ffffff;stroke-linejoin:miter;stroke-width:0.75;" x="682.125263" xlink:href="#mabc029e079" y="63.5354"/>
     <use style="fill:#98df8a;stroke:#ffffff;stroke-linejoin:miter;stroke-width:0.75;" x="686.85031" xlink:href="#mabc029e079" y="63.5354"/>
     <use style="fill:#98df8a;stroke:#ffffff;stroke-linejoin:miter;stroke-width:0.75;" x="691.445888" xlink:href="#mabc029e079" y="63.5354"/>
     <use style="fill:#98df8a;stroke:#ffffff;stroke-linejoin:miter;stroke-width:0.75;" x="695.918901" xlink:href="#mabc029e079" y="63.397711"/>
     <use style="fill:#98df8a;stroke:#ffffff;stroke-linejoin:miter;stroke-width:0.75;" x="700.27572" xlink:href="#mabc029e079" y="63.397711"/>
     <use style="fill:#98df8a;stroke:#ffffff;stroke-linejoin:miter;stroke-width:0.75;" x="704.522227" xlink:href="#mabc029e079" y="63.397711"/>
     <use style="fill:#98df8a;stroke:#ffffff;stroke-linejoin:miter;stroke-width:0.75;" x="708.663871" xlink:href="#mabc029e079" y="63.122332"/>
     <use style="fill:#98df8a;stroke:#ffffff;stroke-linejoin:miter;stroke-width:0.75;" x="712.705707" xlink:href="#mabc029e079" y="63.122332"/>
     <use style="fill:#98df8a;stroke:#ffffff;stroke-linejoin:miter;stroke-width:0.75;" x="716.652432" xlink:href="#mabc029e079" y="63.122332"/>
     <use style="fill:#98df8a;stroke:#ffffff;stroke-linejoin:miter;stroke-width:0.75;" x="720.50842" xlink:href="#mabc029e079" y="63.122332"/>
     <use style="fill:#98df8a;stroke:#ffffff;stroke-linejoin:miter;stroke-width:0.75;" x="724.277749" xlink:href="#mabc029e079" y="63.122332"/>
     <use style="fill:#98df8a;stroke:#ffffff;stroke-linejoin:miter;stroke-width:0.75;" x="727.964228" xlink:href="#mabc029e079" y="63.122332"/>
     <use style="fill:#98df8a;stroke:#ffffff;stroke-linejoin:miter;stroke-width:0.75;" x="731.571423" xlink:href="#mabc029e079" y="62.984643"/>
     <use style="fill:#98df8a;stroke:#ffffff;stroke-linejoin:miter;stroke-width:0.75;" x="735.10267" xlink:href="#mabc029e079" y="62.984643"/>
    </g>
   </g>
   <g id="line2d_36">
    <path clip-path="url(#pdd94758c3d)" d="M 85.79358 84.119942 
L 202.053821 84.119942 
L 270.061703 64.636914 
L 318.314063 64.636914 
L 355.741501 64.43038 
L 386.321945 64.43038 
L 412.177342 64.223846 
L 434.574305 64.223846 
L 454.329827 64.223846 
L 472.001743 64.223846 
L 487.987936 64.223846 
L 502.582187 63.810778 
L 516.007596 63.810778 
L 528.437583 63.810778 
L 540.009625 63.810778 
L 550.834547 63.810778 
L 561.002998 63.810778 
L 570.590069 63.604245 
L 579.65866 63.604245 
L 588.261985 63.604245 
L 596.445465 63.604245 
L 604.248178 63.604245 
L 611.703986 63.604245 
L 618.842429 63.604245 
L 625.689423 63.604245 
L 632.267838 63.604245 
L 638.59795 63.604245 
L 644.697825 63.604245 
L 650.583625 63.604245 
L 656.269867 63.604245 
L 661.769641 63.604245 
L 667.094789 63.604245 
L 672.25606 63.604245 
L 677.26324 63.604245 
L 682.125263 63.604245 
L 686.85031 63.604245 
L 691.445888 63.604245 
L 695.918901 63.604245 
L 700.27572 63.604245 
L 704.522227 63.604245 
L 708.663871 63.604245 
L 712.705707 63.604245 
L 716.652432 63.604245 
L 720.50842 63.604245 
L 724.277749 63.604245 
L 727.964228 63.604245 
L 731.571423 63.604245 
L 735.10267 63.604245 
" style="fill:none;stroke:#1f77b4;stroke-linecap:square;stroke-width:1.5;"/>
    <defs>
     <path d="M 0 3 
C 0.795609 3 1.55874 2.683901 2.12132 2.12132 
C 2.683901 1.55874 3 0.795609 3 0 
C 3 -0.795609 2.683901 -1.55874 2.12132 -2.12132 
C 1.55874 -2.683901 0.795609 -3 0 -3 
C -0.795609 -3 -1.55874 -2.683901 -2.12132 -2.12132 
C -2.683901 -1.55874 -3 -0.795609 -3 0 
C -3 0.795609 -2.683901 1.55874 -2.12132 2.12132 
C -1.55874 2.683901 -0.795609 3 0 3 
z
" id="m24ad99a0ce" style="stroke:#ffffff;stroke-width:0.75;"/>
    </defs>
    <g clip-path="url(#pdd94758c3d)">
     <use style="fill:#1f77b4;stroke:#ffffff;stroke-width:0.75;" x="85.79358" xlink:href="#m24ad99a0ce" y="84.119942"/>
     <use style="fill:#1f77b4;stroke:#ffffff;stroke-width:0.75;" x="202.053821" xlink:href="#m24ad99a0ce" y="84.119942"/>
     <use style="fill:#1f77b4;stroke:#ffffff;stroke-width:0.75;" x="270.061703" xlink:href="#m24ad99a0ce" y="64.636914"/>
     <use style="fill:#1f77b4;stroke:#ffffff;stroke-width:0.75;" x="318.314063" xlink:href="#m24ad99a0ce" y="64.636914"/>
     <use style="fill:#1f77b4;stroke:#ffffff;stroke-width:0.75;" x="355.741501" xlink:href="#m24ad99a0ce" y="64.43038"/>
     <use style="fill:#1f77b4;stroke:#ffffff;stroke-width:0.75;" x="386.321945" xlink:href="#m24ad99a0ce" y="64.43038"/>
     <use style="fill:#1f77b4;stroke:#ffffff;stroke-width:0.75;" x="412.177342" xlink:href="#m24ad99a0ce" y="64.223846"/>
     <use style="fill:#1f77b4;stroke:#ffffff;stroke-width:0.75;" x="434.574305" xlink:href="#m24ad99a0ce" y="64.223846"/>
     <use style="fill:#1f77b4;stroke:#ffffff;stroke-width:0.75;" x="454.329827" xlink:href="#m24ad99a0ce" y="64.223846"/>
     <use style="fill:#1f77b4;stroke:#ffffff;stroke-width:0.75;" x="472.001743" xlink:href="#m24ad99a0ce" y="64.223846"/>
     <use style="fill:#1f77b4;stroke:#ffffff;stroke-width:0.75;" x="487.987936" xlink:href="#m24ad99a0ce" y="64.223846"/>
     <use style="fill:#1f77b4;stroke:#ffffff;stroke-width:0.75;" x="502.582187" xlink:href="#m24ad99a0ce" y="63.810778"/>
     <use style="fill:#1f77b4;stroke:#ffffff;stroke-width:0.75;" x="516.007596" xlink:href="#m24ad99a0ce" y="63.810778"/>
     <use style="fill:#1f77b4;stroke:#ffffff;stroke-width:0.75;" x="528.437583" xlink:href="#m24ad99a0ce" y="63.810778"/>
     <use style="fill:#1f77b4;stroke:#ffffff;stroke-width:0.75;" x="540.009625" xlink:href="#m24ad99a0ce" y="63.810778"/>
     <use style="fill:#1f77b4;stroke:#ffffff;stroke-width:0.75;" x="550.834547" xlink:href="#m24ad99a0ce" y="63.810778"/>
     <use style="fill:#1f77b4;stroke:#ffffff;stroke-width:0.75;" x="561.002998" xlink:href="#m24ad99a0ce" y="63.810778"/>
     <use style="fill:#1f77b4;stroke:#ffffff;stroke-width:0.75;" x="570.590069" xlink:href="#m24ad99a0ce" y="63.604245"/>
     <use style="fill:#1f77b4;stroke:#ffffff;stroke-width:0.75;" x="579.65866" xlink:href="#m24ad99a0ce" y="63.604245"/>
     <use style="fill:#1f77b4;stroke:#ffffff;stroke-width:0.75;" x="588.261985" xlink:href="#m24ad99a0ce" y="63.604245"/>
     <use style="fill:#1f77b4;stroke:#ffffff;stroke-width:0.75;" x="596.445465" xlink:href="#m24ad99a0ce" y="63.604245"/>
     <use style="fill:#1f77b4;stroke:#ffffff;stroke-width:0.75;" x="604.248178" xlink:href="#m24ad99a0ce" y="63.604245"/>
     <use style="fill:#1f77b4;stroke:#ffffff;stroke-width:0.75;" x="611.703986" xlink:href="#m24ad99a0ce" y="63.604245"/>
     <use style="fill:#1f77b4;stroke:#ffffff;stroke-width:0.75;" x="618.842429" xlink:href="#m24ad99a0ce" y="63.604245"/>
     <use style="fill:#1f77b4;stroke:#ffffff;stroke-width:0.75;" x="625.689423" xlink:href="#m24ad99a0ce" y="63.604245"/>
     <use style="fill:#1f77b4;stroke:#ffffff;stroke-width:0.75;" x="632.267838" xlink:href="#m24ad99a0ce" y="63.604245"/>
     <use style="fill:#1f77b4;stroke:#ffffff;stroke-width:0.75;" x="638.59795" xlink:href="#m24ad99a0ce" y="63.604245"/>
     <use style="fill:#1f77b4;stroke:#ffffff;stroke-width:0.75;" x="644.697825" xlink:href="#m24ad99a0ce" y="63.604245"/>
     <use style="fill:#1f77b4;stroke:#ffffff;stroke-width:0.75;" x="650.583625" xlink:href="#m24ad99a0ce" y="63.604245"/>
     <use style="fill:#1f77b4;stroke:#ffffff;stroke-width:0.75;" x="656.269867" xlink:href="#m24ad99a0ce" y="63.604245"/>
     <use style="fill:#1f77b4;stroke:#ffffff;stroke-width:0.75;" x="661.769641" xlink:href="#m24ad99a0ce" y="63.604245"/>
     <use style="fill:#1f77b4;stroke:#ffffff;stroke-width:0.75;" x="667.094789" xlink:href="#m24ad99a0ce" y="63.604245"/>
     <use style="fill:#1f77b4;stroke:#ffffff;stroke-width:0.75;" x="672.25606" xlink:href="#m24ad99a0ce" y="63.604245"/>
     <use style="fill:#1f77b4;stroke:#ffffff;stroke-width:0.75;" x="677.26324" xlink:href="#m24ad99a0ce" y="63.604245"/>
     <use style="fill:#1f77b4;stroke:#ffffff;stroke-width:0.75;" x="682.125263" xlink:href="#m24ad99a0ce" y="63.604245"/>
     <use style="fill:#1f77b4;stroke:#ffffff;stroke-width:0.75;" x="686.85031" xlink:href="#m24ad99a0ce" y="63.604245"/>
     <use style="fill:#1f77b4;stroke:#ffffff;stroke-width:0.75;" x="691.445888" xlink:href="#m24ad99a0ce" y="63.604245"/>
     <use style="fill:#1f77b4;stroke:#ffffff;stroke-width:0.75;" x="695.918901" xlink:href="#m24ad99a0ce" y="63.604245"/>
     <use style="fill:#1f77b4;stroke:#ffffff;stroke-width:0.75;" x="700.27572" xlink:href="#m24ad99a0ce" y="63.604245"/>
     <use style="fill:#1f77b4;stroke:#ffffff;stroke-width:0.75;" x="704.522227" xlink:href="#m24ad99a0ce" y="63.604245"/>
     <use style="fill:#1f77b4;stroke:#ffffff;stroke-width:0.75;" x="708.663871" xlink:href="#m24ad99a0ce" y="63.604245"/>
     <use style="fill:#1f77b4;stroke:#ffffff;stroke-width:0.75;" x="712.705707" xlink:href="#m24ad99a0ce" y="63.604245"/>
     <use style="fill:#1f77b4;stroke:#ffffff;stroke-width:0.75;" x="716.652432" xlink:href="#m24ad99a0ce" y="63.604245"/>
     <use style="fill:#1f77b4;stroke:#ffffff;stroke-width:0.75;" x="720.50842" xlink:href="#m24ad99a0ce" y="63.604245"/>
     <use style="fill:#1f77b4;stroke:#ffffff;stroke-width:0.75;" x="724.277749" xlink:href="#m24ad99a0ce" y="63.604245"/>
     <use style="fill:#1f77b4;stroke:#ffffff;stroke-width:0.75;" x="727.964228" xlink:href="#m24ad99a0ce" y="63.604245"/>
     <use style="fill:#1f77b4;stroke:#ffffff;stroke-width:0.75;" x="731.571423" xlink:href="#m24ad99a0ce" y="63.604245"/>
     <use style="fill:#1f77b4;stroke:#ffffff;stroke-width:0.75;" x="735.10267" xlink:href="#m24ad99a0ce" y="63.604245"/>
    </g>
   </g>
   <g id="line2d_37"/>
   <g id="line2d_38"/>
   <g id="line2d_39"/>
   <g id="line2d_40"/>
   <g id="line2d_41">
    <path clip-path="url(#pdd94758c3d)" d="M 735.10267 288.430125 
L 735.10267 22.318125 
" style="fill:none;stroke:#ff0000;stroke-linecap:square;stroke-width:1.5;"/>
   </g>
   <g id="patch_3">
    <path d="M 53.328125 258.0903 
L 53.328125 51.556436 
" style="fill:none;stroke:#000000;stroke-linecap:square;stroke-linejoin:miter;stroke-width:0.8;"/>
   </g>
   <g id="patch_4">
    <path d="M 85.79358 288.430125 
L 735.106553 288.430125 
" style="fill:none;stroke:#000000;stroke-linecap:square;stroke-linejoin:miter;stroke-width:0.8;"/>
   </g>
   <g id="text_22">
    <!-- libjpeg-turbo-07-2017 (12h, 3 trials/fuzzer) -->
    <g transform="translate(281.803438 16.318125)scale(0.12 -0.12)">
     <defs>
      <path d="M 603 4863 
L 1178 4863 
L 1178 0 
L 603 0 
L 603 4863 
z
" id="DejaVuSans-6c" transform="scale(0.015625)"/>
      <path d="M 3116 1747 
Q 3116 2381 2855 2742 
Q 2594 3103 2138 3103 
Q 1681 3103 1420 2742 
Q 1159 2381 1159 1747 
Q 1159 1113 1420 752 
Q 1681 391 2138 391 
Q 2594 391 2855 752 
Q 3116 1113 3116 1747 
z
M 1159 2969 
Q 1341 3281 1617 3432 
Q 1894 3584 2278 3584 
Q 2916 3584 3314 3078 
Q 3713 2572 3713 1747 
Q 3713 922 3314 415 
Q 2916 -91 2278 -91 
Q 1894 -91 1617 61 
Q 1341 213 1159 525 
L 1159 0 
L 581 0 
L 581 4863 
L 1159 4863 
L 1159 2969 
z
" id="DejaVuSans-62" transform="scale(0.015625)"/>
      <path d="M 603 3500 
L 1178 3500 
L 1178 -63 
Q 1178 -731 923 -1031 
Q 669 -1331 103 -1331 
L -116 -1331 
L -116 -844 
L 38 -844 
Q 366 -844 484 -692 
Q 603 -541 603 -63 
L 603 3500 
z
M 603 4863 
L 1178 4863 
L 1178 4134 
L 603 4134 
L 603 4863 
z
" id="DejaVuSans-6a" transform="scale(0.015625)"/>
      <path d="M 1159 525 
L 1159 -1331 
L 581 -1331 
L 581 3500 
L 1159 3500 
L 1159 2969 
Q 1341 3281 1617 3432 
Q 1894 3584 2278 3584 
Q 2916 3584 3314 3078 
Q 3713 2572 3713 1747 
Q 3713 922 3314 415 
Q 2916 -91 2278 -91 
Q 1894 -91 1617 61 
Q 1341 213 1159 525 
z
M 3116 1747 
Q 3116 2381 2855 2742 
Q 2594 3103 2138 3103 
Q 1681 3103 1420 2742 
Q 1159 2381 1159 1747 
Q 1159 1113 1420 752 
Q 1681 391 2138 391 
Q 2594 391 2855 752 
Q 3116 1113 3116 1747 
z
" id="DejaVuSans-70" transform="scale(0.015625)"/>
      <path d="M 313 2009 
L 1997 2009 
L 1997 1497 
L 313 1497 
L 313 2009 
z
" id="DejaVuSans-2d" transform="scale(0.015625)"/>
      <path d="M 750 794 
L 1409 794 
L 1409 256 
L 897 -744 
L 494 -744 
L 750 256 
L 750 794 
z
" id="DejaVuSans-2c" transform="scale(0.015625)"/>
      <path d="M 2834 3397 
L 2834 2853 
Q 2591 2978 2328 3040 
Q 2066 3103 1784 3103 
Q 1356 3103 1142 2972 
Q 928 2841 928 2578 
Q 928 2378 1081 2264 
Q 1234 2150 1697 2047 
L 1894 2003 
Q 2506 1872 2764 1633 
Q 3022 1394 3022 966 
Q 3022 478 2636 193 
Q 2250 -91 1575 -91 
Q 1294 -91 989 -36 
Q 684 19 347 128 
L 347 722 
Q 666 556 975 473 
Q 1284 391 1588 391 
Q 1994 391 2212 530 
Q 2431 669 2431 922 
Q 2431 1156 2273 1281 
Q 2116 1406 1581 1522 
L 1381 1569 
Q 847 1681 609 1914 
Q 372 2147 372 2553 
Q 372 3047 722 3315 
Q 1072 3584 1716 3584 
Q 2034 3584 2315 3537 
Q 2597 3491 2834 3397 
z
" id="DejaVuSans-73" transform="scale(0.015625)"/>
      <path d="M 1625 4666 
L 2156 4666 
L 531 -594 
L 0 -594 
L 1625 4666 
z
" id="DejaVuSans-2f" transform="scale(0.015625)"/>
      <path d="M 2375 4863 
L 2375 4384 
L 1825 4384 
Q 1516 4384 1395 4259 
Q 1275 4134 1275 3809 
L 1275 3500 
L 2222 3500 
L 2222 3053 
L 1275 3053 
L 1275 0 
L 697 0 
L 697 3053 
L 147 3053 
L 147 3500 
L 697 3500 
L 697 3744 
Q 697 4328 969 4595 
Q 1241 4863 1831 4863 
L 2375 4863 
z
" id="DejaVuSans-66" transform="scale(0.015625)"/>
      <path d="M 353 3500 
L 3084 3500 
L 3084 2975 
L 922 459 
L 3084 459 
L 3084 0 
L 275 0 
L 275 525 
L 2438 3041 
L 353 3041 
L 353 3500 
z
" id="DejaVuSans-7a" transform="scale(0.015625)"/>
     </defs>
     <use xlink:href="#DejaVuSans-6c"/>
     <use x="27.783203" xlink:href="#DejaVuSans-69"/>
     <use x="55.566406" xlink:href="#DejaVuSans-62"/>
     <use x="119.042969" xlink:href="#DejaVuSans-6a"/>
     <use x="146.826172" xlink:href="#DejaVuSans-70"/>
     <use x="210.302734" xlink:href="#DejaVuSans-65"/>
     <use x="271.826172" xlink:href="#DejaVuSans-67"/>
     <use x="335.302734" xlink:href="#DejaVuSans-2d"/>
     <use x="371.386719" xlink:href="#DejaVuSans-74"/>
     <use x="410.595703" xlink:href="#DejaVuSans-75"/>
     <use x="473.974609" xlink:href="#DejaVuSans-72"/>
     <use x="515.087891" xlink:href="#DejaVuSans-62"/>
     <use x="578.564453" xlink:href="#DejaVuSans-6f"/>
     <use x="641.621094" xlink:href="#DejaVuSans-2d"/>
     <use x="677.705078" xlink:href="#DejaVuSans-30"/>
     <use x="741.328125" xlink:href="#DejaVuSans-37"/>
     <use x="804.951172" xlink:href="#DejaVuSans-2d"/>
     <use x="841.035156" xlink:href="#DejaVuSans-32"/>
     <use x="904.658203" xlink:href="#DejaVuSans-30"/>
     <use x="968.28125" xlink:href="#DejaVuSans-31"/>
     <use x="1031.904297" xlink:href="#DejaVuSans-37"/>
     <use x="1095.527344" xlink:href="#DejaVuSans-20"/>
     <use x="1127.314453" xlink:href="#DejaVuSans-28"/>
     <use x="1166.328125" xlink:href="#DejaVuSans-31"/>
     <use x="1229.951172" xlink:href="#DejaVuSans-32"/>
     <use x="1293.574219" xlink:href="#DejaVuSans-68"/>
     <use x="1356.953125" xlink:href="#DejaVuSans-2c"/>
     <use x="1388.740234" xlink:href="#DejaVuSans-20"/>
     <use x="1420.527344" xlink:href="#DejaVuSans-33"/>
     <use x="1484.150391" xlink:href="#DejaVuSans-20"/>
     <use x="1515.9375" xlink:href="#DejaVuSans-74"/>
     <use x="1555.146484" xlink:href="#DejaVuSans-72"/>
     <use x="1596.259766" xlink:href="#DejaVuSans-69"/>
     <use x="1624.042969" xlink:href="#DejaVuSans-61"/>
     <use x="1685.322266" xlink:href="#DejaVuSans-6c"/>
     <use x="1713.105469" xlink:href="#DejaVuSans-73"/>
     <use x="1765.205078" xlink:href="#DejaVuSans-2f"/>
     <use x="1798.896484" xlink:href="#DejaVuSans-66"/>
     <use x="1834.101562" xlink:href="#DejaVuSans-75"/>
     <use x="1897.480469" xlink:href="#DejaVuSans-7a"/>
     <use x="1949.970703" xlink:href="#DejaVuSans-7a"/>
     <use x="2002.460938" xlink:href="#DejaVuSans-65"/>
     <use x="2063.984375" xlink:href="#DejaVuSans-72"/>
     <use x="2105.097656" xlink:href="#DejaVuSans-29"/>
    </g>
   </g>
   <g id="legend_1">
    <g id="line2d_42">
     <path d="M 771.568125 30.416562 
L 791.568125 30.416562 
" style="fill:none;stroke:#d62728;stroke-linecap:square;stroke-width:1.5;"/>
    </g>
    <g id="line2d_43">
     <defs>
      <path d="M 0 -3 
L -3 3 
L 3 3 
z
" id="mb1d7579ba4" style="stroke:#d62728;stroke-linejoin:miter;"/>
     </defs>
     <g>
      <use style="fill:#d62728;stroke:#d62728;stroke-linejoin:miter;" x="781.568125" xlink:href="#mb1d7579ba4" y="30.416562"/>
     </g>
    </g>
    <g id="text_23">
     <!-- aflplusplus -->
     <g transform="translate(799.568125 33.916562)scale(0.1 -0.1)">
      <use xlink:href="#DejaVuSans-61"/>
      <use x="61.279297" xlink:href="#DejaVuSans-66"/>
      <use x="96.484375" xlink:href="#DejaVuSans-6c"/>
      <use x="124.267578" xlink:href="#DejaVuSans-70"/>
      <use x="187.744141" xlink:href="#DejaVuSans-6c"/>
      <use x="215.527344" xlink:href="#DejaVuSans-75"/>
      <use x="278.90625" xlink:href="#DejaVuSans-73"/>
      <use x="331.005859" xlink:href="#DejaVuSans-70"/>
      <use x="394.482422" xlink:href="#DejaVuSans-6c"/>
      <use x="422.265625" xlink:href="#DejaVuSans-75"/>
      <use x="485.644531" xlink:href="#DejaVuSans-73"/>
     </g>
    </g>
    <g id="line2d_44">
     <path d="M 771.568125 45.094688 
L 791.568125 45.094688 
" style="fill:none;stroke:#c7c7c7;stroke-linecap:square;stroke-width:1.5;"/>
    </g>
    <g id="line2d_45">
     <defs>
      <path d="M -3 -0 
L 3 3 
L 3 -3 
z
" id="m9eeff9892a" style="stroke:#c7c7c7;stroke-linejoin:miter;"/>
     </defs>
     <g>
      <use style="fill:#c7c7c7;stroke:#c7c7c7;stroke-linejoin:miter;" x="781.568125" xlink:href="#m9eeff9892a" y="45.094688"/>
     </g>
    </g>
    <g id="text_24">
     <!-- waffle -->
     <g transform="translate(799.568125 48.594688)scale(0.1 -0.1)">
      <defs>
       <path d="M 269 3500 
L 844 3500 
L 1563 769 
L 2278 3500 
L 2956 3500 
L 3675 769 
L 4391 3500 
L 4966 3500 
L 4050 0 
L 3372 0 
L 2619 2869 
L 1863 0 
L 1184 0 
L 269 3500 
z
" id="DejaVuSans-77" transform="scale(0.015625)"/>
      </defs>
      <use xlink:href="#DejaVuSans-77"/>
      <use x="81.787109" xlink:href="#DejaVuSans-61"/>
      <use x="143.066406" xlink:href="#DejaVuSans-66"/>
      <use x="178.271484" xlink:href="#DejaVuSans-66"/>
      <use x="213.476562" xlink:href="#DejaVuSans-6c"/>
      <use x="241.259766" xlink:href="#DejaVuSans-65"/>
     </g>
    </g>
    <g id="line2d_46">
     <path d="M 771.568125 59.772812 
L 791.568125 59.772812 
" style="fill:none;stroke:#98df8a;stroke-linecap:square;stroke-width:1.5;"/>
    </g>
    <g id="line2d_47">
     <defs>
      <path d="M -0 3 
L 3 -3 
L -3 -3 
z
" id="m46c758b88c" style="stroke:#98df8a;stroke-linejoin:miter;"/>
     </defs>
     <g>
      <use style="fill:#98df8a;stroke:#98df8a;stroke-linejoin:miter;" x="781.568125" xlink:href="#m46c758b88c" y="59.772812"/>
     </g>
    </g>
    <g id="text_25">
     <!-- aflfast -->
     <g transform="translate(799.568125 63.272812)scale(0.1 -0.1)">
      <use xlink:href="#DejaVuSans-61"/>
      <use x="61.279297" xlink:href="#DejaVuSans-66"/>
      <use x="96.484375" xlink:href="#DejaVuSans-6c"/>
      <use x="124.267578" xlink:href="#DejaVuSans-66"/>
      <use x="159.472656" xlink:href="#DejaVuSans-61"/>
      <use x="220.751953" xlink:href="#DejaVuSans-73"/>
      <use x="272.851562" xlink:href="#DejaVuSans-74"/>
     </g>
    </g>
    <g id="line2d_48">
     <path d="M 771.568125 74.450938 
L 791.568125 74.450938 
" style="fill:none;stroke:#1f77b4;stroke-linecap:square;stroke-width:1.5;"/>
    </g>
    <g id="line2d_49">
     <defs>
      <path d="M 0 3 
C 0.795609 3 1.55874 2.683901 2.12132 2.12132 
C 2.683901 1.55874 3 0.795609 3 0 
C 3 -0.795609 2.683901 -1.55874 2.12132 -2.12132 
C 1.55874 -2.683901 0.795609 -3 0 -3 
C -0.795609 -3 -1.55874 -2.683901 -2.12132 -2.12132 
C -2.683901 -1.55874 -3 -0.795609 -3 0 
C -3 0.795609 -2.683901 1.55874 -2.12132 2.12132 
C -1.55874 2.683901 -0.795609 3 0 3 
z
" id="m6f4c64d8ea" style="stroke:#1f77b4;"/>
     </defs>
     <g>
      <use style="fill:#1f77b4;stroke:#1f77b4;" x="781.568125" xlink:href="#m6f4c64d8ea" y="74.450938"/>
     </g>
    </g>
    <g id="text_26">
     <!-- afl -->
     <g transform="translate(799.568125 77.950938)scale(0.1 -0.1)">
      <use xlink:href="#DejaVuSans-61"/>
      <use x="61.279297" xlink:href="#DejaVuSans-66"/>
      <use x="96.484375" xlink:href="#DejaVuSans-6c"/>
     </g>
    </g>
   </g>
  </g>
 </g>
 <defs>
  <clipPath id="pdd94758c3d">
   <rect height="266.112" width="714.24" x="53.328125" y="22.318125"/>
  </clipPath>
 </defs>
</svg>
