<?xml version="1.0" encoding="utf-8" standalone="no"?>
<!DOCTYPE svg PUBLIC "-//W3C//DTD SVG 1.1//EN"
  "http://www.w3.org/Graphics/SVG/1.1/DTD/svg11.dtd">
<svg height="325.986375pt" version="1.1" viewBox="0 0 864.541562 325.986375" width="864.541562pt" xmlns="http://www.w3.org/2000/svg" xmlns:xlink="http://www.w3.org/1999/xlink">
 <metadata>
  <rdf:RDF xmlns:cc="http://creativecommons.org/ns#" xmlns:dc="http://purl.org/dc/elements/1.1/" xmlns:rdf="http://www.w3.org/1999/02/22-rdf-syntax-ns#">
   <cc:Work>
    <dc:type rdf:resource="http://purl.org/dc/dcmitype/StillImage"/>
    <dc:date>2021-12-06T07:27:25.362361</dc:date>
    <dc:format>image/svg+xml</dc:format>
    <dc:creator>
     <cc:Agent>
      <dc:title>Matplotlib v3.4.1, https://matplotlib.org/</dc:title>
     </cc:Agent>
    </dc:creator>
   </cc:Work>
  </rdf:RDF>
 </metadata>
 <defs>
  <style type="text/css">*{stroke-linecap:butt;stroke-linejoin:round;}</style>
 </defs>
 <g id="figure_1">
  <g id="patch_1">
   <path d="M 0 325.986375 
L 864.541562 325.986375 
L 864.541562 0 
L 0 0 
z
" style="fill:#ffffff;"/>
  </g>
  <g id="axes_1">
   <g id="patch_2">
    <path d="M 53.328125 288.430125 
L 767.568125 288.430125 
L 767.568125 22.318125 
L 53.328125 22.318125 
z
" style="fill:#ffffff;"/>
   </g>
   <g id="PolyCollection_1">
    <defs>
     <path d="M 85.79358 -289.259439 
L 85.79358 -273.185405 
L 202.053821 -277.579745 
L 270.061703 -277.579745 
L 318.314063 -281.280242 
L 355.741501 -283.939975 
L 386.321945 -287.524831 
L 412.177342 -287.524831 
L 434.574305 -287.524831 
L 454.329827 -287.524831 
L 472.001743 -287.524831 
L 487.987936 -287.524831 
L 502.582187 -287.524831 
L 516.007596 -287.524831 
L 528.437583 -287.524831 
L 540.009625 -287.871753 
L 550.834547 -287.871753 
L 561.002998 -287.871753 
L 570.590069 -287.871753 
L 579.65866 -287.871753 
L 588.261985 -287.871753 
L 596.445465 -287.871753 
L 604.248178 -287.871753 
L 611.703986 -287.871753 
L 618.842429 -287.871753 
L 625.689423 -287.987393 
L 632.267838 -287.987393 
L 638.59795 -287.987393 
L 644.697825 -287.987393 
L 650.583625 -287.987393 
L 656.269867 -287.987393 
L 661.769641 -287.987393 
L 667.094789 -287.987393 
L 672.25606 -287.987393 
L 677.26324 -287.987393 
L 682.125263 -287.987393 
L 686.85031 -287.987393 
L 691.445888 -287.987393 
L 695.918901 -287.987393 
L 700.27572 -287.987393 
L 704.522227 -287.987393 
L 708.663871 -287.987393 
L 712.705707 -287.987393 
L 716.652432 -287.987393 
L 720.50842 -287.987393 
L 724.277749 -287.987393 
L 727.964228 -287.987393 
L 731.571423 -287.987393 
L 735.10267 -287.987393 
L 735.10267 -291.57225 
L 735.10267 -291.57225 
L 731.571423 -291.57225 
L 727.964228 -291.57225 
L 724.277749 -291.57225 
L 720.50842 -291.57225 
L 716.652432 -291.57225 
L 712.705707 -291.57225 
L 708.663871 -291.57225 
L 704.522227 -291.57225 
L 700.27572 -291.57225 
L 695.918901 -291.57225 
L 691.445888 -291.57225 
L 686.85031 -291.57225 
L 682.125263 -291.57225 
L 677.26324 -290.762766 
L 672.25606 -290.762766 
L 667.094789 -290.762766 
L 661.769641 -290.762766 
L 656.269867 -290.762766 
L 650.583625 -290.762766 
L 644.697825 -290.762766 
L 638.59795 -290.762766 
L 632.267838 -290.762766 
L 625.689423 -290.762766 
L 618.842429 -290.762766 
L 611.703986 -290.762766 
L 604.248178 -290.762766 
L 596.445465 -290.762766 
L 588.261985 -290.762766 
L 579.65866 -290.762766 
L 570.590069 -290.762766 
L 561.002998 -290.762766 
L 550.834547 -290.762766 
L 540.009625 -290.762766 
L 528.437583 -290.762766 
L 516.007596 -290.762766 
L 502.582187 -290.762766 
L 487.987936 -290.762766 
L 472.001743 -290.762766 
L 454.329827 -290.762766 
L 434.574305 -290.762766 
L 412.177342 -290.184564 
L 386.321945 -290.068923 
L 355.741501 -290.068923 
L 318.314063 -290.068923 
L 270.061703 -290.068923 
L 202.053821 -289.37508 
L 85.79358 -289.259439 
z
" id="m96c31e8c6b" style="stroke:#d62728;stroke-opacity:0.2;"/>
    </defs>
    <g clip-path="url(#paa34f53530)">
     <use style="fill:#d62728;fill-opacity:0.2;stroke:#d62728;stroke-opacity:0.2;" x="0" xlink:href="#m96c31e8c6b" y="325.986375"/>
    </g>
   </g>
   <g id="PolyCollection_2">
    <defs>
     <path d="M 85.79358 -266.709535 
L 85.79358 -261.968273 
L 202.053821 -267.172097 
L 270.061703 -267.172097 
L 318.314063 -267.403378 
L 355.741501 -267.403378 
L 386.321945 -271.566437 
L 412.177342 -271.566437 
L 434.574305 -271.566437 
L 454.329827 -271.566437 
L 472.001743 -271.566437 
L 487.987936 -271.566437 
L 502.582187 -271.566437 
L 516.007596 -271.682078 
L 528.437583 -271.682078 
L 540.009625 -271.682078 
L 550.834547 -271.682078 
L 561.002998 -271.682078 
L 570.590069 -271.682078 
L 579.65866 -271.682078 
L 588.261985 -271.682078 
L 596.445465 -271.682078 
L 604.248178 -271.682078 
L 611.703986 -271.682078 
L 618.842429 -271.797718 
L 625.689423 -271.797718 
L 632.267838 -271.797718 
L 638.59795 -271.797718 
L 644.697825 -271.797718 
L 650.583625 -271.797718 
L 656.269867 -271.797718 
L 661.769641 -271.797718 
L 667.094789 -271.797718 
L 672.25606 -271.797718 
L 677.26324 -271.797718 
L 682.125263 -271.797718 
L 686.85031 -271.797718 
L 691.445888 -271.797718 
L 695.918901 -271.797718 
L 700.27572 -271.797718 
L 704.522227 -271.797718 
L 708.663871 -271.797718 
L 712.705707 -271.797718 
L 716.652432 -271.797718 
L 720.50842 -271.797718 
L 724.277749 -271.797718 
L 727.964228 -271.797718 
L 731.571423 -271.797718 
L 735.10267 -271.797718 
L 735.10267 -272.375921 
L 735.10267 -272.375921 
L 731.571423 -272.375921 
L 727.964228 -272.375921 
L 724.277749 -272.375921 
L 720.50842 -272.375921 
L 716.652432 -272.375921 
L 712.705707 -272.375921 
L 708.663871 -272.375921 
L 704.522227 -272.375921 
L 700.27572 -272.375921 
L 695.918901 -272.375921 
L 691.445888 -272.375921 
L 686.85031 -272.375921 
L 682.125263 -272.375921 
L 677.26324 -272.375921 
L 672.25606 -272.375921 
L 667.094789 -272.375921 
L 661.769641 -272.375921 
L 656.269867 -272.375921 
L 650.583625 -272.375921 
L 644.697825 -272.375921 
L 638.59795 -272.375921 
L 632.267838 -272.375921 
L 625.689423 -272.375921 
L 618.842429 -272.375921 
L 611.703986 -272.375921 
L 604.248178 -272.375921 
L 596.445465 -272.375921 
L 588.261985 -272.375921 
L 579.65866 -272.375921 
L 570.590069 -272.375921 
L 561.002998 -272.375921 
L 550.834547 -272.375921 
L 540.009625 -272.375921 
L 528.437583 -272.375921 
L 516.007596 -272.375921 
L 502.582187 -272.375921 
L 487.987936 -272.14464 
L 472.001743 -272.14464 
L 454.329827 -272.14464 
L 434.574305 -272.14464 
L 412.177342 -272.029 
L 386.321945 -272.029 
L 355.741501 -271.913359 
L 318.314063 -271.797718 
L 270.061703 -271.682078 
L 202.053821 -271.682078 
L 85.79358 -266.709535 
z
" id="mf92b93d9bf" style="stroke:#1f77b4;stroke-opacity:0.2;"/>
    </defs>
    <g clip-path="url(#paa34f53530)">
     <use style="fill:#1f77b4;fill-opacity:0.2;stroke:#1f77b4;stroke-opacity:0.2;" x="0" xlink:href="#mf92b93d9bf" y="325.986375"/>
    </g>
   </g>
   <g id="PolyCollection_3">
    <defs>
     <path d="M 85.79358 -261.736992 
L 85.79358 -49.65225 
L 202.053821 -261.27443 
L 270.061703 -265.321848 
L 318.314063 -265.437489 
L 355.741501 -265.900051 
L 386.321945 -266.015692 
L 412.177342 -266.825175 
L 434.574305 -266.825175 
L 454.329827 -271.103875 
L 472.001743 -271.219516 
L 487.987936 -271.219516 
L 502.582187 -271.219516 
L 516.007596 -271.219516 
L 528.437583 -271.450797 
L 540.009625 -271.797718 
L 550.834547 -271.797718 
L 561.002998 -271.913359 
L 570.590069 -271.913359 
L 579.65866 -271.913359 
L 588.261985 -271.913359 
L 596.445465 -272.029 
L 604.248178 -272.029 
L 611.703986 -272.029 
L 618.842429 -272.029 
L 625.689423 -272.029 
L 632.267838 -272.029 
L 638.59795 -272.029 
L 644.697825 -272.029 
L 650.583625 -272.029 
L 656.269867 -272.029 
L 661.769641 -272.029 
L 667.094789 -272.029 
L 672.25606 -272.029 
L 677.26324 -272.029 
L 682.125263 -272.029 
L 686.85031 -272.029 
L 691.445888 -272.029 
L 695.918901 -272.029 
L 700.27572 -272.029 
L 704.522227 -272.029 
L 708.663871 -272.029 
L 712.705707 -272.029 
L 716.652432 -272.029 
L 720.50842 -272.029 
L 724.277749 -272.029 
L 727.964228 -272.029 
L 731.571423 -272.029 
L 735.10267 -272.029 
L 735.10267 -272.14464 
L 735.10267 -272.14464 
L 731.571423 -272.14464 
L 727.964228 -272.14464 
L 724.277749 -272.14464 
L 720.50842 -272.14464 
L 716.652432 -272.14464 
L 712.705707 -272.14464 
L 708.663871 -272.14464 
L 704.522227 -272.14464 
L 700.27572 -272.14464 
L 695.918901 -272.14464 
L 691.445888 -272.14464 
L 686.85031 -272.14464 
L 682.125263 -272.14464 
L 677.26324 -272.14464 
L 672.25606 -272.14464 
L 667.094789 -272.14464 
L 661.769641 -272.14464 
L 656.269867 -272.14464 
L 650.583625 -272.14464 
L 644.697825 -272.14464 
L 638.59795 -272.14464 
L 632.267838 -272.14464 
L 625.689423 -272.14464 
L 618.842429 -272.14464 
L 611.703986 -272.14464 
L 604.248178 -272.029 
L 596.445465 -272.029 
L 588.261985 -272.029 
L 579.65866 -272.029 
L 570.590069 -272.029 
L 561.002998 -272.029 
L 550.834547 -272.029 
L 540.009625 -272.029 
L 528.437583 -272.029 
L 516.007596 -272.029 
L 502.582187 -272.029 
L 487.987936 -272.029 
L 472.001743 -271.913359 
L 454.329827 -271.913359 
L 434.574305 -271.219516 
L 412.177342 -271.219516 
L 386.321945 -271.219516 
L 355.741501 -271.219516 
L 318.314063 -271.219516 
L 270.061703 -269.600548 
L 202.053821 -265.437489 
L 85.79358 -261.736992 
z
" id="mb887dfafa6" style="stroke:#98df8a;stroke-opacity:0.2;"/>
    </defs>
    <g clip-path="url(#paa34f53530)">
     <use style="fill:#98df8a;fill-opacity:0.2;stroke:#98df8a;stroke-opacity:0.2;" x="0" xlink:href="#mb887dfafa6" y="325.986375"/>
    </g>
   </g>
   <g id="PolyCollection_4">
    <defs>
     <path d="M 85.79358 -264.974927 
L 85.79358 -261.39007 
L 202.053821 -261.852632 
L 270.061703 -261.852632 
L 318.314063 -261.852632 
L 355.741501 -261.852632 
L 386.321945 -270.756954 
L 412.177342 -271.103875 
L 434.574305 -271.103875 
L 454.329827 -271.103875 
L 472.001743 -271.103875 
L 487.987936 -271.103875 
L 502.582187 -271.103875 
L 516.007596 -271.103875 
L 528.437583 -271.103875 
L 540.009625 -271.103875 
L 550.834547 -271.103875 
L 561.002998 -271.103875 
L 570.590069 -271.219516 
L 579.65866 -271.219516 
L 588.261985 -271.219516 
L 596.445465 -271.335156 
L 604.248178 -271.335156 
L 611.703986 -271.335156 
L 618.842429 -271.335156 
L 625.689423 -271.335156 
L 632.267838 -271.335156 
L 638.59795 -271.335156 
L 644.697825 -271.335156 
L 650.583625 -271.335156 
L 656.269867 -271.335156 
L 661.769641 -271.335156 
L 667.094789 -271.913359 
L 672.25606 -271.913359 
L 677.26324 -271.913359 
L 682.125263 -271.913359 
L 686.85031 -271.913359 
L 691.445888 -271.913359 
L 695.918901 -271.913359 
L 700.27572 -271.913359 
L 704.522227 -271.913359 
L 708.663871 -271.913359 
L 712.705707 -271.913359 
L 716.652432 -271.913359 
L 720.50842 -271.913359 
L 724.277749 -271.913359 
L 727.964228 -271.913359 
L 731.571423 -271.913359 
L 735.10267 -271.913359 
L 735.10267 -272.029 
L 735.10267 -272.029 
L 731.571423 -272.029 
L 727.964228 -272.029 
L 724.277749 -272.029 
L 720.50842 -272.029 
L 716.652432 -272.029 
L 712.705707 -272.029 
L 708.663871 -272.029 
L 704.522227 -272.029 
L 700.27572 -272.029 
L 695.918901 -272.029 
L 691.445888 -272.029 
L 686.85031 -272.029 
L 682.125263 -272.029 
L 677.26324 -272.029 
L 672.25606 -272.029 
L 667.094789 -272.029 
L 661.769641 -272.029 
L 656.269867 -272.029 
L 650.583625 -272.029 
L 644.697825 -272.029 
L 638.59795 -272.029 
L 632.267838 -272.029 
L 625.689423 -272.029 
L 618.842429 -271.913359 
L 611.703986 -271.913359 
L 604.248178 -271.913359 
L 596.445465 -271.913359 
L 588.261985 -271.913359 
L 579.65866 -271.913359 
L 570.590069 -271.913359 
L 561.002998 -271.913359 
L 550.834547 -271.797718 
L 540.009625 -271.797718 
L 528.437583 -271.797718 
L 516.007596 -271.797718 
L 502.582187 -271.797718 
L 487.987936 -271.797718 
L 472.001743 -271.797718 
L 454.329827 -271.682078 
L 434.574305 -271.682078 
L 412.177342 -271.566437 
L 386.321945 -271.566437 
L 355.741501 -271.566437 
L 318.314063 -271.219516 
L 270.061703 -271.103875 
L 202.053821 -266.825175 
L 85.79358 -264.974927 
z
" id="mcf3d412082" style="stroke:#c7c7c7;stroke-opacity:0.2;"/>
    </defs>
    <g clip-path="url(#paa34f53530)">
     <use style="fill:#c7c7c7;fill-opacity:0.2;stroke:#c7c7c7;stroke-opacity:0.2;" x="0" xlink:href="#mcf3d412082" y="325.986375"/>
    </g>
   </g>
   <g id="matplotlib.axis_1">
    <g id="xtick_1">
     <g id="line2d_1">
      <defs>
       <path d="M 0 0 
L 0 3.5 
" id="ma1bb862b37" style="stroke:#000000;stroke-width:0.8;"/>
      </defs>
      <g>
       <use style="stroke:#000000;stroke-width:0.8;" x="85.79358" xlink:href="#ma1bb862b37" y="288.430125"/>
      </g>
     </g>
     <g id="text_1">
      <!-- 14m -->
      <g transform="translate(74.560767 303.028562)scale(0.1 -0.1)">
       <defs>
        <path d="M 794 531 
L 1825 531 
L 1825 4091 
L 703 3866 
L 703 4441 
L 1819 4666 
L 2450 4666 
L 2450 531 
L 3481 531 
L 3481 0 
L 794 0 
L 794 531 
z
" id="DejaVuSans-31" transform="scale(0.015625)"/>
        <path d="M 2419 4116 
L 825 1625 
L 2419 1625 
L 2419 4116 
z
M 2253 4666 
L 3047 4666 
L 3047 1625 
L 3713 1625 
L 3713 1100 
L 3047 1100 
L 3047 0 
L 2419 0 
L 2419 1100 
L 313 1100 
L 313 1709 
L 2253 4666 
z
" id="DejaVuSans-34" transform="scale(0.015625)"/>
        <path d="M 3328 2828 
Q 3544 3216 3844 3400 
Q 4144 3584 4550 3584 
Q 5097 3584 5394 3201 
Q 5691 2819 5691 2113 
L 5691 0 
L 5113 0 
L 5113 2094 
Q 5113 2597 4934 2840 
Q 4756 3084 4391 3084 
Q 3944 3084 3684 2787 
Q 3425 2491 3425 1978 
L 3425 0 
L 2847 0 
L 2847 2094 
Q 2847 2600 2669 2842 
Q 2491 3084 2119 3084 
Q 1678 3084 1418 2786 
Q 1159 2488 1159 1978 
L 1159 0 
L 581 0 
L 581 3500 
L 1159 3500 
L 1159 2956 
Q 1356 3278 1631 3431 
Q 1906 3584 2284 3584 
Q 2666 3584 2933 3390 
Q 3200 3197 3328 2828 
z
" id="DejaVuSans-6d" transform="scale(0.015625)"/>
       </defs>
       <use xlink:href="#DejaVuSans-31"/>
       <use x="63.623047" xlink:href="#DejaVuSans-34"/>
       <use x="127.246094" xlink:href="#DejaVuSans-6d"/>
      </g>
     </g>
    </g>
    <g id="xtick_2">
     <g id="line2d_2">
      <g>
       <use style="stroke:#000000;stroke-width:0.8;" x="144.822032" xlink:href="#ma1bb862b37" y="288.430125"/>
      </g>
     </g>
     <g id="text_2">
      <!-- 21m -->
      <g transform="translate(133.589219 303.028562)scale(0.1 -0.1)">
       <defs>
        <path d="M 1228 531 
L 3431 531 
L 3431 0 
L 469 0 
L 469 531 
Q 828 903 1448 1529 
Q 2069 2156 2228 2338 
Q 2531 2678 2651 2914 
Q 2772 3150 2772 3378 
Q 2772 3750 2511 3984 
Q 2250 4219 1831 4219 
Q 1534 4219 1204 4116 
Q 875 4013 500 3803 
L 500 4441 
Q 881 4594 1212 4672 
Q 1544 4750 1819 4750 
Q 2544 4750 2975 4387 
Q 3406 4025 3406 3419 
Q 3406 3131 3298 2873 
Q 3191 2616 2906 2266 
Q 2828 2175 2409 1742 
Q 1991 1309 1228 531 
z
" id="DejaVuSans-32" transform="scale(0.015625)"/>
       </defs>
       <use xlink:href="#DejaVuSans-32"/>
       <use x="63.623047" xlink:href="#DejaVuSans-31"/>
       <use x="127.246094" xlink:href="#DejaVuSans-6d"/>
      </g>
     </g>
    </g>
    <g id="xtick_3">
     <g id="line2d_3">
      <g>
       <use style="stroke:#000000;stroke-width:0.8;" x="203.850484" xlink:href="#ma1bb862b37" y="288.430125"/>
      </g>
     </g>
     <g id="text_3">
      <!-- 30m -->
      <g transform="translate(192.617671 303.028562)scale(0.1 -0.1)">
       <defs>
        <path d="M 2597 2516 
Q 3050 2419 3304 2112 
Q 3559 1806 3559 1356 
Q 3559 666 3084 287 
Q 2609 -91 1734 -91 
Q 1441 -91 1130 -33 
Q 819 25 488 141 
L 488 750 
Q 750 597 1062 519 
Q 1375 441 1716 441 
Q 2309 441 2620 675 
Q 2931 909 2931 1356 
Q 2931 1769 2642 2001 
Q 2353 2234 1838 2234 
L 1294 2234 
L 1294 2753 
L 1863 2753 
Q 2328 2753 2575 2939 
Q 2822 3125 2822 3475 
Q 2822 3834 2567 4026 
Q 2313 4219 1838 4219 
Q 1578 4219 1281 4162 
Q 984 4106 628 3988 
L 628 4550 
Q 988 4650 1302 4700 
Q 1616 4750 1894 4750 
Q 2613 4750 3031 4423 
Q 3450 4097 3450 3541 
Q 3450 3153 3228 2886 
Q 3006 2619 2597 2516 
z
" id="DejaVuSans-33" transform="scale(0.015625)"/>
        <path d="M 2034 4250 
Q 1547 4250 1301 3770 
Q 1056 3291 1056 2328 
Q 1056 1369 1301 889 
Q 1547 409 2034 409 
Q 2525 409 2770 889 
Q 3016 1369 3016 2328 
Q 3016 3291 2770 3770 
Q 2525 4250 2034 4250 
z
M 2034 4750 
Q 2819 4750 3233 4129 
Q 3647 3509 3647 2328 
Q 3647 1150 3233 529 
Q 2819 -91 2034 -91 
Q 1250 -91 836 529 
Q 422 1150 422 2328 
Q 422 3509 836 4129 
Q 1250 4750 2034 4750 
z
" id="DejaVuSans-30" transform="scale(0.015625)"/>
       </defs>
       <use xlink:href="#DejaVuSans-33"/>
       <use x="63.623047" xlink:href="#DejaVuSans-30"/>
       <use x="127.246094" xlink:href="#DejaVuSans-6d"/>
      </g>
     </g>
    </g>
    <g id="xtick_4">
     <g id="line2d_4">
      <g>
       <use style="stroke:#000000;stroke-width:0.8;" x="262.878936" xlink:href="#ma1bb862b37" y="288.430125"/>
      </g>
     </g>
     <g id="text_4">
      <!-- 43m -->
      <g transform="translate(251.646123 303.028562)scale(0.1 -0.1)">
       <use xlink:href="#DejaVuSans-34"/>
       <use x="63.623047" xlink:href="#DejaVuSans-33"/>
       <use x="127.246094" xlink:href="#DejaVuSans-6d"/>
      </g>
     </g>
    </g>
    <g id="xtick_5">
     <g id="line2d_5">
      <g>
       <use style="stroke:#000000;stroke-width:0.8;" x="321.907388" xlink:href="#ma1bb862b37" y="288.430125"/>
      </g>
     </g>
     <g id="text_5">
      <!-- 1h:1m -->
      <g transform="translate(305.821451 303.028562)scale(0.1 -0.1)">
       <defs>
        <path d="M 3513 2113 
L 3513 0 
L 2938 0 
L 2938 2094 
Q 2938 2591 2744 2837 
Q 2550 3084 2163 3084 
Q 1697 3084 1428 2787 
Q 1159 2491 1159 1978 
L 1159 0 
L 581 0 
L 581 4863 
L 1159 4863 
L 1159 2956 
Q 1366 3272 1645 3428 
Q 1925 3584 2291 3584 
Q 2894 3584 3203 3211 
Q 3513 2838 3513 2113 
z
" id="DejaVuSans-68" transform="scale(0.015625)"/>
        <path d="M 750 794 
L 1409 794 
L 1409 0 
L 750 0 
L 750 794 
z
M 750 3309 
L 1409 3309 
L 1409 2516 
L 750 2516 
L 750 3309 
z
" id="DejaVuSans-3a" transform="scale(0.015625)"/>
       </defs>
       <use xlink:href="#DejaVuSans-31"/>
       <use x="63.623047" xlink:href="#DejaVuSans-68"/>
       <use x="127.001953" xlink:href="#DejaVuSans-3a"/>
       <use x="160.693359" xlink:href="#DejaVuSans-31"/>
       <use x="224.316406" xlink:href="#DejaVuSans-6d"/>
      </g>
     </g>
    </g>
    <g id="xtick_6">
     <g id="line2d_6">
      <g>
       <use style="stroke:#000000;stroke-width:0.8;" x="380.93584" xlink:href="#ma1bb862b37" y="288.430125"/>
      </g>
     </g>
     <g id="text_6">
      <!-- 1h:27m -->
      <g transform="translate(361.668653 303.028562)scale(0.1 -0.1)">
       <defs>
        <path d="M 525 4666 
L 3525 4666 
L 3525 4397 
L 1831 0 
L 1172 0 
L 2766 4134 
L 525 4134 
L 525 4666 
z
" id="DejaVuSans-37" transform="scale(0.015625)"/>
       </defs>
       <use xlink:href="#DejaVuSans-31"/>
       <use x="63.623047" xlink:href="#DejaVuSans-68"/>
       <use x="127.001953" xlink:href="#DejaVuSans-3a"/>
       <use x="160.693359" xlink:href="#DejaVuSans-32"/>
       <use x="224.316406" xlink:href="#DejaVuSans-37"/>
       <use x="287.939453" xlink:href="#DejaVuSans-6d"/>
      </g>
     </g>
    </g>
    <g id="xtick_7">
     <g id="line2d_7">
      <g>
       <use style="stroke:#000000;stroke-width:0.8;" x="439.964292" xlink:href="#ma1bb862b37" y="288.430125"/>
      </g>
     </g>
     <g id="text_7">
      <!-- 2h:3m -->
      <g transform="translate(423.878355 303.028562)scale(0.1 -0.1)">
       <use xlink:href="#DejaVuSans-32"/>
       <use x="63.623047" xlink:href="#DejaVuSans-68"/>
       <use x="127.001953" xlink:href="#DejaVuSans-3a"/>
       <use x="160.693359" xlink:href="#DejaVuSans-33"/>
       <use x="224.316406" xlink:href="#DejaVuSans-6d"/>
      </g>
     </g>
    </g>
    <g id="xtick_8">
     <g id="line2d_8">
      <g>
       <use style="stroke:#000000;stroke-width:0.8;" x="498.992744" xlink:href="#ma1bb862b37" y="288.430125"/>
      </g>
     </g>
     <g id="text_8">
      <!-- 2h:56m -->
      <g transform="translate(479.725557 303.028562)scale(0.1 -0.1)">
       <defs>
        <path d="M 691 4666 
L 3169 4666 
L 3169 4134 
L 1269 4134 
L 1269 2991 
Q 1406 3038 1543 3061 
Q 1681 3084 1819 3084 
Q 2600 3084 3056 2656 
Q 3513 2228 3513 1497 
Q 3513 744 3044 326 
Q 2575 -91 1722 -91 
Q 1428 -91 1123 -41 
Q 819 9 494 109 
L 494 744 
Q 775 591 1075 516 
Q 1375 441 1709 441 
Q 2250 441 2565 725 
Q 2881 1009 2881 1497 
Q 2881 1984 2565 2268 
Q 2250 2553 1709 2553 
Q 1456 2553 1204 2497 
Q 953 2441 691 2322 
L 691 4666 
z
" id="DejaVuSans-35" transform="scale(0.015625)"/>
        <path d="M 2113 2584 
Q 1688 2584 1439 2293 
Q 1191 2003 1191 1497 
Q 1191 994 1439 701 
Q 1688 409 2113 409 
Q 2538 409 2786 701 
Q 3034 994 3034 1497 
Q 3034 2003 2786 2293 
Q 2538 2584 2113 2584 
z
M 3366 4563 
L 3366 3988 
Q 3128 4100 2886 4159 
Q 2644 4219 2406 4219 
Q 1781 4219 1451 3797 
Q 1122 3375 1075 2522 
Q 1259 2794 1537 2939 
Q 1816 3084 2150 3084 
Q 2853 3084 3261 2657 
Q 3669 2231 3669 1497 
Q 3669 778 3244 343 
Q 2819 -91 2113 -91 
Q 1303 -91 875 529 
Q 447 1150 447 2328 
Q 447 3434 972 4092 
Q 1497 4750 2381 4750 
Q 2619 4750 2861 4703 
Q 3103 4656 3366 4563 
z
" id="DejaVuSans-36" transform="scale(0.015625)"/>
       </defs>
       <use xlink:href="#DejaVuSans-32"/>
       <use x="63.623047" xlink:href="#DejaVuSans-68"/>
       <use x="127.001953" xlink:href="#DejaVuSans-3a"/>
       <use x="160.693359" xlink:href="#DejaVuSans-35"/>
       <use x="224.316406" xlink:href="#DejaVuSans-36"/>
       <use x="287.939453" xlink:href="#DejaVuSans-6d"/>
      </g>
     </g>
    </g>
    <g id="xtick_9">
     <g id="line2d_9">
      <g>
       <use style="stroke:#000000;stroke-width:0.8;" x="558.021197" xlink:href="#ma1bb862b37" y="288.430125"/>
      </g>
     </g>
     <g id="text_9">
      <!-- 4h:10m -->
      <g transform="translate(538.754009 303.028562)scale(0.1 -0.1)">
       <use xlink:href="#DejaVuSans-34"/>
       <use x="63.623047" xlink:href="#DejaVuSans-68"/>
       <use x="127.001953" xlink:href="#DejaVuSans-3a"/>
       <use x="160.693359" xlink:href="#DejaVuSans-31"/>
       <use x="224.316406" xlink:href="#DejaVuSans-30"/>
       <use x="287.939453" xlink:href="#DejaVuSans-6d"/>
      </g>
     </g>
    </g>
    <g id="xtick_10">
     <g id="line2d_10">
      <g>
       <use style="stroke:#000000;stroke-width:0.8;" x="617.049649" xlink:href="#ma1bb862b37" y="288.430125"/>
      </g>
     </g>
     <g id="text_10">
      <!-- 5h:56m -->
      <g transform="translate(597.782461 303.028562)scale(0.1 -0.1)">
       <use xlink:href="#DejaVuSans-35"/>
       <use x="63.623047" xlink:href="#DejaVuSans-68"/>
       <use x="127.001953" xlink:href="#DejaVuSans-3a"/>
       <use x="160.693359" xlink:href="#DejaVuSans-35"/>
       <use x="224.316406" xlink:href="#DejaVuSans-36"/>
       <use x="287.939453" xlink:href="#DejaVuSans-6d"/>
      </g>
     </g>
    </g>
    <g id="xtick_11">
     <g id="line2d_11">
      <g>
       <use style="stroke:#000000;stroke-width:0.8;" x="676.078101" xlink:href="#ma1bb862b37" y="288.430125"/>
      </g>
     </g>
     <g id="text_11">
      <!-- 8h:26m -->
      <g transform="translate(656.810913 303.028562)scale(0.1 -0.1)">
       <defs>
        <path d="M 2034 2216 
Q 1584 2216 1326 1975 
Q 1069 1734 1069 1313 
Q 1069 891 1326 650 
Q 1584 409 2034 409 
Q 2484 409 2743 651 
Q 3003 894 3003 1313 
Q 3003 1734 2745 1975 
Q 2488 2216 2034 2216 
z
M 1403 2484 
Q 997 2584 770 2862 
Q 544 3141 544 3541 
Q 544 4100 942 4425 
Q 1341 4750 2034 4750 
Q 2731 4750 3128 4425 
Q 3525 4100 3525 3541 
Q 3525 3141 3298 2862 
Q 3072 2584 2669 2484 
Q 3125 2378 3379 2068 
Q 3634 1759 3634 1313 
Q 3634 634 3220 271 
Q 2806 -91 2034 -91 
Q 1263 -91 848 271 
Q 434 634 434 1313 
Q 434 1759 690 2068 
Q 947 2378 1403 2484 
z
M 1172 3481 
Q 1172 3119 1398 2916 
Q 1625 2713 2034 2713 
Q 2441 2713 2670 2916 
Q 2900 3119 2900 3481 
Q 2900 3844 2670 4047 
Q 2441 4250 2034 4250 
Q 1625 4250 1398 4047 
Q 1172 3844 1172 3481 
z
" id="DejaVuSans-38" transform="scale(0.015625)"/>
       </defs>
       <use xlink:href="#DejaVuSans-38"/>
       <use x="63.623047" xlink:href="#DejaVuSans-68"/>
       <use x="127.001953" xlink:href="#DejaVuSans-3a"/>
       <use x="160.693359" xlink:href="#DejaVuSans-32"/>
       <use x="224.316406" xlink:href="#DejaVuSans-36"/>
       <use x="287.939453" xlink:href="#DejaVuSans-6d"/>
      </g>
     </g>
    </g>
    <g id="xtick_12">
     <g id="line2d_12">
      <g>
       <use style="stroke:#000000;stroke-width:0.8;" x="735.106553" xlink:href="#ma1bb862b37" y="288.430125"/>
      </g>
     </g>
     <g id="text_12">
      <!-- 12h -->
      <g transform="translate(725.575303 303.028562)scale(0.1 -0.1)">
       <use xlink:href="#DejaVuSans-31"/>
       <use x="63.623047" xlink:href="#DejaVuSans-32"/>
       <use x="127.246094" xlink:href="#DejaVuSans-68"/>
      </g>
     </g>
    </g>
    <g id="xtick_13">
     <g id="line2d_13">
      <defs>
       <path d="M 0 0 
L 0 2 
" id="mc5ae68f6de" style="stroke:#000000;stroke-width:0.6;"/>
      </defs>
      <g>
       <use style="stroke:#000000;stroke-width:0.6;" x="66.038058" xlink:href="#mc5ae68f6de" y="288.430125"/>
      </g>
     </g>
    </g>
    <g id="xtick_14">
     <g id="line2d_14">
      <g>
       <use style="stroke:#000000;stroke-width:0.6;" x="219.725738" xlink:href="#mc5ae68f6de" y="288.430125"/>
      </g>
     </g>
    </g>
    <g id="xtick_15">
     <g id="line2d_15">
      <g>
       <use style="stroke:#000000;stroke-width:0.6;" x="287.73362" xlink:href="#mc5ae68f6de" y="288.430125"/>
      </g>
     </g>
    </g>
    <g id="xtick_16">
     <g id="line2d_16">
      <g>
       <use style="stroke:#000000;stroke-width:0.6;" x="335.98598" xlink:href="#mc5ae68f6de" y="288.430125"/>
      </g>
     </g>
    </g>
    <g id="xtick_17">
     <g id="line2d_17">
      <g>
       <use style="stroke:#000000;stroke-width:0.6;" x="373.413418" xlink:href="#mc5ae68f6de" y="288.430125"/>
      </g>
     </g>
    </g>
    <g id="xtick_18">
     <g id="line2d_18">
      <g>
       <use style="stroke:#000000;stroke-width:0.6;" x="403.993861" xlink:href="#mc5ae68f6de" y="288.430125"/>
      </g>
     </g>
    </g>
    <g id="xtick_19">
     <g id="line2d_19">
      <g>
       <use style="stroke:#000000;stroke-width:0.6;" x="429.849258" xlink:href="#mc5ae68f6de" y="288.430125"/>
      </g>
     </g>
    </g>
    <g id="xtick_20">
     <g id="line2d_20">
      <g>
       <use style="stroke:#000000;stroke-width:0.6;" x="452.246221" xlink:href="#mc5ae68f6de" y="288.430125"/>
      </g>
     </g>
    </g>
    <g id="xtick_21">
     <g id="line2d_21">
      <g>
       <use style="stroke:#000000;stroke-width:0.6;" x="472.001743" xlink:href="#mc5ae68f6de" y="288.430125"/>
      </g>
     </g>
    </g>
    <g id="xtick_22">
     <g id="line2d_22">
      <g>
       <use style="stroke:#000000;stroke-width:0.6;" x="605.933901" xlink:href="#mc5ae68f6de" y="288.430125"/>
      </g>
     </g>
    </g>
    <g id="xtick_23">
     <g id="line2d_23">
      <g>
       <use style="stroke:#000000;stroke-width:0.6;" x="673.941783" xlink:href="#mc5ae68f6de" y="288.430125"/>
      </g>
     </g>
    </g>
    <g id="xtick_24">
     <g id="line2d_24">
      <g>
       <use style="stroke:#000000;stroke-width:0.6;" x="722.194143" xlink:href="#mc5ae68f6de" y="288.430125"/>
      </g>
     </g>
    </g>
    <g id="xtick_25">
     <g id="line2d_25">
      <g>
       <use style="stroke:#000000;stroke-width:0.6;" x="759.621581" xlink:href="#mc5ae68f6de" y="288.430125"/>
      </g>
     </g>
    </g>
    <g id="text_13">
     <!-- Time (hour:minute) -->
     <g transform="translate(362.041094 316.706687)scale(0.1 -0.1)">
      <defs>
       <path d="M -19 4666 
L 3928 4666 
L 3928 4134 
L 2272 4134 
L 2272 0 
L 1638 0 
L 1638 4134 
L -19 4134 
L -19 4666 
z
" id="DejaVuSans-54" transform="scale(0.015625)"/>
       <path d="M 603 3500 
L 1178 3500 
L 1178 0 
L 603 0 
L 603 3500 
z
M 603 4863 
L 1178 4863 
L 1178 4134 
L 603 4134 
L 603 4863 
z
" id="DejaVuSans-69" transform="scale(0.015625)"/>
       <path d="M 3597 1894 
L 3597 1613 
L 953 1613 
Q 991 1019 1311 708 
Q 1631 397 2203 397 
Q 2534 397 2845 478 
Q 3156 559 3463 722 
L 3463 178 
Q 3153 47 2828 -22 
Q 2503 -91 2169 -91 
Q 1331 -91 842 396 
Q 353 884 353 1716 
Q 353 2575 817 3079 
Q 1281 3584 2069 3584 
Q 2775 3584 3186 3129 
Q 3597 2675 3597 1894 
z
M 3022 2063 
Q 3016 2534 2758 2815 
Q 2500 3097 2075 3097 
Q 1594 3097 1305 2825 
Q 1016 2553 972 2059 
L 3022 2063 
z
" id="DejaVuSans-65" transform="scale(0.015625)"/>
       <path id="DejaVuSans-20" transform="scale(0.015625)"/>
       <path d="M 1984 4856 
Q 1566 4138 1362 3434 
Q 1159 2731 1159 2009 
Q 1159 1288 1364 580 
Q 1569 -128 1984 -844 
L 1484 -844 
Q 1016 -109 783 600 
Q 550 1309 550 2009 
Q 550 2706 781 3412 
Q 1013 4119 1484 4856 
L 1984 4856 
z
" id="DejaVuSans-28" transform="scale(0.015625)"/>
       <path d="M 1959 3097 
Q 1497 3097 1228 2736 
Q 959 2375 959 1747 
Q 959 1119 1226 758 
Q 1494 397 1959 397 
Q 2419 397 2687 759 
Q 2956 1122 2956 1747 
Q 2956 2369 2687 2733 
Q 2419 3097 1959 3097 
z
M 1959 3584 
Q 2709 3584 3137 3096 
Q 3566 2609 3566 1747 
Q 3566 888 3137 398 
Q 2709 -91 1959 -91 
Q 1206 -91 779 398 
Q 353 888 353 1747 
Q 353 2609 779 3096 
Q 1206 3584 1959 3584 
z
" id="DejaVuSans-6f" transform="scale(0.015625)"/>
       <path d="M 544 1381 
L 544 3500 
L 1119 3500 
L 1119 1403 
Q 1119 906 1312 657 
Q 1506 409 1894 409 
Q 2359 409 2629 706 
Q 2900 1003 2900 1516 
L 2900 3500 
L 3475 3500 
L 3475 0 
L 2900 0 
L 2900 538 
Q 2691 219 2414 64 
Q 2138 -91 1772 -91 
Q 1169 -91 856 284 
Q 544 659 544 1381 
z
M 1991 3584 
L 1991 3584 
z
" id="DejaVuSans-75" transform="scale(0.015625)"/>
       <path d="M 2631 2963 
Q 2534 3019 2420 3045 
Q 2306 3072 2169 3072 
Q 1681 3072 1420 2755 
Q 1159 2438 1159 1844 
L 1159 0 
L 581 0 
L 581 3500 
L 1159 3500 
L 1159 2956 
Q 1341 3275 1631 3429 
Q 1922 3584 2338 3584 
Q 2397 3584 2469 3576 
Q 2541 3569 2628 3553 
L 2631 2963 
z
" id="DejaVuSans-72" transform="scale(0.015625)"/>
       <path d="M 3513 2113 
L 3513 0 
L 2938 0 
L 2938 2094 
Q 2938 2591 2744 2837 
Q 2550 3084 2163 3084 
Q 1697 3084 1428 2787 
Q 1159 2491 1159 1978 
L 1159 0 
L 581 0 
L 581 3500 
L 1159 3500 
L 1159 2956 
Q 1366 3272 1645 3428 
Q 1925 3584 2291 3584 
Q 2894 3584 3203 3211 
Q 3513 2838 3513 2113 
z
" id="DejaVuSans-6e" transform="scale(0.015625)"/>
       <path d="M 1172 4494 
L 1172 3500 
L 2356 3500 
L 2356 3053 
L 1172 3053 
L 1172 1153 
Q 1172 725 1289 603 
Q 1406 481 1766 481 
L 2356 481 
L 2356 0 
L 1766 0 
Q 1100 0 847 248 
Q 594 497 594 1153 
L 594 3053 
L 172 3053 
L 172 3500 
L 594 3500 
L 594 4494 
L 1172 4494 
z
" id="DejaVuSans-74" transform="scale(0.015625)"/>
       <path d="M 513 4856 
L 1013 4856 
Q 1481 4119 1714 3412 
Q 1947 2706 1947 2009 
Q 1947 1309 1714 600 
Q 1481 -109 1013 -844 
L 513 -844 
Q 928 -128 1133 580 
Q 1338 1288 1338 2009 
Q 1338 2731 1133 3434 
Q 928 4138 513 4856 
z
" id="DejaVuSans-29" transform="scale(0.015625)"/>
      </defs>
      <use xlink:href="#DejaVuSans-54"/>
      <use x="57.958984" xlink:href="#DejaVuSans-69"/>
      <use x="85.742188" xlink:href="#DejaVuSans-6d"/>
      <use x="183.154297" xlink:href="#DejaVuSans-65"/>
      <use x="244.677734" xlink:href="#DejaVuSans-20"/>
      <use x="276.464844" xlink:href="#DejaVuSans-28"/>
      <use x="315.478516" xlink:href="#DejaVuSans-68"/>
      <use x="378.857422" xlink:href="#DejaVuSans-6f"/>
      <use x="440.039062" xlink:href="#DejaVuSans-75"/>
      <use x="503.417969" xlink:href="#DejaVuSans-72"/>
      <use x="542.78125" xlink:href="#DejaVuSans-3a"/>
      <use x="576.472656" xlink:href="#DejaVuSans-6d"/>
      <use x="673.884766" xlink:href="#DejaVuSans-69"/>
      <use x="701.667969" xlink:href="#DejaVuSans-6e"/>
      <use x="765.046875" xlink:href="#DejaVuSans-75"/>
      <use x="828.425781" xlink:href="#DejaVuSans-74"/>
      <use x="867.634766" xlink:href="#DejaVuSans-65"/>
      <use x="929.158203" xlink:href="#DejaVuSans-29"/>
     </g>
    </g>
   </g>
   <g id="matplotlib.axis_2">
    <g id="ytick_1">
     <g id="line2d_26">
      <defs>
       <path d="M 0 0 
L -3.5 0 
" id="me8ec9ff11b" style="stroke:#000000;stroke-width:0.8;"/>
      </defs>
      <g>
       <use style="stroke:#000000;stroke-width:0.8;" x="53.328125" xlink:href="#me8ec9ff11b" y="278.531295"/>
      </g>
     </g>
     <g id="text_14">
      <!-- 0 -->
      <g transform="translate(39.965625 282.330514)scale(0.1 -0.1)">
       <use xlink:href="#DejaVuSans-30"/>
      </g>
     </g>
    </g>
    <g id="ytick_2">
     <g id="line2d_27">
      <g>
       <use style="stroke:#000000;stroke-width:0.8;" x="53.328125" xlink:href="#me8ec9ff11b" y="220.711027"/>
      </g>
     </g>
     <g id="text_15">
      <!-- 500 -->
      <g transform="translate(27.240625 224.510246)scale(0.1 -0.1)">
       <use xlink:href="#DejaVuSans-35"/>
       <use x="63.623047" xlink:href="#DejaVuSans-30"/>
       <use x="127.246094" xlink:href="#DejaVuSans-30"/>
      </g>
     </g>
    </g>
    <g id="ytick_3">
     <g id="line2d_28">
      <g>
       <use style="stroke:#000000;stroke-width:0.8;" x="53.328125" xlink:href="#me8ec9ff11b" y="162.89076"/>
      </g>
     </g>
     <g id="text_16">
      <!-- 1000 -->
      <g transform="translate(20.878125 166.689979)scale(0.1 -0.1)">
       <use xlink:href="#DejaVuSans-31"/>
       <use x="63.623047" xlink:href="#DejaVuSans-30"/>
       <use x="127.246094" xlink:href="#DejaVuSans-30"/>
       <use x="190.869141" xlink:href="#DejaVuSans-30"/>
      </g>
     </g>
    </g>
    <g id="ytick_4">
     <g id="line2d_29">
      <g>
       <use style="stroke:#000000;stroke-width:0.8;" x="53.328125" xlink:href="#me8ec9ff11b" y="105.070492"/>
      </g>
     </g>
     <g id="text_17">
      <!-- 1500 -->
      <g transform="translate(20.878125 108.869711)scale(0.1 -0.1)">
       <use xlink:href="#DejaVuSans-31"/>
       <use x="63.623047" xlink:href="#DejaVuSans-35"/>
       <use x="127.246094" xlink:href="#DejaVuSans-30"/>
       <use x="190.869141" xlink:href="#DejaVuSans-30"/>
      </g>
     </g>
    </g>
    <g id="ytick_5">
     <g id="line2d_30">
      <g>
       <use style="stroke:#000000;stroke-width:0.8;" x="53.328125" xlink:href="#me8ec9ff11b" y="47.250224"/>
      </g>
     </g>
     <g id="text_18">
      <!-- 2000 -->
      <g transform="translate(20.878125 51.049443)scale(0.1 -0.1)">
       <use xlink:href="#DejaVuSans-32"/>
       <use x="63.623047" xlink:href="#DejaVuSans-30"/>
       <use x="127.246094" xlink:href="#DejaVuSans-30"/>
       <use x="190.869141" xlink:href="#DejaVuSans-30"/>
      </g>
     </g>
    </g>
    <g id="text_19">
     <!-- Code region coverage -->
     <g transform="translate(14.798438 210.379594)rotate(-90)scale(0.1 -0.1)">
      <defs>
       <path d="M 4122 4306 
L 4122 3641 
Q 3803 3938 3442 4084 
Q 3081 4231 2675 4231 
Q 1875 4231 1450 3742 
Q 1025 3253 1025 2328 
Q 1025 1406 1450 917 
Q 1875 428 2675 428 
Q 3081 428 3442 575 
Q 3803 722 4122 1019 
L 4122 359 
Q 3791 134 3420 21 
Q 3050 -91 2638 -91 
Q 1578 -91 968 557 
Q 359 1206 359 2328 
Q 359 3453 968 4101 
Q 1578 4750 2638 4750 
Q 3056 4750 3426 4639 
Q 3797 4528 4122 4306 
z
" id="DejaVuSans-43" transform="scale(0.015625)"/>
       <path d="M 2906 2969 
L 2906 4863 
L 3481 4863 
L 3481 0 
L 2906 0 
L 2906 525 
Q 2725 213 2448 61 
Q 2172 -91 1784 -91 
Q 1150 -91 751 415 
Q 353 922 353 1747 
Q 353 2572 751 3078 
Q 1150 3584 1784 3584 
Q 2172 3584 2448 3432 
Q 2725 3281 2906 2969 
z
M 947 1747 
Q 947 1113 1208 752 
Q 1469 391 1925 391 
Q 2381 391 2643 752 
Q 2906 1113 2906 1747 
Q 2906 2381 2643 2742 
Q 2381 3103 1925 3103 
Q 1469 3103 1208 2742 
Q 947 2381 947 1747 
z
" id="DejaVuSans-64" transform="scale(0.015625)"/>
       <path d="M 2906 1791 
Q 2906 2416 2648 2759 
Q 2391 3103 1925 3103 
Q 1463 3103 1205 2759 
Q 947 2416 947 1791 
Q 947 1169 1205 825 
Q 1463 481 1925 481 
Q 2391 481 2648 825 
Q 2906 1169 2906 1791 
z
M 3481 434 
Q 3481 -459 3084 -895 
Q 2688 -1331 1869 -1331 
Q 1566 -1331 1297 -1286 
Q 1028 -1241 775 -1147 
L 775 -588 
Q 1028 -725 1275 -790 
Q 1522 -856 1778 -856 
Q 2344 -856 2625 -561 
Q 2906 -266 2906 331 
L 2906 616 
Q 2728 306 2450 153 
Q 2172 0 1784 0 
Q 1141 0 747 490 
Q 353 981 353 1791 
Q 353 2603 747 3093 
Q 1141 3584 1784 3584 
Q 2172 3584 2450 3431 
Q 2728 3278 2906 2969 
L 2906 3500 
L 3481 3500 
L 3481 434 
z
" id="DejaVuSans-67" transform="scale(0.015625)"/>
       <path d="M 3122 3366 
L 3122 2828 
Q 2878 2963 2633 3030 
Q 2388 3097 2138 3097 
Q 1578 3097 1268 2742 
Q 959 2388 959 1747 
Q 959 1106 1268 751 
Q 1578 397 2138 397 
Q 2388 397 2633 464 
Q 2878 531 3122 666 
L 3122 134 
Q 2881 22 2623 -34 
Q 2366 -91 2075 -91 
Q 1284 -91 818 406 
Q 353 903 353 1747 
Q 353 2603 823 3093 
Q 1294 3584 2113 3584 
Q 2378 3584 2631 3529 
Q 2884 3475 3122 3366 
z
" id="DejaVuSans-63" transform="scale(0.015625)"/>
       <path d="M 191 3500 
L 800 3500 
L 1894 563 
L 2988 3500 
L 3597 3500 
L 2284 0 
L 1503 0 
L 191 3500 
z
" id="DejaVuSans-76" transform="scale(0.015625)"/>
       <path d="M 2194 1759 
Q 1497 1759 1228 1600 
Q 959 1441 959 1056 
Q 959 750 1161 570 
Q 1363 391 1709 391 
Q 2188 391 2477 730 
Q 2766 1069 2766 1631 
L 2766 1759 
L 2194 1759 
z
M 3341 1997 
L 3341 0 
L 2766 0 
L 2766 531 
Q 2569 213 2275 61 
Q 1981 -91 1556 -91 
Q 1019 -91 701 211 
Q 384 513 384 1019 
Q 384 1609 779 1909 
Q 1175 2209 1959 2209 
L 2766 2209 
L 2766 2266 
Q 2766 2663 2505 2880 
Q 2244 3097 1772 3097 
Q 1472 3097 1187 3025 
Q 903 2953 641 2809 
L 641 3341 
Q 956 3463 1253 3523 
Q 1550 3584 1831 3584 
Q 2591 3584 2966 3190 
Q 3341 2797 3341 1997 
z
" id="DejaVuSans-61" transform="scale(0.015625)"/>
      </defs>
      <use xlink:href="#DejaVuSans-43"/>
      <use x="69.824219" xlink:href="#DejaVuSans-6f"/>
      <use x="131.005859" xlink:href="#DejaVuSans-64"/>
      <use x="194.482422" xlink:href="#DejaVuSans-65"/>
      <use x="256.005859" xlink:href="#DejaVuSans-20"/>
      <use x="287.792969" xlink:href="#DejaVuSans-72"/>
      <use x="326.65625" xlink:href="#DejaVuSans-65"/>
      <use x="388.179688" xlink:href="#DejaVuSans-67"/>
      <use x="451.65625" xlink:href="#DejaVuSans-69"/>
      <use x="479.439453" xlink:href="#DejaVuSans-6f"/>
      <use x="540.621094" xlink:href="#DejaVuSans-6e"/>
      <use x="604" xlink:href="#DejaVuSans-20"/>
      <use x="635.787109" xlink:href="#DejaVuSans-63"/>
      <use x="690.767578" xlink:href="#DejaVuSans-6f"/>
      <use x="751.949219" xlink:href="#DejaVuSans-76"/>
      <use x="811.128906" xlink:href="#DejaVuSans-65"/>
      <use x="872.652344" xlink:href="#DejaVuSans-72"/>
      <use x="913.765625" xlink:href="#DejaVuSans-61"/>
      <use x="975.044922" xlink:href="#DejaVuSans-67"/>
      <use x="1038.521484" xlink:href="#DejaVuSans-65"/>
     </g>
    </g>
   </g>
   <g id="line2d_31">
    <path clip-path="url(#paa34f53530)" d="M 85.79358 50.488159 
L 202.053821 43.665368 
L 270.061703 39.155387 
L 318.314063 39.155387 
L 355.741501 39.039746 
L 386.321945 37.536419 
L 412.177342 37.536419 
L 434.574305 37.536419 
L 454.329827 37.536419 
L 472.001743 37.420779 
L 487.987936 37.420779 
L 502.582187 37.305138 
L 516.007596 37.305138 
L 528.437583 37.305138 
L 540.009625 37.305138 
L 550.834547 37.305138 
L 561.002998 37.305138 
L 570.590069 37.305138 
L 579.65866 37.305138 
L 588.261985 37.305138 
L 596.445465 37.305138 
L 604.248178 37.305138 
L 611.703986 37.305138 
L 618.842429 37.305138 
L 625.689423 37.305138 
L 632.267838 37.305138 
L 638.59795 37.305138 
L 644.697825 37.305138 
L 650.583625 37.305138 
L 656.269867 37.305138 
L 661.769641 37.305138 
L 667.094789 37.305138 
L 672.25606 37.305138 
L 677.26324 37.189498 
L 682.125263 37.189498 
L 686.85031 37.189498 
L 691.445888 37.189498 
L 695.918901 37.189498 
L 700.27572 37.189498 
L 704.522227 37.189498 
L 708.663871 37.189498 
L 712.705707 37.189498 
L 716.652432 37.189498 
L 720.50842 37.189498 
L 724.277749 37.189498 
L 727.964228 37.189498 
L 731.571423 37.189498 
L 735.10267 37.189498 
" style="fill:none;stroke:#d62728;stroke-linecap:square;stroke-width:1.5;"/>
    <defs>
     <path d="M 0 -3 
L -3 3 
L 3 3 
z
" id="m30458c2ef0" style="stroke:#ffffff;stroke-linejoin:miter;stroke-width:0.75;"/>
    </defs>
    <g clip-path="url(#paa34f53530)">
     <use style="fill:#d62728;stroke:#ffffff;stroke-linejoin:miter;stroke-width:0.75;" x="85.79358" xlink:href="#m30458c2ef0" y="50.488159"/>
     <use style="fill:#d62728;stroke:#ffffff;stroke-linejoin:miter;stroke-width:0.75;" x="202.053821" xlink:href="#m30458c2ef0" y="43.665368"/>
     <use style="fill:#d62728;stroke:#ffffff;stroke-linejoin:miter;stroke-width:0.75;" x="270.061703" xlink:href="#m30458c2ef0" y="39.155387"/>
     <use style="fill:#d62728;stroke:#ffffff;stroke-linejoin:miter;stroke-width:0.75;" x="318.314063" xlink:href="#m30458c2ef0" y="39.155387"/>
     <use style="fill:#d62728;stroke:#ffffff;stroke-linejoin:miter;stroke-width:0.75;" x="355.741501" xlink:href="#m30458c2ef0" y="39.039746"/>
     <use style="fill:#d62728;stroke:#ffffff;stroke-linejoin:miter;stroke-width:0.75;" x="386.321945" xlink:href="#m30458c2ef0" y="37.536419"/>
     <use style="fill:#d62728;stroke:#ffffff;stroke-linejoin:miter;stroke-width:0.75;" x="412.177342" xlink:href="#m30458c2ef0" y="37.536419"/>
     <use style="fill:#d62728;stroke:#ffffff;stroke-linejoin:miter;stroke-width:0.75;" x="434.574305" xlink:href="#m30458c2ef0" y="37.536419"/>
     <use style="fill:#d62728;stroke:#ffffff;stroke-linejoin:miter;stroke-width:0.75;" x="454.329827" xlink:href="#m30458c2ef0" y="37.536419"/>
     <use style="fill:#d62728;stroke:#ffffff;stroke-linejoin:miter;stroke-width:0.75;" x="472.001743" xlink:href="#m30458c2ef0" y="37.420779"/>
     <use style="fill:#d62728;stroke:#ffffff;stroke-linejoin:miter;stroke-width:0.75;" x="487.987936" xlink:href="#m30458c2ef0" y="37.420779"/>
     <use style="fill:#d62728;stroke:#ffffff;stroke-linejoin:miter;stroke-width:0.75;" x="502.582187" xlink:href="#m30458c2ef0" y="37.305138"/>
     <use style="fill:#d62728;stroke:#ffffff;stroke-linejoin:miter;stroke-width:0.75;" x="516.007596" xlink:href="#m30458c2ef0" y="37.305138"/>
     <use style="fill:#d62728;stroke:#ffffff;stroke-linejoin:miter;stroke-width:0.75;" x="528.437583" xlink:href="#m30458c2ef0" y="37.305138"/>
     <use style="fill:#d62728;stroke:#ffffff;stroke-linejoin:miter;stroke-width:0.75;" x="540.009625" xlink:href="#m30458c2ef0" y="37.305138"/>
     <use style="fill:#d62728;stroke:#ffffff;stroke-linejoin:miter;stroke-width:0.75;" x="550.834547" xlink:href="#m30458c2ef0" y="37.305138"/>
     <use style="fill:#d62728;stroke:#ffffff;stroke-linejoin:miter;stroke-width:0.75;" x="561.002998" xlink:href="#m30458c2ef0" y="37.305138"/>
     <use style="fill:#d62728;stroke:#ffffff;stroke-linejoin:miter;stroke-width:0.75;" x="570.590069" xlink:href="#m30458c2ef0" y="37.305138"/>
     <use style="fill:#d62728;stroke:#ffffff;stroke-linejoin:miter;stroke-width:0.75;" x="579.65866" xlink:href="#m30458c2ef0" y="37.305138"/>
     <use style="fill:#d62728;stroke:#ffffff;stroke-linejoin:miter;stroke-width:0.75;" x="588.261985" xlink:href="#m30458c2ef0" y="37.305138"/>
     <use style="fill:#d62728;stroke:#ffffff;stroke-linejoin:miter;stroke-width:0.75;" x="596.445465" xlink:href="#m30458c2ef0" y="37.305138"/>
     <use style="fill:#d62728;stroke:#ffffff;stroke-linejoin:miter;stroke-width:0.75;" x="604.248178" xlink:href="#m30458c2ef0" y="37.305138"/>
     <use style="fill:#d62728;stroke:#ffffff;stroke-linejoin:miter;stroke-width:0.75;" x="611.703986" xlink:href="#m30458c2ef0" y="37.305138"/>
     <use style="fill:#d62728;stroke:#ffffff;stroke-linejoin:miter;stroke-width:0.75;" x="618.842429" xlink:href="#m30458c2ef0" y="37.305138"/>
     <use style="fill:#d62728;stroke:#ffffff;stroke-linejoin:miter;stroke-width:0.75;" x="625.689423" xlink:href="#m30458c2ef0" y="37.305138"/>
     <use style="fill:#d62728;stroke:#ffffff;stroke-linejoin:miter;stroke-width:0.75;" x="632.267838" xlink:href="#m30458c2ef0" y="37.305138"/>
     <use style="fill:#d62728;stroke:#ffffff;stroke-linejoin:miter;stroke-width:0.75;" x="638.59795" xlink:href="#m30458c2ef0" y="37.305138"/>
     <use style="fill:#d62728;stroke:#ffffff;stroke-linejoin:miter;stroke-width:0.75;" x="644.697825" xlink:href="#m30458c2ef0" y="37.305138"/>
     <use style="fill:#d62728;stroke:#ffffff;stroke-linejoin:miter;stroke-width:0.75;" x="650.583625" xlink:href="#m30458c2ef0" y="37.305138"/>
     <use style="fill:#d62728;stroke:#ffffff;stroke-linejoin:miter;stroke-width:0.75;" x="656.269867" xlink:href="#m30458c2ef0" y="37.305138"/>
     <use style="fill:#d62728;stroke:#ffffff;stroke-linejoin:miter;stroke-width:0.75;" x="661.769641" xlink:href="#m30458c2ef0" y="37.305138"/>
     <use style="fill:#d62728;stroke:#ffffff;stroke-linejoin:miter;stroke-width:0.75;" x="667.094789" xlink:href="#m30458c2ef0" y="37.305138"/>
     <use style="fill:#d62728;stroke:#ffffff;stroke-linejoin:miter;stroke-width:0.75;" x="672.25606" xlink:href="#m30458c2ef0" y="37.305138"/>
     <use style="fill:#d62728;stroke:#ffffff;stroke-linejoin:miter;stroke-width:0.75;" x="677.26324" xlink:href="#m30458c2ef0" y="37.189498"/>
     <use style="fill:#d62728;stroke:#ffffff;stroke-linejoin:miter;stroke-width:0.75;" x="682.125263" xlink:href="#m30458c2ef0" y="37.189498"/>
     <use style="fill:#d62728;stroke:#ffffff;stroke-linejoin:miter;stroke-width:0.75;" x="686.85031" xlink:href="#m30458c2ef0" y="37.189498"/>
     <use style="fill:#d62728;stroke:#ffffff;stroke-linejoin:miter;stroke-width:0.75;" x="691.445888" xlink:href="#m30458c2ef0" y="37.189498"/>
     <use style="fill:#d62728;stroke:#ffffff;stroke-linejoin:miter;stroke-width:0.75;" x="695.918901" xlink:href="#m30458c2ef0" y="37.189498"/>
     <use style="fill:#d62728;stroke:#ffffff;stroke-linejoin:miter;stroke-width:0.75;" x="700.27572" xlink:href="#m30458c2ef0" y="37.189498"/>
     <use style="fill:#d62728;stroke:#ffffff;stroke-linejoin:miter;stroke-width:0.75;" x="704.522227" xlink:href="#m30458c2ef0" y="37.189498"/>
     <use style="fill:#d62728;stroke:#ffffff;stroke-linejoin:miter;stroke-width:0.75;" x="708.663871" xlink:href="#m30458c2ef0" y="37.189498"/>
     <use style="fill:#d62728;stroke:#ffffff;stroke-linejoin:miter;stroke-width:0.75;" x="712.705707" xlink:href="#m30458c2ef0" y="37.189498"/>
     <use style="fill:#d62728;stroke:#ffffff;stroke-linejoin:miter;stroke-width:0.75;" x="716.652432" xlink:href="#m30458c2ef0" y="37.189498"/>
     <use style="fill:#d62728;stroke:#ffffff;stroke-linejoin:miter;stroke-width:0.75;" x="720.50842" xlink:href="#m30458c2ef0" y="37.189498"/>
     <use style="fill:#d62728;stroke:#ffffff;stroke-linejoin:miter;stroke-width:0.75;" x="724.277749" xlink:href="#m30458c2ef0" y="37.189498"/>
     <use style="fill:#d62728;stroke:#ffffff;stroke-linejoin:miter;stroke-width:0.75;" x="727.964228" xlink:href="#m30458c2ef0" y="37.189498"/>
     <use style="fill:#d62728;stroke:#ffffff;stroke-linejoin:miter;stroke-width:0.75;" x="731.571423" xlink:href="#m30458c2ef0" y="37.189498"/>
     <use style="fill:#d62728;stroke:#ffffff;stroke-linejoin:miter;stroke-width:0.75;" x="735.10267" xlink:href="#m30458c2ef0" y="37.189498"/>
    </g>
   </g>
   <g id="line2d_32">
    <path clip-path="url(#paa34f53530)" d="M 85.79358 62.514775 
L 202.053821 57.19531 
L 270.061703 55.113781 
L 318.314063 54.419938 
L 355.741501 54.419938 
L 386.321945 54.073016 
L 412.177342 54.073016 
L 434.574305 53.957375 
L 454.329827 53.957375 
L 472.001743 53.957375 
L 487.987936 53.957375 
L 502.582187 53.841735 
L 516.007596 53.841735 
L 528.437583 53.841735 
L 540.009625 53.841735 
L 550.834547 53.841735 
L 561.002998 53.841735 
L 570.590069 53.841735 
L 579.65866 53.841735 
L 588.261985 53.841735 
L 596.445465 53.841735 
L 604.248178 53.841735 
L 611.703986 53.726094 
L 618.842429 53.726094 
L 625.689423 53.726094 
L 632.267838 53.726094 
L 638.59795 53.726094 
L 644.697825 53.726094 
L 650.583625 53.726094 
L 656.269867 53.726094 
L 661.769641 53.726094 
L 667.094789 53.726094 
L 672.25606 53.726094 
L 677.26324 53.726094 
L 682.125263 53.726094 
L 686.85031 53.726094 
L 691.445888 53.726094 
L 695.918901 53.726094 
L 700.27572 53.726094 
L 704.522227 53.726094 
L 708.663871 53.726094 
L 712.705707 53.726094 
L 716.652432 53.726094 
L 720.50842 53.726094 
L 724.277749 53.726094 
L 727.964228 53.726094 
L 731.571423 53.726094 
L 735.10267 53.726094 
" style="fill:none;stroke:#1f77b4;stroke-linecap:square;stroke-width:1.5;"/>
    <defs>
     <path d="M 0 3 
C 0.795609 3 1.55874 2.683901 2.12132 2.12132 
C 2.683901 1.55874 3 0.795609 3 0 
C 3 -0.795609 2.683901 -1.55874 2.12132 -2.12132 
C 1.55874 -2.683901 0.795609 -3 0 -3 
C -0.795609 -3 -1.55874 -2.683901 -2.12132 -2.12132 
C -2.683901 -1.55874 -3 -0.795609 -3 0 
C -3 0.795609 -2.683901 1.55874 -2.12132 2.12132 
C -1.55874 2.683901 -0.795609 3 0 3 
z
" id="mc3a175998e" style="stroke:#ffffff;stroke-width:0.75;"/>
    </defs>
    <g clip-path="url(#paa34f53530)">
     <use style="fill:#1f77b4;stroke:#ffffff;stroke-width:0.75;" x="85.79358" xlink:href="#mc3a175998e" y="62.514775"/>
     <use style="fill:#1f77b4;stroke:#ffffff;stroke-width:0.75;" x="202.053821" xlink:href="#mc3a175998e" y="57.19531"/>
     <use style="fill:#1f77b4;stroke:#ffffff;stroke-width:0.75;" x="270.061703" xlink:href="#mc3a175998e" y="55.113781"/>
     <use style="fill:#1f77b4;stroke:#ffffff;stroke-width:0.75;" x="318.314063" xlink:href="#mc3a175998e" y="54.419938"/>
     <use style="fill:#1f77b4;stroke:#ffffff;stroke-width:0.75;" x="355.741501" xlink:href="#mc3a175998e" y="54.419938"/>
     <use style="fill:#1f77b4;stroke:#ffffff;stroke-width:0.75;" x="386.321945" xlink:href="#mc3a175998e" y="54.073016"/>
     <use style="fill:#1f77b4;stroke:#ffffff;stroke-width:0.75;" x="412.177342" xlink:href="#mc3a175998e" y="54.073016"/>
     <use style="fill:#1f77b4;stroke:#ffffff;stroke-width:0.75;" x="434.574305" xlink:href="#mc3a175998e" y="53.957375"/>
     <use style="fill:#1f77b4;stroke:#ffffff;stroke-width:0.75;" x="454.329827" xlink:href="#mc3a175998e" y="53.957375"/>
     <use style="fill:#1f77b4;stroke:#ffffff;stroke-width:0.75;" x="472.001743" xlink:href="#mc3a175998e" y="53.957375"/>
     <use style="fill:#1f77b4;stroke:#ffffff;stroke-width:0.75;" x="487.987936" xlink:href="#mc3a175998e" y="53.957375"/>
     <use style="fill:#1f77b4;stroke:#ffffff;stroke-width:0.75;" x="502.582187" xlink:href="#mc3a175998e" y="53.841735"/>
     <use style="fill:#1f77b4;stroke:#ffffff;stroke-width:0.75;" x="516.007596" xlink:href="#mc3a175998e" y="53.841735"/>
     <use style="fill:#1f77b4;stroke:#ffffff;stroke-width:0.75;" x="528.437583" xlink:href="#mc3a175998e" y="53.841735"/>
     <use style="fill:#1f77b4;stroke:#ffffff;stroke-width:0.75;" x="540.009625" xlink:href="#mc3a175998e" y="53.841735"/>
     <use style="fill:#1f77b4;stroke:#ffffff;stroke-width:0.75;" x="550.834547" xlink:href="#mc3a175998e" y="53.841735"/>
     <use style="fill:#1f77b4;stroke:#ffffff;stroke-width:0.75;" x="561.002998" xlink:href="#mc3a175998e" y="53.841735"/>
     <use style="fill:#1f77b4;stroke:#ffffff;stroke-width:0.75;" x="570.590069" xlink:href="#mc3a175998e" y="53.841735"/>
     <use style="fill:#1f77b4;stroke:#ffffff;stroke-width:0.75;" x="579.65866" xlink:href="#mc3a175998e" y="53.841735"/>
     <use style="fill:#1f77b4;stroke:#ffffff;stroke-width:0.75;" x="588.261985" xlink:href="#mc3a175998e" y="53.841735"/>
     <use style="fill:#1f77b4;stroke:#ffffff;stroke-width:0.75;" x="596.445465" xlink:href="#mc3a175998e" y="53.841735"/>
     <use style="fill:#1f77b4;stroke:#ffffff;stroke-width:0.75;" x="604.248178" xlink:href="#mc3a175998e" y="53.841735"/>
     <use style="fill:#1f77b4;stroke:#ffffff;stroke-width:0.75;" x="611.703986" xlink:href="#mc3a175998e" y="53.726094"/>
     <use style="fill:#1f77b4;stroke:#ffffff;stroke-width:0.75;" x="618.842429" xlink:href="#mc3a175998e" y="53.726094"/>
     <use style="fill:#1f77b4;stroke:#ffffff;stroke-width:0.75;" x="625.689423" xlink:href="#mc3a175998e" y="53.726094"/>
     <use style="fill:#1f77b4;stroke:#ffffff;stroke-width:0.75;" x="632.267838" xlink:href="#mc3a175998e" y="53.726094"/>
     <use style="fill:#1f77b4;stroke:#ffffff;stroke-width:0.75;" x="638.59795" xlink:href="#mc3a175998e" y="53.726094"/>
     <use style="fill:#1f77b4;stroke:#ffffff;stroke-width:0.75;" x="644.697825" xlink:href="#mc3a175998e" y="53.726094"/>
     <use style="fill:#1f77b4;stroke:#ffffff;stroke-width:0.75;" x="650.583625" xlink:href="#mc3a175998e" y="53.726094"/>
     <use style="fill:#1f77b4;stroke:#ffffff;stroke-width:0.75;" x="656.269867" xlink:href="#mc3a175998e" y="53.726094"/>
     <use style="fill:#1f77b4;stroke:#ffffff;stroke-width:0.75;" x="661.769641" xlink:href="#mc3a175998e" y="53.726094"/>
     <use style="fill:#1f77b4;stroke:#ffffff;stroke-width:0.75;" x="667.094789" xlink:href="#mc3a175998e" y="53.726094"/>
     <use style="fill:#1f77b4;stroke:#ffffff;stroke-width:0.75;" x="672.25606" xlink:href="#mc3a175998e" y="53.726094"/>
     <use style="fill:#1f77b4;stroke:#ffffff;stroke-width:0.75;" x="677.26324" xlink:href="#mc3a175998e" y="53.726094"/>
     <use style="fill:#1f77b4;stroke:#ffffff;stroke-width:0.75;" x="682.125263" xlink:href="#mc3a175998e" y="53.726094"/>
     <use style="fill:#1f77b4;stroke:#ffffff;stroke-width:0.75;" x="686.85031" xlink:href="#mc3a175998e" y="53.726094"/>
     <use style="fill:#1f77b4;stroke:#ffffff;stroke-width:0.75;" x="691.445888" xlink:href="#mc3a175998e" y="53.726094"/>
     <use style="fill:#1f77b4;stroke:#ffffff;stroke-width:0.75;" x="695.918901" xlink:href="#mc3a175998e" y="53.726094"/>
     <use style="fill:#1f77b4;stroke:#ffffff;stroke-width:0.75;" x="700.27572" xlink:href="#mc3a175998e" y="53.726094"/>
     <use style="fill:#1f77b4;stroke:#ffffff;stroke-width:0.75;" x="704.522227" xlink:href="#mc3a175998e" y="53.726094"/>
     <use style="fill:#1f77b4;stroke:#ffffff;stroke-width:0.75;" x="708.663871" xlink:href="#mc3a175998e" y="53.726094"/>
     <use style="fill:#1f77b4;stroke:#ffffff;stroke-width:0.75;" x="712.705707" xlink:href="#mc3a175998e" y="53.726094"/>
     <use style="fill:#1f77b4;stroke:#ffffff;stroke-width:0.75;" x="716.652432" xlink:href="#mc3a175998e" y="53.726094"/>
     <use style="fill:#1f77b4;stroke:#ffffff;stroke-width:0.75;" x="720.50842" xlink:href="#mc3a175998e" y="53.726094"/>
     <use style="fill:#1f77b4;stroke:#ffffff;stroke-width:0.75;" x="724.277749" xlink:href="#mc3a175998e" y="53.726094"/>
     <use style="fill:#1f77b4;stroke:#ffffff;stroke-width:0.75;" x="727.964228" xlink:href="#mc3a175998e" y="53.726094"/>
     <use style="fill:#1f77b4;stroke:#ffffff;stroke-width:0.75;" x="731.571423" xlink:href="#mc3a175998e" y="53.726094"/>
     <use style="fill:#1f77b4;stroke:#ffffff;stroke-width:0.75;" x="735.10267" xlink:href="#mc3a175998e" y="53.726094"/>
    </g>
   </g>
   <g id="line2d_33">
    <path clip-path="url(#paa34f53530)" d="M 85.79358 64.711945 
L 202.053821 60.780167 
L 270.061703 60.548886 
L 318.314063 60.201964 
L 355.741501 54.8825 
L 386.321945 54.8825 
L 412.177342 54.8825 
L 434.574305 54.8825 
L 454.329827 54.766859 
L 472.001743 54.188657 
L 487.987936 54.188657 
L 502.582187 54.188657 
L 516.007596 54.188657 
L 528.437583 54.188657 
L 540.009625 53.957375 
L 550.834547 53.957375 
L 561.002998 53.957375 
L 570.590069 53.957375 
L 579.65866 53.957375 
L 588.261985 53.957375 
L 596.445465 53.957375 
L 604.248178 53.957375 
L 611.703986 53.957375 
L 618.842429 53.957375 
L 625.689423 53.957375 
L 632.267838 53.957375 
L 638.59795 53.957375 
L 644.697825 53.957375 
L 650.583625 53.957375 
L 656.269867 53.957375 
L 661.769641 53.957375 
L 667.094789 53.957375 
L 672.25606 53.957375 
L 677.26324 53.957375 
L 682.125263 53.957375 
L 686.85031 53.957375 
L 691.445888 53.957375 
L 695.918901 53.957375 
L 700.27572 53.957375 
L 704.522227 53.957375 
L 708.663871 53.957375 
L 712.705707 53.957375 
L 716.652432 53.957375 
L 720.50842 53.957375 
L 724.277749 53.957375 
L 727.964228 53.957375 
L 731.571423 53.957375 
L 735.10267 53.957375 
" style="fill:none;stroke:#98df8a;stroke-linecap:square;stroke-width:1.5;"/>
    <defs>
     <path d="M -0 3 
L 3 -3 
L -3 -3 
z
" id="m6574c2f295" style="stroke:#ffffff;stroke-linejoin:miter;stroke-width:0.75;"/>
    </defs>
    <g clip-path="url(#paa34f53530)">
     <use style="fill:#98df8a;stroke:#ffffff;stroke-linejoin:miter;stroke-width:0.75;" x="85.79358" xlink:href="#m6574c2f295" y="64.711945"/>
     <use style="fill:#98df8a;stroke:#ffffff;stroke-linejoin:miter;stroke-width:0.75;" x="202.053821" xlink:href="#m6574c2f295" y="60.780167"/>
     <use style="fill:#98df8a;stroke:#ffffff;stroke-linejoin:miter;stroke-width:0.75;" x="270.061703" xlink:href="#m6574c2f295" y="60.548886"/>
     <use style="fill:#98df8a;stroke:#ffffff;stroke-linejoin:miter;stroke-width:0.75;" x="318.314063" xlink:href="#m6574c2f295" y="60.201964"/>
     <use style="fill:#98df8a;stroke:#ffffff;stroke-linejoin:miter;stroke-width:0.75;" x="355.741501" xlink:href="#m6574c2f295" y="54.8825"/>
     <use style="fill:#98df8a;stroke:#ffffff;stroke-linejoin:miter;stroke-width:0.75;" x="386.321945" xlink:href="#m6574c2f295" y="54.8825"/>
     <use style="fill:#98df8a;stroke:#ffffff;stroke-linejoin:miter;stroke-width:0.75;" x="412.177342" xlink:href="#m6574c2f295" y="54.8825"/>
     <use style="fill:#98df8a;stroke:#ffffff;stroke-linejoin:miter;stroke-width:0.75;" x="434.574305" xlink:href="#m6574c2f295" y="54.8825"/>
     <use style="fill:#98df8a;stroke:#ffffff;stroke-linejoin:miter;stroke-width:0.75;" x="454.329827" xlink:href="#m6574c2f295" y="54.766859"/>
     <use style="fill:#98df8a;stroke:#ffffff;stroke-linejoin:miter;stroke-width:0.75;" x="472.001743" xlink:href="#m6574c2f295" y="54.188657"/>
     <use style="fill:#98df8a;stroke:#ffffff;stroke-linejoin:miter;stroke-width:0.75;" x="487.987936" xlink:href="#m6574c2f295" y="54.188657"/>
     <use style="fill:#98df8a;stroke:#ffffff;stroke-linejoin:miter;stroke-width:0.75;" x="502.582187" xlink:href="#m6574c2f295" y="54.188657"/>
     <use style="fill:#98df8a;stroke:#ffffff;stroke-linejoin:miter;stroke-width:0.75;" x="516.007596" xlink:href="#m6574c2f295" y="54.188657"/>
     <use style="fill:#98df8a;stroke:#ffffff;stroke-linejoin:miter;stroke-width:0.75;" x="528.437583" xlink:href="#m6574c2f295" y="54.188657"/>
     <use style="fill:#98df8a;stroke:#ffffff;stroke-linejoin:miter;stroke-width:0.75;" x="540.009625" xlink:href="#m6574c2f295" y="53.957375"/>
     <use style="fill:#98df8a;stroke:#ffffff;stroke-linejoin:miter;stroke-width:0.75;" x="550.834547" xlink:href="#m6574c2f295" y="53.957375"/>
     <use style="fill:#98df8a;stroke:#ffffff;stroke-linejoin:miter;stroke-width:0.75;" x="561.002998" xlink:href="#m6574c2f295" y="53.957375"/>
     <use style="fill:#98df8a;stroke:#ffffff;stroke-linejoin:miter;stroke-width:0.75;" x="570.590069" xlink:href="#m6574c2f295" y="53.957375"/>
     <use style="fill:#98df8a;stroke:#ffffff;stroke-linejoin:miter;stroke-width:0.75;" x="579.65866" xlink:href="#m6574c2f295" y="53.957375"/>
     <use style="fill:#98df8a;stroke:#ffffff;stroke-linejoin:miter;stroke-width:0.75;" x="588.261985" xlink:href="#m6574c2f295" y="53.957375"/>
     <use style="fill:#98df8a;stroke:#ffffff;stroke-linejoin:miter;stroke-width:0.75;" x="596.445465" xlink:href="#m6574c2f295" y="53.957375"/>
     <use style="fill:#98df8a;stroke:#ffffff;stroke-linejoin:miter;stroke-width:0.75;" x="604.248178" xlink:href="#m6574c2f295" y="53.957375"/>
     <use style="fill:#98df8a;stroke:#ffffff;stroke-linejoin:miter;stroke-width:0.75;" x="611.703986" xlink:href="#m6574c2f295" y="53.957375"/>
     <use style="fill:#98df8a;stroke:#ffffff;stroke-linejoin:miter;stroke-width:0.75;" x="618.842429" xlink:href="#m6574c2f295" y="53.957375"/>
     <use style="fill:#98df8a;stroke:#ffffff;stroke-linejoin:miter;stroke-width:0.75;" x="625.689423" xlink:href="#m6574c2f295" y="53.957375"/>
     <use style="fill:#98df8a;stroke:#ffffff;stroke-linejoin:miter;stroke-width:0.75;" x="632.267838" xlink:href="#m6574c2f295" y="53.957375"/>
     <use style="fill:#98df8a;stroke:#ffffff;stroke-linejoin:miter;stroke-width:0.75;" x="638.59795" xlink:href="#m6574c2f295" y="53.957375"/>
     <use style="fill:#98df8a;stroke:#ffffff;stroke-linejoin:miter;stroke-width:0.75;" x="644.697825" xlink:href="#m6574c2f295" y="53.957375"/>
     <use style="fill:#98df8a;stroke:#ffffff;stroke-linejoin:miter;stroke-width:0.75;" x="650.583625" xlink:href="#m6574c2f295" y="53.957375"/>
     <use style="fill:#98df8a;stroke:#ffffff;stroke-linejoin:miter;stroke-width:0.75;" x="656.269867" xlink:href="#m6574c2f295" y="53.957375"/>
     <use style="fill:#98df8a;stroke:#ffffff;stroke-linejoin:miter;stroke-width:0.75;" x="661.769641" xlink:href="#m6574c2f295" y="53.957375"/>
     <use style="fill:#98df8a;stroke:#ffffff;stroke-linejoin:miter;stroke-width:0.75;" x="667.094789" xlink:href="#m6574c2f295" y="53.957375"/>
     <use style="fill:#98df8a;stroke:#ffffff;stroke-linejoin:miter;stroke-width:0.75;" x="672.25606" xlink:href="#m6574c2f295" y="53.957375"/>
     <use style="fill:#98df8a;stroke:#ffffff;stroke-linejoin:miter;stroke-width:0.75;" x="677.26324" xlink:href="#m6574c2f295" y="53.957375"/>
     <use style="fill:#98df8a;stroke:#ffffff;stroke-linejoin:miter;stroke-width:0.75;" x="682.125263" xlink:href="#m6574c2f295" y="53.957375"/>
     <use style="fill:#98df8a;stroke:#ffffff;stroke-linejoin:miter;stroke-width:0.75;" x="686.85031" xlink:href="#m6574c2f295" y="53.957375"/>
     <use style="fill:#98df8a;stroke:#ffffff;stroke-linejoin:miter;stroke-width:0.75;" x="691.445888" xlink:href="#m6574c2f295" y="53.957375"/>
     <use style="fill:#98df8a;stroke:#ffffff;stroke-linejoin:miter;stroke-width:0.75;" x="695.918901" xlink:href="#m6574c2f295" y="53.957375"/>
     <use style="fill:#98df8a;stroke:#ffffff;stroke-linejoin:miter;stroke-width:0.75;" x="700.27572" xlink:href="#m6574c2f295" y="53.957375"/>
     <use style="fill:#98df8a;stroke:#ffffff;stroke-linejoin:miter;stroke-width:0.75;" x="704.522227" xlink:href="#m6574c2f295" y="53.957375"/>
     <use style="fill:#98df8a;stroke:#ffffff;stroke-linejoin:miter;stroke-width:0.75;" x="708.663871" xlink:href="#m6574c2f295" y="53.957375"/>
     <use style="fill:#98df8a;stroke:#ffffff;stroke-linejoin:miter;stroke-width:0.75;" x="712.705707" xlink:href="#m6574c2f295" y="53.957375"/>
     <use style="fill:#98df8a;stroke:#ffffff;stroke-linejoin:miter;stroke-width:0.75;" x="716.652432" xlink:href="#m6574c2f295" y="53.957375"/>
     <use style="fill:#98df8a;stroke:#ffffff;stroke-linejoin:miter;stroke-width:0.75;" x="720.50842" xlink:href="#m6574c2f295" y="53.957375"/>
     <use style="fill:#98df8a;stroke:#ffffff;stroke-linejoin:miter;stroke-width:0.75;" x="724.277749" xlink:href="#m6574c2f295" y="53.957375"/>
     <use style="fill:#98df8a;stroke:#ffffff;stroke-linejoin:miter;stroke-width:0.75;" x="727.964228" xlink:href="#m6574c2f295" y="53.957375"/>
     <use style="fill:#98df8a;stroke:#ffffff;stroke-linejoin:miter;stroke-width:0.75;" x="731.571423" xlink:href="#m6574c2f295" y="53.957375"/>
     <use style="fill:#98df8a;stroke:#ffffff;stroke-linejoin:miter;stroke-width:0.75;" x="735.10267" xlink:href="#m6574c2f295" y="53.957375"/>
    </g>
   </g>
   <g id="line2d_34">
    <path clip-path="url(#paa34f53530)" d="M 85.79358 63.786821 
L 202.053821 59.392481 
L 270.061703 59.1612 
L 318.314063 59.1612 
L 355.741501 59.1612 
L 386.321945 54.651219 
L 412.177342 54.651219 
L 434.574305 54.419938 
L 454.329827 54.419938 
L 472.001743 54.419938 
L 487.987936 54.304297 
L 502.582187 54.304297 
L 516.007596 54.304297 
L 528.437583 54.304297 
L 540.009625 54.188657 
L 550.834547 54.188657 
L 561.002998 54.188657 
L 570.590069 54.188657 
L 579.65866 54.188657 
L 588.261985 54.188657 
L 596.445465 54.188657 
L 604.248178 54.188657 
L 611.703986 54.188657 
L 618.842429 54.188657 
L 625.689423 54.188657 
L 632.267838 54.188657 
L 638.59795 54.188657 
L 644.697825 54.188657 
L 650.583625 54.188657 
L 656.269867 54.188657 
L 661.769641 54.073016 
L 667.094789 54.073016 
L 672.25606 54.073016 
L 677.26324 54.073016 
L 682.125263 54.073016 
L 686.85031 54.073016 
L 691.445888 54.073016 
L 695.918901 54.073016 
L 700.27572 54.073016 
L 704.522227 54.073016 
L 708.663871 54.073016 
L 712.705707 54.073016 
L 716.652432 53.957375 
L 720.50842 53.957375 
L 724.277749 53.957375 
L 727.964228 53.957375 
L 731.571423 53.957375 
L 735.10267 53.957375 
" style="fill:none;stroke:#c7c7c7;stroke-linecap:square;stroke-width:1.5;"/>
    <defs>
     <path d="M -3 -0 
L 3 3 
L 3 -3 
z
" id="m9bc6a03d61" style="stroke:#ffffff;stroke-linejoin:miter;stroke-width:0.75;"/>
    </defs>
    <g clip-path="url(#paa34f53530)">
     <use style="fill:#c7c7c7;stroke:#ffffff;stroke-linejoin:miter;stroke-width:0.75;" x="85.79358" xlink:href="#m9bc6a03d61" y="63.786821"/>
     <use style="fill:#c7c7c7;stroke:#ffffff;stroke-linejoin:miter;stroke-width:0.75;" x="202.053821" xlink:href="#m9bc6a03d61" y="59.392481"/>
     <use style="fill:#c7c7c7;stroke:#ffffff;stroke-linejoin:miter;stroke-width:0.75;" x="270.061703" xlink:href="#m9bc6a03d61" y="59.1612"/>
     <use style="fill:#c7c7c7;stroke:#ffffff;stroke-linejoin:miter;stroke-width:0.75;" x="318.314063" xlink:href="#m9bc6a03d61" y="59.1612"/>
     <use style="fill:#c7c7c7;stroke:#ffffff;stroke-linejoin:miter;stroke-width:0.75;" x="355.741501" xlink:href="#m9bc6a03d61" y="59.1612"/>
     <use style="fill:#c7c7c7;stroke:#ffffff;stroke-linejoin:miter;stroke-width:0.75;" x="386.321945" xlink:href="#m9bc6a03d61" y="54.651219"/>
     <use style="fill:#c7c7c7;stroke:#ffffff;stroke-linejoin:miter;stroke-width:0.75;" x="412.177342" xlink:href="#m9bc6a03d61" y="54.651219"/>
     <use style="fill:#c7c7c7;stroke:#ffffff;stroke-linejoin:miter;stroke-width:0.75;" x="434.574305" xlink:href="#m9bc6a03d61" y="54.419938"/>
     <use style="fill:#c7c7c7;stroke:#ffffff;stroke-linejoin:miter;stroke-width:0.75;" x="454.329827" xlink:href="#m9bc6a03d61" y="54.419938"/>
     <use style="fill:#c7c7c7;stroke:#ffffff;stroke-linejoin:miter;stroke-width:0.75;" x="472.001743" xlink:href="#m9bc6a03d61" y="54.419938"/>
     <use style="fill:#c7c7c7;stroke:#ffffff;stroke-linejoin:miter;stroke-width:0.75;" x="487.987936" xlink:href="#m9bc6a03d61" y="54.304297"/>
     <use style="fill:#c7c7c7;stroke:#ffffff;stroke-linejoin:miter;stroke-width:0.75;" x="502.582187" xlink:href="#m9bc6a03d61" y="54.304297"/>
     <use style="fill:#c7c7c7;stroke:#ffffff;stroke-linejoin:miter;stroke-width:0.75;" x="516.007596" xlink:href="#m9bc6a03d61" y="54.304297"/>
     <use style="fill:#c7c7c7;stroke:#ffffff;stroke-linejoin:miter;stroke-width:0.75;" x="528.437583" xlink:href="#m9bc6a03d61" y="54.304297"/>
     <use style="fill:#c7c7c7;stroke:#ffffff;stroke-linejoin:miter;stroke-width:0.75;" x="540.009625" xlink:href="#m9bc6a03d61" y="54.188657"/>
     <use style="fill:#c7c7c7;stroke:#ffffff;stroke-linejoin:miter;stroke-width:0.75;" x="550.834547" xlink:href="#m9bc6a03d61" y="54.188657"/>
     <use style="fill:#c7c7c7;stroke:#ffffff;stroke-linejoin:miter;stroke-width:0.75;" x="561.002998" xlink:href="#m9bc6a03d61" y="54.188657"/>
     <use style="fill:#c7c7c7;stroke:#ffffff;stroke-linejoin:miter;stroke-width:0.75;" x="570.590069" xlink:href="#m9bc6a03d61" y="54.188657"/>
     <use style="fill:#c7c7c7;stroke:#ffffff;stroke-linejoin:miter;stroke-width:0.75;" x="579.65866" xlink:href="#m9bc6a03d61" y="54.188657"/>
     <use style="fill:#c7c7c7;stroke:#ffffff;stroke-linejoin:miter;stroke-width:0.75;" x="588.261985" xlink:href="#m9bc6a03d61" y="54.188657"/>
     <use style="fill:#c7c7c7;stroke:#ffffff;stroke-linejoin:miter;stroke-width:0.75;" x="596.445465" xlink:href="#m9bc6a03d61" y="54.188657"/>
     <use style="fill:#c7c7c7;stroke:#ffffff;stroke-linejoin:miter;stroke-width:0.75;" x="604.248178" xlink:href="#m9bc6a03d61" y="54.188657"/>
     <use style="fill:#c7c7c7;stroke:#ffffff;stroke-linejoin:miter;stroke-width:0.75;" x="611.703986" xlink:href="#m9bc6a03d61" y="54.188657"/>
     <use style="fill:#c7c7c7;stroke:#ffffff;stroke-linejoin:miter;stroke-width:0.75;" x="618.842429" xlink:href="#m9bc6a03d61" y="54.188657"/>
     <use style="fill:#c7c7c7;stroke:#ffffff;stroke-linejoin:miter;stroke-width:0.75;" x="625.689423" xlink:href="#m9bc6a03d61" y="54.188657"/>
     <use style="fill:#c7c7c7;stroke:#ffffff;stroke-linejoin:miter;stroke-width:0.75;" x="632.267838" xlink:href="#m9bc6a03d61" y="54.188657"/>
     <use style="fill:#c7c7c7;stroke:#ffffff;stroke-linejoin:miter;stroke-width:0.75;" x="638.59795" xlink:href="#m9bc6a03d61" y="54.188657"/>
     <use style="fill:#c7c7c7;stroke:#ffffff;stroke-linejoin:miter;stroke-width:0.75;" x="644.697825" xlink:href="#m9bc6a03d61" y="54.188657"/>
     <use style="fill:#c7c7c7;stroke:#ffffff;stroke-linejoin:miter;stroke-width:0.75;" x="650.583625" xlink:href="#m9bc6a03d61" y="54.188657"/>
     <use style="fill:#c7c7c7;stroke:#ffffff;stroke-linejoin:miter;stroke-width:0.75;" x="656.269867" xlink:href="#m9bc6a03d61" y="54.188657"/>
     <use style="fill:#c7c7c7;stroke:#ffffff;stroke-linejoin:miter;stroke-width:0.75;" x="661.769641" xlink:href="#m9bc6a03d61" y="54.073016"/>
     <use style="fill:#c7c7c7;stroke:#ffffff;stroke-linejoin:miter;stroke-width:0.75;" x="667.094789" xlink:href="#m9bc6a03d61" y="54.073016"/>
     <use style="fill:#c7c7c7;stroke:#ffffff;stroke-linejoin:miter;stroke-width:0.75;" x="672.25606" xlink:href="#m9bc6a03d61" y="54.073016"/>
     <use style="fill:#c7c7c7;stroke:#ffffff;stroke-linejoin:miter;stroke-width:0.75;" x="677.26324" xlink:href="#m9bc6a03d61" y="54.073016"/>
     <use style="fill:#c7c7c7;stroke:#ffffff;stroke-linejoin:miter;stroke-width:0.75;" x="682.125263" xlink:href="#m9bc6a03d61" y="54.073016"/>
     <use style="fill:#c7c7c7;stroke:#ffffff;stroke-linejoin:miter;stroke-width:0.75;" x="686.85031" xlink:href="#m9bc6a03d61" y="54.073016"/>
     <use style="fill:#c7c7c7;stroke:#ffffff;stroke-linejoin:miter;stroke-width:0.75;" x="691.445888" xlink:href="#m9bc6a03d61" y="54.073016"/>
     <use style="fill:#c7c7c7;stroke:#ffffff;stroke-linejoin:miter;stroke-width:0.75;" x="695.918901" xlink:href="#m9bc6a03d61" y="54.073016"/>
     <use style="fill:#c7c7c7;stroke:#ffffff;stroke-linejoin:miter;stroke-width:0.75;" x="700.27572" xlink:href="#m9bc6a03d61" y="54.073016"/>
     <use style="fill:#c7c7c7;stroke:#ffffff;stroke-linejoin:miter;stroke-width:0.75;" x="704.522227" xlink:href="#m9bc6a03d61" y="54.073016"/>
     <use style="fill:#c7c7c7;stroke:#ffffff;stroke-linejoin:miter;stroke-width:0.75;" x="708.663871" xlink:href="#m9bc6a03d61" y="54.073016"/>
     <use style="fill:#c7c7c7;stroke:#ffffff;stroke-linejoin:miter;stroke-width:0.75;" x="712.705707" xlink:href="#m9bc6a03d61" y="54.073016"/>
     <use style="fill:#c7c7c7;stroke:#ffffff;stroke-linejoin:miter;stroke-width:0.75;" x="716.652432" xlink:href="#m9bc6a03d61" y="53.957375"/>
     <use style="fill:#c7c7c7;stroke:#ffffff;stroke-linejoin:miter;stroke-width:0.75;" x="720.50842" xlink:href="#m9bc6a03d61" y="53.957375"/>
     <use style="fill:#c7c7c7;stroke:#ffffff;stroke-linejoin:miter;stroke-width:0.75;" x="724.277749" xlink:href="#m9bc6a03d61" y="53.957375"/>
     <use style="fill:#c7c7c7;stroke:#ffffff;stroke-linejoin:miter;stroke-width:0.75;" x="727.964228" xlink:href="#m9bc6a03d61" y="53.957375"/>
     <use style="fill:#c7c7c7;stroke:#ffffff;stroke-linejoin:miter;stroke-width:0.75;" x="731.571423" xlink:href="#m9bc6a03d61" y="53.957375"/>
     <use style="fill:#c7c7c7;stroke:#ffffff;stroke-linejoin:miter;stroke-width:0.75;" x="735.10267" xlink:href="#m9bc6a03d61" y="53.957375"/>
    </g>
   </g>
   <g id="line2d_35"/>
   <g id="line2d_36"/>
   <g id="line2d_37"/>
   <g id="line2d_38"/>
   <g id="line2d_39">
    <path clip-path="url(#paa34f53530)" d="M 735.10267 288.430125 
L 735.10267 22.318125 
" style="fill:none;stroke:#ff0000;stroke-linecap:square;stroke-width:1.5;"/>
   </g>
   <g id="patch_3">
    <path d="M 53.328125 278.531295 
L 53.328125 47.250224 
" style="fill:none;stroke:#000000;stroke-linecap:square;stroke-linejoin:miter;stroke-width:0.8;"/>
   </g>
   <g id="patch_4">
    <path d="M 85.79358 288.430125 
L 735.106553 288.430125 
" style="fill:none;stroke:#000000;stroke-linecap:square;stroke-linejoin:miter;stroke-width:0.8;"/>
   </g>
   <g id="text_20">
    <!-- libpng-1.2.56 (12h, 3 trials/fuzzer) -->
    <g transform="translate(307.724375 16.318125)scale(0.12 -0.12)">
     <defs>
      <path d="M 603 4863 
L 1178 4863 
L 1178 0 
L 603 0 
L 603 4863 
z
" id="DejaVuSans-6c" transform="scale(0.015625)"/>
      <path d="M 3116 1747 
Q 3116 2381 2855 2742 
Q 2594 3103 2138 3103 
Q 1681 3103 1420 2742 
Q 1159 2381 1159 1747 
Q 1159 1113 1420 752 
Q 1681 391 2138 391 
Q 2594 391 2855 752 
Q 3116 1113 3116 1747 
z
M 1159 2969 
Q 1341 3281 1617 3432 
Q 1894 3584 2278 3584 
Q 2916 3584 3314 3078 
Q 3713 2572 3713 1747 
Q 3713 922 3314 415 
Q 2916 -91 2278 -91 
Q 1894 -91 1617 61 
Q 1341 213 1159 525 
L 1159 0 
L 581 0 
L 581 4863 
L 1159 4863 
L 1159 2969 
z
" id="DejaVuSans-62" transform="scale(0.015625)"/>
      <path d="M 1159 525 
L 1159 -1331 
L 581 -1331 
L 581 3500 
L 1159 3500 
L 1159 2969 
Q 1341 3281 1617 3432 
Q 1894 3584 2278 3584 
Q 2916 3584 3314 3078 
Q 3713 2572 3713 1747 
Q 3713 922 3314 415 
Q 2916 -91 2278 -91 
Q 1894 -91 1617 61 
Q 1341 213 1159 525 
z
M 3116 1747 
Q 3116 2381 2855 2742 
Q 2594 3103 2138 3103 
Q 1681 3103 1420 2742 
Q 1159 2381 1159 1747 
Q 1159 1113 1420 752 
Q 1681 391 2138 391 
Q 2594 391 2855 752 
Q 3116 1113 3116 1747 
z
" id="DejaVuSans-70" transform="scale(0.015625)"/>
      <path d="M 313 2009 
L 1997 2009 
L 1997 1497 
L 313 1497 
L 313 2009 
z
" id="DejaVuSans-2d" transform="scale(0.015625)"/>
      <path d="M 684 794 
L 1344 794 
L 1344 0 
L 684 0 
L 684 794 
z
" id="DejaVuSans-2e" transform="scale(0.015625)"/>
      <path d="M 750 794 
L 1409 794 
L 1409 256 
L 897 -744 
L 494 -744 
L 750 256 
L 750 794 
z
" id="DejaVuSans-2c" transform="scale(0.015625)"/>
      <path d="M 2834 3397 
L 2834 2853 
Q 2591 2978 2328 3040 
Q 2066 3103 1784 3103 
Q 1356 3103 1142 2972 
Q 928 2841 928 2578 
Q 928 2378 1081 2264 
Q 1234 2150 1697 2047 
L 1894 2003 
Q 2506 1872 2764 1633 
Q 3022 1394 3022 966 
Q 3022 478 2636 193 
Q 2250 -91 1575 -91 
Q 1294 -91 989 -36 
Q 684 19 347 128 
L 347 722 
Q 666 556 975 473 
Q 1284 391 1588 391 
Q 1994 391 2212 530 
Q 2431 669 2431 922 
Q 2431 1156 2273 1281 
Q 2116 1406 1581 1522 
L 1381 1569 
Q 847 1681 609 1914 
Q 372 2147 372 2553 
Q 372 3047 722 3315 
Q 1072 3584 1716 3584 
Q 2034 3584 2315 3537 
Q 2597 3491 2834 3397 
z
" id="DejaVuSans-73" transform="scale(0.015625)"/>
      <path d="M 1625 4666 
L 2156 4666 
L 531 -594 
L 0 -594 
L 1625 4666 
z
" id="DejaVuSans-2f" transform="scale(0.015625)"/>
      <path d="M 2375 4863 
L 2375 4384 
L 1825 4384 
Q 1516 4384 1395 4259 
Q 1275 4134 1275 3809 
L 1275 3500 
L 2222 3500 
L 2222 3053 
L 1275 3053 
L 1275 0 
L 697 0 
L 697 3053 
L 147 3053 
L 147 3500 
L 697 3500 
L 697 3744 
Q 697 4328 969 4595 
Q 1241 4863 1831 4863 
L 2375 4863 
z
" id="DejaVuSans-66" transform="scale(0.015625)"/>
      <path d="M 353 3500 
L 3084 3500 
L 3084 2975 
L 922 459 
L 3084 459 
L 3084 0 
L 275 0 
L 275 525 
L 2438 3041 
L 353 3041 
L 353 3500 
z
" id="DejaVuSans-7a" transform="scale(0.015625)"/>
     </defs>
     <use xlink:href="#DejaVuSans-6c"/>
     <use x="27.783203" xlink:href="#DejaVuSans-69"/>
     <use x="55.566406" xlink:href="#DejaVuSans-62"/>
     <use x="119.042969" xlink:href="#DejaVuSans-70"/>
     <use x="182.519531" xlink:href="#DejaVuSans-6e"/>
     <use x="245.898438" xlink:href="#DejaVuSans-67"/>
     <use x="309.375" xlink:href="#DejaVuSans-2d"/>
     <use x="345.458984" xlink:href="#DejaVuSans-31"/>
     <use x="409.082031" xlink:href="#DejaVuSans-2e"/>
     <use x="440.869141" xlink:href="#DejaVuSans-32"/>
     <use x="504.492188" xlink:href="#DejaVuSans-2e"/>
     <use x="536.279297" xlink:href="#DejaVuSans-35"/>
     <use x="599.902344" xlink:href="#DejaVuSans-36"/>
     <use x="663.525391" xlink:href="#DejaVuSans-20"/>
     <use x="695.3125" xlink:href="#DejaVuSans-28"/>
     <use x="734.326172" xlink:href="#DejaVuSans-31"/>
     <use x="797.949219" xlink:href="#DejaVuSans-32"/>
     <use x="861.572266" xlink:href="#DejaVuSans-68"/>
     <use x="924.951172" xlink:href="#DejaVuSans-2c"/>
     <use x="956.738281" xlink:href="#DejaVuSans-20"/>
     <use x="988.525391" xlink:href="#DejaVuSans-33"/>
     <use x="1052.148438" xlink:href="#DejaVuSans-20"/>
     <use x="1083.935547" xlink:href="#DejaVuSans-74"/>
     <use x="1123.144531" xlink:href="#DejaVuSans-72"/>
     <use x="1164.257812" xlink:href="#DejaVuSans-69"/>
     <use x="1192.041016" xlink:href="#DejaVuSans-61"/>
     <use x="1253.320312" xlink:href="#DejaVuSans-6c"/>
     <use x="1281.103516" xlink:href="#DejaVuSans-73"/>
     <use x="1333.203125" xlink:href="#DejaVuSans-2f"/>
     <use x="1366.894531" xlink:href="#DejaVuSans-66"/>
     <use x="1402.099609" xlink:href="#DejaVuSans-75"/>
     <use x="1465.478516" xlink:href="#DejaVuSans-7a"/>
     <use x="1517.96875" xlink:href="#DejaVuSans-7a"/>
     <use x="1570.458984" xlink:href="#DejaVuSans-65"/>
     <use x="1631.982422" xlink:href="#DejaVuSans-72"/>
     <use x="1673.095703" xlink:href="#DejaVuSans-29"/>
    </g>
   </g>
   <g id="legend_1">
    <g id="line2d_40">
     <path d="M 771.568125 30.416562 
L 791.568125 30.416562 
" style="fill:none;stroke:#d62728;stroke-linecap:square;stroke-width:1.5;"/>
    </g>
    <g id="line2d_41">
     <defs>
      <path d="M 0 -3 
L -3 3 
L 3 3 
z
" id="m756265ad9c" style="stroke:#d62728;stroke-linejoin:miter;"/>
     </defs>
     <g>
      <use style="fill:#d62728;stroke:#d62728;stroke-linejoin:miter;" x="781.568125" xlink:href="#m756265ad9c" y="30.416562"/>
     </g>
    </g>
    <g id="text_21">
     <!-- aflplusplus -->
     <g transform="translate(799.568125 33.916562)scale(0.1 -0.1)">
      <use xlink:href="#DejaVuSans-61"/>
      <use x="61.279297" xlink:href="#DejaVuSans-66"/>
      <use x="96.484375" xlink:href="#DejaVuSans-6c"/>
      <use x="124.267578" xlink:href="#DejaVuSans-70"/>
      <use x="187.744141" xlink:href="#DejaVuSans-6c"/>
      <use x="215.527344" xlink:href="#DejaVuSans-75"/>
      <use x="278.90625" xlink:href="#DejaVuSans-73"/>
      <use x="331.005859" xlink:href="#DejaVuSans-70"/>
      <use x="394.482422" xlink:href="#DejaVuSans-6c"/>
      <use x="422.265625" xlink:href="#DejaVuSans-75"/>
      <use x="485.644531" xlink:href="#DejaVuSans-73"/>
     </g>
    </g>
    <g id="line2d_42">
     <path d="M 771.568125 45.094688 
L 791.568125 45.094688 
" style="fill:none;stroke:#1f77b4;stroke-linecap:square;stroke-width:1.5;"/>
    </g>
    <g id="line2d_43">
     <defs>
      <path d="M 0 3 
C 0.795609 3 1.55874 2.683901 2.12132 2.12132 
C 2.683901 1.55874 3 0.795609 3 0 
C 3 -0.795609 2.683901 -1.55874 2.12132 -2.12132 
C 1.55874 -2.683901 0.795609 -3 0 -3 
C -0.795609 -3 -1.55874 -2.683901 -2.12132 -2.12132 
C -2.683901 -1.55874 -3 -0.795609 -3 0 
C -3 0.795609 -2.683901 1.55874 -2.12132 2.12132 
C -1.55874 2.683901 -0.795609 3 0 3 
z
" id="m00f9bb0b5b" style="stroke:#1f77b4;"/>
     </defs>
     <g>
      <use style="fill:#1f77b4;stroke:#1f77b4;" x="781.568125" xlink:href="#m00f9bb0b5b" y="45.094688"/>
     </g>
    </g>
    <g id="text_22">
     <!-- afl -->
     <g transform="translate(799.568125 48.594688)scale(0.1 -0.1)">
      <use xlink:href="#DejaVuSans-61"/>
      <use x="61.279297" xlink:href="#DejaVuSans-66"/>
      <use x="96.484375" xlink:href="#DejaVuSans-6c"/>
     </g>
    </g>
    <g id="line2d_44">
     <path d="M 771.568125 59.772812 
L 791.568125 59.772812 
" style="fill:none;stroke:#98df8a;stroke-linecap:square;stroke-width:1.5;"/>
    </g>
    <g id="line2d_45">
     <defs>
      <path d="M -0 3 
L 3 -3 
L -3 -3 
z
" id="m291394b80e" style="stroke:#98df8a;stroke-linejoin:miter;"/>
     </defs>
     <g>
      <use style="fill:#98df8a;stroke:#98df8a;stroke-linejoin:miter;" x="781.568125" xlink:href="#m291394b80e" y="59.772812"/>
     </g>
    </g>
    <g id="text_23">
     <!-- aflfast -->
     <g transform="translate(799.568125 63.272812)scale(0.1 -0.1)">
      <use xlink:href="#DejaVuSans-61"/>
      <use x="61.279297" xlink:href="#DejaVuSans-66"/>
      <use x="96.484375" xlink:href="#DejaVuSans-6c"/>
      <use x="124.267578" xlink:href="#DejaVuSans-66"/>
      <use x="159.472656" xlink:href="#DejaVuSans-61"/>
      <use x="220.751953" xlink:href="#DejaVuSans-73"/>
      <use x="272.851562" xlink:href="#DejaVuSans-74"/>
     </g>
    </g>
    <g id="line2d_46">
     <path d="M 771.568125 74.450938 
L 791.568125 74.450938 
" style="fill:none;stroke:#c7c7c7;stroke-linecap:square;stroke-width:1.5;"/>
    </g>
    <g id="line2d_47">
     <defs>
      <path d="M -3 -0 
L 3 3 
L 3 -3 
z
" id="mab71f76a0b" style="stroke:#c7c7c7;stroke-linejoin:miter;"/>
     </defs>
     <g>
      <use style="fill:#c7c7c7;stroke:#c7c7c7;stroke-linejoin:miter;" x="781.568125" xlink:href="#mab71f76a0b" y="74.450938"/>
     </g>
    </g>
    <g id="text_24">
     <!-- waffle -->
     <g transform="translate(799.568125 77.950938)scale(0.1 -0.1)">
      <defs>
       <path d="M 269 3500 
L 844 3500 
L 1563 769 
L 2278 3500 
L 2956 3500 
L 3675 769 
L 4391 3500 
L 4966 3500 
L 4050 0 
L 3372 0 
L 2619 2869 
L 1863 0 
L 1184 0 
L 269 3500 
z
" id="DejaVuSans-77" transform="scale(0.015625)"/>
      </defs>
      <use xlink:href="#DejaVuSans-77"/>
      <use x="81.787109" xlink:href="#DejaVuSans-61"/>
      <use x="143.066406" xlink:href="#DejaVuSans-66"/>
      <use x="178.271484" xlink:href="#DejaVuSans-66"/>
      <use x="213.476562" xlink:href="#DejaVuSans-6c"/>
      <use x="241.259766" xlink:href="#DejaVuSans-65"/>
     </g>
    </g>
   </g>
  </g>
 </g>
 <defs>
  <clipPath id="paa34f53530">
   <rect height="266.112" width="714.24" x="53.328125" y="22.318125"/>
  </clipPath>
 </defs>
</svg>
